G75*
G70*
%OFA0B0*%
%FSLAX24Y24*%
%IPPOS*%
%LPD*%
%AMOC8*
5,1,8,0,0,1.08239X$1,22.5*
%
%ADD10C,0.0000*%
%ADD11R,0.0157X0.0787*%
%ADD12OC8,0.0630*%
%ADD13OC8,0.0850*%
%ADD14C,0.0520*%
%ADD15C,0.0740*%
%ADD16R,0.0740X0.0740*%
%ADD17OC8,0.0520*%
%ADD18C,0.0100*%
%ADD19R,0.0240X0.0240*%
%ADD20C,0.0160*%
%ADD21R,0.0317X0.0317*%
%ADD22R,0.0356X0.0356*%
D10*
X000736Y000100D02*
X000736Y019663D01*
X020252Y019663D01*
X020250Y019628D02*
X020250Y000128D01*
X000750Y000128D01*
X000750Y019628D01*
X020250Y019628D01*
X016477Y019071D02*
X016479Y019104D01*
X016485Y019136D01*
X016494Y019167D01*
X016507Y019197D01*
X016524Y019225D01*
X016544Y019251D01*
X016567Y019275D01*
X016592Y019295D01*
X016620Y019313D01*
X016649Y019327D01*
X016680Y019337D01*
X016712Y019344D01*
X016745Y019347D01*
X016778Y019346D01*
X016810Y019341D01*
X016841Y019332D01*
X016872Y019320D01*
X016900Y019304D01*
X016927Y019285D01*
X016951Y019263D01*
X016972Y019238D01*
X016991Y019211D01*
X017006Y019182D01*
X017017Y019152D01*
X017025Y019120D01*
X017029Y019087D01*
X017029Y019055D01*
X017025Y019022D01*
X017017Y018990D01*
X017006Y018960D01*
X016991Y018931D01*
X016972Y018904D01*
X016951Y018879D01*
X016927Y018857D01*
X016900Y018838D01*
X016872Y018822D01*
X016841Y018810D01*
X016810Y018801D01*
X016778Y018796D01*
X016745Y018795D01*
X016712Y018798D01*
X016680Y018805D01*
X016649Y018815D01*
X016620Y018829D01*
X016592Y018847D01*
X016567Y018867D01*
X016544Y018891D01*
X016524Y018917D01*
X016507Y018945D01*
X016494Y018975D01*
X016485Y019006D01*
X016479Y019038D01*
X016477Y019071D01*
X011871Y010489D02*
X011873Y010516D01*
X011879Y010543D01*
X011888Y010569D01*
X011901Y010593D01*
X011917Y010616D01*
X011936Y010635D01*
X011958Y010652D01*
X011982Y010666D01*
X012007Y010676D01*
X012034Y010683D01*
X012061Y010686D01*
X012089Y010685D01*
X012116Y010680D01*
X012142Y010672D01*
X012166Y010660D01*
X012189Y010644D01*
X012210Y010626D01*
X012227Y010605D01*
X012242Y010581D01*
X012253Y010556D01*
X012261Y010530D01*
X012265Y010503D01*
X012265Y010475D01*
X012261Y010448D01*
X012253Y010422D01*
X012242Y010397D01*
X012227Y010373D01*
X012210Y010352D01*
X012189Y010334D01*
X012167Y010318D01*
X012142Y010306D01*
X012116Y010298D01*
X012089Y010293D01*
X012061Y010292D01*
X012034Y010295D01*
X012007Y010302D01*
X011982Y010312D01*
X011958Y010326D01*
X011936Y010343D01*
X011917Y010362D01*
X011901Y010385D01*
X011888Y010409D01*
X011879Y010435D01*
X011873Y010462D01*
X011871Y010489D01*
X008643Y010489D02*
X008645Y010516D01*
X008651Y010543D01*
X008660Y010569D01*
X008673Y010593D01*
X008689Y010616D01*
X008708Y010635D01*
X008730Y010652D01*
X008754Y010666D01*
X008779Y010676D01*
X008806Y010683D01*
X008833Y010686D01*
X008861Y010685D01*
X008888Y010680D01*
X008914Y010672D01*
X008938Y010660D01*
X008961Y010644D01*
X008982Y010626D01*
X008999Y010605D01*
X009014Y010581D01*
X009025Y010556D01*
X009033Y010530D01*
X009037Y010503D01*
X009037Y010475D01*
X009033Y010448D01*
X009025Y010422D01*
X009014Y010397D01*
X008999Y010373D01*
X008982Y010352D01*
X008961Y010334D01*
X008939Y010318D01*
X008914Y010306D01*
X008888Y010298D01*
X008861Y010293D01*
X008833Y010292D01*
X008806Y010295D01*
X008779Y010302D01*
X008754Y010312D01*
X008730Y010326D01*
X008708Y010343D01*
X008689Y010362D01*
X008673Y010385D01*
X008660Y010409D01*
X008651Y010435D01*
X008645Y010462D01*
X008643Y010489D01*
X003879Y008245D02*
X003881Y008278D01*
X003887Y008310D01*
X003896Y008341D01*
X003909Y008371D01*
X003926Y008399D01*
X003946Y008425D01*
X003969Y008449D01*
X003994Y008469D01*
X004022Y008487D01*
X004051Y008501D01*
X004082Y008511D01*
X004114Y008518D01*
X004147Y008521D01*
X004180Y008520D01*
X004212Y008515D01*
X004243Y008506D01*
X004274Y008494D01*
X004302Y008478D01*
X004329Y008459D01*
X004353Y008437D01*
X004374Y008412D01*
X004393Y008385D01*
X004408Y008356D01*
X004419Y008326D01*
X004427Y008294D01*
X004431Y008261D01*
X004431Y008229D01*
X004427Y008196D01*
X004419Y008164D01*
X004408Y008134D01*
X004393Y008105D01*
X004374Y008078D01*
X004353Y008053D01*
X004329Y008031D01*
X004302Y008012D01*
X004274Y007996D01*
X004243Y007984D01*
X004212Y007975D01*
X004180Y007970D01*
X004147Y007969D01*
X004114Y007972D01*
X004082Y007979D01*
X004051Y007989D01*
X004022Y008003D01*
X003994Y008021D01*
X003969Y008041D01*
X003946Y008065D01*
X003926Y008091D01*
X003909Y008119D01*
X003896Y008149D01*
X003887Y008180D01*
X003881Y008212D01*
X003879Y008245D01*
X000736Y000100D02*
X020252Y000100D01*
X016477Y008284D02*
X016479Y008317D01*
X016485Y008349D01*
X016494Y008380D01*
X016507Y008410D01*
X016524Y008438D01*
X016544Y008464D01*
X016567Y008488D01*
X016592Y008508D01*
X016620Y008526D01*
X016649Y008540D01*
X016680Y008550D01*
X016712Y008557D01*
X016745Y008560D01*
X016778Y008559D01*
X016810Y008554D01*
X016841Y008545D01*
X016872Y008533D01*
X016900Y008517D01*
X016927Y008498D01*
X016951Y008476D01*
X016972Y008451D01*
X016991Y008424D01*
X017006Y008395D01*
X017017Y008365D01*
X017025Y008333D01*
X017029Y008300D01*
X017029Y008268D01*
X017025Y008235D01*
X017017Y008203D01*
X017006Y008173D01*
X016991Y008144D01*
X016972Y008117D01*
X016951Y008092D01*
X016927Y008070D01*
X016900Y008051D01*
X016872Y008035D01*
X016841Y008023D01*
X016810Y008014D01*
X016778Y008009D01*
X016745Y008008D01*
X016712Y008011D01*
X016680Y008018D01*
X016649Y008028D01*
X016620Y008042D01*
X016592Y008060D01*
X016567Y008080D01*
X016544Y008104D01*
X016524Y008130D01*
X016507Y008158D01*
X016494Y008188D01*
X016485Y008219D01*
X016479Y008251D01*
X016477Y008284D01*
X003879Y019111D02*
X003881Y019144D01*
X003887Y019176D01*
X003896Y019207D01*
X003909Y019237D01*
X003926Y019265D01*
X003946Y019291D01*
X003969Y019315D01*
X003994Y019335D01*
X004022Y019353D01*
X004051Y019367D01*
X004082Y019377D01*
X004114Y019384D01*
X004147Y019387D01*
X004180Y019386D01*
X004212Y019381D01*
X004243Y019372D01*
X004274Y019360D01*
X004302Y019344D01*
X004329Y019325D01*
X004353Y019303D01*
X004374Y019278D01*
X004393Y019251D01*
X004408Y019222D01*
X004419Y019192D01*
X004427Y019160D01*
X004431Y019127D01*
X004431Y019095D01*
X004427Y019062D01*
X004419Y019030D01*
X004408Y019000D01*
X004393Y018971D01*
X004374Y018944D01*
X004353Y018919D01*
X004329Y018897D01*
X004302Y018878D01*
X004274Y018862D01*
X004243Y018850D01*
X004212Y018841D01*
X004180Y018836D01*
X004147Y018835D01*
X004114Y018838D01*
X004082Y018845D01*
X004051Y018855D01*
X004022Y018869D01*
X003994Y018887D01*
X003969Y018907D01*
X003946Y018931D01*
X003926Y018957D01*
X003909Y018985D01*
X003896Y019015D01*
X003887Y019046D01*
X003881Y019078D01*
X003879Y019111D01*
D11*
X008721Y011631D03*
X009036Y011631D03*
X009351Y011631D03*
X009666Y011631D03*
X009981Y011631D03*
X010296Y011631D03*
X010611Y011631D03*
X010926Y011631D03*
X011241Y011631D03*
X011556Y011631D03*
X011871Y011631D03*
X012186Y011631D03*
D12*
X019500Y012128D03*
X019500Y013128D03*
X019500Y014128D03*
X019500Y011128D03*
X019500Y010128D03*
X019500Y009128D03*
X019500Y008128D03*
X019500Y007128D03*
X019500Y006128D03*
X019500Y005128D03*
X001500Y005128D03*
X001500Y006128D03*
X001500Y007128D03*
X001500Y008128D03*
X001500Y009128D03*
X001500Y010128D03*
X001500Y011128D03*
X001500Y012128D03*
X001500Y013128D03*
X001500Y014128D03*
D13*
X001500Y015193D03*
X018250Y007943D03*
X019500Y015193D03*
D14*
X014998Y007203D02*
X014998Y006683D01*
X013998Y006683D02*
X013998Y007203D01*
X012998Y007203D02*
X012998Y006683D01*
X011998Y006683D02*
X011998Y007203D01*
X010998Y007203D02*
X010998Y006683D01*
X009998Y006683D02*
X009998Y007203D01*
X008998Y007203D02*
X008998Y006683D01*
X007998Y006683D02*
X007998Y007203D01*
X006998Y007203D02*
X006998Y006683D01*
X005998Y006683D02*
X005998Y007203D01*
X005998Y004203D02*
X005998Y003683D01*
X006998Y003683D02*
X006998Y004203D01*
X007998Y004203D02*
X007998Y003683D01*
X008998Y003683D02*
X008998Y004203D01*
X009998Y004203D02*
X009998Y003683D01*
X010998Y003683D02*
X010998Y004203D01*
X011998Y004203D02*
X011998Y003683D01*
X012998Y003683D02*
X012998Y004203D01*
X013998Y004203D02*
X013998Y003683D01*
X014998Y003683D02*
X014998Y004203D01*
D15*
X014720Y002833D03*
X013780Y002833D03*
X013780Y001053D03*
X014720Y001053D03*
X017280Y001053D03*
X017280Y002833D03*
X017500Y003943D03*
X016500Y003943D03*
X018500Y003943D03*
X011220Y002833D03*
X010280Y002833D03*
X010280Y001053D03*
X011220Y001053D03*
X007720Y001053D03*
X006780Y001053D03*
X006780Y002833D03*
X007720Y002833D03*
X004220Y002833D03*
X003000Y002443D03*
X003000Y003443D03*
X002000Y003443D03*
X002000Y002443D03*
X002000Y001443D03*
X003000Y001443D03*
X004220Y001053D03*
X003140Y016413D03*
X001360Y016413D03*
X001360Y018973D03*
X003140Y018973D03*
X019500Y018943D03*
X019500Y017943D03*
X019500Y016943D03*
D16*
X019500Y003943D03*
D17*
X002375Y015193D03*
X002375Y019193D03*
D18*
X003000Y018833D02*
X003000Y016443D01*
X003110Y016443D01*
X003140Y016413D01*
X003000Y015443D02*
X004000Y014443D01*
X007500Y014443D01*
X008000Y013943D02*
X005500Y013943D01*
X001500Y013943D01*
X001500Y014128D01*
X001500Y013128D02*
X001685Y012943D01*
X006500Y012943D01*
X007500Y012943D02*
X008721Y011721D01*
X008721Y011631D01*
X009036Y011631D02*
X009036Y012906D01*
X008000Y013943D01*
X012500Y013943D01*
X011500Y013443D02*
X013500Y013443D01*
X012500Y012443D02*
X016500Y012443D01*
X017875Y012943D02*
X018125Y012693D01*
X018112Y012693D01*
X017875Y012943D02*
X012000Y012943D01*
X011871Y012814D01*
X011871Y011631D01*
X012186Y011631D02*
X012186Y012129D01*
X012500Y012443D01*
X011556Y011631D02*
X011556Y010499D01*
X011500Y010443D01*
X010500Y010443D01*
X011000Y010943D02*
X010926Y011016D01*
X010926Y011631D01*
X010611Y011631D02*
X010611Y012554D01*
X011500Y013443D01*
X010500Y013443D02*
X010296Y013239D01*
X010296Y011631D01*
X009981Y011631D02*
X009981Y013424D01*
X010000Y013443D01*
X009666Y013276D02*
X009500Y013443D01*
X009666Y013276D02*
X009666Y011631D01*
X009351Y011631D02*
X009351Y013091D01*
X009000Y013443D01*
X007500Y011943D02*
X001685Y011943D01*
X001500Y012128D01*
X001500Y011128D02*
X001685Y010943D01*
X003500Y010943D01*
X008000Y010943D01*
X008500Y009943D01*
X008000Y009943D02*
X007500Y009943D01*
X007000Y010443D01*
X006500Y009943D02*
X003000Y009943D01*
X001685Y009943D01*
X001500Y010128D01*
X001500Y009128D02*
X001685Y008943D01*
X010500Y008943D01*
X011000Y008443D02*
X015500Y008443D01*
X016000Y008943D01*
X019000Y008943D01*
X019185Y009128D01*
X019500Y009128D01*
X018500Y009318D02*
X018750Y009943D01*
X018500Y009318D02*
X016000Y009318D01*
X015500Y008943D01*
X011500Y008943D01*
X011000Y009443D01*
X010000Y009443D01*
X009500Y009443D02*
X007000Y009443D01*
X006500Y009943D01*
X007000Y008443D02*
X005000Y008443D01*
X005500Y007943D02*
X005000Y007443D01*
X004000Y007443D01*
X003500Y007943D01*
X001685Y007943D01*
X001500Y008128D01*
X001500Y007128D02*
X002185Y006443D01*
X005000Y006443D01*
X005500Y005943D01*
X012500Y005943D01*
X013000Y005943D02*
X013000Y006941D01*
X012998Y006943D01*
X011998Y006943D02*
X011998Y007693D01*
X018875Y007693D01*
X019500Y007943D01*
X019500Y008128D01*
X019500Y007128D02*
X019185Y007128D01*
X018500Y005943D01*
X013000Y005943D01*
X013000Y005443D02*
X005000Y005443D01*
X004500Y005943D01*
X001685Y005943D01*
X001500Y006128D01*
X001500Y005128D02*
X001500Y004943D01*
X014500Y004943D01*
X014000Y005443D02*
X018500Y005443D01*
X019185Y006128D01*
X019500Y006128D01*
X019500Y005128D02*
X019185Y005128D01*
X019000Y004943D01*
X015500Y004943D01*
X014998Y003943D02*
X014720Y003664D01*
X014720Y002833D01*
X017280Y002833D01*
X013998Y003943D02*
X013780Y003724D01*
X013780Y002833D01*
X011220Y002833D01*
X010280Y002833D02*
X007720Y002833D01*
X007720Y003664D01*
X007998Y003943D01*
X007000Y003943D02*
X007000Y002943D01*
X006890Y002833D01*
X006780Y002833D01*
X004220Y002833D01*
X004000Y006943D02*
X005998Y006943D01*
X005500Y007943D02*
X011500Y007943D01*
X011500Y009443D02*
X015500Y009443D01*
X016000Y009943D01*
X018000Y009943D01*
X019000Y010943D01*
X019500Y010943D01*
X019500Y011128D01*
X019500Y011943D02*
X019500Y012128D01*
X019500Y011943D02*
X016000Y015443D01*
X007000Y015443D01*
X007500Y016443D02*
X007500Y017443D01*
X008000Y017943D01*
X011500Y017943D01*
X013000Y016943D02*
X017750Y016943D01*
X019500Y015193D01*
X019500Y015443D01*
X019500Y015193D02*
X018000Y016443D01*
X011000Y016443D01*
X006000Y016443D01*
X005000Y015943D02*
X016000Y015943D01*
X018500Y013443D01*
X019000Y013443D01*
X019500Y012943D01*
X019500Y013128D01*
X011500Y009443D02*
X011000Y009943D01*
X009000Y009943D01*
X003000Y018833D02*
X003140Y018973D01*
D19*
X006000Y016443D03*
X005000Y015943D03*
X007000Y015443D03*
X008000Y013943D03*
X009000Y013443D03*
X009500Y013443D03*
X010000Y013443D03*
X010500Y013443D03*
X012500Y013943D03*
X013500Y013443D03*
X012500Y012443D03*
X011000Y010943D03*
X010500Y010443D03*
X010000Y009443D03*
X009500Y009443D03*
X009000Y009943D03*
X008500Y009943D03*
X008000Y009943D03*
X007000Y010443D03*
X007500Y011943D03*
X006500Y012943D03*
X005500Y013943D03*
X003500Y010943D03*
X003000Y009943D03*
X005000Y008443D03*
X007000Y008443D03*
X010500Y008943D03*
X011000Y008443D03*
X011500Y007943D03*
X012500Y005943D03*
X013000Y005443D03*
X014000Y005443D03*
X014500Y004943D03*
X015500Y004943D03*
X018750Y009943D03*
X016500Y012443D03*
X018112Y012693D03*
X011000Y016443D03*
D20*
X011226Y017284D02*
X011050Y017357D01*
X010995Y017413D01*
X008220Y017413D01*
X008030Y017223D01*
X008030Y016948D01*
X008085Y016893D01*
X008158Y016716D01*
X008158Y016473D01*
X016105Y016473D01*
X016300Y016392D01*
X018720Y013973D01*
X019005Y013973D01*
X019005Y014118D01*
X019490Y014118D01*
X019490Y014138D01*
X019490Y014623D01*
X019480Y014623D01*
X019480Y015173D01*
X018895Y015173D01*
X018895Y014942D01*
X019249Y014588D01*
X019260Y014588D01*
X019005Y014333D01*
X019005Y014138D01*
X019490Y014138D01*
X019510Y014138D01*
X019510Y014623D01*
X019520Y014623D01*
X019520Y015173D01*
X019480Y015173D01*
X019480Y015213D01*
X019480Y015798D01*
X019249Y015798D01*
X018895Y015443D01*
X018895Y015213D01*
X019480Y015213D01*
X019520Y015213D01*
X019520Y015798D01*
X019751Y015798D01*
X019770Y015778D01*
X019770Y016134D01*
X019669Y016093D01*
X019331Y016093D01*
X019019Y016222D01*
X018779Y016461D01*
X018650Y016773D01*
X018650Y017112D01*
X018779Y017424D01*
X018798Y017443D01*
X018779Y017461D01*
X018650Y017773D01*
X018650Y018112D01*
X018779Y018424D01*
X019019Y018663D01*
X019024Y018665D01*
X018990Y018731D01*
X018964Y018814D01*
X018950Y018899D01*
X018950Y018923D01*
X019480Y018923D01*
X019480Y018963D01*
X018950Y018963D01*
X017509Y018963D01*
X017509Y018921D02*
X017509Y019148D01*
X018988Y019148D01*
X018964Y019071D01*
X018950Y018986D01*
X018950Y018963D01*
X018967Y018804D02*
X017460Y018804D01*
X017509Y018921D02*
X017394Y018643D01*
X017181Y018431D01*
X016903Y018316D01*
X016603Y018316D01*
X016325Y018431D01*
X016112Y018643D01*
X015997Y018921D01*
X015997Y019148D01*
X004910Y019148D01*
X004910Y018961D01*
X004795Y018683D01*
X004583Y018470D01*
X004305Y018355D01*
X004004Y018355D01*
X003807Y018437D01*
X003621Y018252D01*
X003530Y018214D01*
X003530Y017171D01*
X003621Y017133D01*
X003861Y016894D01*
X003990Y016582D01*
X003990Y016243D01*
X003861Y015931D01*
X003654Y015725D01*
X003658Y015716D01*
X003658Y015534D01*
X004220Y014973D01*
X006551Y014973D01*
X006473Y015051D01*
X006400Y015227D01*
X006400Y015413D01*
X005384Y015413D01*
X005215Y015343D01*
X004785Y015343D01*
X004608Y015416D01*
X004473Y015551D01*
X004400Y015727D01*
X004400Y016158D01*
X004473Y016334D01*
X004608Y016469D01*
X004785Y016543D01*
X005215Y016543D01*
X005384Y016473D01*
X006842Y016473D01*
X006842Y016716D01*
X006915Y016893D01*
X006970Y016948D01*
X006970Y017548D01*
X007051Y017743D01*
X007551Y018243D01*
X007700Y018392D01*
X007895Y018473D01*
X010995Y018473D01*
X011050Y018528D01*
X011226Y018601D01*
X011774Y018601D01*
X011950Y018528D01*
X012085Y018393D01*
X012158Y018216D01*
X012158Y017669D01*
X012085Y017493D01*
X011950Y017357D01*
X011774Y017284D01*
X011226Y017284D01*
X011030Y017378D02*
X008185Y017378D01*
X008030Y017219D02*
X018695Y017219D01*
X018650Y017061D02*
X008030Y017061D01*
X008076Y016902D02*
X018650Y016902D01*
X018662Y016744D02*
X008147Y016744D01*
X008158Y016585D02*
X018728Y016585D01*
X018814Y016427D02*
X016216Y016427D01*
X016424Y016268D02*
X018972Y016268D01*
X019290Y016110D02*
X016583Y016110D01*
X016741Y015951D02*
X019770Y015951D01*
X019756Y015793D02*
X019770Y015793D01*
X019520Y015793D02*
X019480Y015793D01*
X019480Y015634D02*
X019520Y015634D01*
X019520Y015476D02*
X019480Y015476D01*
X019480Y015317D02*
X019520Y015317D01*
X019520Y015159D02*
X019480Y015159D01*
X019480Y015000D02*
X019520Y015000D01*
X019520Y014842D02*
X019480Y014842D01*
X019480Y014683D02*
X019520Y014683D01*
X019510Y014525D02*
X019490Y014525D01*
X019490Y014366D02*
X019510Y014366D01*
X019510Y014208D02*
X019490Y014208D01*
X019197Y014525D02*
X018168Y014525D01*
X018326Y014366D02*
X019038Y014366D01*
X019005Y014208D02*
X018485Y014208D01*
X018643Y014049D02*
X019005Y014049D01*
X019154Y014683D02*
X018009Y014683D01*
X017851Y014842D02*
X018995Y014842D01*
X018895Y015000D02*
X017692Y015000D01*
X017534Y015159D02*
X018895Y015159D01*
X018895Y015317D02*
X017375Y015317D01*
X017217Y015476D02*
X018927Y015476D01*
X019086Y015634D02*
X017058Y015634D01*
X016900Y015793D02*
X019244Y015793D01*
X019710Y016110D02*
X019770Y016110D01*
X018760Y017378D02*
X011970Y017378D01*
X012103Y017536D02*
X018748Y017536D01*
X018683Y017695D02*
X012158Y017695D01*
X012158Y017853D02*
X018650Y017853D01*
X018650Y018012D02*
X012158Y018012D01*
X012158Y018170D02*
X018674Y018170D01*
X018740Y018329D02*
X016934Y018329D01*
X017237Y018487D02*
X018842Y018487D01*
X019001Y018646D02*
X017394Y018646D01*
X017509Y019121D02*
X018980Y019121D01*
X016572Y018329D02*
X012112Y018329D01*
X011991Y018487D02*
X016269Y018487D01*
X016112Y018646D02*
X004758Y018646D01*
X004845Y018804D02*
X016046Y018804D01*
X015997Y018963D02*
X004910Y018963D01*
X004910Y019121D02*
X015997Y019121D01*
X011009Y018487D02*
X004599Y018487D01*
X003698Y018329D02*
X007636Y018329D01*
X007478Y018170D02*
X003530Y018170D01*
X003530Y018012D02*
X007319Y018012D01*
X007161Y017853D02*
X003530Y017853D01*
X003530Y017695D02*
X007031Y017695D01*
X006970Y017536D02*
X003530Y017536D01*
X003530Y017378D02*
X006970Y017378D01*
X006970Y017219D02*
X003530Y017219D01*
X003694Y017061D02*
X006970Y017061D01*
X006924Y016902D02*
X003853Y016902D01*
X003923Y016744D02*
X006853Y016744D01*
X006842Y016585D02*
X003989Y016585D01*
X003990Y016427D02*
X004565Y016427D01*
X004446Y016268D02*
X003990Y016268D01*
X003935Y016110D02*
X004400Y016110D01*
X004400Y015951D02*
X003869Y015951D01*
X003722Y015793D02*
X004400Y015793D01*
X004439Y015634D02*
X003658Y015634D01*
X003717Y015476D02*
X004548Y015476D01*
X004192Y015000D02*
X006524Y015000D01*
X006428Y015159D02*
X004034Y015159D01*
X003875Y015317D02*
X006400Y015317D01*
X001500Y015193D02*
X001500Y014128D01*
X005561Y007254D02*
X005449Y007142D01*
X005300Y006993D01*
X005178Y006943D01*
X005300Y006892D01*
X005449Y006743D01*
X005561Y006631D01*
X005558Y006648D01*
X005558Y006943D01*
X005998Y006943D01*
X005998Y006943D01*
X005558Y006943D01*
X005558Y007237D01*
X005561Y007254D01*
X005558Y007234D02*
X005541Y007234D01*
X005558Y007075D02*
X005382Y007075D01*
X005241Y006917D02*
X005558Y006917D01*
X005558Y006758D02*
X005434Y006758D01*
X004892Y002303D02*
X006108Y002303D01*
X006299Y002112D01*
X006611Y001983D01*
X006949Y001983D01*
X007250Y002107D01*
X007551Y001983D01*
X007889Y001983D01*
X008201Y002112D01*
X008392Y002303D01*
X009608Y002303D01*
X009799Y002112D01*
X010111Y001983D01*
X010449Y001983D01*
X010750Y002107D01*
X011051Y001983D01*
X011389Y001983D01*
X011701Y002112D01*
X011892Y002303D01*
X013108Y002303D01*
X013299Y002112D01*
X013611Y001983D01*
X013949Y001983D01*
X014250Y002107D01*
X014551Y001983D01*
X014889Y001983D01*
X015201Y002112D01*
X015392Y002303D01*
X016608Y002303D01*
X016799Y002112D01*
X017111Y001983D01*
X017449Y001983D01*
X017761Y002112D01*
X018001Y002351D01*
X018130Y002663D01*
X018130Y003002D01*
X018043Y003212D01*
X018331Y003093D01*
X018669Y003093D01*
X018854Y003169D01*
X018858Y003166D01*
X019035Y003093D01*
X019770Y003093D01*
X019770Y000608D01*
X017603Y000608D01*
X017638Y000633D01*
X017700Y000694D01*
X017750Y000764D01*
X017790Y000841D01*
X017816Y000924D01*
X017830Y001009D01*
X017830Y001033D01*
X017300Y001033D01*
X017300Y001073D01*
X017260Y001073D01*
X017260Y001603D01*
X017237Y001603D01*
X017151Y001589D01*
X017069Y001562D01*
X016992Y001523D01*
X016922Y001472D01*
X016860Y001411D01*
X016810Y001341D01*
X016770Y001264D01*
X016744Y001181D01*
X016730Y001096D01*
X016730Y001073D01*
X017260Y001073D01*
X017260Y001033D01*
X016730Y001033D01*
X016730Y001009D01*
X016744Y000924D01*
X016770Y000841D01*
X016810Y000764D01*
X016860Y000694D01*
X016922Y000633D01*
X016957Y000608D01*
X015043Y000608D01*
X015078Y000633D01*
X015140Y000694D01*
X015190Y000764D01*
X015230Y000841D01*
X015256Y000924D01*
X015270Y001009D01*
X015270Y001033D01*
X014740Y001033D01*
X014740Y001073D01*
X014700Y001073D01*
X014700Y001603D01*
X014677Y001603D01*
X014591Y001589D01*
X014509Y001562D01*
X014432Y001523D01*
X014362Y001472D01*
X014300Y001411D01*
X014250Y001341D01*
X014200Y001411D01*
X014138Y001472D01*
X014068Y001523D01*
X013991Y001562D01*
X013909Y001589D01*
X013823Y001603D01*
X013800Y001603D01*
X013800Y001073D01*
X013760Y001073D01*
X013760Y001603D01*
X013737Y001603D01*
X013651Y001589D01*
X013569Y001562D01*
X013492Y001523D01*
X013422Y001472D01*
X013360Y001411D01*
X013310Y001341D01*
X013270Y001264D01*
X013244Y001181D01*
X013230Y001096D01*
X013230Y001073D01*
X013760Y001073D01*
X013760Y001033D01*
X013230Y001033D01*
X013230Y001009D01*
X013244Y000924D01*
X013270Y000841D01*
X013310Y000764D01*
X013360Y000694D01*
X013422Y000633D01*
X013457Y000608D01*
X011543Y000608D01*
X011578Y000633D01*
X011640Y000694D01*
X011690Y000764D01*
X011730Y000841D01*
X011756Y000924D01*
X011770Y001009D01*
X011770Y001033D01*
X011240Y001033D01*
X011240Y001073D01*
X011200Y001073D01*
X011200Y001603D01*
X011177Y001603D01*
X011091Y001589D01*
X011009Y001562D01*
X010932Y001523D01*
X010862Y001472D01*
X010800Y001411D01*
X010750Y001341D01*
X010700Y001411D01*
X010638Y001472D01*
X010568Y001523D01*
X010491Y001562D01*
X010409Y001589D01*
X010323Y001603D01*
X010300Y001603D01*
X010300Y001073D01*
X010260Y001073D01*
X010260Y001603D01*
X010237Y001603D01*
X010151Y001589D01*
X010069Y001562D01*
X009992Y001523D01*
X009922Y001472D01*
X009860Y001411D01*
X009810Y001341D01*
X009770Y001264D01*
X009744Y001181D01*
X009730Y001096D01*
X009730Y001073D01*
X010260Y001073D01*
X010260Y001033D01*
X009730Y001033D01*
X009730Y001009D01*
X009744Y000924D01*
X009770Y000841D01*
X009810Y000764D01*
X009860Y000694D01*
X009922Y000633D01*
X009957Y000608D01*
X008043Y000608D01*
X008078Y000633D01*
X008140Y000694D01*
X008190Y000764D01*
X008230Y000841D01*
X008256Y000924D01*
X008270Y001009D01*
X008270Y001033D01*
X007740Y001033D01*
X007740Y001073D01*
X007700Y001073D01*
X007700Y001603D01*
X007677Y001603D01*
X007591Y001589D01*
X007509Y001562D01*
X007432Y001523D01*
X007362Y001472D01*
X007300Y001411D01*
X007250Y001341D01*
X007200Y001411D01*
X007138Y001472D01*
X007068Y001523D01*
X006991Y001562D01*
X006909Y001589D01*
X006823Y001603D01*
X006800Y001603D01*
X006800Y001073D01*
X006760Y001073D01*
X006760Y001603D01*
X006737Y001603D01*
X006651Y001589D01*
X006569Y001562D01*
X006492Y001523D01*
X006422Y001472D01*
X006360Y001411D01*
X006310Y001341D01*
X006270Y001264D01*
X006244Y001181D01*
X006230Y001096D01*
X006230Y001073D01*
X006760Y001073D01*
X006760Y001033D01*
X006230Y001033D01*
X006230Y001009D01*
X006244Y000924D01*
X006270Y000841D01*
X006310Y000764D01*
X006360Y000694D01*
X006422Y000633D01*
X006457Y000608D01*
X004543Y000608D01*
X004578Y000633D01*
X004640Y000694D01*
X004690Y000764D01*
X004730Y000841D01*
X004756Y000924D01*
X004770Y001009D01*
X004770Y001033D01*
X004240Y001033D01*
X004240Y001073D01*
X004200Y001073D01*
X004200Y001603D01*
X004177Y001603D01*
X004091Y001589D01*
X004009Y001562D01*
X003932Y001523D01*
X003862Y001472D01*
X003800Y001411D01*
X003750Y001341D01*
X003710Y001264D01*
X003684Y001181D01*
X003670Y001096D01*
X003670Y001073D01*
X004200Y001073D01*
X004200Y001033D01*
X003670Y001033D01*
X003670Y001009D01*
X003684Y000924D01*
X003710Y000841D01*
X003750Y000764D01*
X003800Y000694D01*
X003862Y000633D01*
X003897Y000608D01*
X001230Y000608D01*
X001230Y002080D01*
X001279Y001961D01*
X001519Y001722D01*
X001524Y001720D01*
X001490Y001654D01*
X001464Y001571D01*
X001450Y001486D01*
X001450Y001463D01*
X001980Y001463D01*
X001980Y001423D01*
X001450Y001423D01*
X001450Y001399D01*
X001464Y001314D01*
X001490Y001231D01*
X001530Y001154D01*
X001580Y001084D01*
X001642Y001023D01*
X001712Y000972D01*
X001789Y000933D01*
X001871Y000906D01*
X001957Y000893D01*
X001980Y000893D01*
X001980Y001423D01*
X002020Y001423D01*
X002020Y001463D01*
X002550Y001463D01*
X002980Y001463D01*
X002980Y001423D01*
X002020Y001423D01*
X002020Y000893D01*
X002043Y000893D01*
X002129Y000906D01*
X002211Y000933D01*
X002288Y000972D01*
X002358Y001023D01*
X002420Y001084D01*
X002470Y001154D01*
X002500Y001212D01*
X002530Y001154D01*
X002580Y001084D01*
X002642Y001023D01*
X002712Y000972D01*
X002789Y000933D01*
X002871Y000906D01*
X002957Y000893D01*
X002980Y000893D01*
X002980Y001423D01*
X003020Y001423D01*
X003020Y001463D01*
X003550Y001463D01*
X003550Y001486D01*
X003536Y001571D01*
X003510Y001654D01*
X003476Y001720D01*
X003481Y001722D01*
X003721Y001961D01*
X003777Y002096D01*
X004051Y001983D01*
X004389Y001983D01*
X004701Y002112D01*
X004892Y002303D01*
X004751Y002162D02*
X006249Y002162D01*
X006561Y002003D02*
X004439Y002003D01*
X004349Y001589D02*
X004263Y001603D01*
X004240Y001603D01*
X004240Y001073D01*
X004770Y001073D01*
X004770Y001096D01*
X004756Y001181D01*
X004730Y001264D01*
X004690Y001341D01*
X004640Y001411D01*
X004578Y001472D01*
X004508Y001523D01*
X004431Y001562D01*
X004349Y001589D01*
X004240Y001528D02*
X004200Y001528D01*
X004200Y001369D02*
X004240Y001369D01*
X004240Y001211D02*
X004200Y001211D01*
X004200Y001052D02*
X003387Y001052D01*
X003358Y001023D02*
X003420Y001084D01*
X003470Y001154D01*
X003510Y001231D01*
X003536Y001314D01*
X003550Y001399D01*
X003550Y001423D01*
X003020Y001423D01*
X003020Y000893D01*
X003043Y000893D01*
X003129Y000906D01*
X003211Y000933D01*
X003288Y000972D01*
X003358Y001023D01*
X003499Y001211D02*
X003693Y001211D01*
X003770Y001369D02*
X003545Y001369D01*
X003543Y001528D02*
X003941Y001528D01*
X003604Y001845D02*
X019770Y001845D01*
X019770Y002003D02*
X017499Y002003D01*
X017811Y002162D02*
X019770Y002162D01*
X019770Y002320D02*
X017970Y002320D01*
X018053Y002479D02*
X019770Y002479D01*
X019770Y002637D02*
X018119Y002637D01*
X018130Y002796D02*
X019770Y002796D01*
X019770Y002954D02*
X018130Y002954D01*
X018084Y003113D02*
X018283Y003113D01*
X018717Y003113D02*
X018986Y003113D01*
X019770Y001686D02*
X003493Y001686D01*
X003738Y002003D02*
X004001Y002003D01*
X004499Y001528D02*
X006501Y001528D01*
X006330Y001369D02*
X004670Y001369D01*
X004747Y001211D02*
X006253Y001211D01*
X006253Y000894D02*
X004747Y000894D01*
X004669Y000735D02*
X006331Y000735D01*
X006760Y001052D02*
X004240Y001052D01*
X003771Y000735D02*
X001230Y000735D01*
X001230Y000894D02*
X001950Y000894D01*
X001980Y000894D02*
X002020Y000894D01*
X002050Y000894D02*
X002950Y000894D01*
X002980Y000894D02*
X003020Y000894D01*
X003050Y000894D02*
X003693Y000894D01*
X003020Y001052D02*
X002980Y001052D01*
X002980Y001211D02*
X003020Y001211D01*
X003020Y001369D02*
X002980Y001369D01*
X002613Y001052D02*
X002387Y001052D01*
X002499Y001211D02*
X002501Y001211D01*
X002020Y001211D02*
X001980Y001211D01*
X001980Y001369D02*
X002020Y001369D01*
X002020Y001052D02*
X001980Y001052D01*
X001613Y001052D02*
X001230Y001052D01*
X001230Y001211D02*
X001501Y001211D01*
X001455Y001369D02*
X001230Y001369D01*
X001230Y001528D02*
X001457Y001528D01*
X001507Y001686D02*
X001230Y001686D01*
X001230Y001845D02*
X001396Y001845D01*
X001262Y002003D02*
X001230Y002003D01*
X006760Y001528D02*
X006800Y001528D01*
X006800Y001369D02*
X006760Y001369D01*
X006760Y001211D02*
X006800Y001211D01*
X006800Y001073D02*
X007700Y001073D01*
X007700Y001033D01*
X007170Y001033D01*
X006800Y001033D01*
X006800Y001073D01*
X006800Y001052D02*
X007700Y001052D01*
X007740Y001052D02*
X010260Y001052D01*
X010300Y001052D02*
X011200Y001052D01*
X011200Y001033D02*
X010830Y001033D01*
X010300Y001033D01*
X010300Y001073D01*
X011200Y001073D01*
X011200Y001033D01*
X011240Y001052D02*
X013760Y001052D01*
X013800Y001052D02*
X014700Y001052D01*
X014700Y001033D02*
X014170Y001033D01*
X013800Y001033D01*
X013800Y001073D01*
X014700Y001073D01*
X014700Y001033D01*
X014740Y001052D02*
X017260Y001052D01*
X017300Y001052D02*
X019770Y001052D01*
X019770Y000894D02*
X017807Y000894D01*
X017729Y000735D02*
X019770Y000735D01*
X019770Y001211D02*
X017807Y001211D01*
X017816Y001181D02*
X017790Y001264D01*
X017750Y001341D01*
X017700Y001411D01*
X017638Y001472D01*
X017568Y001523D01*
X017491Y001562D01*
X017409Y001589D01*
X017323Y001603D01*
X017300Y001603D01*
X017300Y001073D01*
X017830Y001073D01*
X017830Y001096D01*
X017816Y001181D01*
X017730Y001369D02*
X019770Y001369D01*
X019770Y001528D02*
X017559Y001528D01*
X017300Y001528D02*
X017260Y001528D01*
X017260Y001369D02*
X017300Y001369D01*
X017300Y001211D02*
X017260Y001211D01*
X017001Y001528D02*
X014999Y001528D01*
X015008Y001523D02*
X014931Y001562D01*
X014849Y001589D01*
X014763Y001603D01*
X014740Y001603D01*
X014740Y001073D01*
X015270Y001073D01*
X015270Y001096D01*
X015256Y001181D01*
X015230Y001264D01*
X015190Y001341D01*
X015140Y001411D01*
X015078Y001472D01*
X015008Y001523D01*
X015170Y001369D02*
X016830Y001369D01*
X016753Y001211D02*
X015247Y001211D01*
X015247Y000894D02*
X016753Y000894D01*
X016831Y000735D02*
X015169Y000735D01*
X014740Y001211D02*
X014700Y001211D01*
X014700Y001369D02*
X014740Y001369D01*
X014740Y001528D02*
X014700Y001528D01*
X014441Y001528D02*
X014059Y001528D01*
X014230Y001369D02*
X014270Y001369D01*
X013800Y001369D02*
X013760Y001369D01*
X013760Y001211D02*
X013800Y001211D01*
X013800Y001528D02*
X013760Y001528D01*
X013501Y001528D02*
X011499Y001528D01*
X011508Y001523D02*
X011431Y001562D01*
X011349Y001589D01*
X011263Y001603D01*
X011240Y001603D01*
X011240Y001073D01*
X011770Y001073D01*
X011770Y001096D01*
X011756Y001181D01*
X011730Y001264D01*
X011690Y001341D01*
X011640Y001411D01*
X011578Y001472D01*
X011508Y001523D01*
X011670Y001369D02*
X013330Y001369D01*
X013253Y001211D02*
X011747Y001211D01*
X011747Y000894D02*
X013253Y000894D01*
X013331Y000735D02*
X011669Y000735D01*
X011240Y001211D02*
X011200Y001211D01*
X011200Y001369D02*
X011240Y001369D01*
X011240Y001528D02*
X011200Y001528D01*
X010941Y001528D02*
X010559Y001528D01*
X010730Y001369D02*
X010770Y001369D01*
X010300Y001369D02*
X010260Y001369D01*
X010260Y001211D02*
X010300Y001211D01*
X010300Y001528D02*
X010260Y001528D01*
X010001Y001528D02*
X007999Y001528D01*
X008008Y001523D02*
X007931Y001562D01*
X007849Y001589D01*
X007763Y001603D01*
X007740Y001603D01*
X007740Y001073D01*
X008270Y001073D01*
X008270Y001096D01*
X008256Y001181D01*
X008230Y001264D01*
X008190Y001341D01*
X008140Y001411D01*
X008078Y001472D01*
X008008Y001523D01*
X008170Y001369D02*
X009830Y001369D01*
X009753Y001211D02*
X008247Y001211D01*
X008247Y000894D02*
X009753Y000894D01*
X009831Y000735D02*
X008169Y000735D01*
X007740Y001211D02*
X007700Y001211D01*
X007700Y001369D02*
X007740Y001369D01*
X007740Y001528D02*
X007700Y001528D01*
X007441Y001528D02*
X007059Y001528D01*
X007230Y001369D02*
X007270Y001369D01*
X007501Y002003D02*
X006999Y002003D01*
X007939Y002003D02*
X010061Y002003D01*
X009749Y002162D02*
X008251Y002162D01*
X010499Y002003D02*
X011001Y002003D01*
X011439Y002003D02*
X013561Y002003D01*
X013249Y002162D02*
X011751Y002162D01*
X013999Y002003D02*
X014501Y002003D01*
X014939Y002003D02*
X017061Y002003D01*
X016749Y002162D02*
X015251Y002162D01*
X015666Y003363D02*
X015738Y003535D01*
X015738Y004350D01*
X015737Y004352D01*
X015884Y004413D01*
X016211Y004413D01*
X016142Y004362D01*
X016080Y004301D01*
X016030Y004231D01*
X015990Y004154D01*
X015964Y004071D01*
X015950Y003986D01*
X015950Y003963D01*
X016480Y003963D01*
X016480Y003923D01*
X015950Y003923D01*
X015950Y003899D01*
X015964Y003814D01*
X015990Y003731D01*
X016030Y003654D01*
X016080Y003584D01*
X016142Y003523D01*
X016212Y003472D01*
X016289Y003433D01*
X016371Y003406D01*
X016457Y003393D01*
X016480Y003393D01*
X016480Y003923D01*
X016520Y003923D01*
X016520Y003393D01*
X016543Y003393D01*
X016629Y003406D01*
X016662Y003417D01*
X016608Y003363D01*
X015666Y003363D01*
X015694Y003430D02*
X016299Y003430D01*
X016480Y003430D02*
X016520Y003430D01*
X016520Y003588D02*
X016480Y003588D01*
X016480Y003747D02*
X016520Y003747D01*
X016520Y003905D02*
X016480Y003905D01*
X016078Y003588D02*
X015738Y003588D01*
X015738Y003747D02*
X015985Y003747D01*
X015950Y003905D02*
X015738Y003905D01*
X015738Y004064D02*
X015962Y004064D01*
X016025Y004222D02*
X015738Y004222D01*
X015807Y004381D02*
X016167Y004381D01*
D21*
X003500Y018193D03*
D22*
X003000Y015443D03*
X007500Y016443D03*
X007500Y014443D03*
X007500Y012943D03*
X011500Y017943D03*
X013000Y016943D03*
X004000Y006943D03*
M02*
