G75*
G70*
%OFA0B0*%
%FSLAX24Y24*%
%IPPOS*%
%LPD*%
%AMOC8*
5,1,8,0,0,1.08239X$1,22.5*
%
%ADD10C,0.0000*%
%ADD11R,0.0709X0.0630*%
%ADD12OC8,0.0630*%
%ADD13R,0.0710X0.0630*%
%ADD14OC8,0.0850*%
%ADD15C,0.0520*%
%ADD16C,0.0740*%
%ADD17R,0.0630X0.0710*%
%ADD18R,0.0630X0.0709*%
%ADD19R,0.0740X0.0740*%
%ADD20OC8,0.0520*%
%ADD21R,0.0790X0.0590*%
%ADD22R,0.0790X0.1500*%
%ADD23R,0.0236X0.0217*%
%ADD24R,0.0240X0.0240*%
%ADD25C,0.0100*%
%ADD26C,0.0160*%
%ADD27R,0.0317X0.0317*%
%ADD28R,0.0356X0.0356*%
%ADD29C,0.0320*%
D10*
X000736Y000100D02*
X000736Y019663D01*
X020252Y019663D01*
X020250Y019628D02*
X020250Y000128D01*
X000750Y000128D01*
X000750Y019628D01*
X020250Y019628D01*
X016477Y019071D02*
X016479Y019104D01*
X016485Y019136D01*
X016494Y019167D01*
X016507Y019197D01*
X016524Y019225D01*
X016544Y019251D01*
X016567Y019275D01*
X016592Y019295D01*
X016620Y019313D01*
X016649Y019327D01*
X016680Y019337D01*
X016712Y019344D01*
X016745Y019347D01*
X016778Y019346D01*
X016810Y019341D01*
X016841Y019332D01*
X016872Y019320D01*
X016900Y019304D01*
X016927Y019285D01*
X016951Y019263D01*
X016972Y019238D01*
X016991Y019211D01*
X017006Y019182D01*
X017017Y019152D01*
X017025Y019120D01*
X017029Y019087D01*
X017029Y019055D01*
X017025Y019022D01*
X017017Y018990D01*
X017006Y018960D01*
X016991Y018931D01*
X016972Y018904D01*
X016951Y018879D01*
X016927Y018857D01*
X016900Y018838D01*
X016872Y018822D01*
X016841Y018810D01*
X016810Y018801D01*
X016778Y018796D01*
X016745Y018795D01*
X016712Y018798D01*
X016680Y018805D01*
X016649Y018815D01*
X016620Y018829D01*
X016592Y018847D01*
X016567Y018867D01*
X016544Y018891D01*
X016524Y018917D01*
X016507Y018945D01*
X016494Y018975D01*
X016485Y019006D01*
X016479Y019038D01*
X016477Y019071D01*
X011871Y010489D02*
X011873Y010516D01*
X011879Y010543D01*
X011888Y010569D01*
X011901Y010593D01*
X011917Y010616D01*
X011936Y010635D01*
X011958Y010652D01*
X011982Y010666D01*
X012007Y010676D01*
X012034Y010683D01*
X012061Y010686D01*
X012089Y010685D01*
X012116Y010680D01*
X012142Y010672D01*
X012166Y010660D01*
X012189Y010644D01*
X012210Y010626D01*
X012227Y010605D01*
X012242Y010581D01*
X012253Y010556D01*
X012261Y010530D01*
X012265Y010503D01*
X012265Y010475D01*
X012261Y010448D01*
X012253Y010422D01*
X012242Y010397D01*
X012227Y010373D01*
X012210Y010352D01*
X012189Y010334D01*
X012167Y010318D01*
X012142Y010306D01*
X012116Y010298D01*
X012089Y010293D01*
X012061Y010292D01*
X012034Y010295D01*
X012007Y010302D01*
X011982Y010312D01*
X011958Y010326D01*
X011936Y010343D01*
X011917Y010362D01*
X011901Y010385D01*
X011888Y010409D01*
X011879Y010435D01*
X011873Y010462D01*
X011871Y010489D01*
X008643Y010489D02*
X008645Y010516D01*
X008651Y010543D01*
X008660Y010569D01*
X008673Y010593D01*
X008689Y010616D01*
X008708Y010635D01*
X008730Y010652D01*
X008754Y010666D01*
X008779Y010676D01*
X008806Y010683D01*
X008833Y010686D01*
X008861Y010685D01*
X008888Y010680D01*
X008914Y010672D01*
X008938Y010660D01*
X008961Y010644D01*
X008982Y010626D01*
X008999Y010605D01*
X009014Y010581D01*
X009025Y010556D01*
X009033Y010530D01*
X009037Y010503D01*
X009037Y010475D01*
X009033Y010448D01*
X009025Y010422D01*
X009014Y010397D01*
X008999Y010373D01*
X008982Y010352D01*
X008961Y010334D01*
X008939Y010318D01*
X008914Y010306D01*
X008888Y010298D01*
X008861Y010293D01*
X008833Y010292D01*
X008806Y010295D01*
X008779Y010302D01*
X008754Y010312D01*
X008730Y010326D01*
X008708Y010343D01*
X008689Y010362D01*
X008673Y010385D01*
X008660Y010409D01*
X008651Y010435D01*
X008645Y010462D01*
X008643Y010489D01*
X003879Y008245D02*
X003881Y008278D01*
X003887Y008310D01*
X003896Y008341D01*
X003909Y008371D01*
X003926Y008399D01*
X003946Y008425D01*
X003969Y008449D01*
X003994Y008469D01*
X004022Y008487D01*
X004051Y008501D01*
X004082Y008511D01*
X004114Y008518D01*
X004147Y008521D01*
X004180Y008520D01*
X004212Y008515D01*
X004243Y008506D01*
X004274Y008494D01*
X004302Y008478D01*
X004329Y008459D01*
X004353Y008437D01*
X004374Y008412D01*
X004393Y008385D01*
X004408Y008356D01*
X004419Y008326D01*
X004427Y008294D01*
X004431Y008261D01*
X004431Y008229D01*
X004427Y008196D01*
X004419Y008164D01*
X004408Y008134D01*
X004393Y008105D01*
X004374Y008078D01*
X004353Y008053D01*
X004329Y008031D01*
X004302Y008012D01*
X004274Y007996D01*
X004243Y007984D01*
X004212Y007975D01*
X004180Y007970D01*
X004147Y007969D01*
X004114Y007972D01*
X004082Y007979D01*
X004051Y007989D01*
X004022Y008003D01*
X003994Y008021D01*
X003969Y008041D01*
X003946Y008065D01*
X003926Y008091D01*
X003909Y008119D01*
X003896Y008149D01*
X003887Y008180D01*
X003881Y008212D01*
X003879Y008245D01*
X000736Y000100D02*
X020252Y000100D01*
X016477Y008284D02*
X016479Y008317D01*
X016485Y008349D01*
X016494Y008380D01*
X016507Y008410D01*
X016524Y008438D01*
X016544Y008464D01*
X016567Y008488D01*
X016592Y008508D01*
X016620Y008526D01*
X016649Y008540D01*
X016680Y008550D01*
X016712Y008557D01*
X016745Y008560D01*
X016778Y008559D01*
X016810Y008554D01*
X016841Y008545D01*
X016872Y008533D01*
X016900Y008517D01*
X016927Y008498D01*
X016951Y008476D01*
X016972Y008451D01*
X016991Y008424D01*
X017006Y008395D01*
X017017Y008365D01*
X017025Y008333D01*
X017029Y008300D01*
X017029Y008268D01*
X017025Y008235D01*
X017017Y008203D01*
X017006Y008173D01*
X016991Y008144D01*
X016972Y008117D01*
X016951Y008092D01*
X016927Y008070D01*
X016900Y008051D01*
X016872Y008035D01*
X016841Y008023D01*
X016810Y008014D01*
X016778Y008009D01*
X016745Y008008D01*
X016712Y008011D01*
X016680Y008018D01*
X016649Y008028D01*
X016620Y008042D01*
X016592Y008060D01*
X016567Y008080D01*
X016544Y008104D01*
X016524Y008130D01*
X016507Y008158D01*
X016494Y008188D01*
X016485Y008219D01*
X016479Y008251D01*
X016477Y008284D01*
X003879Y019111D02*
X003881Y019144D01*
X003887Y019176D01*
X003896Y019207D01*
X003909Y019237D01*
X003926Y019265D01*
X003946Y019291D01*
X003969Y019315D01*
X003994Y019335D01*
X004022Y019353D01*
X004051Y019367D01*
X004082Y019377D01*
X004114Y019384D01*
X004147Y019387D01*
X004180Y019386D01*
X004212Y019381D01*
X004243Y019372D01*
X004274Y019360D01*
X004302Y019344D01*
X004329Y019325D01*
X004353Y019303D01*
X004374Y019278D01*
X004393Y019251D01*
X004408Y019222D01*
X004419Y019192D01*
X004427Y019160D01*
X004431Y019127D01*
X004431Y019095D01*
X004427Y019062D01*
X004419Y019030D01*
X004408Y019000D01*
X004393Y018971D01*
X004374Y018944D01*
X004353Y018919D01*
X004329Y018897D01*
X004302Y018878D01*
X004274Y018862D01*
X004243Y018850D01*
X004212Y018841D01*
X004180Y018836D01*
X004147Y018835D01*
X004114Y018838D01*
X004082Y018845D01*
X004051Y018855D01*
X004022Y018869D01*
X003994Y018887D01*
X003969Y018907D01*
X003946Y018931D01*
X003926Y018957D01*
X003909Y018985D01*
X003896Y019015D01*
X003887Y019046D01*
X003881Y019078D01*
X003879Y019111D01*
D11*
X004500Y017994D03*
X004500Y016891D03*
X008831Y015616D03*
X008831Y014513D03*
X010329Y014506D03*
X010329Y015608D03*
X018121Y014604D03*
X018121Y013502D03*
D12*
X019500Y013128D03*
X019500Y014128D03*
X019500Y012128D03*
X019500Y011128D03*
X019500Y010128D03*
X019500Y009128D03*
X019500Y008128D03*
X019500Y007128D03*
X019500Y006128D03*
X019500Y005128D03*
X001500Y005128D03*
X001500Y006128D03*
X001500Y007128D03*
X001500Y008128D03*
X001500Y009128D03*
X001500Y010128D03*
X001500Y011128D03*
X001500Y012128D03*
X001500Y013128D03*
X001500Y014128D03*
D13*
X018112Y012101D03*
X018112Y010981D03*
D14*
X018250Y007943D03*
X019500Y015193D03*
X001500Y015193D03*
D15*
X005998Y007203D02*
X005998Y006683D01*
X006998Y006683D02*
X006998Y007203D01*
X007998Y007203D02*
X007998Y006683D01*
X008998Y006683D02*
X008998Y007203D01*
X009998Y007203D02*
X009998Y006683D01*
X010998Y006683D02*
X010998Y007203D01*
X011998Y007203D02*
X011998Y006683D01*
X012998Y006683D02*
X012998Y007203D01*
X013998Y007203D02*
X013998Y006683D01*
X014998Y006683D02*
X014998Y007203D01*
X014998Y004203D02*
X014998Y003683D01*
X013998Y003683D02*
X013998Y004203D01*
X012998Y004203D02*
X012998Y003683D01*
X011998Y003683D02*
X011998Y004203D01*
X010998Y004203D02*
X010998Y003683D01*
X009998Y003683D02*
X009998Y004203D01*
X008998Y004203D02*
X008998Y003683D01*
X007998Y003683D02*
X007998Y004203D01*
X006998Y004203D02*
X006998Y003683D01*
X005998Y003683D02*
X005998Y004203D01*
D16*
X006780Y002833D03*
X007720Y002833D03*
X007720Y001053D03*
X006780Y001053D03*
X004220Y001053D03*
X003000Y001443D03*
X003000Y002443D03*
X003000Y003443D03*
X002000Y003443D03*
X002000Y002443D03*
X002000Y001443D03*
X004220Y002833D03*
X010280Y002833D03*
X011220Y002833D03*
X011220Y001053D03*
X010280Y001053D03*
X013780Y001053D03*
X014720Y001053D03*
X014720Y002833D03*
X013780Y002833D03*
X016500Y003943D03*
X017500Y003943D03*
X018500Y003943D03*
X017280Y002833D03*
X017280Y001053D03*
X003140Y016413D03*
X001360Y016413D03*
X001360Y018973D03*
X003140Y018973D03*
X019500Y018943D03*
X019500Y017943D03*
X019500Y016943D03*
D17*
X013560Y017943D03*
X012440Y017943D03*
X016940Y009943D03*
X018060Y009943D03*
X003185Y017568D03*
X002065Y017568D03*
D18*
X008949Y012443D03*
X010051Y012443D03*
X005051Y003943D03*
X003949Y003943D03*
D19*
X019500Y003943D03*
D20*
X002375Y015193D03*
X002375Y019193D03*
D21*
X005760Y018853D03*
X005760Y017953D03*
X005760Y017053D03*
D22*
X008240Y017943D03*
D23*
X014744Y017578D03*
X015256Y017578D03*
X015000Y018307D03*
D24*
X011000Y016443D03*
X012500Y013943D03*
X013500Y013443D03*
X012500Y012443D03*
X011000Y010943D03*
X010500Y010443D03*
X010000Y009443D03*
X009500Y009443D03*
X009000Y009943D03*
X008500Y009943D03*
X008000Y009943D03*
X007000Y010443D03*
X007500Y011943D03*
X006500Y012943D03*
X005500Y013943D03*
X007000Y015443D03*
X006000Y016443D03*
X005000Y015943D03*
X008000Y013943D03*
X009000Y013443D03*
X009500Y013443D03*
X010000Y013443D03*
X010500Y013443D03*
X010500Y008943D03*
X011000Y008443D03*
X011500Y007943D03*
X012500Y005943D03*
X013000Y005443D03*
X014000Y005443D03*
X014500Y004943D03*
X015500Y004943D03*
X018750Y009943D03*
X016500Y012443D03*
X018112Y012693D03*
X007000Y008443D03*
X005000Y008443D03*
X003000Y009943D03*
X003500Y010943D03*
D25*
X003500Y009443D01*
X003000Y008943D01*
X003000Y003443D01*
X002500Y003943D02*
X002500Y009443D01*
X003000Y009943D01*
X005000Y008443D02*
X005000Y015943D01*
X005998Y016441D02*
X006000Y016443D01*
X005998Y016441D02*
X005998Y006943D01*
X006998Y006943D02*
X006998Y008441D01*
X007000Y008443D01*
X007998Y009941D02*
X007998Y006943D01*
X008998Y006943D02*
X008998Y009941D01*
X009000Y009943D01*
X009500Y009443D02*
X009500Y004443D01*
X009998Y003944D01*
X009998Y003943D01*
X010500Y004443D02*
X010500Y008943D01*
X010500Y010443D01*
X011000Y010943D02*
X011000Y008443D01*
X011000Y006944D01*
X010998Y006943D01*
X009998Y006943D02*
X009998Y009441D01*
X010000Y009443D01*
X011500Y007943D02*
X013000Y007943D01*
X013500Y008443D01*
X013500Y013443D01*
X012500Y013943D02*
X012500Y012443D01*
X010000Y013943D02*
X010329Y014506D01*
X010000Y013943D02*
X010000Y013443D01*
X009500Y013443D02*
X009500Y014943D01*
X008831Y015616D01*
X008831Y014513D02*
X009000Y014443D01*
X009000Y013443D01*
X007500Y012943D02*
X007500Y014443D01*
X007500Y016443D01*
X007000Y015443D02*
X007000Y010443D01*
X007998Y009941D02*
X008000Y009943D01*
X008500Y009943D02*
X008500Y004443D01*
X008998Y003944D01*
X008998Y003943D01*
X007998Y003944D02*
X007500Y004443D01*
X007500Y011943D01*
X006500Y012943D02*
X006500Y004443D01*
X006998Y003944D01*
X006998Y003943D01*
X006000Y003943D02*
X005998Y003943D01*
X005051Y003943D01*
X005500Y004443D02*
X005500Y013943D01*
X003000Y015443D02*
X003000Y016273D01*
X003140Y016413D01*
X002375Y015943D02*
X001905Y016413D01*
X001360Y016413D01*
X001500Y017443D02*
X002065Y017568D01*
X002500Y018443D02*
X003000Y017943D01*
X003500Y017943D01*
X003500Y018193D01*
X003500Y017943D02*
X003500Y017883D01*
X003185Y017568D01*
X002500Y018443D02*
X002500Y019068D01*
X002375Y019193D01*
X005500Y017943D02*
X005760Y017953D01*
X006000Y017943D01*
X002375Y015943D02*
X002375Y015193D01*
X004000Y006943D02*
X003949Y003943D01*
X002500Y003943D02*
X002000Y003443D01*
X005500Y004443D02*
X005998Y003944D01*
X005998Y003943D01*
X007998Y003943D02*
X007998Y003944D01*
X010500Y004443D02*
X010998Y003944D01*
X010998Y003943D01*
X011500Y004443D02*
X011500Y007943D01*
X012998Y007441D02*
X012998Y006943D01*
X012998Y007441D02*
X014000Y008443D01*
X014000Y016443D01*
X014500Y016943D01*
X015000Y016943D01*
X015250Y017193D01*
X015250Y017443D01*
X015256Y017448D01*
X015256Y017578D01*
X015250Y017568D02*
X015250Y017443D01*
X014744Y017578D02*
X014636Y017578D01*
X014000Y016943D01*
X013000Y016943D01*
X012440Y017943D02*
X011500Y017943D01*
X013560Y017943D02*
X013924Y018307D01*
X015000Y018307D01*
X018121Y013502D02*
X018112Y013493D01*
X018112Y012693D01*
X018112Y012101D01*
X018112Y010981D02*
X018060Y010929D01*
X018060Y009943D01*
X018750Y009943D01*
X019315Y009943D01*
X019500Y010128D01*
X019500Y008128D02*
X019500Y007943D01*
X018250Y007943D01*
X018000Y007693D01*
X018000Y004443D01*
X018500Y003943D01*
X018500Y004943D02*
X018500Y005943D01*
X019185Y007128D01*
X019500Y007128D01*
X017500Y008943D02*
X017500Y003943D01*
X018500Y004943D02*
X019500Y003943D01*
X015500Y004943D02*
X015000Y005443D01*
X015000Y006943D01*
X014998Y006943D01*
X014000Y006941D02*
X013998Y006943D01*
X014000Y006941D02*
X014000Y005443D01*
X014500Y004943D02*
X014998Y004444D01*
X014998Y003943D01*
X013998Y003943D02*
X013998Y004444D01*
X013000Y005443D01*
X012500Y005943D02*
X012500Y004443D01*
X012998Y003944D01*
X012998Y003943D01*
X011998Y003944D02*
X011500Y004443D01*
X011998Y003944D02*
X011998Y003943D01*
X017000Y009443D02*
X017000Y009883D01*
X016940Y009943D01*
X016500Y010383D01*
X016500Y012443D01*
X017000Y009443D02*
X017500Y008943D01*
D26*
X016653Y009040D02*
X016603Y009040D01*
X016325Y008925D01*
X016112Y008712D01*
X015997Y008434D01*
X015997Y008134D01*
X016112Y007856D01*
X016325Y007643D01*
X016603Y007528D01*
X016903Y007528D01*
X016970Y007556D01*
X016970Y004615D01*
X016779Y004424D01*
X016777Y004419D01*
X016711Y004452D01*
X016629Y004479D01*
X016543Y004493D01*
X016520Y004493D01*
X016520Y003963D01*
X016480Y003963D01*
X016480Y004493D01*
X016457Y004493D01*
X016371Y004479D01*
X016289Y004452D01*
X016212Y004413D01*
X016142Y004362D01*
X016080Y004301D01*
X016030Y004231D01*
X015990Y004154D01*
X015964Y004071D01*
X015950Y003986D01*
X015950Y003963D01*
X016480Y003963D01*
X016480Y003923D01*
X015950Y003923D01*
X015950Y003899D01*
X015964Y003814D01*
X015990Y003731D01*
X016030Y003654D01*
X016080Y003584D01*
X016142Y003523D01*
X016212Y003472D01*
X016289Y003433D01*
X016371Y003406D01*
X016457Y003393D01*
X016480Y003393D01*
X016480Y003923D01*
X016520Y003923D01*
X016520Y003393D01*
X016543Y003393D01*
X016629Y003406D01*
X016662Y003417D01*
X016559Y003314D01*
X016430Y003002D01*
X016430Y002663D01*
X016559Y002351D01*
X016799Y002112D01*
X017111Y001983D01*
X017449Y001983D01*
X017761Y002112D01*
X018001Y002351D01*
X018130Y002663D01*
X018130Y003002D01*
X018043Y003212D01*
X018331Y003093D01*
X018669Y003093D01*
X018854Y003169D01*
X018858Y003166D01*
X019035Y003093D01*
X019770Y003093D01*
X019770Y000608D01*
X017603Y000608D01*
X017638Y000633D01*
X017700Y000694D01*
X017750Y000764D01*
X017790Y000841D01*
X017816Y000924D01*
X017830Y001009D01*
X017830Y001033D01*
X017300Y001033D01*
X017300Y001073D01*
X017260Y001073D01*
X017260Y001603D01*
X017237Y001603D01*
X017151Y001589D01*
X017069Y001562D01*
X016992Y001523D01*
X016922Y001472D01*
X016860Y001411D01*
X016810Y001341D01*
X016770Y001264D01*
X016744Y001181D01*
X016730Y001096D01*
X016730Y001073D01*
X017260Y001073D01*
X017260Y001033D01*
X016730Y001033D01*
X016730Y001009D01*
X016744Y000924D01*
X016770Y000841D01*
X016810Y000764D01*
X016860Y000694D01*
X016922Y000633D01*
X016957Y000608D01*
X015043Y000608D01*
X015078Y000633D01*
X015140Y000694D01*
X015190Y000764D01*
X015230Y000841D01*
X015256Y000924D01*
X015270Y001009D01*
X015270Y001033D01*
X014740Y001033D01*
X014740Y001073D01*
X014700Y001073D01*
X014700Y001603D01*
X014677Y001603D01*
X014591Y001589D01*
X014509Y001562D01*
X014432Y001523D01*
X014362Y001472D01*
X014300Y001411D01*
X014250Y001341D01*
X014200Y001411D01*
X014138Y001472D01*
X014068Y001523D01*
X013991Y001562D01*
X013909Y001589D01*
X013823Y001603D01*
X013800Y001603D01*
X013800Y001073D01*
X013760Y001073D01*
X013760Y001603D01*
X013737Y001603D01*
X013651Y001589D01*
X013569Y001562D01*
X013492Y001523D01*
X013422Y001472D01*
X013360Y001411D01*
X013310Y001341D01*
X013270Y001264D01*
X013244Y001181D01*
X013230Y001096D01*
X013230Y001073D01*
X013760Y001073D01*
X013760Y001033D01*
X013230Y001033D01*
X013230Y001009D01*
X013244Y000924D01*
X013270Y000841D01*
X013310Y000764D01*
X013360Y000694D01*
X013422Y000633D01*
X013457Y000608D01*
X011543Y000608D01*
X011578Y000633D01*
X011640Y000694D01*
X011690Y000764D01*
X011730Y000841D01*
X011756Y000924D01*
X011770Y001009D01*
X011770Y001033D01*
X011240Y001033D01*
X011240Y001073D01*
X011200Y001073D01*
X011200Y001603D01*
X011177Y001603D01*
X011091Y001589D01*
X011009Y001562D01*
X010932Y001523D01*
X010862Y001472D01*
X010800Y001411D01*
X010750Y001341D01*
X010700Y001411D01*
X010638Y001472D01*
X010568Y001523D01*
X010491Y001562D01*
X010409Y001589D01*
X010323Y001603D01*
X010300Y001603D01*
X010300Y001073D01*
X010260Y001073D01*
X010260Y001603D01*
X010237Y001603D01*
X010151Y001589D01*
X010069Y001562D01*
X009992Y001523D01*
X009922Y001472D01*
X009860Y001411D01*
X009810Y001341D01*
X009770Y001264D01*
X009744Y001181D01*
X009730Y001096D01*
X009730Y001073D01*
X010260Y001073D01*
X010260Y001033D01*
X009730Y001033D01*
X009730Y001009D01*
X009744Y000924D01*
X009770Y000841D01*
X009810Y000764D01*
X009860Y000694D01*
X009922Y000633D01*
X009957Y000608D01*
X008043Y000608D01*
X008078Y000633D01*
X008140Y000694D01*
X008190Y000764D01*
X008230Y000841D01*
X008256Y000924D01*
X008270Y001009D01*
X008270Y001033D01*
X007740Y001033D01*
X007740Y001073D01*
X007700Y001073D01*
X007700Y001603D01*
X007677Y001603D01*
X007591Y001589D01*
X007509Y001562D01*
X007432Y001523D01*
X007362Y001472D01*
X007300Y001411D01*
X007250Y001341D01*
X007200Y001411D01*
X007138Y001472D01*
X007068Y001523D01*
X006991Y001562D01*
X006909Y001589D01*
X006823Y001603D01*
X006800Y001603D01*
X006800Y001073D01*
X006760Y001073D01*
X006760Y001603D01*
X006737Y001603D01*
X006651Y001589D01*
X006569Y001562D01*
X006492Y001523D01*
X006422Y001472D01*
X006360Y001411D01*
X006310Y001341D01*
X006270Y001264D01*
X006244Y001181D01*
X006230Y001096D01*
X006230Y001073D01*
X006760Y001073D01*
X006760Y001033D01*
X006230Y001033D01*
X006230Y001009D01*
X006244Y000924D01*
X006270Y000841D01*
X006310Y000764D01*
X006360Y000694D01*
X006422Y000633D01*
X006457Y000608D01*
X004543Y000608D01*
X004578Y000633D01*
X004640Y000694D01*
X004690Y000764D01*
X004730Y000841D01*
X004756Y000924D01*
X004770Y001009D01*
X004770Y001033D01*
X004240Y001033D01*
X004240Y001073D01*
X004200Y001073D01*
X004200Y001603D01*
X004177Y001603D01*
X004091Y001589D01*
X004009Y001562D01*
X003932Y001523D01*
X003862Y001472D01*
X003800Y001411D01*
X003750Y001341D01*
X003710Y001264D01*
X003684Y001181D01*
X003670Y001096D01*
X003670Y001073D01*
X004200Y001073D01*
X004200Y001033D01*
X003670Y001033D01*
X003670Y001009D01*
X003684Y000924D01*
X003710Y000841D01*
X003750Y000764D01*
X003800Y000694D01*
X003862Y000633D01*
X003897Y000608D01*
X001230Y000608D01*
X001230Y001948D01*
X001336Y001904D01*
X001519Y001722D01*
X001524Y001720D01*
X001490Y001654D01*
X001464Y001571D01*
X001450Y001486D01*
X001450Y001463D01*
X001980Y001463D01*
X001980Y001423D01*
X001450Y001423D01*
X001450Y001399D01*
X001464Y001314D01*
X001490Y001231D01*
X001530Y001154D01*
X001580Y001084D01*
X001642Y001023D01*
X001712Y000972D01*
X001789Y000933D01*
X001871Y000906D01*
X001957Y000893D01*
X001980Y000893D01*
X001980Y001423D01*
X002020Y001423D01*
X002020Y001463D01*
X002450Y001463D01*
X002980Y001463D01*
X002980Y001423D01*
X002020Y001423D01*
X002020Y000893D01*
X002043Y000893D01*
X002129Y000906D01*
X002211Y000933D01*
X002288Y000972D01*
X002358Y001023D01*
X002420Y001084D01*
X002470Y001154D01*
X002500Y001212D01*
X002500Y000608D01*
X002712Y000972D02*
X002789Y000933D01*
X002871Y000906D01*
X002957Y000893D01*
X002980Y000893D01*
X002980Y001423D01*
X003020Y001423D01*
X003020Y001463D01*
X003550Y001463D01*
X003550Y001486D01*
X003536Y001571D01*
X003510Y001654D01*
X003476Y001720D01*
X003481Y001722D01*
X003721Y001961D01*
X003777Y002096D01*
X004051Y001983D01*
X004389Y001983D01*
X004701Y002112D01*
X004941Y002351D01*
X005070Y002663D01*
X005070Y003002D01*
X005026Y003108D01*
X005462Y003108D01*
X005507Y003127D01*
X005579Y003055D01*
X005851Y002943D01*
X005070Y002943D01*
X005000Y002494D02*
X005000Y000608D01*
X004759Y000943D02*
X006241Y000943D01*
X006500Y001033D02*
X006500Y001073D01*
X006800Y001073D02*
X007700Y001073D01*
X007700Y001033D01*
X007170Y001033D01*
X006800Y001033D01*
X006800Y001073D01*
X007000Y001073D02*
X007000Y001033D01*
X007168Y001443D02*
X007332Y001443D01*
X007500Y001558D02*
X007500Y002004D01*
X007551Y001983D02*
X007250Y002107D01*
X006949Y001983D01*
X006611Y001983D01*
X006299Y002112D01*
X006059Y002351D01*
X005930Y002663D01*
X005930Y002943D01*
X005851Y002943D01*
X005500Y003124D02*
X005500Y000608D01*
X006000Y000608D02*
X006000Y002494D01*
X006022Y002443D02*
X004978Y002443D01*
X004500Y002028D02*
X004500Y001527D01*
X004508Y001523D02*
X004431Y001562D01*
X004349Y001589D01*
X004263Y001603D01*
X004240Y001603D01*
X004240Y001073D01*
X004770Y001073D01*
X004770Y001096D01*
X004756Y001181D01*
X004730Y001264D01*
X004690Y001341D01*
X004640Y001411D01*
X004578Y001472D01*
X004508Y001523D01*
X004608Y001443D02*
X006392Y001443D01*
X006500Y001527D02*
X006500Y002028D01*
X006760Y001443D02*
X006800Y001443D01*
X007000Y001558D02*
X007000Y002004D01*
X007551Y001983D02*
X007889Y001983D01*
X008201Y002112D01*
X008441Y002351D01*
X008570Y002663D01*
X008570Y003002D01*
X008526Y003108D01*
X008579Y003055D01*
X008851Y002943D01*
X008570Y002943D01*
X008851Y002943D02*
X009145Y002943D01*
X009430Y002943D01*
X009430Y003002D02*
X009430Y002663D01*
X009559Y002351D01*
X009799Y002112D01*
X010111Y001983D01*
X010449Y001983D01*
X010750Y002107D01*
X011051Y001983D01*
X011389Y001983D01*
X011701Y002112D01*
X011941Y002351D01*
X012070Y002663D01*
X012070Y002943D01*
X012145Y002943D01*
X012851Y002943D01*
X012930Y002943D01*
X012930Y002663D01*
X013059Y002351D01*
X013299Y002112D01*
X013611Y001983D01*
X013949Y001983D01*
X014250Y002107D01*
X014551Y001983D01*
X014889Y001983D01*
X015201Y002112D01*
X015441Y002351D01*
X015570Y002663D01*
X015570Y003002D01*
X015510Y003148D01*
X015625Y003263D01*
X015738Y003535D01*
X015738Y004350D01*
X015737Y004352D01*
X015892Y004416D01*
X016027Y004551D01*
X016100Y004727D01*
X016100Y005158D01*
X016027Y005334D01*
X015892Y005469D01*
X015715Y005543D01*
X015650Y005543D01*
X015530Y005662D01*
X015530Y006168D01*
X015625Y006263D01*
X015738Y006535D01*
X015738Y007350D01*
X015625Y007622D01*
X015417Y007830D01*
X015145Y007943D01*
X014851Y007943D01*
X014579Y007830D01*
X014498Y007749D01*
X014417Y007830D01*
X014219Y007912D01*
X014300Y007993D01*
X014449Y008142D01*
X014530Y008337D01*
X014530Y016223D01*
X014720Y016413D01*
X015105Y016413D01*
X015300Y016493D01*
X015550Y016743D01*
X015699Y016892D01*
X015780Y017087D01*
X015780Y017197D01*
X015781Y017198D01*
X015854Y017375D01*
X015854Y017775D01*
X015927Y017654D01*
X015957Y017580D01*
X015992Y017546D01*
X016017Y017504D01*
X016081Y017456D01*
X016137Y017400D01*
X016182Y017381D01*
X016221Y017353D01*
X016299Y017333D01*
X016373Y017303D01*
X016421Y017303D01*
X016468Y017291D01*
X016547Y017303D01*
X018729Y017303D01*
X018650Y017112D01*
X018650Y016773D01*
X018779Y016461D01*
X019019Y016222D01*
X019331Y016093D01*
X019669Y016093D01*
X019770Y016134D01*
X019770Y015778D01*
X019751Y015798D01*
X019520Y015798D01*
X019520Y015213D01*
X019480Y015213D01*
X019480Y015798D01*
X019249Y015798D01*
X018895Y015443D01*
X018895Y015213D01*
X019480Y015213D01*
X019480Y015173D01*
X018895Y015173D01*
X018895Y014942D01*
X019249Y014588D01*
X019260Y014588D01*
X019005Y014333D01*
X019005Y014138D01*
X019490Y014138D01*
X019490Y014623D01*
X019480Y014623D01*
X019480Y015173D01*
X019520Y015173D01*
X019520Y014623D01*
X019510Y014623D01*
X019510Y014138D01*
X019490Y014138D01*
X019490Y014118D01*
X019005Y014118D01*
X019005Y013923D01*
X019088Y013840D01*
X018955Y013707D01*
X018955Y013912D01*
X018882Y014088D01*
X018747Y014223D01*
X018654Y014262D01*
X018655Y014265D01*
X018655Y014526D01*
X018199Y014526D01*
X018199Y014681D01*
X018655Y014681D01*
X018655Y014943D01*
X018643Y014988D01*
X018619Y015029D01*
X018586Y015063D01*
X018545Y015087D01*
X018499Y015099D01*
X018199Y015099D01*
X018199Y014681D01*
X018044Y014681D01*
X018044Y014526D01*
X017587Y014526D01*
X017587Y014265D01*
X017588Y014262D01*
X017495Y014223D01*
X017360Y014088D01*
X017287Y013912D01*
X017287Y013091D01*
X017360Y012915D01*
X017469Y012806D01*
X017350Y012688D01*
X017277Y012511D01*
X017277Y011690D01*
X017339Y011541D01*
X017277Y011392D01*
X017277Y010777D01*
X017030Y010777D01*
X017030Y012058D01*
X017100Y012227D01*
X017100Y012658D01*
X017027Y012834D01*
X016892Y012969D01*
X016715Y013043D01*
X016285Y013043D01*
X016108Y012969D01*
X015973Y012834D01*
X015900Y012658D01*
X015900Y012227D01*
X015970Y012058D01*
X015970Y010277D01*
X016051Y010082D01*
X016145Y009988D01*
X016145Y009492D01*
X016218Y009316D01*
X016353Y009181D01*
X016530Y009108D01*
X016585Y009108D01*
X016653Y009040D01*
X016500Y008997D02*
X016500Y009120D01*
X016368Y008943D02*
X014530Y008943D01*
X014530Y008443D02*
X016001Y008443D01*
X016000Y008441D02*
X016000Y010205D01*
X015970Y010443D02*
X014530Y010443D01*
X014530Y010943D02*
X015970Y010943D01*
X015970Y011443D02*
X014530Y011443D01*
X014530Y011943D02*
X015970Y011943D01*
X015900Y012443D02*
X014530Y012443D01*
X014530Y012943D02*
X016081Y012943D01*
X016000Y012861D02*
X016000Y017532D01*
X016095Y017443D02*
X015854Y017443D01*
X015720Y016943D02*
X018650Y016943D01*
X018500Y017303D02*
X018500Y015099D01*
X018655Y014943D02*
X018895Y014943D01*
X019000Y014837D02*
X019000Y013752D01*
X019005Y013943D02*
X018943Y013943D01*
X019115Y014443D02*
X018655Y014443D01*
X018500Y014526D02*
X018500Y014681D01*
X018199Y014943D02*
X018044Y014943D01*
X018044Y015099D02*
X017743Y015099D01*
X017697Y015087D01*
X017656Y015063D01*
X017623Y015029D01*
X017599Y014988D01*
X017587Y014943D01*
X017587Y014681D01*
X018044Y014681D01*
X018044Y015099D01*
X018000Y015099D02*
X018000Y017303D01*
X017500Y017303D02*
X017500Y014226D01*
X017299Y013943D02*
X014530Y013943D01*
X014530Y013443D02*
X017287Y013443D01*
X017348Y012943D02*
X016919Y012943D01*
X017000Y012861D02*
X017000Y017303D01*
X016500Y017295D02*
X016500Y013043D01*
X017100Y012443D02*
X017277Y012443D01*
X017277Y011943D02*
X017030Y011943D01*
X017030Y011443D02*
X017298Y011443D01*
X017277Y010943D02*
X017030Y010943D01*
X016145Y009943D02*
X014530Y009943D01*
X014530Y009443D02*
X016166Y009443D01*
X016000Y008127D02*
X016000Y005361D01*
X015919Y005443D02*
X016970Y005443D01*
X016970Y004943D02*
X016100Y004943D01*
X016000Y004524D02*
X016000Y004173D01*
X016000Y003963D02*
X016000Y003923D01*
X016000Y003712D02*
X016000Y000608D01*
X015500Y000608D02*
X015500Y002494D01*
X015478Y002443D02*
X016522Y002443D01*
X016500Y002494D02*
X016500Y000608D01*
X016741Y000943D02*
X015259Y000943D01*
X015270Y001073D02*
X015270Y001096D01*
X015256Y001181D01*
X015230Y001264D01*
X015190Y001341D01*
X015140Y001411D01*
X015078Y001472D01*
X015008Y001523D01*
X014931Y001562D01*
X014849Y001589D01*
X014763Y001603D01*
X014740Y001603D01*
X014740Y001073D01*
X015270Y001073D01*
X015000Y001073D02*
X015000Y001033D01*
X014700Y001033D02*
X014170Y001033D01*
X013800Y001033D01*
X013800Y001073D01*
X014700Y001073D01*
X014700Y001033D01*
X014500Y001033D02*
X014500Y001073D01*
X014332Y001443D02*
X014168Y001443D01*
X014000Y001558D02*
X014000Y002004D01*
X013500Y002028D02*
X013500Y001527D01*
X013392Y001443D02*
X011608Y001443D01*
X011578Y001472D02*
X011508Y001523D01*
X011431Y001562D01*
X011349Y001589D01*
X011263Y001603D01*
X011240Y001603D01*
X011240Y001073D01*
X011770Y001073D01*
X011770Y001096D01*
X011756Y001181D01*
X011730Y001264D01*
X011690Y001341D01*
X011640Y001411D01*
X011578Y001472D01*
X011500Y001527D02*
X011500Y002028D01*
X011240Y001443D02*
X011200Y001443D01*
X011000Y001558D02*
X011000Y002004D01*
X010500Y002004D02*
X010500Y001558D01*
X010668Y001443D02*
X010832Y001443D01*
X011000Y001073D02*
X011000Y001033D01*
X010830Y001033D02*
X011200Y001033D01*
X011200Y001073D01*
X010300Y001073D01*
X010300Y001033D01*
X010830Y001033D01*
X010500Y001033D02*
X010500Y001073D01*
X010300Y001443D02*
X010260Y001443D01*
X010000Y001527D02*
X010000Y002028D01*
X009892Y001443D02*
X008108Y001443D01*
X008078Y001472D02*
X008008Y001523D01*
X007931Y001562D01*
X007849Y001589D01*
X007763Y001603D01*
X007740Y001603D01*
X007740Y001073D01*
X008270Y001073D01*
X008270Y001096D01*
X008256Y001181D01*
X008230Y001264D01*
X008190Y001341D01*
X008140Y001411D01*
X008078Y001472D01*
X008000Y001527D02*
X008000Y002028D01*
X007740Y001443D02*
X007700Y001443D01*
X007500Y001073D02*
X007500Y001033D01*
X008000Y001033D02*
X008000Y001073D01*
X008259Y000943D02*
X009741Y000943D01*
X010000Y001033D02*
X010000Y001073D01*
X009500Y000608D02*
X009500Y002494D01*
X009522Y002443D02*
X008478Y002443D01*
X008500Y002494D02*
X008500Y000608D01*
X009000Y000608D02*
X009000Y002943D01*
X009145Y002943D02*
X009417Y003055D01*
X009477Y003115D01*
X009430Y003002D01*
X011500Y001073D02*
X011500Y001033D01*
X011759Y000943D02*
X013241Y000943D01*
X013500Y001033D02*
X013500Y001073D01*
X013760Y001443D02*
X013800Y001443D01*
X014000Y001073D02*
X014000Y001033D01*
X014500Y001558D02*
X014500Y002004D01*
X015000Y002028D02*
X015000Y001527D01*
X015108Y001443D02*
X016892Y001443D01*
X017000Y001527D02*
X017000Y002028D01*
X017500Y002004D02*
X017500Y001558D01*
X017491Y001562D02*
X017409Y001589D01*
X017323Y001603D01*
X017300Y001603D01*
X017300Y001073D01*
X017830Y001073D01*
X017830Y001096D01*
X017816Y001181D01*
X017790Y001264D01*
X017750Y001341D01*
X017700Y001411D01*
X017638Y001472D01*
X017568Y001523D01*
X017491Y001562D01*
X017668Y001443D02*
X019770Y001443D01*
X019770Y001943D02*
X003702Y001943D01*
X003500Y001740D02*
X003500Y001673D01*
X003500Y001463D02*
X003500Y001423D01*
X003550Y001423D02*
X003020Y001423D01*
X003020Y000893D01*
X003043Y000893D01*
X003129Y000906D01*
X003211Y000933D01*
X003288Y000972D01*
X003358Y001023D01*
X003420Y001084D01*
X003470Y001154D01*
X003510Y001231D01*
X003536Y001314D01*
X003550Y001399D01*
X003550Y001423D01*
X003500Y001212D02*
X003500Y000608D01*
X003681Y000943D02*
X003230Y000943D01*
X003020Y000943D02*
X002980Y000943D01*
X002770Y000943D02*
X002230Y000943D01*
X002020Y000943D02*
X001980Y000943D01*
X001770Y000943D02*
X001230Y000943D01*
X001500Y001212D02*
X001500Y000608D01*
X002000Y000608D02*
X002000Y001423D01*
X002020Y001443D02*
X002980Y001443D01*
X003000Y001423D02*
X003000Y000608D01*
X002712Y000972D02*
X002642Y001023D01*
X002580Y001084D01*
X002530Y001154D01*
X002500Y001212D01*
X002500Y001423D02*
X002500Y001463D01*
X003020Y001443D02*
X003832Y001443D01*
X004000Y001558D02*
X004000Y002004D01*
X004200Y001443D02*
X004240Y001443D01*
X004000Y001073D02*
X004000Y001033D01*
X004500Y001033D02*
X004500Y001073D01*
X003000Y002443D02*
X002000Y002443D01*
X001500Y002443D01*
X001250Y002693D01*
X001250Y004193D01*
X001375Y004318D01*
X002125Y004318D01*
X002125Y013568D01*
X003750Y015193D01*
X003750Y017693D01*
X004500Y017994D01*
X005033Y017233D02*
X005088Y017256D01*
X005093Y017251D01*
X005185Y017213D01*
X005185Y017120D01*
X005692Y017120D01*
X005692Y016985D01*
X005185Y016985D01*
X005185Y016734D01*
X005197Y016688D01*
X005221Y016647D01*
X005254Y016613D01*
X005296Y016590D01*
X005341Y016578D01*
X005692Y016578D01*
X005692Y016985D01*
X005828Y016985D01*
X005828Y017120D01*
X006335Y017120D01*
X006335Y017213D01*
X006427Y017251D01*
X006559Y017383D01*
X007365Y017383D01*
X007365Y017101D01*
X007226Y017101D01*
X007050Y017028D01*
X006915Y016893D01*
X006842Y016716D01*
X006842Y016169D01*
X006894Y016043D01*
X006785Y016043D01*
X006608Y015969D01*
X006473Y015834D01*
X006400Y015658D01*
X006400Y015227D01*
X006470Y015058D01*
X006470Y013543D01*
X006285Y013543D01*
X006108Y013469D01*
X006030Y013391D01*
X006030Y013558D01*
X006100Y013727D01*
X006100Y014158D01*
X006027Y014334D01*
X005892Y014469D01*
X005715Y014543D01*
X005530Y014543D01*
X005530Y015558D01*
X005600Y015727D01*
X005600Y016158D01*
X005527Y016334D01*
X005392Y016469D01*
X005215Y016543D01*
X005032Y016543D01*
X005034Y016553D01*
X005034Y016814D01*
X004577Y016814D01*
X004577Y016439D01*
X004473Y016334D01*
X004400Y016158D01*
X004400Y015727D01*
X004470Y015558D01*
X004470Y008932D01*
X004305Y009000D01*
X004004Y009000D01*
X003727Y008885D01*
X003530Y008689D01*
X003530Y008723D01*
X003800Y008993D01*
X003949Y009142D01*
X004030Y009337D01*
X004030Y010558D01*
X004100Y010727D01*
X004100Y011158D01*
X004027Y011334D01*
X003892Y011469D01*
X003715Y011543D01*
X003285Y011543D01*
X003108Y011469D01*
X002973Y011334D01*
X002900Y011158D01*
X002900Y010727D01*
X002970Y010558D01*
X002970Y010543D01*
X002785Y010543D01*
X002685Y010501D01*
X002685Y013336D01*
X004067Y014718D01*
X004225Y014875D01*
X004310Y015081D01*
X004310Y016396D01*
X004423Y016396D01*
X004423Y016814D01*
X004577Y016814D01*
X004577Y016969D01*
X005034Y016969D01*
X005034Y017230D01*
X005033Y017233D01*
X005000Y016969D02*
X005000Y016814D01*
X005185Y016943D02*
X004577Y016943D01*
X004500Y016814D02*
X004500Y016361D01*
X004423Y016443D02*
X004577Y016443D01*
X004400Y015943D02*
X004310Y015943D01*
X004310Y015443D02*
X004470Y015443D01*
X004470Y014943D02*
X004253Y014943D01*
X004000Y014651D02*
X004000Y011361D01*
X003919Y011443D02*
X004470Y011443D01*
X004470Y011943D02*
X002685Y011943D01*
X002685Y011443D02*
X003081Y011443D01*
X003000Y011361D02*
X003000Y013651D01*
X002792Y013443D02*
X004470Y013443D01*
X004470Y013943D02*
X003292Y013943D01*
X003500Y014151D02*
X003500Y011543D01*
X004100Y010943D02*
X004470Y010943D01*
X004470Y010443D02*
X004030Y010443D01*
X004030Y009943D02*
X004470Y009943D01*
X004470Y009443D02*
X004030Y009443D01*
X004000Y009265D02*
X004000Y008999D01*
X003865Y008943D02*
X003750Y008943D01*
X004444Y008943D02*
X004470Y008943D01*
X004806Y007843D02*
X004970Y007843D01*
X004970Y004777D01*
X004641Y004777D01*
X004464Y004704D01*
X004329Y004569D01*
X004291Y004476D01*
X004287Y004477D01*
X004026Y004477D01*
X004026Y004020D01*
X003871Y004020D01*
X003871Y004477D01*
X003610Y004477D01*
X003564Y004465D01*
X003530Y004445D01*
X003530Y007801D01*
X003727Y007604D01*
X004004Y007489D01*
X004305Y007489D01*
X004583Y007604D01*
X004795Y007817D01*
X004806Y007843D01*
X004500Y007570D02*
X004500Y004719D01*
X004970Y004943D02*
X003530Y004943D01*
X003530Y005443D02*
X004970Y005443D01*
X004970Y005943D02*
X003530Y005943D01*
X003530Y006443D02*
X004970Y006443D01*
X004970Y006943D02*
X003530Y006943D01*
X003530Y007443D02*
X004970Y007443D01*
X004000Y007491D02*
X004000Y004020D01*
X004026Y004443D02*
X003871Y004443D01*
X001244Y001943D02*
X001230Y001943D01*
X001500Y001740D02*
X001500Y001673D01*
X001500Y001463D02*
X001500Y001423D01*
X001230Y001443D02*
X001980Y001443D01*
X009600Y010043D02*
X009600Y010158D01*
X009527Y010334D01*
X009514Y010348D01*
X009516Y010354D01*
X009516Y010623D01*
X009413Y010872D01*
X009223Y011063D01*
X008974Y011166D01*
X008705Y011166D01*
X008456Y011063D01*
X008266Y010872D01*
X008163Y010623D01*
X008163Y010543D01*
X008030Y010543D01*
X008030Y011558D01*
X008100Y011727D01*
X008100Y012158D01*
X008027Y012334D01*
X007977Y012384D01*
X008085Y012493D01*
X008154Y012659D01*
X008154Y011993D01*
X008227Y011816D01*
X008362Y011681D01*
X008538Y011608D01*
X009359Y011608D01*
X009536Y011681D01*
X009671Y011816D01*
X009709Y011909D01*
X009713Y011908D01*
X009974Y011908D01*
X009974Y012365D01*
X010129Y012365D01*
X010129Y012520D01*
X010546Y012520D01*
X010546Y012821D01*
X010534Y012866D01*
X010510Y012907D01*
X010477Y012941D01*
X010439Y012963D01*
X010527Y013051D01*
X010600Y013227D01*
X010600Y013658D01*
X010578Y013711D01*
X010779Y013711D01*
X010955Y013784D01*
X011090Y013919D01*
X011163Y014095D01*
X011163Y014916D01*
X011090Y015092D01*
X010955Y015227D01*
X010862Y015266D01*
X010863Y015269D01*
X010863Y015530D01*
X010406Y015530D01*
X010406Y015685D01*
X010863Y015685D01*
X010863Y015947D01*
X010851Y015992D01*
X010827Y016033D01*
X010794Y016067D01*
X010753Y016091D01*
X010707Y016103D01*
X010406Y016103D01*
X010406Y015685D01*
X010251Y015685D01*
X010251Y015530D01*
X009794Y015530D01*
X009794Y015398D01*
X009665Y015528D01*
X009665Y016026D01*
X009592Y016203D01*
X009457Y016338D01*
X009281Y016411D01*
X008560Y016411D01*
X008560Y016713D01*
X008730Y016713D01*
X008907Y016786D01*
X009042Y016921D01*
X009115Y017097D01*
X009115Y018553D01*
X011110Y018553D01*
X011050Y018528D01*
X010915Y018393D01*
X010842Y018216D01*
X010842Y017669D01*
X010915Y017493D01*
X011050Y017357D01*
X011226Y017284D01*
X011750Y017284D01*
X011853Y017181D01*
X012030Y017108D01*
X012851Y017108D01*
X013000Y017169D01*
X013000Y014361D01*
X013027Y014334D02*
X012892Y014469D01*
X012715Y014543D01*
X012285Y014543D01*
X012108Y014469D01*
X011973Y014334D01*
X011900Y014158D01*
X011900Y013727D01*
X011970Y013558D01*
X011970Y012827D01*
X011900Y012658D01*
X011900Y012227D01*
X011973Y012051D01*
X012108Y011916D01*
X012285Y011843D01*
X012715Y011843D01*
X012892Y011916D01*
X012970Y011994D01*
X012970Y008662D01*
X012780Y008473D01*
X011884Y008473D01*
X011715Y008543D01*
X011600Y008543D01*
X011600Y008658D01*
X011530Y008827D01*
X011530Y010069D01*
X011685Y009915D01*
X011933Y009812D01*
X012203Y009812D01*
X012451Y009915D01*
X012642Y010105D01*
X012745Y010354D01*
X012745Y010623D01*
X012642Y010872D01*
X012451Y011063D01*
X012203Y011166D01*
X011933Y011166D01*
X011685Y011063D01*
X011600Y010978D01*
X011600Y011158D01*
X011527Y011334D01*
X011392Y011469D01*
X011215Y011543D01*
X010785Y011543D01*
X010608Y011469D01*
X010473Y011334D01*
X010400Y011158D01*
X010400Y011043D01*
X010285Y011043D01*
X010108Y010969D01*
X009973Y010834D01*
X009900Y010658D01*
X009900Y010227D01*
X009970Y010058D01*
X009970Y010043D01*
X009785Y010043D01*
X009750Y010028D01*
X009715Y010043D01*
X009600Y010043D01*
X009516Y010443D02*
X009900Y010443D01*
X010000Y010861D02*
X010000Y012365D01*
X010129Y012365D02*
X010129Y011908D01*
X010390Y011908D01*
X010436Y011920D01*
X010477Y011944D01*
X010510Y011978D01*
X010534Y012019D01*
X010546Y012064D01*
X010546Y012365D01*
X010129Y012365D01*
X010129Y012443D02*
X011900Y012443D01*
X012000Y012024D02*
X012000Y011166D01*
X011500Y011361D02*
X011500Y017284D01*
X012000Y017120D02*
X012000Y014361D01*
X012081Y014443D02*
X011163Y014443D01*
X011152Y014943D02*
X013470Y014943D01*
X013470Y015443D02*
X010863Y015443D01*
X011000Y015182D02*
X011000Y017407D01*
X010965Y017443D02*
X009115Y017443D01*
X009051Y016943D02*
X013750Y016943D01*
X013916Y017108D02*
X013551Y016743D01*
X013470Y016548D01*
X013470Y014043D01*
X013285Y014043D01*
X013108Y013969D01*
X013100Y013961D01*
X013100Y014158D01*
X013027Y014334D01*
X012919Y014443D02*
X013470Y014443D01*
X012500Y014543D02*
X012500Y017108D01*
X013000Y017169D02*
X013149Y017108D01*
X013916Y017108D01*
X013500Y017108D02*
X013500Y016620D01*
X013470Y016443D02*
X008560Y016443D01*
X009000Y016411D02*
X009000Y016879D01*
X009500Y016295D02*
X009500Y018553D01*
X009115Y018443D02*
X010965Y018443D01*
X011000Y018478D02*
X011000Y018553D01*
X010500Y018553D02*
X010500Y016103D01*
X010406Y015943D02*
X010251Y015943D01*
X010251Y016103D02*
X010251Y015685D01*
X009794Y015685D01*
X009794Y015947D01*
X009807Y015992D01*
X009830Y016033D01*
X009864Y016067D01*
X009905Y016091D01*
X009951Y016103D01*
X010251Y016103D01*
X010000Y016103D02*
X010000Y018553D01*
X010842Y017943D02*
X009115Y017943D01*
X008000Y017943D02*
X006000Y017943D01*
X006500Y017324D02*
X006500Y015861D01*
X006581Y015943D02*
X005600Y015943D01*
X005500Y016361D02*
X005500Y016578D01*
X005419Y016443D02*
X006842Y016443D01*
X006323Y016688D02*
X006335Y016734D01*
X006335Y016985D01*
X005828Y016985D01*
X005828Y016578D01*
X006179Y016578D01*
X006224Y016590D01*
X006266Y016613D01*
X006299Y016647D01*
X006323Y016688D01*
X006335Y016943D02*
X006965Y016943D01*
X007000Y016978D02*
X007000Y017383D01*
X006000Y017120D02*
X006000Y016985D01*
X005828Y016943D02*
X005692Y016943D01*
X005500Y016985D02*
X005500Y017120D01*
X006000Y016578D02*
X006000Y014361D01*
X005919Y014443D02*
X006470Y014443D01*
X006470Y014943D02*
X005530Y014943D01*
X005530Y015443D02*
X006400Y015443D01*
X006470Y013943D02*
X006100Y013943D01*
X006081Y013443D02*
X006030Y013443D01*
X004470Y012943D02*
X002685Y012943D01*
X002685Y012443D02*
X004470Y012443D01*
X002900Y010943D02*
X002685Y010943D01*
X003792Y014443D02*
X004470Y014443D01*
X001500Y016553D02*
X001500Y017443D01*
X001500Y018943D01*
X001390Y018943D01*
X001360Y018973D01*
X002780Y018202D02*
X002971Y018123D01*
X003309Y018123D01*
X003621Y018252D01*
X003666Y018296D01*
X003666Y018262D01*
X003642Y018253D01*
X003639Y018253D01*
X003539Y018211D01*
X003438Y018171D01*
X003436Y018168D01*
X003433Y018167D01*
X003368Y018102D01*
X003262Y018102D01*
X003262Y017979D01*
X003234Y017910D01*
X003191Y017810D01*
X003191Y017807D01*
X003190Y017804D01*
X003190Y017696D01*
X003189Y017645D01*
X003107Y017645D01*
X003107Y018102D01*
X002846Y018102D01*
X002827Y018097D01*
X002787Y018194D01*
X002780Y018202D01*
X003000Y018123D02*
X003000Y018102D01*
X003107Y017943D02*
X003247Y017943D01*
X003500Y018196D02*
X003500Y018202D01*
X001500Y016553D02*
X001360Y016413D01*
X008000Y017943D02*
X008000Y013943D01*
X008000Y013443D01*
X009000Y012943D01*
X009000Y012443D01*
X008949Y012443D01*
X008154Y012443D02*
X008035Y012443D01*
X008000Y012407D02*
X008000Y012361D01*
X008100Y011943D02*
X008175Y011943D01*
X008500Y011624D02*
X008500Y011081D01*
X008336Y010943D02*
X008030Y010943D01*
X008030Y011443D02*
X010581Y011443D01*
X010500Y011361D02*
X010500Y011967D01*
X010474Y011943D02*
X012081Y011943D01*
X012500Y011843D02*
X012500Y011014D01*
X012571Y010943D02*
X012970Y010943D01*
X012970Y010443D02*
X012745Y010443D01*
X012500Y009964D02*
X012500Y008473D01*
X012970Y008943D02*
X011530Y008943D01*
X012000Y008473D02*
X012000Y009812D01*
X011657Y009943D02*
X011530Y009943D01*
X011530Y009443D02*
X012970Y009443D01*
X012970Y009943D02*
X012479Y009943D01*
X012970Y011443D02*
X011419Y011443D01*
X011000Y011543D02*
X011000Y013829D01*
X011100Y013943D02*
X011900Y013943D01*
X011970Y013443D02*
X010600Y013443D01*
X010500Y013024D02*
X010500Y012918D01*
X010474Y012943D02*
X011970Y012943D01*
X012919Y011943D02*
X012970Y011943D01*
X010500Y012365D02*
X010500Y012520D01*
X010129Y011943D02*
X009974Y011943D01*
X009500Y011666D02*
X009500Y010663D01*
X009343Y010943D02*
X010081Y010943D01*
X009000Y011155D02*
X009000Y011608D01*
X009750Y015443D02*
X009794Y015443D01*
X010000Y015530D02*
X010000Y015685D01*
X009794Y015943D02*
X009665Y015943D01*
X010500Y015685D02*
X010500Y015530D01*
X010863Y015943D02*
X013470Y015943D01*
X014530Y015943D02*
X019770Y015943D01*
X019500Y016093D02*
X019500Y015213D01*
X019500Y015173D02*
X019500Y014138D01*
X019490Y014443D02*
X019510Y014443D01*
X019480Y014943D02*
X019520Y014943D01*
X019520Y015443D02*
X019480Y015443D01*
X019000Y015548D02*
X019000Y016240D01*
X018798Y016443D02*
X015178Y016443D01*
X015000Y016413D02*
X015000Y007943D01*
X014500Y007751D02*
X014500Y008265D01*
X014250Y007943D02*
X016077Y007943D01*
X016500Y007571D02*
X016500Y003963D01*
X016480Y003943D02*
X015738Y003943D01*
X015919Y004443D02*
X016270Y004443D01*
X016480Y004443D02*
X016520Y004443D01*
X016730Y004443D02*
X016798Y004443D01*
X016500Y003923D02*
X016500Y003171D01*
X016430Y002943D02*
X015570Y002943D01*
X015700Y003443D02*
X016270Y003443D01*
X016480Y003443D02*
X016520Y003443D01*
X018130Y002943D02*
X019770Y002943D01*
X019500Y003093D02*
X019500Y000608D01*
X019770Y000943D02*
X017819Y000943D01*
X017500Y001033D02*
X017500Y001073D01*
X017300Y001443D02*
X017260Y001443D01*
X017000Y001073D02*
X017000Y001033D01*
X018000Y000608D02*
X018000Y002350D01*
X018038Y002443D02*
X019770Y002443D01*
X019000Y003107D02*
X019000Y000608D01*
X018500Y000608D02*
X018500Y003093D01*
X016970Y005943D02*
X015530Y005943D01*
X015700Y006443D02*
X016970Y006443D01*
X016970Y006943D02*
X015738Y006943D01*
X015700Y007443D02*
X016970Y007443D01*
X015500Y007747D02*
X015500Y016693D01*
X014658Y017578D02*
X014446Y017578D01*
X014446Y017473D01*
X014395Y017473D01*
X014337Y017449D01*
X014355Y017492D01*
X014355Y017777D01*
X014470Y017777D01*
X014458Y017756D01*
X014446Y017710D01*
X014446Y017578D01*
X014658Y017578D01*
X014658Y017578D01*
X014500Y017578D02*
X014500Y017578D01*
X014530Y015443D02*
X018895Y015443D01*
X019000Y015213D02*
X019000Y015173D01*
X018000Y014681D02*
X018000Y014526D01*
X017587Y014443D02*
X014530Y014443D01*
X014530Y014943D02*
X017587Y014943D01*
X017500Y018583D02*
X017500Y018901D01*
X017509Y018921D02*
X017394Y018643D01*
X017333Y018583D01*
X018938Y018583D01*
X019019Y018663D01*
X019024Y018665D01*
X018990Y018731D01*
X018964Y018814D01*
X018950Y018899D01*
X018950Y018923D01*
X019480Y018923D01*
X019480Y018963D01*
X018950Y018963D01*
X018950Y018986D01*
X018964Y019071D01*
X018988Y019148D01*
X017509Y019148D01*
X017509Y018921D01*
X017509Y018943D02*
X019480Y018943D01*
X019000Y018923D02*
X019000Y018963D01*
X019000Y018712D02*
X019000Y018645D01*
X018500Y018583D02*
X018500Y019148D01*
X018000Y019148D02*
X018000Y018583D01*
X012498Y003136D02*
X012417Y003055D01*
X012145Y002943D01*
X012498Y003136D02*
X012579Y003055D01*
X012851Y002943D01*
X012500Y003134D02*
X012500Y000608D01*
X013000Y000608D02*
X013000Y002494D01*
X013022Y002443D02*
X011978Y002443D01*
X012000Y002494D02*
X012000Y000608D01*
X014700Y001443D02*
X014740Y001443D01*
D27*
X003500Y018193D03*
D28*
X003000Y015443D03*
X007500Y016443D03*
X007500Y014443D03*
X007500Y012943D03*
X011500Y017943D03*
X013000Y016943D03*
X004000Y006943D03*
D29*
X004500Y017943D02*
X004500Y017994D01*
X004500Y017943D02*
X004750Y018568D01*
X005760Y018853D01*
X005875Y019193D01*
X015750Y019193D01*
X016500Y017943D01*
X019500Y017943D01*
M02*
