G75*
G70*
%OFA0B0*%
%FSLAX24Y24*%
%IPPOS*%
%LPD*%
%AMOC8*
5,1,8,0,0,1.08239X$1,22.5*
%
%ADD10C,0.0000*%
%ADD11C,0.0906*%
%ADD12R,0.0749X0.0670*%
%ADD13R,0.0827X0.0670*%
%ADD14R,0.0160X0.0280*%
%ADD15OC8,0.0670*%
%ADD16R,0.0540X0.1040*%
D10*
X000500Y000750D02*
X020000Y000750D01*
X020000Y020250D01*
X000500Y020250D01*
X000500Y000750D01*
X000500Y020246D01*
X019994Y020246D01*
X019994Y000750D01*
X000500Y000750D01*
X008567Y009000D02*
X008569Y009041D01*
X008575Y009082D01*
X008585Y009122D01*
X008598Y009161D01*
X008615Y009198D01*
X008636Y009234D01*
X008660Y009268D01*
X008687Y009299D01*
X008716Y009327D01*
X008749Y009353D01*
X008783Y009375D01*
X008820Y009394D01*
X008858Y009409D01*
X008898Y009421D01*
X008938Y009429D01*
X008979Y009433D01*
X009021Y009433D01*
X009062Y009429D01*
X009102Y009421D01*
X009142Y009409D01*
X009180Y009394D01*
X009216Y009375D01*
X009251Y009353D01*
X009284Y009327D01*
X009313Y009299D01*
X009340Y009268D01*
X009364Y009234D01*
X009385Y009198D01*
X009402Y009161D01*
X009415Y009122D01*
X009425Y009082D01*
X009431Y009041D01*
X009433Y009000D01*
X009431Y008959D01*
X009425Y008918D01*
X009415Y008878D01*
X009402Y008839D01*
X009385Y008802D01*
X009364Y008766D01*
X009340Y008732D01*
X009313Y008701D01*
X009284Y008673D01*
X009251Y008647D01*
X009217Y008625D01*
X009180Y008606D01*
X009142Y008591D01*
X009102Y008579D01*
X009062Y008571D01*
X009021Y008567D01*
X008979Y008567D01*
X008938Y008571D01*
X008898Y008579D01*
X008858Y008591D01*
X008820Y008606D01*
X008784Y008625D01*
X008749Y008647D01*
X008716Y008673D01*
X008687Y008701D01*
X008660Y008732D01*
X008636Y008766D01*
X008615Y008802D01*
X008598Y008839D01*
X008585Y008878D01*
X008575Y008918D01*
X008569Y008959D01*
X008567Y009000D01*
X008567Y012500D02*
X008569Y012541D01*
X008575Y012582D01*
X008585Y012622D01*
X008598Y012661D01*
X008615Y012698D01*
X008636Y012734D01*
X008660Y012768D01*
X008687Y012799D01*
X008716Y012827D01*
X008749Y012853D01*
X008783Y012875D01*
X008820Y012894D01*
X008858Y012909D01*
X008898Y012921D01*
X008938Y012929D01*
X008979Y012933D01*
X009021Y012933D01*
X009062Y012929D01*
X009102Y012921D01*
X009142Y012909D01*
X009180Y012894D01*
X009216Y012875D01*
X009251Y012853D01*
X009284Y012827D01*
X009313Y012799D01*
X009340Y012768D01*
X009364Y012734D01*
X009385Y012698D01*
X009402Y012661D01*
X009415Y012622D01*
X009425Y012582D01*
X009431Y012541D01*
X009433Y012500D01*
X009431Y012459D01*
X009425Y012418D01*
X009415Y012378D01*
X009402Y012339D01*
X009385Y012302D01*
X009364Y012266D01*
X009340Y012232D01*
X009313Y012201D01*
X009284Y012173D01*
X009251Y012147D01*
X009217Y012125D01*
X009180Y012106D01*
X009142Y012091D01*
X009102Y012079D01*
X009062Y012071D01*
X009021Y012067D01*
X008979Y012067D01*
X008938Y012071D01*
X008898Y012079D01*
X008858Y012091D01*
X008820Y012106D01*
X008784Y012125D01*
X008749Y012147D01*
X008716Y012173D01*
X008687Y012201D01*
X008660Y012232D01*
X008636Y012266D01*
X008615Y012302D01*
X008598Y012339D01*
X008585Y012378D01*
X008575Y012418D01*
X008569Y012459D01*
X008567Y012500D01*
D11*
X009000Y012500D03*
X009000Y009000D03*
D12*
X006000Y002551D03*
X006000Y001449D03*
X007000Y018449D03*
X007000Y019551D03*
D13*
X007500Y002551D03*
X007500Y001449D03*
X008750Y001449D03*
X008750Y002551D03*
D14*
X006091Y009114D03*
X006091Y010118D03*
X006091Y010571D03*
X006091Y011024D03*
X006091Y011476D03*
X006091Y011929D03*
X006091Y012559D03*
D15*
X009000Y018500D03*
X010000Y018500D03*
X011000Y018500D03*
X012000Y018500D03*
X013000Y018500D03*
X014000Y018500D03*
X015000Y018500D03*
X016000Y018500D03*
X016000Y019500D03*
X015000Y019500D03*
X014000Y019500D03*
X013000Y019500D03*
X012000Y019500D03*
X011000Y019500D03*
X010000Y019500D03*
X017000Y019500D03*
X018000Y019500D03*
X019000Y019500D03*
X019000Y018500D03*
X019000Y002500D03*
X019000Y001500D03*
X018000Y001500D03*
X017000Y001500D03*
X016000Y001500D03*
X015000Y001500D03*
X014000Y001500D03*
X013000Y001500D03*
X012000Y001500D03*
X011000Y001500D03*
X010000Y001500D03*
X010000Y002500D03*
X011000Y002500D03*
X012000Y002500D03*
X013000Y002500D03*
X014000Y002500D03*
X015000Y002500D03*
X016000Y002500D03*
D16*
X018000Y003750D03*
X015500Y008500D03*
X015500Y012500D03*
X018000Y017500D03*
M02*
