%
M48
M72
T01C0.0236
T02C0.0276
T03C0.0360
T04C0.0866
%
T01
X5902Y4547
X2610Y5319
X11000Y4000
X13000Y6500
X12280Y8705
X11000Y12500
X12579Y13823
X11051Y15854
X3161Y18012
X2280Y14894
T02
X17000Y18500
X18000Y18500
X18000Y2500
X17000Y2500
T03
X16000Y2500
X15000Y2500
X14000Y2500
X13000Y2500
X12000Y2500
X11000Y2500
X10000Y2500
X10000Y1500
X11000Y1500
X12000Y1500
X13000Y1500
X14000Y1500
X15000Y1500
X16000Y1500
X17000Y1500
X18000Y1500
X19000Y1500
X19000Y2500
X19000Y18500
X19000Y19500
X18000Y19500
X17000Y19500
X16000Y19500
X15000Y19500
X14000Y19500
X13000Y19500
X12000Y19500
X11000Y19500
X10000Y19500
X10000Y18500
X9000Y18500
X11000Y18500
X12000Y18500
X13000Y18500
X14000Y18500
X15000Y18500
X16000Y18500
T04
X9000Y12500
X9000Y9000
M30
