%
M48
M72
T01C0.0197
T02C0.0236
T03C0.0276
T04C0.0320
T05C0.0360
T06C0.0394
T07C0.0400
T08C0.0551
%
T01
X10500Y7443
X11500Y8943
X12500Y12443
X10750Y13693
X10000Y12943
X9000Y13443
X9000Y14443
X8500Y12443
X5000Y16443
X9500Y17693
X15500Y7943
X15500Y6943
T02
X13533Y11101
X4500Y12443
T03
X5500Y11443
X4500Y10443
X5500Y6943
X12500Y14443
X15000Y14943
X14500Y17943
X11500Y17443
X5000Y15443
X14000Y9443
X15000Y9943
T04
X2250Y16193
X2250Y19193
T05
X1500Y5128
X1500Y6128
X1500Y7128
X1500Y8128
X1500Y9128
X1500Y10128
X1500Y11128
X1500Y12128
X1500Y13128
X1500Y14128
X19500Y14128
X19500Y13128
X19500Y12128
X19500Y11128
X19500Y10128
X19500Y9128
X19500Y8128
X19500Y7128
X19500Y6128
X19500Y5128
T06
X12193Y10364
X8965Y10364
T07
X11250Y6693
X12250Y6693
X13250Y6693
X18039Y7179
X18000Y8443
X19500Y15193
X19500Y16943
X18500Y16943
X18500Y17943
X19500Y17943
X19500Y18943
X18500Y18943
X3140Y18973
X1360Y18973
X1360Y16413
X1500Y15443
X2750Y15193
X2750Y14193
X2729Y13199
X2750Y12193
X2750Y11193
X2750Y10193
X2750Y7193
X3140Y16413
T08
X4280Y18986
X4280Y8120
X16878Y8159
X16878Y18946
M30
