G75*
G70*
%OFA0B0*%
%FSLAX24Y24*%
%IPPOS*%
%LPD*%
%AMOC8*
5,1,8,0,0,1.08239X$1,22.5*
%
%ADD10C,0.0000*%
%ADD11R,0.0709X0.0630*%
%ADD12OC8,0.0630*%
%ADD13R,0.0710X0.0630*%
%ADD14OC8,0.0850*%
%ADD15C,0.0080*%
%ADD16R,0.0250X0.0500*%
%ADD17C,0.0740*%
%ADD18R,0.0630X0.0710*%
%ADD19OC8,0.0520*%
%ADD20R,0.0236X0.0217*%
%ADD21C,0.0600*%
%ADD22R,0.0317X0.0317*%
%ADD23C,0.0160*%
%ADD24R,0.0413X0.0413*%
%ADD25R,0.0356X0.0356*%
%ADD26C,0.0100*%
%ADD27C,0.0240*%
D10*
X000736Y000100D02*
X000736Y019663D01*
X020252Y019663D01*
X020252Y000100D01*
X000736Y000100D01*
X000750Y000128D02*
X000750Y019628D01*
X020250Y019628D01*
X020250Y000128D01*
X000750Y000128D01*
X004004Y008120D02*
X004006Y008153D01*
X004012Y008185D01*
X004021Y008216D01*
X004034Y008246D01*
X004051Y008274D01*
X004071Y008300D01*
X004094Y008324D01*
X004119Y008344D01*
X004147Y008362D01*
X004176Y008376D01*
X004207Y008386D01*
X004239Y008393D01*
X004272Y008396D01*
X004305Y008395D01*
X004337Y008390D01*
X004368Y008381D01*
X004399Y008369D01*
X004427Y008353D01*
X004454Y008334D01*
X004478Y008312D01*
X004499Y008287D01*
X004518Y008260D01*
X004533Y008231D01*
X004544Y008201D01*
X004552Y008169D01*
X004556Y008136D01*
X004556Y008104D01*
X004552Y008071D01*
X004544Y008039D01*
X004533Y008009D01*
X004518Y007980D01*
X004499Y007953D01*
X004478Y007928D01*
X004454Y007906D01*
X004427Y007887D01*
X004399Y007871D01*
X004368Y007859D01*
X004337Y007850D01*
X004305Y007845D01*
X004272Y007844D01*
X004239Y007847D01*
X004207Y007854D01*
X004176Y007864D01*
X004147Y007878D01*
X004119Y007896D01*
X004094Y007916D01*
X004071Y007940D01*
X004051Y007966D01*
X004034Y007994D01*
X004021Y008024D01*
X004012Y008055D01*
X004006Y008087D01*
X004004Y008120D01*
X008768Y010364D02*
X008770Y010391D01*
X008776Y010418D01*
X008785Y010444D01*
X008798Y010468D01*
X008814Y010491D01*
X008833Y010510D01*
X008855Y010527D01*
X008879Y010541D01*
X008904Y010551D01*
X008931Y010558D01*
X008958Y010561D01*
X008986Y010560D01*
X009013Y010555D01*
X009039Y010547D01*
X009063Y010535D01*
X009086Y010519D01*
X009107Y010501D01*
X009124Y010480D01*
X009139Y010456D01*
X009150Y010431D01*
X009158Y010405D01*
X009162Y010378D01*
X009162Y010350D01*
X009158Y010323D01*
X009150Y010297D01*
X009139Y010272D01*
X009124Y010248D01*
X009107Y010227D01*
X009086Y010209D01*
X009064Y010193D01*
X009039Y010181D01*
X009013Y010173D01*
X008986Y010168D01*
X008958Y010167D01*
X008931Y010170D01*
X008904Y010177D01*
X008879Y010187D01*
X008855Y010201D01*
X008833Y010218D01*
X008814Y010237D01*
X008798Y010260D01*
X008785Y010284D01*
X008776Y010310D01*
X008770Y010337D01*
X008768Y010364D01*
X011996Y010364D02*
X011998Y010391D01*
X012004Y010418D01*
X012013Y010444D01*
X012026Y010468D01*
X012042Y010491D01*
X012061Y010510D01*
X012083Y010527D01*
X012107Y010541D01*
X012132Y010551D01*
X012159Y010558D01*
X012186Y010561D01*
X012214Y010560D01*
X012241Y010555D01*
X012267Y010547D01*
X012291Y010535D01*
X012314Y010519D01*
X012335Y010501D01*
X012352Y010480D01*
X012367Y010456D01*
X012378Y010431D01*
X012386Y010405D01*
X012390Y010378D01*
X012390Y010350D01*
X012386Y010323D01*
X012378Y010297D01*
X012367Y010272D01*
X012352Y010248D01*
X012335Y010227D01*
X012314Y010209D01*
X012292Y010193D01*
X012267Y010181D01*
X012241Y010173D01*
X012214Y010168D01*
X012186Y010167D01*
X012159Y010170D01*
X012132Y010177D01*
X012107Y010187D01*
X012083Y010201D01*
X012061Y010218D01*
X012042Y010237D01*
X012026Y010260D01*
X012013Y010284D01*
X012004Y010310D01*
X011998Y010337D01*
X011996Y010364D01*
X016602Y008159D02*
X016604Y008192D01*
X016610Y008224D01*
X016619Y008255D01*
X016632Y008285D01*
X016649Y008313D01*
X016669Y008339D01*
X016692Y008363D01*
X016717Y008383D01*
X016745Y008401D01*
X016774Y008415D01*
X016805Y008425D01*
X016837Y008432D01*
X016870Y008435D01*
X016903Y008434D01*
X016935Y008429D01*
X016966Y008420D01*
X016997Y008408D01*
X017025Y008392D01*
X017052Y008373D01*
X017076Y008351D01*
X017097Y008326D01*
X017116Y008299D01*
X017131Y008270D01*
X017142Y008240D01*
X017150Y008208D01*
X017154Y008175D01*
X017154Y008143D01*
X017150Y008110D01*
X017142Y008078D01*
X017131Y008048D01*
X017116Y008019D01*
X017097Y007992D01*
X017076Y007967D01*
X017052Y007945D01*
X017025Y007926D01*
X016997Y007910D01*
X016966Y007898D01*
X016935Y007889D01*
X016903Y007884D01*
X016870Y007883D01*
X016837Y007886D01*
X016805Y007893D01*
X016774Y007903D01*
X016745Y007917D01*
X016717Y007935D01*
X016692Y007955D01*
X016669Y007979D01*
X016649Y008005D01*
X016632Y008033D01*
X016619Y008063D01*
X016610Y008094D01*
X016604Y008126D01*
X016602Y008159D01*
X016602Y018946D02*
X016604Y018979D01*
X016610Y019011D01*
X016619Y019042D01*
X016632Y019072D01*
X016649Y019100D01*
X016669Y019126D01*
X016692Y019150D01*
X016717Y019170D01*
X016745Y019188D01*
X016774Y019202D01*
X016805Y019212D01*
X016837Y019219D01*
X016870Y019222D01*
X016903Y019221D01*
X016935Y019216D01*
X016966Y019207D01*
X016997Y019195D01*
X017025Y019179D01*
X017052Y019160D01*
X017076Y019138D01*
X017097Y019113D01*
X017116Y019086D01*
X017131Y019057D01*
X017142Y019027D01*
X017150Y018995D01*
X017154Y018962D01*
X017154Y018930D01*
X017150Y018897D01*
X017142Y018865D01*
X017131Y018835D01*
X017116Y018806D01*
X017097Y018779D01*
X017076Y018754D01*
X017052Y018732D01*
X017025Y018713D01*
X016997Y018697D01*
X016966Y018685D01*
X016935Y018676D01*
X016903Y018671D01*
X016870Y018670D01*
X016837Y018673D01*
X016805Y018680D01*
X016774Y018690D01*
X016745Y018704D01*
X016717Y018722D01*
X016692Y018742D01*
X016669Y018766D01*
X016649Y018792D01*
X016632Y018820D01*
X016619Y018850D01*
X016610Y018881D01*
X016604Y018913D01*
X016602Y018946D01*
X004004Y018986D02*
X004006Y019019D01*
X004012Y019051D01*
X004021Y019082D01*
X004034Y019112D01*
X004051Y019140D01*
X004071Y019166D01*
X004094Y019190D01*
X004119Y019210D01*
X004147Y019228D01*
X004176Y019242D01*
X004207Y019252D01*
X004239Y019259D01*
X004272Y019262D01*
X004305Y019261D01*
X004337Y019256D01*
X004368Y019247D01*
X004399Y019235D01*
X004427Y019219D01*
X004454Y019200D01*
X004478Y019178D01*
X004499Y019153D01*
X004518Y019126D01*
X004533Y019097D01*
X004544Y019067D01*
X004552Y019035D01*
X004556Y019002D01*
X004556Y018970D01*
X004552Y018937D01*
X004544Y018905D01*
X004533Y018875D01*
X004518Y018846D01*
X004499Y018819D01*
X004478Y018794D01*
X004454Y018772D01*
X004427Y018753D01*
X004399Y018737D01*
X004368Y018725D01*
X004337Y018716D01*
X004305Y018711D01*
X004272Y018710D01*
X004239Y018713D01*
X004207Y018720D01*
X004176Y018730D01*
X004147Y018744D01*
X004119Y018762D01*
X004094Y018782D01*
X004071Y018806D01*
X004051Y018832D01*
X004034Y018860D01*
X004021Y018890D01*
X004012Y018921D01*
X004006Y018953D01*
X004004Y018986D01*
D11*
X008331Y014616D03*
X008331Y013513D03*
X010079Y013506D03*
X010079Y014608D03*
X016621Y013104D03*
X016621Y012002D03*
D12*
X019500Y012128D03*
X019500Y013128D03*
X019500Y014128D03*
X019500Y011128D03*
X019500Y010128D03*
X019500Y009128D03*
X019500Y008128D03*
X019500Y007128D03*
X019500Y006128D03*
X019500Y005128D03*
X001500Y005128D03*
X001500Y006128D03*
X001500Y007128D03*
X001500Y008128D03*
X001500Y009128D03*
X001500Y010128D03*
X001500Y011128D03*
X001500Y012128D03*
X001500Y013128D03*
X001500Y014128D03*
D13*
X016612Y011101D03*
X016612Y009981D03*
D14*
X018000Y008443D03*
X018039Y007179D03*
X013250Y006693D03*
X012250Y006693D03*
X011250Y006693D03*
X002750Y007193D03*
X002750Y010193D03*
X002750Y011193D03*
X002750Y012193D03*
X002729Y013199D03*
X002750Y014193D03*
X002750Y015193D03*
X001500Y015443D03*
X019500Y015193D03*
D15*
X013650Y007943D02*
X013350Y007943D01*
X002650Y008193D02*
X002350Y008193D01*
D16*
X002300Y008193D03*
X002700Y008193D03*
X013300Y007943D03*
X013700Y007943D03*
D17*
X003140Y016413D03*
X001360Y016413D03*
X001360Y018973D03*
X003140Y018973D03*
D18*
X002810Y017693D03*
X001690Y017693D03*
X005940Y017943D03*
X007060Y017943D03*
D19*
X002250Y019193D03*
X002250Y016193D03*
D20*
X008244Y017578D03*
X008756Y017578D03*
X008500Y018307D03*
D21*
X018500Y017943D03*
X019500Y017943D03*
X019500Y018943D03*
X018500Y018943D03*
X018500Y016943D03*
X019500Y016943D03*
D22*
X012500Y012443D03*
X010750Y013693D03*
X010000Y012943D03*
X009000Y013443D03*
X009000Y014443D03*
X008500Y012443D03*
X011500Y008943D03*
X010500Y007443D03*
X015500Y007943D03*
X015500Y006943D03*
X005000Y016443D03*
X009500Y017693D03*
D23*
X009754Y017054D02*
X009930Y017127D01*
X010065Y017262D01*
X010138Y017439D01*
X010138Y017946D01*
X010065Y018123D01*
X009930Y018258D01*
X009754Y018331D01*
X009246Y018331D01*
X009098Y018270D01*
X009098Y018510D01*
X009025Y018687D01*
X008991Y018721D01*
X008975Y018760D01*
X008817Y018917D01*
X008611Y019003D01*
X007389Y019003D01*
X007183Y018917D01*
X007043Y018777D01*
X006649Y018777D01*
X006500Y018716D01*
X006500Y019148D01*
X006351Y018777D02*
X005530Y018777D01*
X005353Y018704D01*
X005218Y018569D01*
X005145Y018393D01*
X005145Y017492D01*
X005178Y017413D01*
X004846Y017081D01*
X004746Y017081D01*
X004570Y017008D01*
X004435Y016873D01*
X004362Y016696D01*
X004362Y016189D01*
X004435Y016012D01*
X004570Y015877D01*
X004746Y015804D01*
X005254Y015804D01*
X005430Y015877D01*
X005565Y016012D01*
X005638Y016189D01*
X005638Y016289D01*
X006317Y016968D01*
X006475Y017125D01*
X006492Y017166D01*
X006500Y017169D01*
X006500Y013003D01*
X006000Y013003D02*
X006000Y016651D01*
X005792Y016443D02*
X012651Y016443D01*
X012500Y016291D02*
X012500Y019148D01*
X012000Y019148D02*
X012000Y015791D01*
X011991Y015782D02*
X011900Y015562D01*
X011900Y013003D01*
X010875Y013003D01*
X010913Y013095D01*
X010913Y013916D01*
X010840Y014092D01*
X010705Y014227D01*
X010612Y014266D01*
X010613Y014269D01*
X010613Y014530D01*
X010156Y014530D01*
X010156Y014685D01*
X010613Y014685D01*
X010613Y014947D01*
X010601Y014992D01*
X010577Y015033D01*
X010544Y015067D01*
X010503Y015091D01*
X010457Y015103D01*
X010156Y015103D01*
X010156Y014685D01*
X010001Y014685D01*
X010001Y015103D01*
X009701Y015103D01*
X009655Y015091D01*
X009614Y015067D01*
X009580Y015033D01*
X009557Y014992D01*
X009544Y014947D01*
X009544Y014894D01*
X009430Y015008D01*
X009254Y015081D01*
X009142Y015081D01*
X009092Y015203D01*
X008957Y015338D01*
X008781Y015411D01*
X007881Y015411D01*
X007704Y015338D01*
X007569Y015203D01*
X007496Y015026D01*
X007496Y014205D01*
X007555Y014065D01*
X007496Y013924D01*
X007496Y013103D01*
X007538Y013003D01*
X004975Y013003D01*
X004950Y013028D01*
X004774Y013101D01*
X004226Y013101D01*
X004050Y013028D01*
X003915Y012893D01*
X003842Y012716D01*
X003842Y012169D01*
X003915Y011993D01*
X004050Y011857D01*
X004226Y011784D01*
X004774Y011784D01*
X004950Y011857D01*
X004975Y011883D01*
X008064Y011883D01*
X008070Y011877D01*
X008246Y011804D01*
X008754Y011804D01*
X008930Y011877D01*
X008936Y011883D01*
X012064Y011883D01*
X012070Y011877D01*
X012246Y011804D01*
X012754Y011804D01*
X012930Y011877D01*
X013065Y012012D01*
X013138Y012189D01*
X013138Y012696D01*
X013100Y012789D01*
X013100Y015194D01*
X014249Y016343D01*
X017119Y016343D01*
X017340Y016434D01*
X017720Y016814D01*
X017720Y012462D01*
X017801Y012267D01*
X017950Y012118D01*
X018390Y011678D01*
X018585Y011598D01*
X018846Y011598D01*
X018705Y011457D01*
X018705Y010798D01*
X018816Y010688D01*
X018078Y010688D01*
X018045Y010697D01*
X017967Y010688D01*
X017889Y010688D01*
X017858Y010675D01*
X017419Y010623D01*
X017447Y010690D01*
X017447Y011511D01*
X017435Y011541D01*
X017455Y011591D01*
X017455Y012412D01*
X017382Y012588D01*
X017247Y012723D01*
X017154Y012762D01*
X017155Y012765D01*
X017155Y013026D01*
X016699Y013026D01*
X016699Y013181D01*
X017155Y013181D01*
X017155Y013443D01*
X017143Y013488D01*
X017119Y013529D01*
X017086Y013563D01*
X017045Y013587D01*
X016999Y013599D01*
X016699Y013599D01*
X016699Y013181D01*
X016544Y013181D01*
X016544Y013026D01*
X016087Y013026D01*
X016087Y012765D01*
X016088Y012762D01*
X015995Y012723D01*
X015860Y012588D01*
X015787Y012412D01*
X015787Y011661D01*
X014008Y011661D01*
X013983Y011686D01*
X013807Y011759D01*
X013260Y011759D01*
X013083Y011686D01*
X012948Y011551D01*
X012875Y011374D01*
X012875Y010827D01*
X012948Y010651D01*
X013083Y010516D01*
X013260Y010443D01*
X013807Y010443D01*
X013983Y010516D01*
X014008Y010541D01*
X015839Y010541D01*
X015777Y010392D01*
X015777Y009753D01*
X015514Y009753D01*
X015308Y009667D01*
X015150Y009510D01*
X014168Y008528D01*
X014097Y008599D01*
X013920Y008673D01*
X013080Y008673D01*
X012903Y008599D01*
X012768Y008464D01*
X012764Y008456D01*
X012727Y008444D01*
X012707Y008427D01*
X012683Y008417D01*
X012622Y008356D01*
X011957Y007802D01*
X011933Y007792D01*
X011872Y007731D01*
X011806Y007676D01*
X011794Y007653D01*
X011775Y007635D01*
X011742Y007555D01*
X011716Y007506D01*
X011625Y007598D01*
X011138Y007598D01*
X011138Y007696D01*
X011065Y007873D01*
X010930Y008008D01*
X010754Y008081D01*
X010246Y008081D01*
X010070Y008008D01*
X010064Y008003D01*
X005035Y008003D01*
X005035Y008270D01*
X004989Y008383D01*
X011064Y008383D01*
X011070Y008377D01*
X011246Y008304D01*
X011754Y008304D01*
X011930Y008377D01*
X012065Y008512D01*
X012138Y008689D01*
X012138Y009196D01*
X012065Y009373D01*
X011930Y009508D01*
X011754Y009581D01*
X011246Y009581D01*
X011070Y009508D01*
X011064Y009503D01*
X003340Y009503D01*
X003655Y009818D01*
X003655Y010567D01*
X003530Y010693D01*
X003655Y010818D01*
X003655Y011567D01*
X003530Y011693D01*
X003655Y011818D01*
X003655Y012567D01*
X003516Y012706D01*
X003634Y012825D01*
X003634Y013574D01*
X003523Y013686D01*
X003655Y013818D01*
X003655Y014567D01*
X003318Y014905D01*
X003355Y014942D01*
X003355Y015173D01*
X002770Y015173D01*
X002770Y015213D01*
X003355Y015213D01*
X003355Y015443D01*
X003236Y015563D01*
X003309Y015563D01*
X003621Y015692D01*
X003861Y015931D01*
X003990Y016243D01*
X003990Y016582D01*
X003861Y016894D01*
X003621Y017133D01*
X003309Y017263D01*
X003289Y017263D01*
X003293Y017268D01*
X003305Y017314D01*
X003305Y017615D01*
X002887Y017615D01*
X002887Y017770D01*
X003305Y017770D01*
X003305Y018071D01*
X003293Y018117D01*
X003289Y018123D01*
X003309Y018123D01*
X003621Y018252D01*
X003783Y018414D01*
X003852Y018345D01*
X004129Y018230D01*
X004430Y018230D01*
X004708Y018345D01*
X004920Y018558D01*
X005035Y018836D01*
X005035Y019136D01*
X005030Y019148D01*
X016143Y019148D01*
X016122Y019097D01*
X016122Y018796D01*
X016237Y018518D01*
X016450Y018306D01*
X016728Y018191D01*
X017028Y018191D01*
X017306Y018306D01*
X017519Y018518D01*
X017634Y018796D01*
X017634Y019097D01*
X017612Y019148D01*
X018066Y019148D01*
X018055Y019127D01*
X018032Y019055D01*
X018020Y018980D01*
X018020Y018963D01*
X018480Y018963D01*
X018480Y018923D01*
X018020Y018923D01*
X018020Y018905D01*
X018032Y018830D01*
X018055Y018758D01*
X018089Y018691D01*
X018131Y018634D01*
X018058Y018604D01*
X017997Y018543D01*
X017881Y018543D01*
X017660Y018451D01*
X017491Y018282D01*
X016751Y017543D01*
X013881Y017543D01*
X013660Y017451D01*
X013491Y017282D01*
X011991Y015782D01*
X012151Y015943D02*
X005496Y015943D01*
X005500Y015947D02*
X005500Y013003D01*
X005000Y013003D02*
X005000Y015804D01*
X004504Y015943D02*
X003865Y015943D01*
X003500Y015642D02*
X003500Y014722D01*
X003355Y014943D02*
X007496Y014943D01*
X007500Y015035D02*
X007500Y017120D01*
X007470Y017108D02*
X007647Y017181D01*
X007782Y017316D01*
X007855Y017492D01*
X007855Y017883D01*
X008019Y017883D01*
X008051Y017851D01*
X008015Y017831D01*
X007982Y017797D01*
X007958Y017756D01*
X007946Y017710D01*
X007946Y017578D01*
X007946Y017446D01*
X007958Y017401D01*
X007982Y017360D01*
X008015Y017326D01*
X008057Y017302D01*
X008102Y017290D01*
X008193Y017290D01*
X008231Y017198D01*
X008366Y017063D01*
X008542Y016990D01*
X008969Y016990D01*
X009146Y017063D01*
X009169Y017086D01*
X009246Y017054D01*
X009754Y017054D01*
X009500Y017054D02*
X009500Y014938D01*
X009496Y014943D02*
X009544Y014943D01*
X010001Y014943D02*
X010156Y014943D01*
X010000Y015103D02*
X010000Y017197D01*
X010138Y017443D02*
X013651Y017443D01*
X013500Y017291D02*
X013500Y019148D01*
X013000Y019148D02*
X013000Y016791D01*
X013151Y016943D02*
X006292Y016943D01*
X006500Y017169D02*
X006649Y017108D01*
X007470Y017108D01*
X007000Y017108D02*
X007000Y013003D01*
X007500Y013003D02*
X007500Y013094D01*
X007496Y013443D02*
X003634Y013443D01*
X003634Y012943D02*
X003965Y012943D01*
X004000Y012978D02*
X004000Y018284D01*
X004500Y018259D02*
X004500Y016938D01*
X004504Y016943D02*
X003812Y016943D01*
X003500Y017183D02*
X003500Y018202D01*
X003305Y017943D02*
X005145Y017943D01*
X005166Y018443D02*
X004805Y018443D01*
X005000Y018751D02*
X005000Y017234D01*
X005166Y017443D02*
X003305Y017443D01*
X003000Y017615D02*
X003000Y017770D01*
X002810Y017693D02*
X002250Y018252D01*
X002250Y019193D01*
X002250Y019148D02*
X002250Y019148D01*
X002250Y018753D01*
X002311Y018753D01*
X002419Y018491D01*
X002659Y018252D01*
X002718Y018227D01*
X002471Y018227D01*
X002452Y018222D01*
X002412Y018319D01*
X002277Y018454D01*
X002101Y018527D01*
X002096Y018527D01*
X002189Y018753D01*
X002250Y018753D01*
X002250Y019148D01*
X002250Y018943D02*
X002250Y018943D01*
X002289Y018443D02*
X002468Y018443D01*
X002500Y018410D02*
X002500Y018227D01*
X001690Y017693D02*
X001690Y017633D01*
X001500Y017443D01*
X001500Y018943D01*
X001390Y018943D01*
X001360Y018973D01*
X001500Y017443D02*
X001360Y017303D01*
X001360Y016413D01*
X002030Y016413D01*
X002250Y016193D01*
X003000Y015213D02*
X003000Y015173D01*
X003355Y015443D02*
X011900Y015443D01*
X011900Y014943D02*
X010613Y014943D01*
X010500Y015091D02*
X010500Y019148D01*
X011000Y019148D02*
X011000Y013003D01*
X010913Y013443D02*
X011900Y013443D01*
X011500Y013003D02*
X011500Y019148D01*
X010138Y017943D02*
X017151Y017943D01*
X017000Y017791D02*
X017000Y018191D01*
X016500Y018285D02*
X016500Y017543D01*
X016000Y017543D02*
X016000Y019148D01*
X016122Y018943D02*
X008756Y018943D01*
X008500Y019003D02*
X008500Y019148D01*
X009000Y019148D02*
X009000Y018712D01*
X009098Y018443D02*
X016313Y018443D01*
X015500Y019148D02*
X015500Y017543D01*
X015000Y017543D02*
X015000Y019148D01*
X014500Y019148D02*
X014500Y017543D01*
X014000Y017543D02*
X014000Y019148D01*
X014500Y016343D02*
X014500Y011661D01*
X014000Y011669D02*
X014000Y016094D01*
X013849Y015943D02*
X017720Y015943D01*
X017720Y016443D02*
X017349Y016443D01*
X017500Y016594D02*
X017500Y010633D01*
X017447Y010943D02*
X018705Y010943D01*
X018500Y010688D02*
X018500Y011633D01*
X018705Y011443D02*
X017447Y011443D01*
X017455Y011943D02*
X018125Y011943D01*
X018000Y012068D02*
X018000Y010691D01*
X018000Y010128D02*
X016750Y009981D01*
X016500Y009943D01*
X016612Y009981D02*
X016750Y009981D01*
X015777Y009943D02*
X012729Y009943D01*
X012767Y009980D02*
X012576Y009790D01*
X012328Y009687D01*
X012058Y009687D01*
X011810Y009790D01*
X011619Y009980D01*
X011516Y010229D01*
X011516Y010498D01*
X011619Y010747D01*
X011810Y010938D01*
X012058Y011041D01*
X012328Y011041D01*
X012576Y010938D01*
X012767Y010747D01*
X012870Y010498D01*
X012870Y010229D01*
X012767Y009980D01*
X012500Y009758D02*
X012500Y008255D01*
X012725Y008443D02*
X011996Y008443D01*
X012000Y008447D02*
X012000Y007838D01*
X012125Y007943D02*
X010996Y007943D01*
X011000Y007938D02*
X011000Y008383D01*
X010500Y008383D02*
X010500Y008081D01*
X010000Y008003D02*
X010000Y008383D01*
X009500Y008383D02*
X009500Y008003D01*
X009000Y008003D02*
X009000Y008383D01*
X008500Y008383D02*
X008500Y008003D01*
X008000Y008003D02*
X008000Y008383D01*
X007500Y008383D02*
X007500Y008003D01*
X007000Y008003D02*
X007000Y008383D01*
X006500Y008383D02*
X006500Y008003D01*
X006000Y008003D02*
X006000Y008383D01*
X005500Y008383D02*
X005500Y008003D01*
X005000Y008355D02*
X005000Y008383D01*
X005000Y009503D02*
X005000Y011883D01*
X005500Y011883D02*
X005500Y009503D01*
X006000Y009503D02*
X006000Y011883D01*
X006500Y011883D02*
X006500Y009503D01*
X007000Y009503D02*
X007000Y011883D01*
X007500Y011883D02*
X007500Y009503D01*
X008000Y009503D02*
X008000Y011883D01*
X008500Y011804D02*
X008500Y010856D01*
X008581Y010938D02*
X008391Y010747D01*
X008288Y010498D01*
X008288Y010229D01*
X008391Y009980D01*
X008581Y009790D01*
X008830Y009687D01*
X009099Y009687D01*
X009348Y009790D01*
X009538Y009980D01*
X009641Y010229D01*
X009641Y010498D01*
X009538Y010747D01*
X009348Y010938D01*
X009099Y011041D01*
X008830Y011041D01*
X008581Y010938D01*
X008593Y010943D02*
X003655Y010943D01*
X003655Y011443D02*
X012903Y011443D01*
X013000Y011603D02*
X013000Y011947D01*
X012996Y011943D02*
X015787Y011943D01*
X015500Y011661D02*
X015500Y016343D01*
X015000Y016343D02*
X015000Y011661D01*
X015799Y012443D02*
X013138Y012443D01*
X013100Y012943D02*
X016087Y012943D01*
X016000Y012726D02*
X016000Y016343D01*
X016500Y016343D02*
X016500Y013599D01*
X016544Y013599D02*
X016243Y013599D01*
X016197Y013587D01*
X016156Y013563D01*
X016123Y013529D01*
X016099Y013488D01*
X016087Y013443D01*
X016087Y013181D01*
X016544Y013181D01*
X016544Y013599D01*
X016544Y013443D02*
X016699Y013443D01*
X016500Y013181D02*
X016500Y013026D01*
X017000Y013026D02*
X017000Y013181D01*
X017155Y012943D02*
X017720Y012943D01*
X017720Y013443D02*
X017155Y013443D01*
X017000Y013599D02*
X017000Y016343D01*
X017720Y015443D02*
X013349Y015443D01*
X013500Y015594D02*
X013500Y011759D01*
X013533Y011101D02*
X016612Y011101D01*
X016612Y012002D01*
X016621Y012002D01*
X017443Y012443D02*
X017728Y012443D01*
X017720Y013943D02*
X013100Y013943D01*
X013100Y014443D02*
X017720Y014443D01*
X017720Y014943D02*
X013100Y014943D01*
X011900Y014443D02*
X010613Y014443D01*
X010500Y014530D02*
X010500Y014685D01*
X010500Y014693D02*
X010163Y014693D01*
X010079Y014608D01*
X010500Y014693D02*
X010750Y013943D01*
X010750Y013693D01*
X010902Y013943D02*
X011900Y013943D01*
X013100Y013443D02*
X016087Y013443D01*
X015500Y010541D02*
X015500Y009747D01*
X015083Y009443D02*
X011996Y009443D01*
X012000Y009438D02*
X012000Y009711D01*
X011657Y009943D02*
X009501Y009943D01*
X009500Y009942D02*
X009500Y009503D01*
X010000Y009503D02*
X010000Y011883D01*
X009500Y011883D02*
X009500Y010786D01*
X009336Y010943D02*
X011821Y010943D01*
X012000Y011016D02*
X012000Y011883D01*
X011500Y011883D02*
X011500Y009581D01*
X011000Y009503D02*
X011000Y011883D01*
X010500Y011883D02*
X010500Y009503D01*
X011500Y008943D02*
X001500Y008943D01*
X001500Y009128D01*
X001565Y008193D02*
X001500Y008128D01*
X001565Y008193D02*
X002300Y008193D01*
X002700Y008193D02*
X003000Y008193D01*
X003750Y007443D01*
X010500Y007443D01*
X010246Y006804D02*
X010070Y006877D01*
X010064Y006883D01*
X003655Y006883D01*
X003655Y006818D01*
X003125Y006288D01*
X002375Y006288D01*
X002295Y006368D01*
X002295Y005798D01*
X002124Y005628D01*
X002295Y005457D01*
X002295Y004798D01*
X001829Y004333D01*
X001230Y004333D01*
X001230Y000608D01*
X019770Y000608D01*
X019770Y004333D01*
X019171Y004333D01*
X018705Y004798D01*
X018705Y005457D01*
X018876Y005628D01*
X018705Y005798D01*
X018705Y006457D01*
X018876Y006628D01*
X018822Y006681D01*
X018414Y006274D01*
X017665Y006274D01*
X017134Y006804D01*
X017134Y007447D01*
X017028Y007403D01*
X016728Y007403D01*
X016450Y007518D01*
X016237Y007731D01*
X016122Y008009D01*
X016122Y008309D01*
X016237Y008587D01*
X016283Y008633D01*
X015857Y008633D01*
X014692Y007468D01*
X014486Y007383D01*
X014194Y007383D01*
X014097Y007286D01*
X013984Y007239D01*
X014155Y007067D01*
X014155Y006318D01*
X013625Y005788D01*
X012875Y005788D01*
X012750Y005913D01*
X012625Y005788D01*
X011875Y005788D01*
X011750Y005913D01*
X011625Y005788D01*
X010875Y005788D01*
X010345Y006318D01*
X010345Y006804D01*
X010246Y006804D01*
X010000Y006883D02*
X010000Y000608D01*
X009500Y000608D02*
X009500Y006883D01*
X009000Y006883D02*
X009000Y000608D01*
X008500Y000608D02*
X008500Y006883D01*
X008000Y006883D02*
X008000Y000608D01*
X007500Y000608D02*
X007500Y006883D01*
X007000Y006883D02*
X007000Y000608D01*
X006500Y000608D02*
X006500Y006883D01*
X006000Y006883D02*
X006000Y000608D01*
X005500Y000608D02*
X005500Y006883D01*
X005000Y006883D02*
X005000Y000608D01*
X004500Y000608D02*
X004500Y006883D01*
X004000Y006883D02*
X004000Y000608D01*
X003500Y000608D02*
X003500Y006663D01*
X003280Y006443D02*
X010345Y006443D01*
X010500Y006163D02*
X010500Y000608D01*
X011000Y000608D02*
X011000Y005788D01*
X010720Y005943D02*
X002295Y005943D01*
X002500Y006288D02*
X002500Y000608D01*
X003000Y000608D02*
X003000Y006288D01*
X002295Y005443D02*
X018705Y005443D01*
X018705Y005943D02*
X013780Y005943D01*
X014000Y006163D02*
X014000Y000608D01*
X014500Y000608D02*
X014500Y007388D01*
X014631Y007443D02*
X016633Y007443D01*
X016500Y007498D02*
X016500Y000608D01*
X017000Y000608D02*
X017000Y007403D01*
X017123Y007443D02*
X017134Y007443D01*
X017134Y006943D02*
X014155Y006943D01*
X014000Y007222D02*
X014000Y007245D01*
X014155Y006443D02*
X017496Y006443D01*
X017500Y006438D02*
X017500Y000608D01*
X018000Y000608D02*
X018000Y006274D01*
X018500Y006360D02*
X018500Y000608D01*
X019000Y000608D02*
X019000Y004503D01*
X019061Y004443D02*
X001939Y004443D01*
X002000Y004503D02*
X002000Y000608D01*
X001500Y000608D02*
X001500Y004333D01*
X001230Y003943D02*
X019770Y003943D01*
X019500Y004333D02*
X019500Y000608D01*
X019770Y000943D02*
X001230Y000943D01*
X001230Y001443D02*
X019770Y001443D01*
X019770Y001943D02*
X001230Y001943D01*
X001230Y002443D02*
X019770Y002443D01*
X019770Y002943D02*
X001230Y002943D01*
X001230Y003443D02*
X019770Y003443D01*
X018705Y004943D02*
X002295Y004943D01*
X003500Y009503D02*
X003500Y009663D01*
X003655Y009943D02*
X008429Y009943D01*
X008500Y009871D02*
X008500Y009503D01*
X009000Y009503D02*
X009000Y009687D01*
X009641Y010443D02*
X011516Y010443D01*
X012500Y010969D02*
X012500Y011804D01*
X012500Y012443D02*
X008500Y012443D01*
X004500Y012443D01*
X003965Y011943D02*
X003655Y011943D01*
X004000Y011907D02*
X004000Y009503D01*
X004500Y009503D02*
X004500Y011784D01*
X003842Y012443D02*
X003655Y012443D01*
X004500Y013101D02*
X004500Y015947D01*
X004362Y016443D02*
X003990Y016443D01*
X005000Y016443D02*
X006000Y017443D01*
X006000Y017943D01*
X006351Y018777D02*
X006500Y018716D01*
X006000Y018777D02*
X006000Y019148D01*
X005500Y019148D02*
X005500Y018765D01*
X005035Y018943D02*
X007244Y018943D01*
X007500Y019003D02*
X007500Y019148D01*
X007000Y019148D02*
X007000Y018777D01*
X007500Y018443D02*
X008500Y018443D01*
X008500Y018307D01*
X008000Y017883D02*
X008000Y017815D01*
X008000Y017578D02*
X008000Y017578D01*
X007946Y017578D02*
X008158Y017578D01*
X008158Y017578D01*
X007946Y017578D01*
X007947Y017443D02*
X007834Y017443D01*
X008000Y017342D02*
X008000Y015411D01*
X008500Y015411D02*
X008500Y017008D01*
X009000Y017003D02*
X009000Y015295D01*
X008331Y014616D02*
X008331Y014612D01*
X008500Y014443D01*
X009000Y014443D01*
X008429Y013513D02*
X008331Y013513D01*
X008429Y013513D02*
X008500Y013443D01*
X009000Y013443D01*
X010079Y013506D02*
X010000Y012927D01*
X010000Y012943D01*
X009000Y011883D02*
X009000Y011041D01*
X008288Y010443D02*
X003655Y010443D01*
X003655Y013943D02*
X007504Y013943D01*
X007500Y013933D02*
X007500Y014197D01*
X007496Y014443D02*
X003655Y014443D01*
X007060Y017943D02*
X007060Y018002D01*
X007500Y018443D01*
X008000Y019003D02*
X008000Y019148D01*
X009500Y019148D02*
X009500Y018331D01*
X010000Y018188D02*
X010000Y019148D01*
X017443Y018443D02*
X017651Y018443D01*
X017500Y018500D02*
X017500Y018291D01*
X018000Y018546D02*
X018000Y019148D01*
X017634Y018943D02*
X018480Y018943D01*
X018520Y018943D02*
X019480Y018943D01*
X019480Y018963D02*
X019480Y018923D01*
X019020Y018923D01*
X019020Y018905D01*
X019032Y018830D01*
X019055Y018758D01*
X019089Y018691D01*
X019131Y018634D01*
X019058Y018604D01*
X019000Y018546D01*
X019000Y019148D01*
X019055Y019127D02*
X019032Y019055D01*
X019020Y018980D01*
X019020Y018963D01*
X019480Y018963D01*
X019066Y019148D02*
X019055Y019127D01*
X019066Y019148D02*
X018934Y019148D01*
X018945Y019127D01*
X018968Y019055D01*
X018980Y018980D01*
X018980Y018963D01*
X018520Y018963D01*
X018520Y018923D01*
X018980Y018923D01*
X018980Y018905D01*
X018968Y018830D01*
X018945Y018758D01*
X018911Y018691D01*
X018869Y018634D01*
X018942Y018604D01*
X019000Y018546D01*
X019470Y016163D02*
X019655Y016163D01*
X019770Y016210D01*
X019770Y015778D01*
X019751Y015798D01*
X019520Y015798D01*
X019520Y015213D01*
X019480Y015213D01*
X019480Y015798D01*
X019405Y015798D01*
X019405Y016098D01*
X019470Y016163D01*
X019500Y016163D02*
X019500Y015213D01*
X019500Y015173D02*
X019500Y014138D01*
X019510Y014138D02*
X019490Y014138D01*
X019490Y014623D01*
X019480Y014623D01*
X019480Y015173D01*
X019520Y015173D01*
X019520Y014623D01*
X019510Y014623D01*
X019510Y014138D01*
X019490Y014443D02*
X019510Y014443D01*
X019480Y014943D02*
X019520Y014943D01*
X019520Y015443D02*
X019480Y015443D01*
X019405Y015943D02*
X019770Y015943D01*
X015000Y010541D02*
X015000Y009359D01*
X014583Y008943D02*
X012138Y008943D01*
X011500Y008304D02*
X011500Y007598D01*
X012250Y007318D02*
X012250Y006693D01*
X012250Y007318D02*
X013000Y007943D01*
X013300Y007943D01*
X013700Y007943D02*
X014375Y007943D01*
X015625Y009193D01*
X019435Y009193D01*
X019500Y009128D01*
X019500Y010128D02*
X018000Y010128D01*
X016178Y008443D02*
X015667Y008443D01*
X015500Y008276D02*
X015500Y000608D01*
X015000Y000608D02*
X015000Y007776D01*
X015167Y007943D02*
X016150Y007943D01*
X016000Y008633D02*
X016000Y000608D01*
X013500Y000608D02*
X013500Y005788D01*
X013000Y005788D02*
X013000Y000608D01*
X012500Y000608D02*
X012500Y005788D01*
X012000Y005788D02*
X012000Y000608D01*
X011500Y000608D02*
X011500Y005788D01*
X013000Y008640D02*
X013000Y010599D01*
X012870Y010443D02*
X015798Y010443D01*
X014500Y010541D02*
X014500Y008859D01*
X014000Y008640D02*
X014000Y010532D01*
X013500Y010443D02*
X013500Y008673D01*
X012875Y010943D02*
X012564Y010943D01*
X018583Y006443D02*
X018705Y006443D01*
D24*
X015000Y009943D03*
X014000Y009443D03*
X012500Y014443D03*
X015000Y014943D03*
X014500Y017943D03*
X011500Y017443D03*
X005500Y011443D03*
X004500Y010443D03*
X005500Y006943D03*
X005000Y015443D03*
D25*
X004500Y012443D03*
X013533Y011101D03*
D26*
X018250Y012568D02*
X018250Y016693D01*
X018500Y016943D01*
X018875Y016318D02*
X019500Y016943D01*
X018875Y016318D02*
X018875Y013318D01*
X019315Y013128D01*
X019500Y013128D01*
X019500Y012128D02*
X018690Y012128D01*
X018250Y012568D01*
X009500Y017693D02*
X008870Y017693D01*
X008756Y017578D01*
D27*
X012500Y015443D02*
X014000Y016943D01*
X017000Y016943D01*
X018000Y017943D01*
X018500Y017943D01*
X019500Y017943D01*
X012500Y015443D02*
X012500Y012443D01*
M02*
