G75*
G70*
%OFA0B0*%
%FSLAX24Y24*%
%IPPOS*%
%LPD*%
%AMOC8*
5,1,8,0,0,1.08239X$1,22.5*
%
%ADD10C,0.0000*%
%ADD11R,0.0630X0.0709*%
%ADD12OC8,0.0630*%
%ADD13R,0.0710X0.0630*%
%ADD14R,0.0709X0.0630*%
%ADD15OC8,0.0850*%
%ADD16R,0.0740X0.0740*%
%ADD17C,0.0740*%
%ADD18C,0.0520*%
%ADD19R,0.0630X0.0710*%
%ADD20R,0.0591X0.0394*%
%ADD21R,0.0787X0.0394*%
%ADD22C,0.0866*%
%ADD23R,0.0240X0.0240*%
%ADD24C,0.0100*%
%ADD25C,0.0160*%
D10*
X000736Y000100D02*
X000736Y019663D01*
X020252Y019663D01*
X020252Y000100D01*
X000736Y000100D01*
X000750Y000128D02*
X000750Y019628D01*
X020250Y019628D01*
X020250Y000128D01*
X000750Y000128D01*
X004056Y008245D02*
X004058Y008276D01*
X004064Y008307D01*
X004073Y008337D01*
X004086Y008366D01*
X004103Y008393D01*
X004123Y008417D01*
X004145Y008439D01*
X004171Y008458D01*
X004198Y008474D01*
X004227Y008486D01*
X004257Y008495D01*
X004288Y008500D01*
X004320Y008501D01*
X004351Y008498D01*
X004382Y008491D01*
X004412Y008481D01*
X004440Y008467D01*
X004466Y008449D01*
X004490Y008429D01*
X004511Y008405D01*
X004530Y008380D01*
X004545Y008352D01*
X004556Y008323D01*
X004564Y008292D01*
X004568Y008261D01*
X004568Y008229D01*
X004564Y008198D01*
X004556Y008167D01*
X004545Y008138D01*
X004530Y008110D01*
X004511Y008085D01*
X004490Y008061D01*
X004466Y008041D01*
X004440Y008023D01*
X004412Y008009D01*
X004382Y007999D01*
X004351Y007992D01*
X004320Y007989D01*
X004288Y007990D01*
X004257Y007995D01*
X004227Y008004D01*
X004198Y008016D01*
X004171Y008032D01*
X004145Y008051D01*
X004123Y008073D01*
X004103Y008097D01*
X004086Y008124D01*
X004073Y008153D01*
X004064Y008183D01*
X004058Y008214D01*
X004056Y008245D01*
X008643Y010489D02*
X008645Y010516D01*
X008651Y010543D01*
X008660Y010569D01*
X008673Y010593D01*
X008689Y010616D01*
X008708Y010635D01*
X008730Y010652D01*
X008754Y010666D01*
X008779Y010676D01*
X008806Y010683D01*
X008833Y010686D01*
X008861Y010685D01*
X008888Y010680D01*
X008914Y010672D01*
X008938Y010660D01*
X008961Y010644D01*
X008982Y010626D01*
X008999Y010605D01*
X009014Y010581D01*
X009025Y010556D01*
X009033Y010530D01*
X009037Y010503D01*
X009037Y010475D01*
X009033Y010448D01*
X009025Y010422D01*
X009014Y010397D01*
X008999Y010373D01*
X008982Y010352D01*
X008961Y010334D01*
X008939Y010318D01*
X008914Y010306D01*
X008888Y010298D01*
X008861Y010293D01*
X008833Y010292D01*
X008806Y010295D01*
X008779Y010302D01*
X008754Y010312D01*
X008730Y010326D01*
X008708Y010343D01*
X008689Y010362D01*
X008673Y010385D01*
X008660Y010409D01*
X008651Y010435D01*
X008645Y010462D01*
X008643Y010489D01*
X011871Y010489D02*
X011873Y010516D01*
X011879Y010543D01*
X011888Y010569D01*
X011901Y010593D01*
X011917Y010616D01*
X011936Y010635D01*
X011958Y010652D01*
X011982Y010666D01*
X012007Y010676D01*
X012034Y010683D01*
X012061Y010686D01*
X012089Y010685D01*
X012116Y010680D01*
X012142Y010672D01*
X012166Y010660D01*
X012189Y010644D01*
X012210Y010626D01*
X012227Y010605D01*
X012242Y010581D01*
X012253Y010556D01*
X012261Y010530D01*
X012265Y010503D01*
X012265Y010475D01*
X012261Y010448D01*
X012253Y010422D01*
X012242Y010397D01*
X012227Y010373D01*
X012210Y010352D01*
X012189Y010334D01*
X012167Y010318D01*
X012142Y010306D01*
X012116Y010298D01*
X012089Y010293D01*
X012061Y010292D01*
X012034Y010295D01*
X012007Y010302D01*
X011982Y010312D01*
X011958Y010326D01*
X011936Y010343D01*
X011917Y010362D01*
X011901Y010385D01*
X011888Y010409D01*
X011879Y010435D01*
X011873Y010462D01*
X011871Y010489D01*
X016300Y008284D02*
X016302Y008315D01*
X016308Y008346D01*
X016317Y008376D01*
X016330Y008405D01*
X016347Y008432D01*
X016367Y008456D01*
X016389Y008478D01*
X016415Y008497D01*
X016442Y008513D01*
X016471Y008525D01*
X016501Y008534D01*
X016532Y008539D01*
X016564Y008540D01*
X016595Y008537D01*
X016626Y008530D01*
X016656Y008520D01*
X016684Y008506D01*
X016710Y008488D01*
X016734Y008468D01*
X016755Y008444D01*
X016774Y008419D01*
X016789Y008391D01*
X016800Y008362D01*
X016808Y008331D01*
X016812Y008300D01*
X016812Y008268D01*
X016808Y008237D01*
X016800Y008206D01*
X016789Y008177D01*
X016774Y008149D01*
X016755Y008124D01*
X016734Y008100D01*
X016710Y008080D01*
X016684Y008062D01*
X016656Y008048D01*
X016626Y008038D01*
X016595Y008031D01*
X016564Y008028D01*
X016532Y008029D01*
X016501Y008034D01*
X016471Y008043D01*
X016442Y008055D01*
X016415Y008071D01*
X016389Y008090D01*
X016367Y008112D01*
X016347Y008136D01*
X016330Y008163D01*
X016317Y008192D01*
X016308Y008222D01*
X016302Y008253D01*
X016300Y008284D01*
X016300Y019071D02*
X016302Y019102D01*
X016308Y019133D01*
X016317Y019163D01*
X016330Y019192D01*
X016347Y019219D01*
X016367Y019243D01*
X016389Y019265D01*
X016415Y019284D01*
X016442Y019300D01*
X016471Y019312D01*
X016501Y019321D01*
X016532Y019326D01*
X016564Y019327D01*
X016595Y019324D01*
X016626Y019317D01*
X016656Y019307D01*
X016684Y019293D01*
X016710Y019275D01*
X016734Y019255D01*
X016755Y019231D01*
X016774Y019206D01*
X016789Y019178D01*
X016800Y019149D01*
X016808Y019118D01*
X016812Y019087D01*
X016812Y019055D01*
X016808Y019024D01*
X016800Y018993D01*
X016789Y018964D01*
X016774Y018936D01*
X016755Y018911D01*
X016734Y018887D01*
X016710Y018867D01*
X016684Y018849D01*
X016656Y018835D01*
X016626Y018825D01*
X016595Y018818D01*
X016564Y018815D01*
X016532Y018816D01*
X016501Y018821D01*
X016471Y018830D01*
X016442Y018842D01*
X016415Y018858D01*
X016389Y018877D01*
X016367Y018899D01*
X016347Y018923D01*
X016330Y018950D01*
X016317Y018979D01*
X016308Y019009D01*
X016302Y019040D01*
X016300Y019071D01*
X004095Y019111D02*
X004097Y019142D01*
X004103Y019173D01*
X004112Y019203D01*
X004125Y019232D01*
X004142Y019259D01*
X004162Y019283D01*
X004184Y019305D01*
X004210Y019324D01*
X004237Y019340D01*
X004266Y019352D01*
X004296Y019361D01*
X004327Y019366D01*
X004359Y019367D01*
X004390Y019364D01*
X004421Y019357D01*
X004451Y019347D01*
X004479Y019333D01*
X004505Y019315D01*
X004529Y019295D01*
X004550Y019271D01*
X004569Y019246D01*
X004584Y019218D01*
X004595Y019189D01*
X004603Y019158D01*
X004607Y019127D01*
X004607Y019095D01*
X004603Y019064D01*
X004595Y019033D01*
X004584Y019004D01*
X004569Y018976D01*
X004550Y018951D01*
X004529Y018927D01*
X004505Y018907D01*
X004479Y018889D01*
X004451Y018875D01*
X004421Y018865D01*
X004390Y018858D01*
X004359Y018855D01*
X004327Y018856D01*
X004296Y018861D01*
X004266Y018870D01*
X004237Y018882D01*
X004210Y018898D01*
X004184Y018917D01*
X004162Y018939D01*
X004142Y018963D01*
X004125Y018990D01*
X004112Y019019D01*
X004103Y019049D01*
X004097Y019080D01*
X004095Y019111D01*
D11*
X008571Y018612D03*
X009673Y018612D03*
X011438Y018614D03*
X012540Y018614D03*
X010051Y012443D03*
X008949Y012443D03*
X005051Y003943D03*
X003949Y003943D03*
D12*
X001500Y005128D03*
X001500Y006128D03*
X001500Y007128D03*
X001500Y008128D03*
X001500Y009128D03*
X001500Y010128D03*
X001500Y011128D03*
X001500Y012128D03*
X001500Y013128D03*
X001500Y014128D03*
X019500Y014128D03*
X019500Y013128D03*
X019500Y012128D03*
X019500Y011128D03*
X019500Y010128D03*
X019500Y009128D03*
X019500Y008128D03*
X019500Y007128D03*
X019500Y006128D03*
X019500Y005128D03*
D13*
X018112Y010981D03*
X018112Y012101D03*
D14*
X018121Y013502D03*
X018121Y014604D03*
X004500Y016891D03*
X004500Y017994D03*
D15*
X001500Y015193D03*
X019500Y015443D03*
D16*
X002875Y017943D03*
D17*
X002875Y016943D03*
X002875Y015943D03*
X002875Y014943D03*
X001500Y016943D03*
X001500Y017943D03*
X001500Y018943D03*
X016500Y003943D03*
X017500Y003943D03*
X018500Y003943D03*
X017280Y002833D03*
X017280Y001053D03*
X014720Y001053D03*
X013780Y001053D03*
X013780Y002833D03*
X014720Y002833D03*
X011220Y002833D03*
X010280Y002833D03*
X010280Y001053D03*
X011220Y001053D03*
X007720Y001053D03*
X006780Y001053D03*
X006780Y002833D03*
X007720Y002833D03*
X004220Y002833D03*
X003000Y002443D03*
X003000Y003443D03*
X002000Y003443D03*
X002000Y002443D03*
X002000Y001443D03*
X003000Y001443D03*
X004220Y001053D03*
D18*
X005998Y003683D02*
X005998Y004203D01*
X006998Y004203D02*
X006998Y003683D01*
X007998Y003683D02*
X007998Y004203D01*
X008998Y004203D02*
X008998Y003683D01*
X009998Y003683D02*
X009998Y004203D01*
X010998Y004203D02*
X010998Y003683D01*
X011998Y003683D02*
X011998Y004203D01*
X012998Y004203D02*
X012998Y003683D01*
X013998Y003683D02*
X013998Y004203D01*
X014998Y004203D02*
X014998Y003683D01*
X014998Y006683D02*
X014998Y007203D01*
X013998Y007203D02*
X013998Y006683D01*
X012998Y006683D02*
X012998Y007203D01*
X011998Y007203D02*
X011998Y006683D01*
X010998Y006683D02*
X010998Y007203D01*
X009998Y007203D02*
X009998Y006683D01*
X008998Y006683D02*
X008998Y007203D01*
X007998Y007203D02*
X007998Y006683D01*
X006998Y006683D02*
X006998Y007203D01*
X005998Y007203D02*
X005998Y006683D01*
D19*
X016940Y009943D03*
X018060Y009943D03*
D20*
X007280Y017352D03*
X007280Y018533D03*
D21*
X007180Y017943D03*
D22*
X006425Y017943D02*
X005835Y017943D01*
D23*
X006000Y016443D03*
X005000Y015943D03*
X007000Y015443D03*
X008000Y013943D03*
X009000Y013443D03*
X009500Y013443D03*
X010000Y013443D03*
X010500Y013443D03*
X012500Y013943D03*
X013500Y013443D03*
X012500Y012443D03*
X011000Y010943D03*
X010500Y010443D03*
X010000Y009443D03*
X010500Y008943D03*
X011000Y008443D03*
X011500Y007943D03*
X012500Y005943D03*
X013000Y005443D03*
X014000Y005443D03*
X014500Y004943D03*
X015500Y004943D03*
X018750Y009943D03*
X016500Y012443D03*
X018112Y012693D03*
X011000Y016443D03*
X007500Y018943D03*
X005500Y013943D03*
X006500Y012943D03*
X007500Y011943D03*
X007000Y010443D03*
X008000Y009943D03*
X008500Y009943D03*
X009000Y009943D03*
X009500Y009443D03*
X007000Y008443D03*
X005000Y008443D03*
X003000Y009943D03*
X003500Y010943D03*
X003500Y013443D03*
D24*
X003500Y016568D01*
X002875Y016943D01*
X005000Y015943D02*
X005000Y008443D01*
X005998Y006943D02*
X005998Y016441D01*
X006000Y016443D01*
X007000Y015443D02*
X007000Y010443D01*
X007998Y009941D02*
X008000Y009943D01*
X007998Y009941D02*
X007998Y006943D01*
X006998Y006943D02*
X006998Y008441D01*
X007000Y008443D01*
X008500Y009943D02*
X008500Y004443D01*
X008998Y003944D01*
X008998Y003943D01*
X009500Y004443D02*
X009500Y009443D01*
X009998Y009441D02*
X010000Y009443D01*
X009998Y009441D02*
X009998Y006943D01*
X010998Y006943D02*
X011000Y006944D01*
X011000Y008443D01*
X011000Y010943D01*
X010500Y010443D02*
X010500Y008943D01*
X010500Y004443D01*
X010998Y003944D01*
X010998Y003943D01*
X011500Y004443D02*
X011500Y007943D01*
X013000Y007943D01*
X013500Y008443D01*
X013500Y013443D01*
X012500Y013943D02*
X012500Y012443D01*
X010500Y013443D02*
X011000Y016443D01*
X010000Y016943D02*
X011500Y018443D01*
X011500Y018552D01*
X011438Y018614D01*
X010000Y016943D02*
X010000Y013443D01*
X009500Y013443D02*
X009500Y018439D01*
X009673Y018612D01*
X009000Y017943D02*
X008571Y018513D01*
X008571Y018612D01*
X009000Y017943D02*
X009000Y013443D01*
X009000Y012943D02*
X008000Y013943D01*
X008000Y016943D01*
X007590Y017352D01*
X007280Y017352D01*
X007280Y018533D02*
X007500Y018753D01*
X007500Y018943D01*
X005500Y013943D02*
X005500Y004443D01*
X005998Y003944D01*
X005998Y003943D01*
X006000Y003943D01*
X005998Y003943D02*
X005051Y003943D01*
X006500Y004443D02*
X006500Y012943D01*
X007500Y011943D02*
X007500Y004443D01*
X007998Y003944D01*
X007998Y003943D01*
X006998Y003944D02*
X006500Y004443D01*
X006998Y003944D02*
X006998Y003943D01*
X009500Y004443D02*
X009998Y003944D01*
X009998Y003943D01*
X011500Y004443D02*
X011998Y003944D01*
X011998Y003943D01*
X012500Y004443D02*
X012500Y005943D01*
X013000Y005443D02*
X013998Y004444D01*
X013998Y003943D01*
X012998Y003944D02*
X012500Y004443D01*
X012998Y003944D02*
X012998Y003943D01*
X014000Y005443D02*
X014000Y006941D01*
X013998Y006943D01*
X014998Y006943D02*
X015000Y006943D01*
X015000Y005443D01*
X015500Y004943D01*
X014998Y004444D02*
X014500Y004943D01*
X014998Y004444D02*
X014998Y003943D01*
X017500Y003943D02*
X017500Y008943D01*
X017000Y009443D01*
X017000Y009883D01*
X016940Y009943D01*
X016500Y010383D01*
X016500Y012443D01*
X018112Y012693D02*
X018112Y012101D01*
X018112Y012693D02*
X018112Y013493D01*
X018121Y013502D01*
X018112Y010981D02*
X018060Y010929D01*
X018060Y009943D01*
X018750Y009943D01*
X019315Y009943D01*
X019500Y010128D01*
X019500Y008128D02*
X019500Y007943D01*
X018500Y007943D01*
X018500Y003943D01*
X008998Y006943D02*
X008998Y009941D01*
X009000Y009943D01*
X003500Y009443D02*
X003500Y010943D01*
X003000Y009943D02*
X002500Y009443D01*
X002500Y003943D01*
X002000Y003443D01*
X003000Y003443D02*
X003000Y008943D01*
X003500Y009443D01*
D25*
X004030Y009443D02*
X004470Y009443D01*
X004030Y009337D02*
X003949Y009142D01*
X003800Y008993D01*
X003530Y008723D01*
X003530Y004445D01*
X003564Y004465D01*
X003610Y004477D01*
X003871Y004477D01*
X003871Y004020D01*
X004026Y004020D01*
X004026Y004477D01*
X004287Y004477D01*
X004291Y004476D01*
X004329Y004569D01*
X004464Y004704D01*
X004641Y004777D01*
X004970Y004777D01*
X004970Y007843D01*
X004942Y007843D01*
X004936Y007828D01*
X004729Y007621D01*
X004458Y007509D01*
X004166Y007509D01*
X003895Y007621D01*
X003688Y007828D01*
X003576Y008098D01*
X003576Y008391D01*
X003688Y008662D01*
X003895Y008869D01*
X004166Y008981D01*
X004458Y008981D01*
X004470Y008976D01*
X004470Y015558D01*
X004400Y015727D01*
X004400Y016158D01*
X004473Y016334D01*
X004577Y016439D01*
X004577Y016814D01*
X004423Y016814D01*
X004423Y016396D01*
X004122Y016396D01*
X004076Y016409D01*
X004035Y016432D01*
X004030Y016437D01*
X004030Y013827D01*
X004100Y013658D01*
X004100Y013227D01*
X004027Y013051D01*
X003892Y012916D01*
X003715Y012843D01*
X003285Y012843D01*
X003108Y012916D01*
X002973Y013051D01*
X002900Y013227D01*
X002900Y013658D01*
X002970Y013827D01*
X002970Y014093D01*
X002706Y014093D01*
X002685Y014101D01*
X002685Y010501D01*
X002785Y010543D01*
X002970Y010543D01*
X002970Y010558D01*
X002900Y010727D01*
X002900Y011158D01*
X002973Y011334D01*
X003108Y011469D01*
X003285Y011543D01*
X003715Y011543D01*
X003892Y011469D01*
X004027Y011334D01*
X004100Y011158D01*
X004100Y010727D01*
X004030Y010558D01*
X004030Y009337D01*
X004000Y009265D02*
X004000Y008912D01*
X004074Y008943D02*
X003750Y008943D01*
X003597Y008443D02*
X003530Y008443D01*
X003530Y007943D02*
X003641Y007943D01*
X004000Y007577D02*
X004000Y004020D01*
X004026Y004443D02*
X003871Y004443D01*
X003530Y004943D02*
X004970Y004943D01*
X004500Y004719D02*
X004500Y007526D01*
X004970Y007443D02*
X003530Y007443D01*
X003530Y006943D02*
X004970Y006943D01*
X004970Y006443D02*
X003530Y006443D01*
X003530Y005943D02*
X004970Y005943D01*
X004970Y005443D02*
X003530Y005443D01*
X002125Y004318D02*
X001375Y004318D01*
X001250Y004193D01*
X001250Y002693D01*
X001500Y002443D01*
X002000Y002443D01*
X003000Y002443D01*
X003777Y002096D02*
X003721Y001961D01*
X003481Y001722D01*
X003476Y001720D01*
X003510Y001654D01*
X003536Y001571D01*
X003550Y001486D01*
X003550Y001463D01*
X003020Y001463D01*
X003020Y001423D01*
X003550Y001423D01*
X003550Y001399D01*
X003536Y001314D01*
X003510Y001231D01*
X003470Y001154D01*
X003420Y001084D01*
X003358Y001023D01*
X003288Y000972D01*
X003211Y000933D01*
X003129Y000906D01*
X003043Y000893D01*
X003020Y000893D01*
X003020Y001423D01*
X002980Y001423D01*
X002020Y001423D01*
X002020Y001463D01*
X002550Y001463D01*
X002980Y001463D01*
X002980Y001423D01*
X002980Y000893D01*
X002957Y000893D01*
X002871Y000906D01*
X002789Y000933D01*
X002712Y000972D01*
X002642Y001023D01*
X002580Y001084D01*
X002530Y001154D01*
X002500Y001212D01*
X002500Y000608D01*
X002288Y000972D02*
X002358Y001023D01*
X002420Y001084D01*
X002470Y001154D01*
X002500Y001212D01*
X002500Y001423D02*
X002500Y001463D01*
X002020Y001443D02*
X002980Y001443D01*
X003000Y001423D02*
X003000Y000608D01*
X002980Y000943D02*
X003020Y000943D01*
X003230Y000943D02*
X003681Y000943D01*
X003684Y000924D02*
X003710Y000841D01*
X003750Y000764D01*
X003800Y000694D01*
X003862Y000633D01*
X003897Y000608D01*
X001230Y000608D01*
X001230Y001948D01*
X001336Y001904D01*
X001519Y001722D01*
X001524Y001720D01*
X001490Y001654D01*
X001464Y001571D01*
X001450Y001486D01*
X001450Y001463D01*
X001980Y001463D01*
X001980Y001423D01*
X001450Y001423D01*
X001450Y001399D01*
X001464Y001314D01*
X001490Y001231D01*
X001530Y001154D01*
X001580Y001084D01*
X001642Y001023D01*
X001712Y000972D01*
X001789Y000933D01*
X001871Y000906D01*
X001957Y000893D01*
X001980Y000893D01*
X001980Y001423D01*
X002020Y001423D01*
X002020Y000893D01*
X002043Y000893D01*
X002129Y000906D01*
X002211Y000933D01*
X002288Y000972D01*
X002230Y000943D02*
X002770Y000943D01*
X003020Y001443D02*
X003832Y001443D01*
X003862Y001472D02*
X003800Y001411D01*
X003750Y001341D01*
X003710Y001264D01*
X003684Y001181D01*
X003670Y001096D01*
X003670Y001073D01*
X004200Y001073D01*
X004200Y001603D01*
X004177Y001603D01*
X004091Y001589D01*
X004009Y001562D01*
X003932Y001523D01*
X003862Y001472D01*
X004000Y001558D02*
X004000Y002004D01*
X004051Y001983D02*
X004389Y001983D01*
X004701Y002112D01*
X004941Y002351D01*
X005070Y002663D01*
X005070Y003002D01*
X005026Y003108D01*
X005462Y003108D01*
X005507Y003127D01*
X005579Y003055D01*
X005851Y002943D01*
X005070Y002943D01*
X005000Y002494D02*
X005000Y000608D01*
X004690Y000764D02*
X004730Y000841D01*
X004756Y000924D01*
X004770Y001009D01*
X004770Y001033D01*
X004240Y001033D01*
X004240Y001073D01*
X004200Y001073D01*
X004200Y001033D01*
X003670Y001033D01*
X003670Y001009D01*
X003684Y000924D01*
X004000Y001033D02*
X004000Y001073D01*
X004240Y001073D02*
X004240Y001603D01*
X004263Y001603D01*
X004349Y001589D01*
X004431Y001562D01*
X004508Y001523D01*
X004578Y001472D01*
X004640Y001411D01*
X004690Y001341D01*
X004730Y001264D01*
X004756Y001181D01*
X004770Y001096D01*
X004770Y001073D01*
X004240Y001073D01*
X004500Y001073D02*
X004500Y001033D01*
X004759Y000943D02*
X006241Y000943D01*
X006244Y000924D02*
X006270Y000841D01*
X006310Y000764D01*
X006360Y000694D01*
X006422Y000633D01*
X006457Y000608D01*
X004543Y000608D01*
X004578Y000633D01*
X004640Y000694D01*
X004690Y000764D01*
X005500Y000608D02*
X005500Y003124D01*
X005851Y002943D02*
X005930Y002943D01*
X005930Y002663D01*
X006059Y002351D01*
X006299Y002112D01*
X006611Y001983D01*
X006949Y001983D01*
X007250Y002107D01*
X007551Y001983D01*
X007889Y001983D01*
X008201Y002112D01*
X008441Y002351D01*
X008570Y002663D01*
X008570Y003002D01*
X008526Y003108D01*
X008579Y003055D01*
X008851Y002943D01*
X008570Y002943D01*
X008851Y002943D02*
X009145Y002943D01*
X009430Y002943D01*
X009430Y003002D02*
X009430Y002663D01*
X009559Y002351D01*
X009799Y002112D01*
X010111Y001983D01*
X010449Y001983D01*
X010750Y002107D01*
X011051Y001983D01*
X011389Y001983D01*
X011701Y002112D01*
X011941Y002351D01*
X012070Y002663D01*
X012070Y002943D01*
X012145Y002943D01*
X012851Y002943D01*
X012930Y002943D01*
X012930Y002663D01*
X013059Y002351D01*
X013299Y002112D01*
X013611Y001983D01*
X013949Y001983D01*
X014250Y002107D01*
X014551Y001983D01*
X014889Y001983D01*
X015201Y002112D01*
X015441Y002351D01*
X015570Y002663D01*
X015570Y003002D01*
X015510Y003148D01*
X015625Y003263D01*
X015738Y003535D01*
X015738Y004350D01*
X015737Y004352D01*
X015892Y004416D01*
X016027Y004551D01*
X016100Y004727D01*
X016100Y005158D01*
X016027Y005334D01*
X015892Y005469D01*
X015715Y005543D01*
X015650Y005543D01*
X015530Y005662D01*
X015530Y006168D01*
X015625Y006263D01*
X015738Y006535D01*
X015738Y007350D01*
X015625Y007622D01*
X015417Y007830D01*
X015145Y007943D01*
X014851Y007943D01*
X014579Y007830D01*
X014498Y007749D01*
X014417Y007830D01*
X014145Y007943D01*
X013851Y007943D01*
X013678Y007871D01*
X013949Y008142D01*
X014030Y008337D01*
X014030Y013058D01*
X014100Y013227D01*
X014100Y013658D01*
X014027Y013834D01*
X013892Y013969D01*
X013715Y014043D01*
X013285Y014043D01*
X013108Y013969D01*
X013100Y013961D01*
X013100Y014158D01*
X013027Y014334D01*
X012892Y014469D01*
X012715Y014543D01*
X012285Y014543D01*
X012108Y014469D01*
X011973Y014334D01*
X011900Y014158D01*
X011900Y013727D01*
X011970Y013558D01*
X011970Y012827D01*
X011900Y012658D01*
X011900Y012227D01*
X011973Y012051D01*
X012108Y011916D01*
X012285Y011843D01*
X012715Y011843D01*
X012892Y011916D01*
X012970Y011994D01*
X012970Y008662D01*
X012780Y008473D01*
X011884Y008473D01*
X011715Y008543D01*
X011600Y008543D01*
X011600Y008658D01*
X011530Y008827D01*
X011530Y010069D01*
X011685Y009915D01*
X011933Y009812D01*
X012203Y009812D01*
X012451Y009915D01*
X012642Y010105D01*
X012745Y010354D01*
X012745Y010623D01*
X012642Y010872D01*
X012451Y011063D01*
X012203Y011166D01*
X011933Y011166D01*
X011685Y011063D01*
X011600Y010978D01*
X011600Y011158D01*
X011527Y011334D01*
X011392Y011469D01*
X011215Y011543D01*
X010785Y011543D01*
X010608Y011469D01*
X010473Y011334D01*
X010400Y011158D01*
X010400Y011043D01*
X010285Y011043D01*
X010108Y010969D01*
X009973Y010834D01*
X009900Y010658D01*
X009900Y010227D01*
X009970Y010058D01*
X009970Y010043D01*
X009785Y010043D01*
X009750Y010028D01*
X009715Y010043D01*
X009600Y010043D01*
X009600Y010158D01*
X009527Y010334D01*
X009514Y010348D01*
X009516Y010354D01*
X009516Y010623D01*
X009413Y010872D01*
X009223Y011063D01*
X008974Y011166D01*
X008705Y011166D01*
X008456Y011063D01*
X008266Y010872D01*
X008163Y010623D01*
X008163Y010543D01*
X008030Y010543D01*
X008030Y011558D01*
X008100Y011727D01*
X008100Y012158D01*
X008027Y012334D01*
X007892Y012469D01*
X007715Y012543D01*
X007530Y012543D01*
X007530Y013494D01*
X007608Y013416D01*
X007785Y013343D01*
X007850Y013343D01*
X008197Y012996D01*
X008154Y012892D01*
X008154Y011993D01*
X008227Y011816D01*
X008362Y011681D01*
X008538Y011608D01*
X009359Y011608D01*
X009536Y011681D01*
X009671Y011816D01*
X009709Y011909D01*
X009713Y011908D01*
X009974Y011908D01*
X009974Y012365D01*
X010129Y012365D01*
X010129Y012520D01*
X010546Y012520D01*
X010546Y012821D01*
X010534Y012866D01*
X010510Y012907D01*
X010477Y012941D01*
X010439Y012963D01*
X010527Y013051D01*
X010600Y013227D01*
X010600Y013658D01*
X010530Y013827D01*
X010530Y016723D01*
X011586Y017779D01*
X011848Y017779D01*
X012025Y017853D01*
X012160Y017988D01*
X012198Y018080D01*
X012202Y018079D01*
X012463Y018079D01*
X012463Y018536D01*
X012618Y018536D01*
X012618Y018079D01*
X012879Y018079D01*
X012925Y018092D01*
X012966Y018115D01*
X012999Y018149D01*
X013023Y018190D01*
X013035Y018236D01*
X013035Y018536D01*
X012618Y018536D01*
X012618Y018691D01*
X013035Y018691D01*
X013035Y018992D01*
X013023Y019038D01*
X012999Y019079D01*
X012966Y019112D01*
X012925Y019136D01*
X012881Y019148D01*
X015820Y019148D01*
X015820Y018925D01*
X015932Y018655D01*
X016139Y018448D01*
X016410Y018336D01*
X016702Y018336D01*
X016973Y018448D01*
X017180Y018655D01*
X017292Y018925D01*
X017292Y019148D01*
X019770Y019148D01*
X019770Y016028D01*
X019751Y016048D01*
X019520Y016048D01*
X019520Y015463D01*
X019480Y015463D01*
X019480Y016048D01*
X019249Y016048D01*
X018895Y015693D01*
X018895Y015463D01*
X019480Y015463D01*
X019480Y015423D01*
X018895Y015423D01*
X018895Y015192D01*
X019249Y014838D01*
X019480Y014838D01*
X019480Y015423D01*
X019520Y015423D01*
X019520Y014838D01*
X019751Y014838D01*
X019770Y014857D01*
X019770Y014558D01*
X019705Y014623D01*
X019510Y014623D01*
X019510Y014138D01*
X019490Y014138D01*
X019490Y014623D01*
X019295Y014623D01*
X019005Y014333D01*
X019005Y014138D01*
X019490Y014138D01*
X019490Y014118D01*
X019005Y014118D01*
X019005Y013923D01*
X019088Y013840D01*
X018955Y013707D01*
X018955Y013912D01*
X018882Y014088D01*
X018747Y014223D01*
X018654Y014262D01*
X018655Y014265D01*
X018655Y014526D01*
X018199Y014526D01*
X018199Y014681D01*
X018655Y014681D01*
X018655Y014943D01*
X018643Y014988D01*
X018619Y015029D01*
X018586Y015063D01*
X018545Y015087D01*
X018499Y015099D01*
X018199Y015099D01*
X018199Y014681D01*
X018044Y014681D01*
X018044Y014526D01*
X017587Y014526D01*
X017587Y014265D01*
X017588Y014262D01*
X017495Y014223D01*
X017360Y014088D01*
X017287Y013912D01*
X017287Y013091D01*
X017360Y012915D01*
X017469Y012806D01*
X017350Y012688D01*
X017277Y012511D01*
X017277Y011690D01*
X017339Y011541D01*
X017277Y011392D01*
X017277Y010777D01*
X017030Y010777D01*
X017030Y012058D01*
X017100Y012227D01*
X017100Y012658D01*
X017027Y012834D01*
X016892Y012969D01*
X016715Y013043D01*
X016285Y013043D01*
X016108Y012969D01*
X015973Y012834D01*
X015900Y012658D01*
X015900Y012227D01*
X015970Y012058D01*
X015970Y010277D01*
X016051Y010082D01*
X016145Y009988D01*
X016145Y009492D01*
X016218Y009316D01*
X016353Y009181D01*
X016530Y009108D01*
X016585Y009108D01*
X016673Y009020D01*
X016410Y009020D01*
X016139Y008908D01*
X015932Y008701D01*
X015820Y008430D01*
X015820Y008138D01*
X015932Y007867D01*
X016139Y007660D01*
X016410Y007548D01*
X016702Y007548D01*
X016970Y007659D01*
X016970Y004615D01*
X016779Y004424D01*
X016777Y004419D01*
X016711Y004452D01*
X016629Y004479D01*
X016543Y004493D01*
X016520Y004493D01*
X016520Y003963D01*
X016480Y003963D01*
X016480Y004493D01*
X016457Y004493D01*
X016371Y004479D01*
X016289Y004452D01*
X016212Y004413D01*
X016142Y004362D01*
X016080Y004301D01*
X016030Y004231D01*
X015990Y004154D01*
X015964Y004071D01*
X015950Y003986D01*
X015950Y003963D01*
X016480Y003963D01*
X016480Y003923D01*
X015950Y003923D01*
X015950Y003899D01*
X015964Y003814D01*
X015990Y003731D01*
X016030Y003654D01*
X016080Y003584D01*
X016142Y003523D01*
X016212Y003472D01*
X016289Y003433D01*
X016371Y003406D01*
X016457Y003393D01*
X016480Y003393D01*
X016480Y003923D01*
X016520Y003923D01*
X016520Y003393D01*
X016543Y003393D01*
X016629Y003406D01*
X016662Y003417D01*
X016559Y003314D01*
X016430Y003002D01*
X016430Y002663D01*
X016559Y002351D01*
X016799Y002112D01*
X017111Y001983D01*
X017449Y001983D01*
X017761Y002112D01*
X018001Y002351D01*
X018130Y002663D01*
X018130Y003002D01*
X018043Y003212D01*
X018331Y003093D01*
X018669Y003093D01*
X018981Y003222D01*
X019221Y003461D01*
X019350Y003773D01*
X019350Y004112D01*
X019258Y004333D01*
X019770Y004333D01*
X019770Y000608D01*
X017603Y000608D01*
X017638Y000633D01*
X017700Y000694D01*
X017750Y000764D01*
X017790Y000841D01*
X017816Y000924D01*
X017830Y001009D01*
X017830Y001033D01*
X017300Y001033D01*
X017300Y001073D01*
X017260Y001073D01*
X017260Y001603D01*
X017237Y001603D01*
X017151Y001589D01*
X017069Y001562D01*
X016992Y001523D01*
X016922Y001472D01*
X016860Y001411D01*
X016810Y001341D01*
X016770Y001264D01*
X016744Y001181D01*
X016730Y001096D01*
X016730Y001073D01*
X017260Y001073D01*
X017260Y001033D01*
X016730Y001033D01*
X016730Y001009D01*
X016744Y000924D01*
X016770Y000841D01*
X016810Y000764D01*
X016860Y000694D01*
X016922Y000633D01*
X016957Y000608D01*
X015043Y000608D01*
X015078Y000633D01*
X015140Y000694D01*
X015190Y000764D01*
X015230Y000841D01*
X015256Y000924D01*
X015270Y001009D01*
X015270Y001033D01*
X014740Y001033D01*
X014740Y001073D01*
X014700Y001073D01*
X014700Y001603D01*
X014677Y001603D01*
X014591Y001589D01*
X014509Y001562D01*
X014432Y001523D01*
X014362Y001472D01*
X014300Y001411D01*
X014250Y001341D01*
X014200Y001411D01*
X014138Y001472D01*
X014068Y001523D01*
X013991Y001562D01*
X013909Y001589D01*
X013823Y001603D01*
X013800Y001603D01*
X013800Y001073D01*
X013760Y001073D01*
X013760Y001603D01*
X013737Y001603D01*
X013651Y001589D01*
X013569Y001562D01*
X013492Y001523D01*
X013422Y001472D01*
X013360Y001411D01*
X013310Y001341D01*
X013270Y001264D01*
X013244Y001181D01*
X013230Y001096D01*
X013230Y001073D01*
X013760Y001073D01*
X013760Y001033D01*
X013230Y001033D01*
X013230Y001009D01*
X013244Y000924D01*
X013270Y000841D01*
X013310Y000764D01*
X013360Y000694D01*
X013422Y000633D01*
X013457Y000608D01*
X011543Y000608D01*
X011578Y000633D01*
X011640Y000694D01*
X011690Y000764D01*
X011730Y000841D01*
X011756Y000924D01*
X011770Y001009D01*
X011770Y001033D01*
X011240Y001033D01*
X011240Y001073D01*
X011200Y001073D01*
X011200Y001603D01*
X011177Y001603D01*
X011091Y001589D01*
X011009Y001562D01*
X010932Y001523D01*
X010862Y001472D01*
X010800Y001411D01*
X010750Y001341D01*
X010700Y001411D01*
X010638Y001472D01*
X010568Y001523D01*
X010491Y001562D01*
X010409Y001589D01*
X010323Y001603D01*
X010300Y001603D01*
X010300Y001073D01*
X010260Y001073D01*
X010260Y001603D01*
X010237Y001603D01*
X010151Y001589D01*
X010069Y001562D01*
X009992Y001523D01*
X009922Y001472D01*
X009860Y001411D01*
X009810Y001341D01*
X009770Y001264D01*
X009744Y001181D01*
X009730Y001096D01*
X009730Y001073D01*
X010260Y001073D01*
X010260Y001033D01*
X009730Y001033D01*
X009730Y001009D01*
X009744Y000924D01*
X009770Y000841D01*
X009810Y000764D01*
X009860Y000694D01*
X009922Y000633D01*
X009957Y000608D01*
X008043Y000608D01*
X008078Y000633D01*
X008140Y000694D01*
X008190Y000764D01*
X008230Y000841D01*
X008256Y000924D01*
X008270Y001009D01*
X008270Y001033D01*
X007740Y001033D01*
X007740Y001073D01*
X007700Y001073D01*
X007700Y001603D01*
X007677Y001603D01*
X007591Y001589D01*
X007509Y001562D01*
X007432Y001523D01*
X007362Y001472D01*
X007300Y001411D01*
X007250Y001341D01*
X007200Y001411D01*
X007138Y001472D01*
X007068Y001523D01*
X006991Y001562D01*
X006909Y001589D01*
X006823Y001603D01*
X006800Y001603D01*
X006800Y001073D01*
X006760Y001073D01*
X006760Y001603D01*
X006737Y001603D01*
X006651Y001589D01*
X006569Y001562D01*
X006492Y001523D01*
X006422Y001472D01*
X006360Y001411D01*
X006310Y001341D01*
X006270Y001264D01*
X006244Y001181D01*
X006230Y001096D01*
X006230Y001073D01*
X006760Y001073D01*
X006760Y001033D01*
X006230Y001033D01*
X006230Y001009D01*
X006244Y000924D01*
X006500Y001033D02*
X006500Y001073D01*
X006800Y001073D02*
X007700Y001073D01*
X007700Y001033D01*
X007330Y001033D01*
X006800Y001033D01*
X006800Y001073D01*
X007000Y001073D02*
X007000Y001033D01*
X007168Y001443D02*
X007332Y001443D01*
X007500Y001558D02*
X007500Y002004D01*
X007740Y001603D02*
X007740Y001073D01*
X008270Y001073D01*
X008270Y001096D01*
X008256Y001181D01*
X008230Y001264D01*
X008190Y001341D01*
X008140Y001411D01*
X008078Y001472D01*
X008008Y001523D01*
X007931Y001562D01*
X007849Y001589D01*
X007763Y001603D01*
X007740Y001603D01*
X007740Y001443D02*
X007700Y001443D01*
X008000Y001527D02*
X008000Y002028D01*
X008478Y002443D02*
X009522Y002443D01*
X009500Y002494D02*
X009500Y000608D01*
X009741Y000943D02*
X008259Y000943D01*
X008000Y001033D02*
X008000Y001073D01*
X008108Y001443D02*
X009892Y001443D01*
X010000Y001527D02*
X010000Y002028D01*
X010500Y002004D02*
X010500Y001558D01*
X010668Y001443D02*
X010832Y001443D01*
X011000Y001558D02*
X011000Y002004D01*
X011240Y001603D02*
X011240Y001073D01*
X011770Y001073D01*
X011770Y001096D01*
X011756Y001181D01*
X011730Y001264D01*
X011690Y001341D01*
X011640Y001411D01*
X011578Y001472D01*
X011508Y001523D01*
X011431Y001562D01*
X011349Y001589D01*
X011263Y001603D01*
X011240Y001603D01*
X011240Y001443D02*
X011200Y001443D01*
X011500Y001527D02*
X011500Y002028D01*
X011978Y002443D02*
X013022Y002443D01*
X013000Y002494D02*
X013000Y000608D01*
X013241Y000943D02*
X011759Y000943D01*
X011500Y001033D02*
X011500Y001073D01*
X011200Y001073D02*
X011200Y001033D01*
X010830Y001033D01*
X010300Y001033D01*
X010300Y001073D01*
X011200Y001073D01*
X011000Y001073D02*
X011000Y001033D01*
X010500Y001033D02*
X010500Y001073D01*
X010300Y001443D02*
X010260Y001443D01*
X010000Y001073D02*
X010000Y001033D01*
X009000Y000608D02*
X009000Y002943D01*
X009145Y002943D02*
X009417Y003055D01*
X009477Y003115D01*
X009430Y003002D01*
X008500Y002494D02*
X008500Y000608D01*
X007500Y001033D02*
X007500Y001073D01*
X007000Y001558D02*
X007000Y002004D01*
X006800Y001443D02*
X006760Y001443D01*
X006500Y001527D02*
X006500Y002028D01*
X006022Y002443D02*
X004978Y002443D01*
X004500Y002028D02*
X004500Y001527D01*
X004608Y001443D02*
X006392Y001443D01*
X006000Y000608D02*
X006000Y002494D01*
X004240Y001443D02*
X004200Y001443D01*
X004051Y001983D02*
X003777Y002096D01*
X003702Y001943D02*
X019770Y001943D01*
X019770Y001443D02*
X017668Y001443D01*
X017638Y001472D02*
X017568Y001523D01*
X017491Y001562D01*
X017409Y001589D01*
X017323Y001603D01*
X017300Y001603D01*
X017300Y001073D01*
X017830Y001073D01*
X017830Y001096D01*
X017816Y001181D01*
X017790Y001264D01*
X017750Y001341D01*
X017700Y001411D01*
X017638Y001472D01*
X017500Y001558D02*
X017500Y002004D01*
X017000Y002028D02*
X017000Y001527D01*
X016892Y001443D02*
X015108Y001443D01*
X015078Y001472D02*
X015008Y001523D01*
X014931Y001562D01*
X014849Y001589D01*
X014763Y001603D01*
X014740Y001603D01*
X014740Y001073D01*
X015270Y001073D01*
X015270Y001096D01*
X015256Y001181D01*
X015230Y001264D01*
X015190Y001341D01*
X015140Y001411D01*
X015078Y001472D01*
X015000Y001527D02*
X015000Y002028D01*
X014500Y002004D02*
X014500Y001558D01*
X014332Y001443D02*
X014168Y001443D01*
X014000Y001558D02*
X014000Y002004D01*
X013500Y002028D02*
X013500Y001527D01*
X013392Y001443D02*
X011608Y001443D01*
X012000Y000608D02*
X012000Y002494D01*
X012145Y002943D02*
X012417Y003055D01*
X012498Y003136D01*
X012579Y003055D01*
X012851Y002943D01*
X012500Y003134D02*
X012500Y000608D01*
X013500Y001033D02*
X013500Y001073D01*
X013800Y001073D02*
X014700Y001073D01*
X014700Y001033D01*
X014170Y001033D01*
X013800Y001033D01*
X013800Y001073D01*
X014000Y001073D02*
X014000Y001033D01*
X013800Y001443D02*
X013760Y001443D01*
X014500Y001073D02*
X014500Y001033D01*
X014700Y001443D02*
X014740Y001443D01*
X015000Y001073D02*
X015000Y001033D01*
X015259Y000943D02*
X016741Y000943D01*
X017000Y001033D02*
X017000Y001073D01*
X017260Y001443D02*
X017300Y001443D01*
X017500Y001073D02*
X017500Y001033D01*
X017819Y000943D02*
X019770Y000943D01*
X019500Y000608D02*
X019500Y004333D01*
X019350Y003943D02*
X019770Y003943D01*
X019770Y003443D02*
X019202Y003443D01*
X019000Y003240D02*
X019000Y000608D01*
X018500Y000608D02*
X018500Y003093D01*
X018130Y002943D02*
X019770Y002943D01*
X019770Y002443D02*
X018038Y002443D01*
X018000Y002350D02*
X018000Y000608D01*
X016500Y000608D02*
X016500Y002494D01*
X016522Y002443D02*
X015478Y002443D01*
X015500Y002494D02*
X015500Y000608D01*
X016000Y000608D02*
X016000Y003712D01*
X016000Y003923D02*
X016000Y003963D01*
X016000Y004173D02*
X016000Y004524D01*
X015919Y004443D02*
X016270Y004443D01*
X016480Y004443D02*
X016520Y004443D01*
X016730Y004443D02*
X016798Y004443D01*
X016970Y004943D02*
X016100Y004943D01*
X016000Y005361D02*
X016000Y007799D01*
X015901Y007943D02*
X013750Y007943D01*
X014000Y007943D02*
X014000Y008265D01*
X014030Y008443D02*
X015825Y008443D01*
X016000Y008769D02*
X016000Y010205D01*
X015970Y010443D02*
X014030Y010443D01*
X014030Y009943D02*
X016145Y009943D01*
X016166Y009443D02*
X014030Y009443D01*
X014030Y008943D02*
X016223Y008943D01*
X016500Y009020D02*
X016500Y009120D01*
X015500Y007747D02*
X015500Y019148D01*
X015820Y018943D02*
X013035Y018943D01*
X013000Y019078D02*
X013000Y019148D01*
X013000Y018691D02*
X013000Y018536D01*
X013035Y018443D02*
X016151Y018443D01*
X016000Y018587D02*
X016000Y012861D01*
X016081Y012943D02*
X014030Y012943D01*
X014100Y013443D02*
X017287Y013443D01*
X017348Y012943D02*
X016919Y012943D01*
X017000Y012861D02*
X017000Y018475D01*
X016961Y018443D02*
X019770Y018443D01*
X019770Y017943D02*
X012115Y017943D01*
X012000Y017842D02*
X012000Y014361D01*
X012081Y014443D02*
X010530Y014443D01*
X010530Y013943D02*
X011900Y013943D01*
X011970Y013443D02*
X010600Y013443D01*
X010500Y013024D02*
X010500Y012918D01*
X010474Y012943D02*
X011970Y012943D01*
X011900Y012443D02*
X010129Y012443D01*
X010129Y012365D02*
X010546Y012365D01*
X010546Y012064D01*
X010534Y012019D01*
X010510Y011978D01*
X010477Y011944D01*
X010436Y011920D01*
X010390Y011908D01*
X010129Y011908D01*
X010129Y012365D01*
X010000Y012365D02*
X010000Y010861D01*
X010081Y010943D02*
X009343Y010943D01*
X009000Y011155D02*
X009000Y011608D01*
X009500Y011666D02*
X009500Y010663D01*
X009516Y010443D02*
X009900Y010443D01*
X010500Y011361D02*
X010500Y011967D01*
X010474Y011943D02*
X012081Y011943D01*
X012000Y012024D02*
X012000Y011166D01*
X011500Y011361D02*
X011500Y017693D01*
X011250Y017443D02*
X019770Y017443D01*
X019770Y016943D02*
X010750Y016943D01*
X011000Y017193D02*
X011000Y011543D01*
X010581Y011443D02*
X008030Y011443D01*
X008030Y010943D02*
X008336Y010943D01*
X008500Y011081D02*
X008500Y011624D01*
X008175Y011943D02*
X008100Y011943D01*
X008000Y012361D02*
X008000Y013193D01*
X008175Y012943D02*
X007530Y012943D01*
X007530Y013443D02*
X007581Y013443D01*
X007919Y012443D02*
X008154Y012443D01*
X008949Y012443D02*
X009000Y012443D01*
X009000Y012943D01*
X009974Y011943D02*
X010129Y011943D01*
X010500Y012365D02*
X010500Y012520D01*
X011419Y011443D02*
X012970Y011443D01*
X012970Y010943D02*
X012571Y010943D01*
X012500Y011014D02*
X012500Y011843D01*
X012919Y011943D02*
X012970Y011943D01*
X014030Y011943D02*
X015970Y011943D01*
X015900Y012443D02*
X014030Y012443D01*
X014030Y011443D02*
X015970Y011443D01*
X015970Y010943D02*
X014030Y010943D01*
X012970Y010443D02*
X012745Y010443D01*
X012500Y009964D02*
X012500Y008473D01*
X012970Y008943D02*
X011530Y008943D01*
X011530Y009443D02*
X012970Y009443D01*
X012970Y009943D02*
X012479Y009943D01*
X012000Y009812D02*
X012000Y008473D01*
X011657Y009943D02*
X011530Y009943D01*
X014500Y007751D02*
X014500Y019148D01*
X015000Y019148D02*
X015000Y007943D01*
X015700Y007443D02*
X016970Y007443D01*
X016970Y006943D02*
X015738Y006943D01*
X015700Y006443D02*
X016970Y006443D01*
X016970Y005943D02*
X015530Y005943D01*
X015919Y005443D02*
X016970Y005443D01*
X016500Y003963D02*
X016500Y007548D01*
X017030Y010943D02*
X017277Y010943D01*
X017298Y011443D02*
X017030Y011443D01*
X017030Y011943D02*
X017277Y011943D01*
X017277Y012443D02*
X017100Y012443D01*
X016500Y013043D02*
X016500Y018336D01*
X017292Y018943D02*
X019770Y018943D01*
X019500Y019148D02*
X019500Y015463D01*
X019480Y015443D02*
X010530Y015443D01*
X010530Y014943D02*
X017587Y014943D01*
X017587Y014681D01*
X018044Y014681D01*
X018044Y015099D01*
X017743Y015099D01*
X017697Y015087D01*
X017656Y015063D01*
X017623Y015029D01*
X017599Y014988D01*
X017587Y014943D01*
X018000Y015099D02*
X018000Y019148D01*
X018500Y019148D02*
X018500Y015099D01*
X018655Y014943D02*
X019144Y014943D01*
X019000Y015087D02*
X019000Y013752D01*
X019005Y013943D02*
X018943Y013943D01*
X019115Y014443D02*
X018655Y014443D01*
X018500Y014526D02*
X018500Y014681D01*
X018199Y014943D02*
X018044Y014943D01*
X018000Y014681D02*
X018000Y014526D01*
X017587Y014443D02*
X012919Y014443D01*
X013000Y014361D02*
X013000Y018150D01*
X012618Y018443D02*
X012463Y018443D01*
X012500Y018536D02*
X012500Y014543D01*
X013500Y014043D02*
X013500Y019148D01*
X014000Y019148D02*
X014000Y013861D01*
X013919Y013943D02*
X017299Y013943D01*
X017500Y014226D02*
X017500Y019148D01*
X019000Y019148D02*
X019000Y015798D01*
X019144Y015943D02*
X010530Y015943D01*
X010530Y016443D02*
X019770Y016443D01*
X019520Y015943D02*
X019480Y015943D01*
X019500Y015423D02*
X019500Y014138D01*
X019490Y014443D02*
X019510Y014443D01*
X019480Y014943D02*
X019520Y014943D01*
X019000Y015423D02*
X019000Y015463D01*
X007776Y018575D02*
X007755Y018584D01*
X007755Y018753D01*
X007743Y018799D01*
X007719Y018840D01*
X007686Y018874D01*
X007645Y018897D01*
X007599Y018910D01*
X007298Y018910D01*
X007298Y018619D01*
X007261Y018619D01*
X007261Y018910D01*
X006961Y018910D01*
X006915Y018897D01*
X006874Y018874D01*
X006841Y018840D01*
X006817Y018799D01*
X006810Y018772D01*
X006607Y018856D01*
X005653Y018856D01*
X005317Y018717D01*
X005221Y018620D01*
X005126Y018716D01*
X005005Y018766D01*
X005087Y018964D01*
X005087Y019148D01*
X007812Y019148D01*
X007776Y019062D01*
X007776Y018575D01*
X007776Y018943D02*
X005078Y018943D01*
X005500Y018792D02*
X005500Y019148D01*
X006000Y019148D02*
X006000Y018856D01*
X006500Y018856D02*
X006500Y019148D01*
X007000Y019148D02*
X007000Y018910D01*
X007500Y018910D02*
X007500Y019148D01*
X006130Y017943D02*
X004500Y017943D01*
X004250Y017943D01*
X003500Y018693D01*
X002375Y018693D01*
X001625Y017943D01*
X001500Y017943D01*
X001750Y017943D01*
X002125Y017568D01*
X002125Y004318D01*
X001244Y001943D02*
X001230Y001943D01*
X001500Y001740D02*
X001500Y001673D01*
X001500Y001463D02*
X001500Y001423D01*
X001500Y001212D02*
X001500Y000608D01*
X001230Y000943D02*
X001770Y000943D01*
X001980Y000943D02*
X002020Y000943D01*
X002000Y000608D02*
X002000Y001423D01*
X001980Y001443D02*
X001230Y001443D01*
X003500Y001423D02*
X003500Y001463D01*
X003500Y001673D02*
X003500Y001740D01*
X003500Y001212D02*
X003500Y000608D01*
X004030Y009943D02*
X004470Y009943D01*
X004470Y010443D02*
X004030Y010443D01*
X004100Y010943D02*
X004470Y010943D01*
X004470Y011443D02*
X003919Y011443D01*
X004000Y011361D02*
X004000Y013024D01*
X003919Y012943D02*
X004470Y012943D01*
X004470Y013443D02*
X004100Y013443D01*
X004030Y013943D02*
X004470Y013943D01*
X004470Y014443D02*
X004030Y014443D01*
X004030Y014943D02*
X004470Y014943D01*
X004470Y015443D02*
X004030Y015443D01*
X004030Y015943D02*
X004400Y015943D01*
X004500Y016361D02*
X004500Y016814D01*
X004577Y016814D02*
X004577Y016969D01*
X005034Y016969D01*
X005034Y017230D01*
X005033Y017233D01*
X005126Y017272D01*
X005170Y017316D01*
X005317Y017168D01*
X005653Y017029D01*
X006517Y017029D01*
X006578Y016884D01*
X006713Y016749D01*
X006889Y016676D01*
X007470Y016676D01*
X007470Y015891D01*
X007392Y015969D01*
X007215Y016043D01*
X006785Y016043D01*
X006608Y015969D01*
X006473Y015834D01*
X006400Y015658D01*
X006400Y015227D01*
X006470Y015058D01*
X006470Y013543D01*
X006285Y013543D01*
X006108Y013469D01*
X006030Y013391D01*
X006030Y013558D01*
X006100Y013727D01*
X006100Y014158D01*
X006027Y014334D01*
X005892Y014469D01*
X005715Y014543D01*
X005530Y014543D01*
X005530Y015558D01*
X005600Y015727D01*
X005600Y016158D01*
X005527Y016334D01*
X005392Y016469D01*
X005215Y016543D01*
X005032Y016543D01*
X005034Y016553D01*
X005034Y016814D01*
X004577Y016814D01*
X004577Y016943D02*
X006553Y016943D01*
X006500Y017029D02*
X006500Y015861D01*
X006581Y015943D02*
X005600Y015943D01*
X005500Y016361D02*
X005500Y017093D01*
X005000Y016969D02*
X005000Y016814D01*
X005419Y016443D02*
X007470Y016443D01*
X007470Y015943D02*
X007419Y015943D01*
X007000Y016043D02*
X007000Y016676D01*
X006000Y017029D02*
X006000Y014361D01*
X005919Y014443D02*
X006470Y014443D01*
X006470Y013943D02*
X006100Y013943D01*
X006081Y013443D02*
X006030Y013443D01*
X006470Y014943D02*
X005530Y014943D01*
X005530Y015443D02*
X006400Y015443D01*
X004577Y016443D02*
X004423Y016443D01*
X004423Y016814D02*
X003977Y016814D01*
X003965Y016831D01*
X003949Y016868D01*
X003902Y016915D01*
X003863Y016968D01*
X003829Y016988D01*
X003800Y017017D01*
X003739Y017042D01*
X003725Y017051D01*
X003725Y017112D01*
X003596Y017424D01*
X003425Y017595D01*
X003425Y017923D01*
X002895Y017923D01*
X002895Y017963D01*
X003425Y017963D01*
X003425Y017976D01*
X003666Y017735D01*
X003666Y017583D01*
X003739Y017407D01*
X003874Y017272D01*
X003967Y017233D01*
X003966Y017230D01*
X003966Y016969D01*
X004423Y016969D01*
X004423Y016814D01*
X004423Y016943D02*
X003882Y016943D01*
X004000Y016969D02*
X004000Y016814D01*
X003724Y017443D02*
X003577Y017443D01*
X003500Y017520D02*
X003500Y017901D01*
X003458Y017943D02*
X002895Y017943D01*
X003000Y017923D02*
X003000Y017963D01*
X004500Y017994D02*
X004500Y017943D01*
X002970Y013943D02*
X002685Y013943D01*
X002685Y013443D02*
X002900Y013443D01*
X003000Y013024D02*
X003000Y011361D01*
X003081Y011443D02*
X002685Y011443D01*
X002685Y010943D02*
X002900Y010943D01*
X003500Y011543D02*
X003500Y012843D01*
X003081Y012943D02*
X002685Y012943D01*
X002685Y012443D02*
X004470Y012443D01*
X004470Y011943D02*
X002685Y011943D01*
X015570Y002943D02*
X016430Y002943D01*
X016500Y003171D02*
X016500Y003923D01*
X016480Y003943D02*
X015738Y003943D01*
X015700Y003443D02*
X016270Y003443D01*
X016480Y003443D02*
X016520Y003443D01*
M02*
