%
M48
M72
T01C0.0120
T02C0.0320
T03C0.0360
T04C0.0394
T05C0.0400
T06C0.0512
%
T01
X5000Y8443
X7000Y8443
X8000Y9943
X8500Y9943
X9000Y9943
X9500Y9443
X10000Y9443
X10500Y8943
X11000Y8443
X11500Y7943
X12500Y5943
X13000Y5443
X14000Y5443
X14500Y4943
X15500Y4943
X18750Y9943
X16500Y12443
X18112Y12693
X13500Y13443
X12500Y13943
X12500Y12443
X11000Y10943
X10500Y10443
X10500Y13443
X10000Y13443
X9500Y13443
X9000Y13443
X8000Y13943
X7000Y15443
X6000Y16443
X5000Y15943
X5500Y13943
X6500Y12943
X7500Y11943
X7000Y10443
X3500Y10943
X3000Y9943
X3500Y13443
X7500Y18943
X11000Y16443
T02
X10998Y6943
X9998Y6943
X8998Y6943
X7998Y6943
X6998Y6943
X5998Y6943
X5998Y3943
X6998Y3943
X7998Y3943
X8998Y3943
X9998Y3943
X10998Y3943
X11998Y3943
X12998Y3943
X13998Y3943
X14998Y3943
X14998Y6943
X13998Y6943
X12998Y6943
X11998Y6943
T03
X19500Y7128
X19500Y8128
X19500Y9128
X19500Y10128
X19500Y11128
X19500Y12128
X19500Y13128
X19500Y14128
X19500Y6128
X19500Y5128
X1500Y5128
X1500Y6128
X1500Y7128
X1500Y8128
X1500Y9128
X1500Y10128
X1500Y11128
X1500Y12128
X1500Y13128
X1500Y14128
T04
X8840Y10489
X12068Y10489
T05
X2000Y1443
X2000Y2443
X2000Y3443
X3000Y3443
X3000Y2443
X3000Y1443
X4220Y1053
X4220Y2833
X6780Y2833
X7720Y2833
X7720Y1053
X6780Y1053
X10280Y1053
X11220Y1053
X11220Y2833
X10280Y2833
X13780Y2833
X14720Y2833
X16500Y3943
X17500Y3943
X18500Y3943
X17280Y2833
X17280Y1053
X14720Y1053
X13780Y1053
X2875Y14943
X2875Y15943
X2875Y16943
X2875Y17943
X1500Y17943
X1500Y18943
X1500Y16943
X1500Y15193
X19500Y15443
T06
X16556Y19071
X16556Y8284
X4312Y8245
X4351Y19111
M30
