%
M48
M72
T01C0.0236
T02C0.0320
T03C0.0354
T04C0.0360
T05C0.0394
T06C0.0400
T07C0.0433
T08C0.0440
T09C0.1102
T10C0.1260
%
T01
X5250Y2150
X5500Y4900
X6500Y4900
X3998Y6150
X3500Y8150
X3000Y9150
X2500Y12152
X2500Y14650
X3000Y15400
X3500Y14650
X6000Y12150
X6000Y10150
X6000Y9400
X8750Y12150
X9750Y12400
X8252Y13152
X8000Y14650
X11500Y11650
X13500Y11650
X12500Y9650
X10500Y9650
X9250Y7150
X9500Y4150
X9500Y3150
X12500Y5150
X13500Y4650
X17500Y6150
X18000Y8150
X15750Y9650
X12500Y13902
X13500Y17400
X18750Y16150
X19500Y17650
X19500Y2650
T02
X8750Y10650
X7500Y10152
X7500Y11152
X7500Y12152
X7500Y13152
X7500Y14152
X8750Y14650
X10000Y14150
X10000Y15150
X4500Y14152
X4500Y13152
X4500Y12152
X4500Y11152
X4500Y10152
X4500Y9152
X4500Y8152
X4500Y7152
X4500Y6152
X4500Y5152
X7500Y5152
X7500Y6152
X7500Y7152
X7500Y8152
X7500Y9152
X1750Y15150
X1750Y16150
X6000Y1650
X7000Y1650
T03
X10419Y4685
X11262Y4685
X10817Y5646
X10014Y5646
X15488Y9115
X16331Y9115
X15933Y8154
X16736Y8154
X16567Y5646
X15764Y5646
X16169Y4685
X17012Y4685
T04
X19500Y5150
X19500Y6150
X19500Y7150
X19500Y8150
X19500Y9150
X19500Y10150
X19500Y11150
X19500Y12150
X19500Y13150
X19500Y14150
X1500Y14150
X1500Y13150
X1500Y12150
X1500Y11150
X1500Y10150
X1500Y9150
X1500Y8150
X1500Y7150
X1500Y6150
X1500Y5150
T05
X14750Y16650
T06
X1500Y1400
X2500Y1400
X3500Y1400
X4500Y1400
X4500Y3400
X3500Y3400
X2500Y3400
X1500Y3400
X9000Y1400
X10000Y1400
X11000Y1400
X12000Y1400
X14750Y1400
X15750Y1400
X16750Y1400
X17750Y1400
X12500Y7150
X11500Y7150
X10500Y7150
X10500Y8650
X11500Y8650
X12500Y8650
X12500Y10650
X11500Y10650
X10500Y10650
X10500Y12900
X11500Y12900
X12500Y12900
X14500Y14650
X15500Y14650
X16500Y14650
X16000Y12650
X15000Y12650
X17000Y12650
X18000Y12650
X14750Y18900
X13750Y18900
X3303Y18900
X2303Y18900
T07
X4976Y16209
X5976Y16209
X6976Y16209
X7976Y16209
X8976Y16209
X9976Y16209
X10976Y16209
X11976Y16209
X11476Y18209
X10476Y18209
X9476Y18209
X8476Y18209
X7476Y18209
X6476Y18209
X5476Y18209
T08
X16250Y18150
X17250Y18150
X18250Y18150
T09
X18211Y10119
X14250Y10119
X14289Y3681
X12500Y3681
X8539Y3681
X18250Y3681
T10
X19250Y1150
X1750Y17400
X19407Y18861
M30
