G75*
G70*
%OFA0B0*%
%FSLAX24Y24*%
%IPPOS*%
%LPD*%
%AMOC8*
5,1,8,0,0,1.08239X$1,22.5*
%
%ADD10C,0.0000*%
%ADD11C,0.0100*%
%ADD12C,0.0748*%
%ADD13OC8,0.0630*%
%ADD14C,0.0600*%
%ADD15OC8,0.0520*%
%ADD16R,0.0630X0.0709*%
%ADD17C,0.0600*%
%ADD18R,0.0710X0.0630*%
%ADD19OC8,0.0660*%
%ADD20C,0.0740*%
%ADD21R,0.0515X0.0515*%
%ADD22C,0.0515*%
%ADD23C,0.0740*%
%ADD24R,0.0740X0.0740*%
%ADD25C,0.0551*%
%ADD26R,0.0236X0.0217*%
%ADD27R,0.0472X0.0157*%
%ADD28R,0.0433X0.0787*%
%ADD29R,0.0591X0.0512*%
%ADD30R,0.0512X0.0591*%
%ADD31C,0.0240*%
%ADD32C,0.0160*%
%ADD33R,0.0317X0.0317*%
%ADD34R,0.0356X0.0356*%
%ADD35C,0.0320*%
%ADD36R,0.0472X0.0472*%
%ADD37OC8,0.0317*%
D10*
X000750Y000138D02*
X000750Y010995D01*
X020252Y010995D01*
X020252Y000138D01*
X000750Y000138D01*
X000750Y000150D02*
X000750Y019650D01*
X020250Y019650D01*
X020250Y000150D01*
X000750Y000150D01*
X008574Y012025D02*
X008576Y012072D01*
X008582Y012118D01*
X008592Y012164D01*
X008605Y012209D01*
X008623Y012252D01*
X008644Y012294D01*
X008668Y012334D01*
X008696Y012371D01*
X008727Y012406D01*
X008761Y012439D01*
X008797Y012468D01*
X008836Y012494D01*
X008877Y012517D01*
X008920Y012536D01*
X008964Y012552D01*
X009009Y012564D01*
X009055Y012572D01*
X009102Y012576D01*
X009148Y012576D01*
X009195Y012572D01*
X009241Y012564D01*
X009286Y012552D01*
X009330Y012536D01*
X009373Y012517D01*
X009414Y012494D01*
X009453Y012468D01*
X009489Y012439D01*
X009523Y012406D01*
X009554Y012371D01*
X009582Y012334D01*
X009606Y012294D01*
X009627Y012252D01*
X009645Y012209D01*
X009658Y012164D01*
X009668Y012118D01*
X009674Y012072D01*
X009676Y012025D01*
X009674Y011978D01*
X009668Y011932D01*
X009658Y011886D01*
X009645Y011841D01*
X009627Y011798D01*
X009606Y011756D01*
X009582Y011716D01*
X009554Y011679D01*
X009523Y011644D01*
X009489Y011611D01*
X009453Y011582D01*
X009414Y011556D01*
X009373Y011533D01*
X009330Y011514D01*
X009286Y011498D01*
X009241Y011486D01*
X009195Y011478D01*
X009148Y011474D01*
X009102Y011474D01*
X009055Y011478D01*
X009009Y011486D01*
X008964Y011498D01*
X008920Y011514D01*
X008877Y011533D01*
X008836Y011556D01*
X008797Y011582D01*
X008761Y011611D01*
X008727Y011644D01*
X008696Y011679D01*
X008668Y011716D01*
X008644Y011756D01*
X008623Y011798D01*
X008605Y011841D01*
X008592Y011886D01*
X008582Y011932D01*
X008576Y011978D01*
X008574Y012025D01*
X006574Y013900D02*
X006576Y013947D01*
X006582Y013993D01*
X006592Y014039D01*
X006605Y014084D01*
X006623Y014127D01*
X006644Y014169D01*
X006668Y014209D01*
X006696Y014246D01*
X006727Y014281D01*
X006761Y014314D01*
X006797Y014343D01*
X006836Y014369D01*
X006877Y014392D01*
X006920Y014411D01*
X006964Y014427D01*
X007009Y014439D01*
X007055Y014447D01*
X007102Y014451D01*
X007148Y014451D01*
X007195Y014447D01*
X007241Y014439D01*
X007286Y014427D01*
X007330Y014411D01*
X007373Y014392D01*
X007414Y014369D01*
X007453Y014343D01*
X007489Y014314D01*
X007523Y014281D01*
X007554Y014246D01*
X007582Y014209D01*
X007606Y014169D01*
X007627Y014127D01*
X007645Y014084D01*
X007658Y014039D01*
X007668Y013993D01*
X007674Y013947D01*
X007676Y013900D01*
X007674Y013853D01*
X007668Y013807D01*
X007658Y013761D01*
X007645Y013716D01*
X007627Y013673D01*
X007606Y013631D01*
X007582Y013591D01*
X007554Y013554D01*
X007523Y013519D01*
X007489Y013486D01*
X007453Y013457D01*
X007414Y013431D01*
X007373Y013408D01*
X007330Y013389D01*
X007286Y013373D01*
X007241Y013361D01*
X007195Y013353D01*
X007148Y013349D01*
X007102Y013349D01*
X007055Y013353D01*
X007009Y013361D01*
X006964Y013373D01*
X006920Y013389D01*
X006877Y013408D01*
X006836Y013431D01*
X006797Y013457D01*
X006761Y013486D01*
X006727Y013519D01*
X006696Y013554D01*
X006668Y013591D01*
X006644Y013631D01*
X006623Y013673D01*
X006605Y013716D01*
X006592Y013761D01*
X006582Y013807D01*
X006576Y013853D01*
X006574Y013900D01*
X001074Y013900D02*
X001076Y013947D01*
X001082Y013993D01*
X001092Y014039D01*
X001105Y014084D01*
X001123Y014127D01*
X001144Y014169D01*
X001168Y014209D01*
X001196Y014246D01*
X001227Y014281D01*
X001261Y014314D01*
X001297Y014343D01*
X001336Y014369D01*
X001377Y014392D01*
X001420Y014411D01*
X001464Y014427D01*
X001509Y014439D01*
X001555Y014447D01*
X001602Y014451D01*
X001648Y014451D01*
X001695Y014447D01*
X001741Y014439D01*
X001786Y014427D01*
X001830Y014411D01*
X001873Y014392D01*
X001914Y014369D01*
X001953Y014343D01*
X001989Y014314D01*
X002023Y014281D01*
X002054Y014246D01*
X002082Y014209D01*
X002106Y014169D01*
X002127Y014127D01*
X002145Y014084D01*
X002158Y014039D01*
X002168Y013993D01*
X002174Y013947D01*
X002176Y013900D01*
X002174Y013853D01*
X002168Y013807D01*
X002158Y013761D01*
X002145Y013716D01*
X002127Y013673D01*
X002106Y013631D01*
X002082Y013591D01*
X002054Y013554D01*
X002023Y013519D01*
X001989Y013486D01*
X001953Y013457D01*
X001914Y013431D01*
X001873Y013408D01*
X001830Y013389D01*
X001786Y013373D01*
X001741Y013361D01*
X001695Y013353D01*
X001648Y013349D01*
X001602Y013349D01*
X001555Y013353D01*
X001509Y013361D01*
X001464Y013373D01*
X001420Y013389D01*
X001377Y013408D01*
X001336Y013431D01*
X001297Y013457D01*
X001261Y013486D01*
X001227Y013519D01*
X001196Y013554D01*
X001168Y013591D01*
X001144Y013631D01*
X001123Y013673D01*
X001105Y013716D01*
X001092Y013761D01*
X001082Y013807D01*
X001076Y013853D01*
X001074Y013900D01*
X011449Y012025D02*
X011451Y012072D01*
X011457Y012118D01*
X011467Y012164D01*
X011480Y012209D01*
X011498Y012252D01*
X011519Y012294D01*
X011543Y012334D01*
X011571Y012371D01*
X011602Y012406D01*
X011636Y012439D01*
X011672Y012468D01*
X011711Y012494D01*
X011752Y012517D01*
X011795Y012536D01*
X011839Y012552D01*
X011884Y012564D01*
X011930Y012572D01*
X011977Y012576D01*
X012023Y012576D01*
X012070Y012572D01*
X012116Y012564D01*
X012161Y012552D01*
X012205Y012536D01*
X012248Y012517D01*
X012289Y012494D01*
X012328Y012468D01*
X012364Y012439D01*
X012398Y012406D01*
X012429Y012371D01*
X012457Y012334D01*
X012481Y012294D01*
X012502Y012252D01*
X012520Y012209D01*
X012533Y012164D01*
X012543Y012118D01*
X012549Y012072D01*
X012551Y012025D01*
X012549Y011978D01*
X012543Y011932D01*
X012533Y011886D01*
X012520Y011841D01*
X012502Y011798D01*
X012481Y011756D01*
X012457Y011716D01*
X012429Y011679D01*
X012398Y011644D01*
X012364Y011611D01*
X012328Y011582D01*
X012289Y011556D01*
X012248Y011533D01*
X012205Y011514D01*
X012161Y011498D01*
X012116Y011486D01*
X012070Y011478D01*
X012023Y011474D01*
X011977Y011474D01*
X011930Y011478D01*
X011884Y011486D01*
X011839Y011498D01*
X011795Y011514D01*
X011752Y011533D01*
X011711Y011556D01*
X011672Y011582D01*
X011636Y011611D01*
X011602Y011644D01*
X011571Y011679D01*
X011543Y011716D01*
X011519Y011756D01*
X011498Y011798D01*
X011480Y011841D01*
X011467Y011886D01*
X011457Y011932D01*
X011451Y011978D01*
X011449Y012025D01*
D11*
X013000Y011150D02*
X013000Y019650D01*
X020250Y019650D01*
X020250Y011025D01*
X020250Y000150D01*
X000750Y000150D01*
X000750Y011025D01*
X000750Y019650D01*
X013000Y019650D01*
X013581Y018937D02*
X014250Y018937D01*
X014750Y018150D01*
X014919Y018937D02*
X014250Y018937D01*
X014919Y018937D02*
X016081Y018937D01*
X016750Y018937D01*
X017419Y018937D01*
X017467Y018985D01*
X018250Y018485D01*
X018250Y017815D02*
X018726Y017815D01*
X019250Y018964D01*
X019250Y018849D01*
X018250Y017815D02*
X018250Y017275D01*
X017537Y017363D02*
X018625Y016400D01*
X018625Y016315D01*
X018790Y016400D01*
X018710Y015815D02*
X018875Y015650D01*
X018710Y015815D02*
X017500Y015815D01*
X017500Y016485D02*
X017335Y016650D01*
X017250Y016650D01*
X016750Y017150D01*
X016750Y017363D01*
X017419Y017363D02*
X017537Y017363D01*
X016500Y016485D02*
X016165Y016485D01*
X016000Y016650D01*
X016000Y017150D01*
X016081Y017231D01*
X016081Y017363D01*
X015500Y016485D02*
X015419Y016404D01*
X014919Y017363D01*
X014250Y017363D02*
X014375Y016775D01*
X014585Y016485D01*
X014500Y016485D01*
X014500Y015815D02*
X014500Y015025D01*
X013875Y015025D01*
X013500Y014400D01*
X013750Y013900D02*
X013500Y013400D01*
X013750Y013900D02*
X014750Y013900D01*
X014884Y013766D01*
X015348Y013766D01*
X015357Y013775D01*
X015875Y013775D01*
X016250Y014150D01*
X016250Y015275D01*
X015585Y015815D01*
X015500Y015815D01*
X015415Y015815D01*
X014875Y015150D02*
X014979Y015046D01*
X015348Y015046D01*
X015729Y015046D01*
X015875Y015025D01*
X015348Y015046D02*
X015348Y014790D01*
X015348Y014534D01*
X015348Y014278D02*
X014997Y014278D01*
X014875Y014400D01*
X014875Y014650D01*
X014500Y015025D01*
X014625Y014400D02*
X014375Y014400D01*
X014625Y014400D02*
X015003Y014022D01*
X015348Y014022D01*
X015348Y013510D02*
X014640Y013510D01*
X014375Y013400D01*
X014750Y012775D02*
X014250Y011900D01*
X015104Y013254D01*
X015348Y013254D01*
X015250Y012775D02*
X014750Y012775D01*
X016250Y011900D02*
X016500Y012650D01*
X016500Y014525D01*
X017015Y014790D01*
X017652Y014790D01*
X017631Y015025D02*
X017652Y015046D01*
X017631Y015025D02*
X016625Y015025D01*
X016625Y015400D02*
X018250Y015400D01*
X018500Y014775D02*
X019500Y014775D01*
X019625Y014650D01*
X019500Y014650D01*
X019500Y015775D01*
X019460Y016400D01*
X018500Y014775D02*
X018250Y014525D01*
X018250Y014150D01*
X018122Y014022D01*
X017652Y014022D01*
X017652Y013766D02*
X018366Y013766D01*
X018750Y014150D01*
X018500Y013650D02*
X018360Y013510D01*
X017652Y013510D01*
X017652Y013254D02*
X018396Y013254D01*
X018021Y013171D01*
X018000Y013025D01*
X018396Y013254D02*
X018750Y013150D01*
X018500Y013650D02*
X019625Y013650D01*
X018500Y012650D02*
X019250Y011900D01*
X018500Y012650D02*
X017500Y012650D01*
X017125Y013025D01*
X017125Y014150D01*
X017253Y014278D01*
X017652Y014278D01*
X017652Y014534D02*
X017009Y014534D01*
X016875Y014275D01*
X016875Y012150D01*
X017250Y011900D01*
X017119Y010680D02*
X016876Y010580D01*
X016690Y010394D01*
X016665Y010333D01*
X016647Y010359D01*
X016589Y010417D01*
X016523Y010465D01*
X016450Y010502D01*
X016372Y010527D01*
X016300Y010539D01*
X016300Y009700D01*
X016200Y009700D01*
X016200Y010539D01*
X016128Y010527D01*
X016050Y010502D01*
X015977Y010465D01*
X015924Y010426D01*
X015910Y010459D01*
X015910Y010685D01*
X019910Y010685D01*
X019910Y010398D01*
X019693Y010615D01*
X019540Y010615D01*
X019540Y010190D01*
X019460Y010190D01*
X019460Y010615D01*
X019307Y010615D01*
X019035Y010343D01*
X019035Y010190D01*
X019460Y010190D01*
X019460Y010110D01*
X019035Y010110D01*
X019035Y009957D01*
X019243Y009749D01*
X018895Y009401D01*
X018895Y009026D01*
X018307Y008438D01*
X018212Y008343D01*
X018160Y008218D01*
X018160Y007548D01*
X018124Y007585D01*
X017881Y007685D01*
X017619Y007685D01*
X017376Y007585D01*
X017250Y007458D01*
X017124Y007585D01*
X016881Y007685D01*
X016619Y007685D01*
X016376Y007585D01*
X016190Y007399D01*
X016165Y007338D01*
X016147Y007364D01*
X016089Y007422D01*
X016024Y007469D01*
X016420Y007865D01*
X017332Y007865D01*
X017482Y007927D01*
X017598Y008043D01*
X017660Y008193D01*
X017660Y008757D01*
X017810Y008906D01*
X017835Y008967D01*
X017853Y008941D01*
X017911Y008883D01*
X017977Y008835D01*
X018050Y008798D01*
X018128Y008773D01*
X018200Y008761D01*
X018200Y009600D01*
X018300Y009600D01*
X018300Y009700D01*
X018200Y009700D01*
X018200Y010539D01*
X018128Y010527D01*
X018050Y010502D01*
X017977Y010465D01*
X017911Y010417D01*
X017853Y010359D01*
X017835Y010333D01*
X017810Y010394D01*
X017624Y010580D01*
X017381Y010680D01*
X017119Y010680D01*
X016904Y010591D02*
X015910Y010591D01*
X015910Y010493D02*
X016032Y010493D01*
X016200Y010493D02*
X016300Y010493D01*
X016300Y010394D02*
X016200Y010394D01*
X016200Y010296D02*
X016300Y010296D01*
X016300Y010197D02*
X016200Y010197D01*
X016200Y010099D02*
X016300Y010099D01*
X016300Y010000D02*
X016200Y010000D01*
X016200Y009902D02*
X016300Y009902D01*
X016300Y009803D02*
X016200Y009803D01*
X016200Y009705D02*
X016300Y009705D01*
X016200Y009700D02*
X016200Y009600D01*
X015730Y009600D01*
X015730Y009350D01*
X015693Y009365D01*
X015340Y009365D01*
X015340Y009702D01*
X015716Y009702D01*
X015730Y009707D01*
X015730Y009700D01*
X016200Y009700D01*
X016200Y009606D02*
X015340Y009606D01*
X015340Y009508D02*
X015730Y009508D01*
X015730Y009409D02*
X015340Y009409D01*
X015625Y009025D02*
X016000Y008650D01*
X016500Y008650D01*
X016750Y008775D01*
X017660Y008720D02*
X018589Y008720D01*
X018523Y008835D02*
X018589Y008883D01*
X018647Y008941D01*
X018695Y009007D01*
X018732Y009080D01*
X018757Y009158D01*
X018770Y009239D01*
X018770Y009600D01*
X018300Y009600D01*
X018300Y008761D01*
X018372Y008773D01*
X018450Y008798D01*
X018523Y008835D01*
X018489Y008818D02*
X018687Y008818D01*
X018622Y008917D02*
X018786Y008917D01*
X018699Y009015D02*
X018884Y009015D01*
X018895Y009114D02*
X018743Y009114D01*
X018766Y009212D02*
X018895Y009212D01*
X018895Y009311D02*
X018770Y009311D01*
X018770Y009409D02*
X018903Y009409D01*
X019002Y009508D02*
X018770Y009508D01*
X018770Y009700D02*
X018770Y010061D01*
X018757Y010142D01*
X018732Y010220D01*
X018695Y010293D01*
X018647Y010359D01*
X018589Y010417D01*
X018523Y010465D01*
X018450Y010502D01*
X018372Y010527D01*
X018300Y010539D01*
X018300Y009700D01*
X018770Y009700D01*
X018770Y009705D02*
X019199Y009705D01*
X019189Y009803D02*
X018770Y009803D01*
X018770Y009902D02*
X019091Y009902D01*
X019035Y010000D02*
X018770Y010000D01*
X018764Y010099D02*
X019035Y010099D01*
X019035Y010197D02*
X018739Y010197D01*
X018693Y010296D02*
X019035Y010296D01*
X019086Y010394D02*
X018611Y010394D01*
X018468Y010493D02*
X019185Y010493D01*
X019283Y010591D02*
X017596Y010591D01*
X017711Y010493D02*
X018032Y010493D01*
X018200Y010493D02*
X018300Y010493D01*
X018300Y010394D02*
X018200Y010394D01*
X018200Y010296D02*
X018300Y010296D01*
X018300Y010197D02*
X018200Y010197D01*
X018200Y010099D02*
X018300Y010099D01*
X018300Y010000D02*
X018200Y010000D01*
X018200Y009902D02*
X018300Y009902D01*
X018300Y009803D02*
X018200Y009803D01*
X018200Y009705D02*
X018300Y009705D01*
X018300Y009606D02*
X019100Y009606D01*
X019500Y009150D02*
X018500Y008150D01*
X018500Y006650D01*
X016500Y004650D01*
X016500Y004150D01*
X017125Y003400D02*
X017250Y003525D01*
X017250Y004775D01*
X018625Y005150D01*
X019500Y005150D01*
X019500Y004150D02*
X017625Y004150D01*
X017625Y003275D01*
X017250Y003025D01*
X015625Y003025D01*
X015375Y002775D01*
X015375Y002650D01*
X015694Y002331D01*
X015750Y002331D01*
X015431Y002650D01*
X015750Y002331D02*
X015750Y001650D01*
X016500Y002275D02*
X016125Y002650D01*
X016500Y002275D02*
X018375Y002275D01*
X018375Y001775D01*
X018500Y001650D01*
X019000Y001150D01*
X019500Y001150D01*
X019500Y002150D02*
X018875Y002150D01*
X018375Y002650D01*
X017250Y002650D01*
X017125Y003400D02*
X015000Y003400D01*
X014750Y003150D01*
X014750Y002544D01*
X014644Y002650D01*
X014750Y002544D02*
X014750Y001650D01*
X014439Y000750D02*
X014250Y000750D01*
X013750Y001150D01*
X013750Y001650D01*
X013287Y002120D02*
X012973Y002120D01*
X012950Y002132D02*
X012872Y002157D01*
X012800Y002169D01*
X012800Y001700D01*
X012700Y001700D01*
X012700Y002169D01*
X012628Y002157D01*
X012550Y002132D01*
X012477Y002095D01*
X012411Y002047D01*
X012353Y001989D01*
X012305Y001923D01*
X012268Y001850D01*
X012243Y001772D01*
X012231Y001700D01*
X012700Y001700D01*
X012700Y001600D01*
X012231Y001600D01*
X012243Y001528D01*
X012268Y001450D01*
X012305Y001377D01*
X012353Y001311D01*
X012411Y001253D01*
X012477Y001205D01*
X012550Y001168D01*
X012628Y001143D01*
X012650Y001139D01*
X012582Y001070D01*
X012580Y001066D01*
X011465Y001008D01*
X011465Y001076D01*
X011499Y001090D01*
X011685Y001276D01*
X011785Y001519D01*
X011785Y001781D01*
X011685Y002024D01*
X011499Y002210D01*
X011331Y002279D01*
X011354Y002335D01*
X011354Y002965D01*
X011309Y003072D01*
X011266Y003115D01*
X012927Y003115D01*
X012927Y003059D01*
X012936Y003035D01*
X012912Y003028D01*
X012855Y002999D01*
X012803Y002961D01*
X012758Y002915D01*
X012720Y002864D01*
X012691Y002806D01*
X012671Y002745D01*
X012661Y002682D01*
X012661Y002679D01*
X013040Y002679D01*
X013040Y002621D01*
X013098Y002621D01*
X013098Y002243D01*
X013101Y002243D01*
X013164Y002253D01*
X013225Y002272D01*
X013282Y002301D01*
X013334Y002339D01*
X013375Y002380D01*
X013380Y002369D01*
X013380Y002211D01*
X013376Y002210D01*
X013190Y002024D01*
X013165Y001963D01*
X013147Y001989D01*
X013089Y002047D01*
X013023Y002095D01*
X012950Y002132D01*
X012973Y002253D02*
X013037Y002243D01*
X013040Y002243D01*
X013040Y002621D01*
X012661Y002621D01*
X012661Y002618D01*
X012671Y002555D01*
X012691Y002494D01*
X012720Y002436D01*
X012758Y002385D01*
X012803Y002339D01*
X012855Y002301D01*
X012912Y002272D01*
X012973Y002253D01*
X013040Y002317D02*
X013098Y002317D01*
X013098Y002416D02*
X013040Y002416D01*
X013040Y002514D02*
X013098Y002514D01*
X013098Y002613D02*
X013040Y002613D01*
X012834Y002317D02*
X011346Y002317D01*
X011354Y002416D02*
X012736Y002416D01*
X012685Y002514D02*
X011354Y002514D01*
X011354Y002613D02*
X012662Y002613D01*
X012666Y002711D02*
X011354Y002711D01*
X011354Y002810D02*
X012693Y002810D01*
X012753Y002908D02*
X011354Y002908D01*
X011336Y003007D02*
X012871Y003007D01*
X012927Y003105D02*
X011276Y003105D01*
X011477Y002219D02*
X013380Y002219D01*
X013380Y002317D02*
X013304Y002317D01*
X013190Y002022D02*
X013114Y002022D01*
X012800Y002022D02*
X012700Y002022D01*
X012700Y002120D02*
X012800Y002120D01*
X012800Y001923D02*
X012700Y001923D01*
X012700Y001825D02*
X012800Y001825D01*
X012800Y001726D02*
X012700Y001726D01*
X012700Y001628D02*
X011785Y001628D01*
X011785Y001726D02*
X012236Y001726D01*
X012260Y001825D02*
X011767Y001825D01*
X011726Y001923D02*
X012306Y001923D01*
X012386Y002022D02*
X011685Y002022D01*
X011588Y002120D02*
X012527Y002120D01*
X012243Y001529D02*
X011785Y001529D01*
X011748Y001431D02*
X012278Y001431D01*
X012338Y001332D02*
X011708Y001332D01*
X011642Y001234D02*
X012439Y001234D01*
X012646Y001135D02*
X011543Y001135D01*
X011465Y001037D02*
X012017Y001037D01*
X011125Y000650D02*
X008125Y000650D01*
X007375Y001400D01*
X007250Y001400D01*
X006625Y000775D01*
X005936Y000775D01*
X002875Y000775D01*
X002500Y001150D01*
X002500Y002150D01*
X003000Y002650D01*
X003000Y007150D01*
X003468Y007144D02*
X004026Y007144D01*
X003927Y007242D02*
X003468Y007242D01*
X003468Y007310D02*
X003468Y006914D01*
X003424Y006808D01*
X003342Y006726D01*
X003340Y006725D01*
X003340Y002853D01*
X003345Y002864D01*
X003383Y002915D01*
X003428Y002961D01*
X003480Y002999D01*
X003537Y003028D01*
X003598Y003047D01*
X003622Y003051D01*
X003596Y003077D01*
X003552Y003184D01*
X003552Y003616D01*
X003596Y003723D01*
X003660Y003787D01*
X003660Y006013D01*
X003596Y006077D01*
X003552Y006184D01*
X003552Y006616D01*
X003596Y006723D01*
X003677Y006804D01*
X003784Y006848D01*
X004216Y006848D01*
X004323Y006804D01*
X004404Y006723D01*
X004448Y006616D01*
X004448Y006184D01*
X004404Y006077D01*
X004340Y006013D01*
X004340Y005618D01*
X004736Y005618D01*
X004842Y005574D01*
X004924Y005492D01*
X004968Y005386D01*
X004968Y004914D01*
X004924Y004808D01*
X004842Y004726D01*
X004840Y004725D01*
X004840Y004618D01*
X005111Y004618D01*
X005217Y004574D01*
X005298Y004493D01*
X005362Y004493D01*
X006212Y005343D01*
X006307Y005438D01*
X006432Y005490D01*
X006437Y005490D01*
X006647Y005700D01*
X007103Y005700D01*
X007425Y005378D01*
X007425Y005331D01*
X007535Y005221D01*
X007535Y005267D01*
X007625Y005484D01*
X007791Y005650D01*
X007625Y005816D01*
X007535Y006033D01*
X007535Y006267D01*
X007625Y006484D01*
X007791Y006650D01*
X008008Y006740D01*
X008242Y006740D01*
X008459Y006650D01*
X008625Y006484D01*
X008715Y006267D01*
X008715Y006033D01*
X008625Y005816D01*
X008459Y005650D01*
X008549Y005560D01*
X010812Y005560D01*
X010740Y005631D01*
X010696Y005738D01*
X010696Y006490D01*
X010664Y006490D01*
X010664Y006200D01*
X010249Y006200D01*
X010249Y006100D01*
X010664Y006100D01*
X010664Y005776D01*
X010654Y005738D01*
X010634Y005704D01*
X010606Y005676D01*
X010572Y005656D01*
X010534Y005646D01*
X010249Y005646D01*
X010249Y006100D01*
X010149Y006100D01*
X010149Y005646D01*
X009864Y005646D01*
X009826Y005656D01*
X009792Y005676D01*
X009764Y005704D01*
X009744Y005738D01*
X009734Y005776D01*
X009734Y006100D01*
X010149Y006100D01*
X010149Y006200D01*
X009734Y006200D01*
X009734Y006484D01*
X009705Y006490D01*
X009668Y006490D01*
X009626Y006508D01*
X009582Y006517D01*
X009552Y006538D01*
X009518Y006552D01*
X009485Y006585D01*
X009448Y006611D01*
X009428Y006642D01*
X009402Y006668D01*
X009385Y006710D01*
X009172Y007045D01*
X007043Y007045D01*
X007058Y007060D02*
X007094Y007045D01*
X007358Y007045D01*
X007603Y007146D01*
X007726Y007270D01*
X007850Y007146D01*
X008094Y007045D01*
X008358Y007045D01*
X008603Y007146D01*
X008726Y007270D01*
X008850Y007146D01*
X009094Y007045D01*
X009172Y007045D01*
X009234Y006947D02*
X006945Y006947D01*
X006860Y006862D02*
X007058Y007060D01*
X006860Y006862D02*
X006735Y006810D01*
X004432Y006810D01*
X004307Y006862D01*
X004212Y006957D01*
X003859Y007310D01*
X003468Y007310D01*
X003468Y007045D02*
X004124Y007045D01*
X004223Y006947D02*
X003468Y006947D01*
X003441Y006848D02*
X003783Y006848D01*
X003623Y006750D02*
X003366Y006750D01*
X003340Y006651D02*
X003566Y006651D01*
X003552Y006553D02*
X003340Y006553D01*
X003340Y006454D02*
X003552Y006454D01*
X003552Y006356D02*
X003340Y006356D01*
X003340Y006257D02*
X003552Y006257D01*
X003562Y006159D02*
X003340Y006159D01*
X003340Y006060D02*
X003613Y006060D01*
X003660Y005962D02*
X003340Y005962D01*
X003340Y005863D02*
X003660Y005863D01*
X003660Y005765D02*
X003340Y005765D01*
X003340Y005666D02*
X003660Y005666D01*
X003660Y005568D02*
X003340Y005568D01*
X003340Y005469D02*
X003660Y005469D01*
X003660Y005371D02*
X003340Y005371D01*
X003340Y005272D02*
X003660Y005272D01*
X003660Y005174D02*
X003340Y005174D01*
X003340Y005075D02*
X003660Y005075D01*
X003660Y004977D02*
X003340Y004977D01*
X003340Y004878D02*
X003660Y004878D01*
X003660Y004780D02*
X003340Y004780D01*
X003340Y004681D02*
X003660Y004681D01*
X003660Y004583D02*
X003340Y004583D01*
X003340Y004484D02*
X003660Y004484D01*
X003660Y004386D02*
X003340Y004386D01*
X003340Y004287D02*
X003660Y004287D01*
X003660Y004189D02*
X003340Y004189D01*
X003340Y004090D02*
X003660Y004090D01*
X003660Y003992D02*
X003340Y003992D01*
X003340Y003893D02*
X003660Y003893D01*
X003660Y003795D02*
X003340Y003795D01*
X003340Y003696D02*
X003585Y003696D01*
X003500Y003650D02*
X003500Y003150D01*
X003300Y003050D01*
X003300Y002350D01*
X003246Y002416D02*
X003361Y002416D01*
X003345Y002436D02*
X003383Y002385D01*
X003428Y002339D01*
X003480Y002301D01*
X003537Y002272D01*
X003598Y002253D01*
X003662Y002243D01*
X003665Y002243D01*
X003665Y002621D01*
X003723Y002621D01*
X003723Y002243D01*
X003726Y002243D01*
X003789Y002253D01*
X003850Y002272D01*
X003907Y002301D01*
X003959Y002339D01*
X004000Y002380D01*
X004017Y002340D01*
X004111Y002246D01*
X004111Y002130D01*
X004001Y002085D01*
X003879Y001963D01*
X003865Y001987D01*
X003837Y002015D01*
X003803Y002035D01*
X003765Y002045D01*
X003425Y002045D01*
X003425Y001575D01*
X003325Y001575D01*
X003325Y002045D01*
X002985Y002045D01*
X002947Y002035D01*
X002913Y002015D01*
X002885Y001987D01*
X002865Y001953D01*
X002855Y001915D01*
X002855Y001575D01*
X003325Y001575D01*
X003325Y001475D01*
X002855Y001475D01*
X002855Y001276D01*
X002840Y001291D01*
X002840Y002009D01*
X003193Y002362D01*
X003288Y002457D01*
X003311Y002511D01*
X003316Y002494D01*
X003345Y002436D01*
X003459Y002317D02*
X003148Y002317D01*
X003049Y002219D02*
X004111Y002219D01*
X004087Y002120D02*
X002951Y002120D01*
X002924Y002022D02*
X002852Y002022D01*
X002840Y001923D02*
X002857Y001923D01*
X002855Y001825D02*
X002840Y001825D01*
X002840Y001726D02*
X002855Y001726D01*
X002855Y001628D02*
X002840Y001628D01*
X002840Y001529D02*
X003325Y001529D01*
X003325Y001628D02*
X003425Y001628D01*
X003425Y001726D02*
X003325Y001726D01*
X003325Y001825D02*
X003425Y001825D01*
X003425Y001923D02*
X003325Y001923D01*
X003325Y002022D02*
X003425Y002022D01*
X003665Y002317D02*
X003723Y002317D01*
X003723Y002416D02*
X003665Y002416D01*
X003665Y002514D02*
X003723Y002514D01*
X003723Y002613D02*
X003665Y002613D01*
X003929Y002317D02*
X004040Y002317D01*
X003938Y002022D02*
X003826Y002022D01*
X003378Y002908D02*
X003340Y002908D01*
X003340Y003007D02*
X003496Y003007D01*
X003584Y003105D02*
X003340Y003105D01*
X003340Y003204D02*
X003552Y003204D01*
X003552Y003302D02*
X003340Y003302D01*
X003340Y003401D02*
X003552Y003401D01*
X003552Y003499D02*
X003340Y003499D01*
X003340Y003598D02*
X003552Y003598D01*
X004000Y003400D02*
X004000Y006400D01*
X004448Y006356D02*
X007572Y006356D01*
X007535Y006257D02*
X004448Y006257D01*
X004438Y006159D02*
X007535Y006159D01*
X007535Y006060D02*
X004387Y006060D01*
X004340Y005962D02*
X007564Y005962D01*
X007605Y005863D02*
X004340Y005863D01*
X004340Y005765D02*
X007676Y005765D01*
X007775Y005666D02*
X007137Y005666D01*
X007235Y005568D02*
X007708Y005568D01*
X007619Y005469D02*
X007334Y005469D01*
X007425Y005371D02*
X007578Y005371D01*
X007537Y005272D02*
X007484Y005272D01*
X007125Y005150D02*
X006875Y005150D01*
X006500Y005150D01*
X005375Y004025D01*
X005843Y004012D02*
X005843Y003789D01*
X005799Y003683D01*
X005717Y003601D01*
X005611Y003557D01*
X005574Y003557D01*
X005933Y003197D01*
X006371Y003197D01*
X006478Y003153D01*
X006559Y003072D01*
X006604Y002965D01*
X006604Y002335D01*
X006559Y002228D01*
X006513Y002182D01*
X006749Y002085D01*
X006935Y001899D01*
X007032Y001663D01*
X007057Y001688D01*
X007182Y001740D01*
X007443Y001740D01*
X007568Y001688D01*
X007656Y001600D01*
X008075Y001600D01*
X008075Y001700D01*
X008075Y002170D01*
X007735Y002170D01*
X007697Y002160D01*
X007663Y002140D01*
X007635Y002112D01*
X007615Y002078D01*
X007605Y002040D01*
X007605Y001700D01*
X008075Y001700D01*
X008175Y001700D01*
X008175Y002170D01*
X008515Y002170D01*
X008553Y002160D01*
X008587Y002140D01*
X008615Y002112D01*
X008629Y002088D01*
X008751Y002210D01*
X008840Y002246D01*
X008840Y002267D01*
X008767Y002340D01*
X008750Y002380D01*
X008709Y002339D01*
X008657Y002301D01*
X008600Y002272D01*
X008539Y002253D01*
X008476Y002243D01*
X008473Y002243D01*
X008473Y002621D01*
X008415Y002621D01*
X008415Y002243D01*
X008412Y002243D01*
X008348Y002253D01*
X008287Y002272D01*
X008230Y002301D01*
X008178Y002339D01*
X008133Y002385D01*
X008095Y002436D01*
X008066Y002494D01*
X008046Y002555D01*
X008036Y002618D01*
X008036Y002621D01*
X008415Y002621D01*
X008415Y002679D01*
X008415Y003057D01*
X008412Y003057D01*
X008348Y003047D01*
X008287Y003028D01*
X008230Y002999D01*
X008178Y002961D01*
X008133Y002915D01*
X008095Y002864D01*
X008066Y002806D01*
X008046Y002745D01*
X008036Y002682D01*
X008036Y002679D01*
X008415Y002679D01*
X008473Y002679D01*
X008473Y003057D01*
X008476Y003057D01*
X008539Y003047D01*
X008600Y003028D01*
X008657Y002999D01*
X008709Y002961D01*
X008750Y002920D01*
X008767Y002960D01*
X008840Y003033D01*
X008840Y003355D01*
X008502Y003693D01*
X008459Y003650D01*
X008242Y003560D01*
X008008Y003560D01*
X007791Y003650D01*
X007625Y003816D01*
X007535Y004033D01*
X007535Y004259D01*
X007148Y004646D01*
X007103Y004600D01*
X006647Y004600D01*
X006539Y004708D01*
X005843Y004012D01*
X005843Y003992D02*
X006465Y003992D01*
X006465Y003980D02*
X006705Y003740D01*
X006845Y003740D01*
X006845Y004120D01*
X006465Y004120D01*
X006465Y003980D01*
X006465Y004090D02*
X005921Y004090D01*
X006019Y004189D02*
X006465Y004189D01*
X006465Y004180D02*
X006845Y004180D01*
X006845Y004560D01*
X006705Y004560D01*
X006465Y004320D01*
X006465Y004180D01*
X006465Y004287D02*
X006118Y004287D01*
X006216Y004386D02*
X006531Y004386D01*
X006629Y004484D02*
X006315Y004484D01*
X006413Y004583D02*
X007212Y004583D01*
X007121Y004484D02*
X007310Y004484D01*
X007219Y004386D02*
X007409Y004386D01*
X007507Y004287D02*
X007285Y004287D01*
X007285Y004320D02*
X007045Y004560D01*
X006905Y004560D01*
X006905Y004180D01*
X006845Y004180D01*
X006845Y004120D01*
X006905Y004120D01*
X006905Y004180D01*
X007285Y004180D01*
X007285Y004320D01*
X007285Y004189D02*
X007535Y004189D01*
X007535Y004090D02*
X007285Y004090D01*
X007285Y004120D02*
X006905Y004120D01*
X006905Y003740D01*
X007045Y003740D01*
X007285Y003980D01*
X007285Y004120D01*
X007285Y003992D02*
X007552Y003992D01*
X007593Y003893D02*
X007198Y003893D01*
X007099Y003795D02*
X007646Y003795D01*
X007745Y003696D02*
X005805Y003696D01*
X005843Y003795D02*
X006651Y003795D01*
X006552Y003893D02*
X005843Y003893D01*
X005709Y003598D02*
X007917Y003598D01*
X008333Y003598D02*
X008598Y003598D01*
X008696Y003499D02*
X005632Y003499D01*
X005730Y003401D02*
X008795Y003401D01*
X008840Y003302D02*
X005829Y003302D01*
X005927Y003204D02*
X008840Y003204D01*
X008840Y003105D02*
X006526Y003105D01*
X006586Y003007D02*
X008246Y003007D01*
X008128Y002908D02*
X006604Y002908D01*
X006604Y002810D02*
X008068Y002810D01*
X008041Y002711D02*
X006604Y002711D01*
X006604Y002613D02*
X008037Y002613D01*
X008060Y002514D02*
X006604Y002514D01*
X006604Y002416D02*
X008111Y002416D01*
X008209Y002317D02*
X006596Y002317D01*
X006550Y002219D02*
X008773Y002219D01*
X008790Y002317D02*
X008679Y002317D01*
X008662Y002120D02*
X008607Y002120D01*
X008473Y002317D02*
X008415Y002317D01*
X008415Y002416D02*
X008473Y002416D01*
X008473Y002514D02*
X008415Y002514D01*
X008415Y002613D02*
X008473Y002613D01*
X008473Y002711D02*
X008415Y002711D01*
X008415Y002810D02*
X008473Y002810D01*
X008473Y002908D02*
X008415Y002908D01*
X008415Y003007D02*
X008473Y003007D01*
X008642Y003007D02*
X008814Y003007D01*
X008175Y002120D02*
X008075Y002120D01*
X008075Y002022D02*
X008175Y002022D01*
X008175Y001923D02*
X008075Y001923D01*
X008075Y001825D02*
X008175Y001825D01*
X008175Y001726D02*
X008075Y001726D01*
X008075Y001628D02*
X007628Y001628D01*
X007605Y001726D02*
X007476Y001726D01*
X007605Y001825D02*
X006965Y001825D01*
X007006Y001726D02*
X007149Y001726D01*
X006910Y001923D02*
X007605Y001923D01*
X007605Y002022D02*
X006812Y002022D01*
X006663Y002120D02*
X007643Y002120D01*
X008075Y001600D02*
X008075Y001181D01*
X008266Y000990D01*
X010785Y000990D01*
X010785Y001076D01*
X010751Y001090D01*
X010625Y001217D01*
X010499Y001090D01*
X010256Y000990D01*
X009994Y000990D01*
X009751Y001090D01*
X009625Y001217D01*
X009499Y001090D01*
X009256Y000990D01*
X008994Y000990D01*
X008751Y001090D01*
X008629Y001212D01*
X008615Y001188D01*
X008587Y001160D01*
X008553Y001140D01*
X008515Y001130D01*
X008175Y001130D01*
X008175Y001600D01*
X008075Y001600D01*
X008075Y001529D02*
X008175Y001529D01*
X008175Y001431D02*
X008075Y001431D01*
X008075Y001332D02*
X008175Y001332D01*
X008175Y001234D02*
X008075Y001234D01*
X008121Y001135D02*
X008175Y001135D01*
X008219Y001037D02*
X008881Y001037D01*
X008707Y001135D02*
X008533Y001135D01*
X009369Y001037D02*
X009881Y001037D01*
X009707Y001135D02*
X009543Y001135D01*
X010369Y001037D02*
X010785Y001037D01*
X010707Y001135D02*
X010543Y001135D01*
X011125Y000650D02*
X011125Y001650D01*
X011125Y000650D02*
X013061Y000750D01*
X013856Y002650D02*
X014000Y002650D01*
X013875Y002650D02*
X013856Y002650D01*
X014250Y003031D02*
X014166Y003114D01*
X014080Y003150D01*
X013823Y003406D01*
X013823Y003491D01*
X013779Y003598D01*
X013698Y003679D01*
X013591Y003723D01*
X013506Y003723D01*
X013357Y003873D01*
X013207Y003935D01*
X009420Y003935D01*
X008857Y004498D01*
X008707Y004560D01*
X008549Y004560D01*
X008459Y004650D01*
X008549Y004740D01*
X010580Y004740D01*
X010652Y004668D01*
X010768Y004552D01*
X010918Y004490D01*
X014105Y004490D01*
X014103Y004489D01*
X014055Y004423D01*
X014018Y004350D01*
X013993Y004272D01*
X013981Y004200D01*
X014450Y004200D01*
X014450Y004100D01*
X013981Y004100D01*
X013993Y004028D01*
X014018Y003950D01*
X014055Y003877D01*
X014103Y003811D01*
X014161Y003753D01*
X014227Y003705D01*
X014300Y003668D01*
X014378Y003643D01*
X014450Y003631D01*
X014450Y004100D01*
X014550Y004100D01*
X014550Y003631D01*
X014622Y003643D01*
X014700Y003668D01*
X014773Y003705D01*
X014839Y003753D01*
X014897Y003811D01*
X014915Y003837D01*
X014940Y003776D01*
X014977Y003740D01*
X014932Y003740D01*
X014807Y003688D01*
X014712Y003593D01*
X014462Y003343D01*
X014410Y003218D01*
X014410Y003146D01*
X014334Y003114D01*
X014250Y003031D01*
X014176Y003105D02*
X014324Y003105D01*
X014410Y003204D02*
X014026Y003204D01*
X013928Y003302D02*
X014445Y003302D01*
X014520Y003401D02*
X013829Y003401D01*
X013820Y003499D02*
X014618Y003499D01*
X014717Y003598D02*
X013779Y003598D01*
X013657Y003696D02*
X014246Y003696D01*
X014120Y003795D02*
X013435Y003795D01*
X013308Y003893D02*
X014047Y003893D01*
X014005Y003992D02*
X009363Y003992D01*
X009265Y004090D02*
X013983Y004090D01*
X013998Y004287D02*
X009068Y004287D01*
X009166Y004189D02*
X014450Y004189D01*
X014450Y004090D02*
X014550Y004090D01*
X014550Y003992D02*
X014450Y003992D01*
X014450Y003893D02*
X014550Y003893D01*
X014550Y003795D02*
X014450Y003795D01*
X014450Y003696D02*
X014550Y003696D01*
X014754Y003696D02*
X014826Y003696D01*
X014880Y003795D02*
X014933Y003795D01*
X014100Y004484D02*
X008871Y004484D01*
X008969Y004386D02*
X014036Y004386D01*
X014105Y005310D02*
X011170Y005310D01*
X010982Y005498D01*
X010963Y005506D01*
X011674Y005506D01*
X011780Y005550D01*
X011862Y005631D01*
X011906Y005738D01*
X011906Y005827D01*
X011966Y005827D01*
X012073Y005871D01*
X012154Y005952D01*
X012198Y006059D01*
X012198Y006182D01*
X012200Y006185D01*
X012200Y006365D01*
X012198Y006368D01*
X012198Y006490D01*
X013316Y006490D01*
X013409Y006452D01*
X013841Y006452D01*
X013948Y006496D01*
X014029Y006577D01*
X014073Y006684D01*
X014073Y007116D01*
X014029Y007223D01*
X013948Y007304D01*
X013841Y007348D01*
X013409Y007348D01*
X013316Y007310D01*
X012568Y007310D01*
X012626Y007368D01*
X012675Y007434D01*
X012712Y007508D01*
X012737Y007586D01*
X012749Y007659D01*
X012276Y007659D01*
X012276Y007759D01*
X012749Y007759D01*
X012737Y007832D01*
X012712Y007910D01*
X012675Y007984D01*
X012670Y007990D01*
X013066Y007990D01*
X013159Y007952D01*
X013591Y007952D01*
X013611Y007960D01*
X014027Y007543D01*
X014143Y007427D01*
X014293Y007365D01*
X015355Y007365D01*
X015353Y007364D01*
X015305Y007298D01*
X015268Y007225D01*
X015243Y007147D01*
X015231Y007075D01*
X015700Y007075D01*
X015700Y006975D01*
X015800Y006975D01*
X015800Y006590D01*
X015546Y006310D01*
X015369Y006310D01*
X015126Y006210D01*
X014940Y006024D01*
X014915Y005963D01*
X014897Y005989D01*
X014839Y006047D01*
X014773Y006095D01*
X014700Y006132D01*
X014622Y006157D01*
X014550Y006169D01*
X014550Y005700D01*
X014450Y005700D01*
X014450Y006169D01*
X014378Y006157D01*
X014300Y006132D01*
X014227Y006095D01*
X014161Y006047D01*
X014103Y005989D01*
X014055Y005923D01*
X014018Y005850D01*
X013993Y005772D01*
X013981Y005700D01*
X014450Y005700D01*
X014450Y005600D01*
X013981Y005600D01*
X013993Y005528D01*
X014018Y005450D01*
X014055Y005377D01*
X014103Y005311D01*
X014105Y005310D01*
X014060Y005371D02*
X011109Y005371D01*
X011011Y005469D02*
X014012Y005469D01*
X013987Y005568D02*
X011798Y005568D01*
X011876Y005666D02*
X014450Y005666D01*
X014450Y005765D02*
X014550Y005765D01*
X014550Y005863D02*
X014450Y005863D01*
X014450Y005962D02*
X014550Y005962D01*
X014550Y006060D02*
X014450Y006060D01*
X014450Y006159D02*
X014550Y006159D01*
X014613Y006159D02*
X015075Y006159D01*
X014977Y006060D02*
X014820Y006060D01*
X014387Y006159D02*
X012198Y006159D01*
X012200Y006257D02*
X015241Y006257D01*
X015477Y006580D02*
X015550Y006543D01*
X015628Y006518D01*
X015700Y006506D01*
X015700Y006975D01*
X015231Y006975D01*
X015243Y006903D01*
X015268Y006825D01*
X015305Y006752D01*
X015353Y006686D01*
X015411Y006628D01*
X015477Y006580D01*
X015532Y006553D02*
X014004Y006553D01*
X014060Y006651D02*
X015389Y006651D01*
X015307Y006750D02*
X014073Y006750D01*
X014073Y006848D02*
X015261Y006848D01*
X015236Y006947D02*
X014073Y006947D01*
X014073Y007045D02*
X015700Y007045D01*
X015700Y006947D02*
X015800Y006947D01*
X015800Y006848D02*
X015700Y006848D01*
X015700Y006750D02*
X015800Y006750D01*
X015800Y006651D02*
X015700Y006651D01*
X015700Y006553D02*
X015766Y006553D01*
X015677Y006454D02*
X013847Y006454D01*
X013403Y006454D02*
X012198Y006454D01*
X012200Y006356D02*
X015587Y006356D01*
X015242Y007144D02*
X014062Y007144D01*
X014010Y007242D02*
X015277Y007242D01*
X015336Y007341D02*
X013860Y007341D01*
X014033Y007538D02*
X012722Y007538D01*
X012745Y007636D02*
X013934Y007636D01*
X013836Y007735D02*
X012276Y007735D01*
X012701Y007932D02*
X013639Y007932D01*
X013737Y007833D02*
X012737Y007833D01*
X012677Y007439D02*
X014131Y007439D01*
X013390Y007341D02*
X012599Y007341D01*
X012198Y006060D02*
X014180Y006060D01*
X014084Y005962D02*
X012158Y005962D01*
X012054Y005863D02*
X014025Y005863D01*
X013992Y005765D02*
X011906Y005765D01*
X010804Y005568D02*
X008542Y005568D01*
X008475Y005666D02*
X009808Y005666D01*
X009737Y005765D02*
X008574Y005765D01*
X008645Y005863D02*
X009734Y005863D01*
X009734Y005962D02*
X008686Y005962D01*
X008715Y006060D02*
X009734Y006060D01*
X009734Y006257D02*
X008715Y006257D01*
X008715Y006159D02*
X010149Y006159D01*
X010149Y006060D02*
X010249Y006060D01*
X010249Y005962D02*
X010149Y005962D01*
X010149Y005863D02*
X010249Y005863D01*
X010249Y005765D02*
X010149Y005765D01*
X010149Y005666D02*
X010249Y005666D01*
X010589Y005666D02*
X010726Y005666D01*
X010696Y005765D02*
X010661Y005765D01*
X010664Y005863D02*
X010696Y005863D01*
X010696Y005962D02*
X010664Y005962D01*
X010664Y006060D02*
X010696Y006060D01*
X010696Y006159D02*
X010249Y006159D01*
X010664Y006257D02*
X010696Y006257D01*
X010696Y006356D02*
X010664Y006356D01*
X010664Y006454D02*
X010696Y006454D01*
X009734Y006454D02*
X008638Y006454D01*
X008678Y006356D02*
X009734Y006356D01*
X009518Y006553D02*
X008557Y006553D01*
X008457Y006651D02*
X009419Y006651D01*
X009360Y006750D02*
X004377Y006750D01*
X004341Y006848D02*
X004217Y006848D01*
X004434Y006651D02*
X007793Y006651D01*
X007693Y006553D02*
X004448Y006553D01*
X004448Y006454D02*
X007612Y006454D01*
X007596Y007144D02*
X007857Y007144D01*
X007754Y007242D02*
X007698Y007242D01*
X007226Y007709D02*
X006667Y007150D01*
X004500Y007150D01*
X004000Y007650D01*
X002500Y007650D01*
X002500Y003150D01*
X002840Y001431D02*
X002855Y001431D01*
X002855Y001332D02*
X002840Y001332D01*
X002000Y001150D02*
X001500Y001150D01*
X002000Y001150D02*
X002000Y009650D01*
X000750Y011025D02*
X020250Y011025D01*
X019910Y010591D02*
X019717Y010591D01*
X019815Y010493D02*
X019910Y010493D01*
X019540Y010493D02*
X019460Y010493D01*
X019460Y010591D02*
X019540Y010591D01*
X019540Y010394D02*
X019460Y010394D01*
X019460Y010296D02*
X019540Y010296D01*
X019540Y010197D02*
X019460Y010197D01*
X018300Y009508D02*
X018200Y009508D01*
X018200Y009409D02*
X018300Y009409D01*
X018300Y009311D02*
X018200Y009311D01*
X018200Y009212D02*
X018300Y009212D01*
X018300Y009114D02*
X018200Y009114D01*
X018200Y009015D02*
X018300Y009015D01*
X018300Y008917D02*
X018200Y008917D01*
X018200Y008818D02*
X018300Y008818D01*
X018490Y008621D02*
X017660Y008621D01*
X017660Y008523D02*
X018392Y008523D01*
X018293Y008424D02*
X017660Y008424D01*
X017660Y008326D02*
X018205Y008326D01*
X018164Y008227D02*
X017660Y008227D01*
X017633Y008129D02*
X018160Y008129D01*
X018160Y008030D02*
X017585Y008030D01*
X017486Y007932D02*
X018160Y007932D01*
X018160Y007833D02*
X016388Y007833D01*
X016289Y007735D02*
X018160Y007735D01*
X018160Y007636D02*
X018000Y007636D01*
X017500Y007636D02*
X017000Y007636D01*
X017171Y007538D02*
X017329Y007538D01*
X016500Y007636D02*
X016191Y007636D01*
X016092Y007538D02*
X016329Y007538D01*
X016231Y007439D02*
X016065Y007439D01*
X016164Y007341D02*
X016166Y007341D01*
X015580Y008185D02*
X014545Y008185D01*
X014045Y008685D01*
X015484Y008685D01*
X015712Y008457D01*
X015782Y008387D01*
X015580Y008185D01*
X015622Y008227D02*
X014503Y008227D01*
X014404Y008326D02*
X015721Y008326D01*
X015745Y008424D02*
X014306Y008424D01*
X014207Y008523D02*
X015647Y008523D01*
X015548Y008621D02*
X014109Y008621D01*
X013000Y009025D02*
X015625Y009025D01*
X015723Y009705D02*
X015730Y009705D01*
X016468Y010493D02*
X016789Y010493D01*
X016691Y010394D02*
X016611Y010394D01*
X017809Y010394D02*
X017889Y010394D01*
X017878Y008917D02*
X017814Y008917D01*
X017721Y008818D02*
X018011Y008818D01*
X013000Y009025D02*
X012750Y009275D01*
X012750Y009525D01*
X012224Y009231D02*
X012268Y009125D01*
X012350Y009043D01*
X012456Y008999D01*
X012545Y008999D01*
X012712Y008832D01*
X012734Y008810D01*
X008073Y008810D01*
X008073Y008991D01*
X008066Y009008D01*
X008066Y009131D01*
X008103Y009146D01*
X008289Y009333D01*
X008312Y009388D01*
X008327Y009368D01*
X008385Y009309D01*
X008452Y009261D01*
X008525Y009223D01*
X008604Y009198D01*
X008676Y009186D01*
X008676Y009659D01*
X008776Y009659D01*
X008776Y009186D01*
X008849Y009198D01*
X008928Y009223D01*
X009001Y009261D01*
X009068Y009309D01*
X009126Y009368D01*
X009141Y009388D01*
X009163Y009333D01*
X009350Y009146D01*
X009594Y009045D01*
X009858Y009045D01*
X010103Y009146D01*
X010226Y009270D01*
X010350Y009146D01*
X010594Y009045D01*
X010858Y009045D01*
X011103Y009146D01*
X011226Y009270D01*
X011350Y009146D01*
X011594Y009045D01*
X011858Y009045D01*
X012103Y009146D01*
X012224Y009267D01*
X012224Y009231D01*
X012232Y009212D02*
X012168Y009212D01*
X012279Y009114D02*
X012024Y009114D01*
X012417Y009015D02*
X008066Y009015D01*
X008066Y009114D02*
X009429Y009114D01*
X009284Y009212D02*
X008892Y009212D01*
X008776Y009212D02*
X008676Y009212D01*
X008676Y009311D02*
X008776Y009311D01*
X008776Y009409D02*
X008676Y009409D01*
X008676Y009508D02*
X008776Y009508D01*
X008776Y009606D02*
X008676Y009606D01*
X008676Y009759D02*
X008676Y010232D01*
X008604Y010220D01*
X008525Y010195D01*
X008452Y010157D01*
X008385Y010109D01*
X008327Y010050D01*
X008312Y010030D01*
X008289Y010085D01*
X008103Y010272D01*
X008083Y010280D01*
X009370Y010280D01*
X009350Y010272D01*
X009163Y010085D01*
X009141Y010030D01*
X009126Y010050D01*
X009068Y010109D01*
X009001Y010157D01*
X008928Y010195D01*
X008849Y010220D01*
X008776Y010232D01*
X008776Y009759D01*
X008676Y009759D01*
X008676Y009803D02*
X008776Y009803D01*
X008776Y009902D02*
X008676Y009902D01*
X008676Y010000D02*
X008776Y010000D01*
X008776Y010099D02*
X008676Y010099D01*
X008676Y010197D02*
X008776Y010197D01*
X008920Y010197D02*
X009275Y010197D01*
X009177Y010099D02*
X009078Y010099D01*
X008532Y010197D02*
X008177Y010197D01*
X008276Y010099D02*
X008375Y010099D01*
X007726Y009709D02*
X007726Y008799D01*
X007625Y008775D01*
X008073Y008818D02*
X012726Y008818D01*
X012628Y008917D02*
X008073Y008917D01*
X008168Y009212D02*
X008560Y009212D01*
X008384Y009311D02*
X008267Y009311D01*
X009069Y009311D02*
X009186Y009311D01*
X010024Y009114D02*
X010429Y009114D01*
X010284Y009212D02*
X010168Y009212D01*
X011024Y009114D02*
X011429Y009114D01*
X011284Y009212D02*
X011168Y009212D01*
X010226Y010148D02*
X010103Y010272D01*
X010083Y010280D01*
X010370Y010280D01*
X010350Y010272D01*
X010226Y010148D01*
X010177Y010197D02*
X010275Y010197D01*
X008000Y011150D02*
X008000Y019650D01*
X013463Y017363D02*
X013500Y017150D01*
X013500Y016485D01*
X013500Y015815D02*
X013500Y015275D01*
X013463Y017363D02*
X013581Y017363D01*
X016500Y015815D02*
X016500Y015525D01*
X016625Y015400D01*
X017531Y018826D02*
X017419Y018937D01*
X008754Y007242D02*
X008698Y007242D01*
X008596Y007144D02*
X008857Y007144D01*
X009297Y006848D02*
X006827Y006848D01*
X006613Y005666D02*
X004340Y005666D01*
X004849Y005568D02*
X006515Y005568D01*
X006382Y005469D02*
X004934Y005469D01*
X004968Y005371D02*
X006240Y005371D01*
X006141Y005272D02*
X004968Y005272D01*
X004968Y005174D02*
X006043Y005174D01*
X005944Y005075D02*
X004968Y005075D01*
X004968Y004977D02*
X005846Y004977D01*
X005747Y004878D02*
X004953Y004878D01*
X004896Y004780D02*
X005649Y004780D01*
X005550Y004681D02*
X004840Y004681D01*
X005197Y004583D02*
X005452Y004583D01*
X004875Y004150D02*
X004875Y003775D01*
X006000Y002650D01*
X006000Y002594D01*
X006000Y002650D02*
X006056Y002650D01*
X005250Y002650D02*
X005250Y002900D01*
X004500Y003650D01*
X004500Y005150D01*
X006512Y004681D02*
X006566Y004681D01*
X006845Y004484D02*
X006905Y004484D01*
X006905Y004386D02*
X006845Y004386D01*
X006845Y004287D02*
X006905Y004287D01*
X006905Y004189D02*
X006845Y004189D01*
X006845Y004090D02*
X006905Y004090D01*
X006905Y003992D02*
X006845Y003992D01*
X006845Y003893D02*
X006905Y003893D01*
X006905Y003795D02*
X006845Y003795D01*
X008125Y004150D02*
X007125Y005150D01*
X008490Y004681D02*
X010639Y004681D01*
X010738Y004583D02*
X008527Y004583D01*
X005176Y007659D02*
X004704Y007659D01*
X004715Y007586D01*
X004741Y007508D01*
X004750Y007490D01*
X004641Y007490D01*
X004193Y007938D01*
X004068Y007990D01*
X004062Y007990D01*
X004783Y007990D01*
X004778Y007984D01*
X004741Y007910D01*
X004715Y007832D01*
X004704Y007759D01*
X005176Y007759D01*
X005176Y007659D01*
X005176Y007735D02*
X004396Y007735D01*
X004298Y007833D02*
X004716Y007833D01*
X004752Y007932D02*
X004199Y007932D01*
X004062Y007990D02*
X004062Y007990D01*
X004495Y007636D02*
X004707Y007636D01*
X004731Y007538D02*
X004593Y007538D01*
X018000Y003150D02*
X019500Y003150D01*
D12*
X012226Y007709D03*
X011226Y007709D03*
X010226Y007709D03*
X009226Y007709D03*
X008226Y007709D03*
X007226Y007709D03*
X006226Y007709D03*
X005226Y007709D03*
X005726Y009709D03*
X006726Y009709D03*
X007726Y009709D03*
X008726Y009709D03*
X009726Y009709D03*
X010726Y009709D03*
X011726Y009709D03*
D13*
X011000Y012025D03*
X013500Y013400D03*
X014375Y013400D03*
X014375Y014400D03*
X013500Y014400D03*
X018750Y014150D03*
X018750Y013150D03*
X019625Y013650D03*
X019625Y014650D03*
X019500Y010150D03*
X019500Y009150D03*
X019500Y008150D03*
X019500Y007150D03*
X019500Y006150D03*
X019500Y005150D03*
X019500Y004150D03*
X019500Y003150D03*
X019500Y002150D03*
X019500Y001150D03*
X001500Y001150D03*
X001500Y002150D03*
X001500Y003150D03*
X001500Y004150D03*
X001500Y005150D03*
X001500Y006150D03*
X001500Y007150D03*
X001500Y008150D03*
X001500Y009150D03*
X001500Y010150D03*
D14*
X002803Y010200D02*
X002803Y009600D01*
X003803Y009600D02*
X003803Y010200D01*
X013750Y010075D02*
X013750Y009475D01*
X014750Y009475D02*
X014750Y010075D01*
D15*
X006875Y005150D03*
X006875Y004150D03*
X004875Y018150D03*
X003875Y018150D03*
D16*
X010199Y006150D03*
X011301Y006150D03*
D17*
X008125Y006150D03*
X008125Y005150D03*
X008125Y004150D03*
D18*
X006000Y015340D03*
X006000Y016460D03*
X004625Y016460D03*
X004625Y015340D03*
X002625Y015340D03*
X002625Y016460D03*
D19*
X002500Y018150D03*
X001500Y018150D03*
X006375Y018150D03*
X007375Y018150D03*
D20*
X016250Y010020D02*
X016250Y009280D01*
X017250Y009280D02*
X017250Y010020D01*
X018250Y010020D02*
X018250Y009280D01*
D21*
X015431Y002650D03*
X010806Y002650D03*
X006056Y002650D03*
D22*
X005269Y002650D03*
X004481Y002650D03*
X003694Y002650D03*
X008444Y002650D03*
X009231Y002650D03*
X010019Y002650D03*
X013069Y002650D03*
X013856Y002650D03*
X014644Y002650D03*
D23*
X014750Y001650D03*
X013750Y001650D03*
X012750Y001650D03*
X011125Y001650D03*
X010125Y001650D03*
X009125Y001650D03*
X006375Y001525D03*
X005375Y001525D03*
X004375Y001525D03*
X014500Y004150D03*
X015500Y004150D03*
X016500Y004150D03*
X016500Y005650D03*
X015500Y005650D03*
X014500Y005650D03*
X015750Y007025D03*
X016750Y007025D03*
X017750Y007025D03*
X017250Y011900D03*
X016250Y011900D03*
X015250Y011900D03*
X014250Y011900D03*
X011905Y014385D03*
X011000Y013275D03*
X010000Y013275D03*
X009000Y013275D03*
X009345Y014385D03*
X009345Y016165D03*
X009345Y017260D03*
X009345Y019040D03*
X011905Y019040D03*
X011905Y017260D03*
X011905Y016165D03*
X018250Y011900D03*
X019250Y011900D03*
X017750Y001650D03*
X016750Y001650D03*
X015750Y001650D03*
X005000Y012650D03*
X004000Y012650D03*
X003000Y012650D03*
D24*
X006000Y012650D03*
X012000Y013275D03*
X008125Y001650D03*
X003375Y001525D03*
D25*
X005936Y000775D03*
X007314Y000775D03*
X013061Y000750D03*
X014439Y000750D03*
X007250Y014961D03*
X007250Y016339D03*
X001250Y016339D03*
X001250Y014961D03*
X019250Y017586D03*
X019250Y018964D03*
D26*
X005881Y013911D03*
X005369Y013911D03*
X005625Y014639D03*
D27*
X015348Y014534D03*
X015348Y014790D03*
X015348Y015046D03*
X015348Y014278D03*
X015348Y014022D03*
X015348Y013766D03*
X015348Y013510D03*
X015348Y013254D03*
X017652Y013254D03*
X017652Y013510D03*
X017652Y013766D03*
X017652Y014022D03*
X017652Y014278D03*
X017652Y014534D03*
X017652Y014790D03*
X017652Y015046D03*
D28*
X017419Y017363D03*
X016750Y017363D03*
X016081Y017363D03*
X014919Y017363D03*
X014250Y017363D03*
X013581Y017363D03*
X013581Y018937D03*
X014250Y018937D03*
X014919Y018937D03*
X016081Y018937D03*
X016750Y018937D03*
X017419Y018937D03*
D29*
X018250Y018485D03*
X018250Y017815D03*
X017500Y016485D03*
X017500Y015815D03*
X016500Y015815D03*
X016500Y016485D03*
X015500Y016485D03*
X015500Y015815D03*
X014500Y015815D03*
X014500Y016485D03*
X013500Y016485D03*
X013500Y015815D03*
D30*
X018790Y016400D03*
X019460Y016400D03*
D31*
X015500Y010650D02*
X015500Y010150D01*
X013750Y009775D02*
X013375Y010150D01*
X012000Y010150D01*
X011726Y009876D01*
X011726Y009709D01*
X012500Y008900D02*
X008875Y008900D01*
X008726Y009049D01*
X009226Y007709D02*
X009285Y007650D01*
X009250Y007650D01*
X009250Y007685D01*
X009226Y007709D01*
X009250Y007685D02*
X009750Y006900D01*
X011500Y006900D01*
X013625Y006900D01*
X014375Y007775D02*
X015750Y007775D01*
X016250Y008275D01*
X017250Y008275D01*
X017250Y009650D01*
X016750Y007025D02*
X015500Y005650D01*
X015500Y005150D01*
X015500Y004150D01*
X015250Y004900D02*
X015500Y005150D01*
X015250Y004900D02*
X011000Y004900D01*
X010750Y005150D01*
X008125Y005150D01*
X008125Y004150D02*
X008625Y004150D01*
X009250Y003525D01*
X013125Y003525D01*
X013375Y003275D01*
X014000Y002650D01*
X013875Y002650D02*
X013875Y002775D01*
X011125Y001650D02*
X010806Y001969D01*
X010806Y002650D01*
X010019Y002650D02*
X010019Y001756D01*
X010125Y001650D01*
X009250Y001775D02*
X009250Y002650D01*
X009250Y002669D02*
X009250Y003525D01*
X009250Y002669D02*
X009231Y002650D01*
X009250Y001775D02*
X009125Y001650D01*
X011301Y006150D02*
X011375Y006150D01*
X011500Y006150D01*
X011500Y006900D01*
X013375Y008400D02*
X013750Y008400D01*
X014375Y007775D01*
X013375Y008400D02*
X007160Y008400D01*
X006726Y009709D01*
X005726Y009709D02*
X003994Y009709D01*
X003803Y009900D01*
X002803Y009900D02*
X002803Y009847D01*
X004000Y008400D01*
X005785Y008400D01*
X006226Y007709D01*
X002000Y010650D02*
X001500Y010150D01*
D32*
X002000Y010650D02*
X015500Y010650D01*
X015125Y008775D02*
X009375Y008775D01*
X008750Y009400D01*
X008750Y010025D01*
X009000Y010275D01*
X010250Y010275D01*
X011000Y012025D02*
X011000Y013275D01*
X010000Y013275D02*
X010000Y016665D01*
X009345Y017260D01*
X011905Y017260D01*
X012625Y018150D02*
X012625Y015150D01*
X012045Y014775D01*
X011905Y014385D01*
X012625Y018150D02*
X011905Y018745D01*
X011905Y019040D01*
X009345Y019040D01*
X007375Y018150D02*
X007375Y018025D01*
X006000Y016550D01*
X005990Y016450D01*
X006000Y016460D01*
X006000Y015340D02*
X005440Y015400D01*
X005375Y015400D01*
X005614Y015389D01*
X005625Y014639D01*
X005881Y014031D02*
X006750Y014900D01*
X007189Y014900D01*
X007250Y014961D01*
X006000Y015340D02*
X005560Y015400D01*
X005440Y015400D01*
X004625Y015340D02*
X004560Y015340D01*
X004600Y014575D01*
X005261Y013911D02*
X004000Y012650D01*
X003000Y012650D02*
X003000Y013400D01*
X003875Y014025D01*
X003875Y016275D01*
X004435Y016400D01*
X004625Y016460D01*
X004500Y016525D01*
X004875Y017400D01*
X004875Y018150D01*
X003875Y018150D02*
X003875Y017900D01*
X003375Y017025D01*
X003375Y014300D01*
X002750Y014650D02*
X002810Y015340D01*
X002625Y015340D01*
X002625Y016460D02*
X002500Y018150D01*
X001500Y018150D02*
X001500Y018650D01*
X002000Y019150D01*
X004000Y019150D01*
X003875Y019025D01*
X003875Y018150D01*
X004000Y019150D02*
X005375Y019150D01*
X006375Y018150D01*
X005881Y014031D02*
X005881Y013911D01*
X005881Y012769D01*
X006000Y012650D01*
X005369Y013911D02*
X005261Y013911D01*
X012500Y008900D02*
X012625Y008900D01*
X012750Y008775D01*
X015125Y008775D02*
X015500Y008400D01*
X015500Y008150D01*
X013875Y002650D02*
X013750Y002525D01*
X013750Y001650D01*
X006375Y001525D02*
X006000Y001900D01*
X006000Y002594D01*
X005375Y002544D02*
X005269Y002650D01*
X005375Y002544D02*
X005375Y001525D01*
X004500Y001650D02*
X004375Y001525D01*
X004500Y001650D02*
X004481Y001669D01*
X004481Y002650D01*
D33*
X004000Y003400D03*
X002500Y003150D03*
X004000Y006400D03*
X005500Y006775D03*
X007625Y008775D03*
X011750Y006275D03*
X013625Y006900D03*
X014875Y006650D03*
X015500Y008400D03*
X016750Y008775D03*
X015500Y010150D03*
X013375Y008400D03*
X015250Y012775D03*
X015875Y015025D03*
X016625Y015025D03*
X018250Y015400D03*
X018875Y015650D03*
X018000Y013025D03*
X014875Y015150D03*
X013500Y015275D03*
X014750Y018150D03*
X002000Y009650D03*
X013375Y003275D03*
D34*
X016125Y002650D03*
X017250Y002650D03*
X018000Y003150D03*
X008000Y006900D03*
X005375Y004025D03*
X004875Y004150D03*
X004500Y005150D03*
X003000Y007150D03*
X003375Y014300D03*
X002750Y014650D03*
X004600Y014575D03*
X005375Y015400D03*
X004875Y017400D03*
X003375Y017025D03*
D35*
X011500Y006275D02*
X011375Y006150D01*
X011500Y006275D02*
X011750Y006275D01*
D36*
X011250Y004150D03*
X012000Y002775D03*
X012750Y009525D03*
D37*
X010250Y010275D03*
X003300Y002350D03*
X018500Y001650D03*
X018250Y017275D03*
M02*
