%
M48
M72
T01C0.0197
T02C0.0236
T03C0.0315
T04C0.0320
T05C0.0360
T06C0.0400
T07C0.0433
T08C0.0440
T09C0.1102
%
T01
X2500Y3150
X3300Y2350
X4000Y3400
X4000Y6400
X5500Y6775
X7625Y8775
X10250Y10275
X13375Y8400
X13625Y6900
X14875Y6650
X15500Y8400
X16750Y8775
X15500Y10150
X15250Y12775
X15875Y15025
X16625Y15025
X18250Y15400
X18875Y15650
X18250Y17275
X14750Y18150
X14875Y15150
X13500Y15275
X18000Y13025
X11750Y6275
X13375Y3275
X18500Y1650
X2000Y9650
T02
X3000Y7150
X4500Y5150
X4875Y4150
X5375Y4025
X8000Y6900
X3375Y14300
X2750Y14650
X4600Y14575
X5375Y15400
X4875Y17400
X3375Y17025
X16125Y2650
X17250Y2650
X18000Y3150
T03
X15431Y2650
X14644Y2650
X13856Y2650
X13069Y2650
X12000Y2775
X10806Y2650
X10019Y2650
X9231Y2650
X8444Y2650
X7314Y775
X5936Y775
X6056Y2650
X5269Y2650
X4481Y2650
X3694Y2650
X11250Y4150
X13061Y750
X14439Y750
X12750Y9525
X7250Y14961
X7250Y16339
X1250Y16339
X1250Y14961
X19250Y17586
X19250Y18964
T04
X19625Y14650
X19625Y13650
X18750Y13150
X18750Y14150
X14375Y14400
X13500Y14400
X13500Y13400
X14375Y13400
X11000Y12025
X7375Y18150
X6375Y18150
X4875Y18150
X3875Y18150
X2500Y18150
X1500Y18150
X6875Y5150
X6875Y4150
T05
X1500Y1150
X1500Y2150
X1500Y3150
X1500Y4150
X1500Y5150
X1500Y6150
X1500Y7150
X1500Y8150
X1500Y9150
X1500Y10150
X19500Y10150
X19500Y9150
X19500Y8150
X19500Y7150
X19500Y6150
X19500Y5150
X19500Y4150
X19500Y3150
X19500Y2150
X19500Y1150
T06
X17750Y1650
X16750Y1650
X15750Y1650
X14750Y1650
X13750Y1650
X12750Y1650
X11125Y1650
X10125Y1650
X9125Y1650
X8125Y1650
X6375Y1525
X5375Y1525
X4375Y1525
X3375Y1525
X8125Y4150
X8125Y5150
X8125Y6150
X3803Y9900
X2803Y9900
X3000Y12650
X4000Y12650
X5000Y12650
X6000Y12650
X9000Y13275
X10000Y13275
X11000Y13275
X12000Y13275
X11905Y14385
X11905Y16165
X11905Y17260
X11905Y19040
X9345Y19040
X9345Y17260
X9345Y16165
X9345Y14385
X13750Y9775
X14750Y9775
X14250Y11900
X15250Y11900
X16250Y11900
X17250Y11900
X18250Y11900
X19250Y11900
X17750Y7025
X16750Y7025
X15750Y7025
X15500Y5650
X14500Y5650
X14500Y4150
X15500Y4150
X16500Y4150
X16500Y5650
T07
X12226Y7709
X11226Y7709
X10226Y7709
X9226Y7709
X8226Y7709
X7226Y7709
X6226Y7709
X5226Y7709
X5726Y9709
X6726Y9709
X7726Y9709
X8726Y9709
X9726Y9709
X10726Y9709
X11726Y9709
T08
X16250Y9650
X17250Y9650
X18250Y9650
T09
X12000Y12025
X9125Y12025
X7125Y13900
X1625Y13900
M30
