G75*
G70*
%OFA0B0*%
%FSLAX24Y24*%
%IPPOS*%
%LPD*%
%AMOC8*
5,1,8,0,0,1.08239X$1,22.5*
%
%ADD10C,0.0000*%
%ADD11C,0.0100*%
%ADD12C,0.0748*%
%ADD13OC8,0.0630*%
%ADD14C,0.0600*%
%ADD15OC8,0.0520*%
%ADD16R,0.0790X0.0590*%
%ADD17R,0.0790X0.1500*%
%ADD18C,0.0600*%
%ADD19OC8,0.0660*%
%ADD20C,0.0740*%
%ADD21R,0.0515X0.0515*%
%ADD22C,0.0515*%
%ADD23C,0.0740*%
%ADD24R,0.0740X0.0740*%
%ADD25C,0.0551*%
%ADD26C,0.0240*%
%ADD27R,0.0317X0.0317*%
%ADD28R,0.0356X0.0356*%
%ADD29C,0.0320*%
%ADD30R,0.0472X0.0472*%
%ADD31OC8,0.0317*%
%ADD32C,0.0160*%
D10*
X000750Y000138D02*
X000750Y010995D01*
X020252Y010995D01*
X020252Y000138D01*
X000750Y000138D01*
X000750Y000150D02*
X000750Y019650D01*
X020250Y019650D01*
X020250Y000150D01*
X000750Y000150D01*
X008574Y012025D02*
X008576Y012072D01*
X008582Y012118D01*
X008592Y012164D01*
X008605Y012209D01*
X008623Y012252D01*
X008644Y012294D01*
X008668Y012334D01*
X008696Y012371D01*
X008727Y012406D01*
X008761Y012439D01*
X008797Y012468D01*
X008836Y012494D01*
X008877Y012517D01*
X008920Y012536D01*
X008964Y012552D01*
X009009Y012564D01*
X009055Y012572D01*
X009102Y012576D01*
X009148Y012576D01*
X009195Y012572D01*
X009241Y012564D01*
X009286Y012552D01*
X009330Y012536D01*
X009373Y012517D01*
X009414Y012494D01*
X009453Y012468D01*
X009489Y012439D01*
X009523Y012406D01*
X009554Y012371D01*
X009582Y012334D01*
X009606Y012294D01*
X009627Y012252D01*
X009645Y012209D01*
X009658Y012164D01*
X009668Y012118D01*
X009674Y012072D01*
X009676Y012025D01*
X009674Y011978D01*
X009668Y011932D01*
X009658Y011886D01*
X009645Y011841D01*
X009627Y011798D01*
X009606Y011756D01*
X009582Y011716D01*
X009554Y011679D01*
X009523Y011644D01*
X009489Y011611D01*
X009453Y011582D01*
X009414Y011556D01*
X009373Y011533D01*
X009330Y011514D01*
X009286Y011498D01*
X009241Y011486D01*
X009195Y011478D01*
X009148Y011474D01*
X009102Y011474D01*
X009055Y011478D01*
X009009Y011486D01*
X008964Y011498D01*
X008920Y011514D01*
X008877Y011533D01*
X008836Y011556D01*
X008797Y011582D01*
X008761Y011611D01*
X008727Y011644D01*
X008696Y011679D01*
X008668Y011716D01*
X008644Y011756D01*
X008623Y011798D01*
X008605Y011841D01*
X008592Y011886D01*
X008582Y011932D01*
X008576Y011978D01*
X008574Y012025D01*
X006574Y013900D02*
X006576Y013947D01*
X006582Y013993D01*
X006592Y014039D01*
X006605Y014084D01*
X006623Y014127D01*
X006644Y014169D01*
X006668Y014209D01*
X006696Y014246D01*
X006727Y014281D01*
X006761Y014314D01*
X006797Y014343D01*
X006836Y014369D01*
X006877Y014392D01*
X006920Y014411D01*
X006964Y014427D01*
X007009Y014439D01*
X007055Y014447D01*
X007102Y014451D01*
X007148Y014451D01*
X007195Y014447D01*
X007241Y014439D01*
X007286Y014427D01*
X007330Y014411D01*
X007373Y014392D01*
X007414Y014369D01*
X007453Y014343D01*
X007489Y014314D01*
X007523Y014281D01*
X007554Y014246D01*
X007582Y014209D01*
X007606Y014169D01*
X007627Y014127D01*
X007645Y014084D01*
X007658Y014039D01*
X007668Y013993D01*
X007674Y013947D01*
X007676Y013900D01*
X007674Y013853D01*
X007668Y013807D01*
X007658Y013761D01*
X007645Y013716D01*
X007627Y013673D01*
X007606Y013631D01*
X007582Y013591D01*
X007554Y013554D01*
X007523Y013519D01*
X007489Y013486D01*
X007453Y013457D01*
X007414Y013431D01*
X007373Y013408D01*
X007330Y013389D01*
X007286Y013373D01*
X007241Y013361D01*
X007195Y013353D01*
X007148Y013349D01*
X007102Y013349D01*
X007055Y013353D01*
X007009Y013361D01*
X006964Y013373D01*
X006920Y013389D01*
X006877Y013408D01*
X006836Y013431D01*
X006797Y013457D01*
X006761Y013486D01*
X006727Y013519D01*
X006696Y013554D01*
X006668Y013591D01*
X006644Y013631D01*
X006623Y013673D01*
X006605Y013716D01*
X006592Y013761D01*
X006582Y013807D01*
X006576Y013853D01*
X006574Y013900D01*
X001074Y013900D02*
X001076Y013947D01*
X001082Y013993D01*
X001092Y014039D01*
X001105Y014084D01*
X001123Y014127D01*
X001144Y014169D01*
X001168Y014209D01*
X001196Y014246D01*
X001227Y014281D01*
X001261Y014314D01*
X001297Y014343D01*
X001336Y014369D01*
X001377Y014392D01*
X001420Y014411D01*
X001464Y014427D01*
X001509Y014439D01*
X001555Y014447D01*
X001602Y014451D01*
X001648Y014451D01*
X001695Y014447D01*
X001741Y014439D01*
X001786Y014427D01*
X001830Y014411D01*
X001873Y014392D01*
X001914Y014369D01*
X001953Y014343D01*
X001989Y014314D01*
X002023Y014281D01*
X002054Y014246D01*
X002082Y014209D01*
X002106Y014169D01*
X002127Y014127D01*
X002145Y014084D01*
X002158Y014039D01*
X002168Y013993D01*
X002174Y013947D01*
X002176Y013900D01*
X002174Y013853D01*
X002168Y013807D01*
X002158Y013761D01*
X002145Y013716D01*
X002127Y013673D01*
X002106Y013631D01*
X002082Y013591D01*
X002054Y013554D01*
X002023Y013519D01*
X001989Y013486D01*
X001953Y013457D01*
X001914Y013431D01*
X001873Y013408D01*
X001830Y013389D01*
X001786Y013373D01*
X001741Y013361D01*
X001695Y013353D01*
X001648Y013349D01*
X001602Y013349D01*
X001555Y013353D01*
X001509Y013361D01*
X001464Y013373D01*
X001420Y013389D01*
X001377Y013408D01*
X001336Y013431D01*
X001297Y013457D01*
X001261Y013486D01*
X001227Y013519D01*
X001196Y013554D01*
X001168Y013591D01*
X001144Y013631D01*
X001123Y013673D01*
X001105Y013716D01*
X001092Y013761D01*
X001082Y013807D01*
X001076Y013853D01*
X001074Y013900D01*
X011449Y012025D02*
X011451Y012072D01*
X011457Y012118D01*
X011467Y012164D01*
X011480Y012209D01*
X011498Y012252D01*
X011519Y012294D01*
X011543Y012334D01*
X011571Y012371D01*
X011602Y012406D01*
X011636Y012439D01*
X011672Y012468D01*
X011711Y012494D01*
X011752Y012517D01*
X011795Y012536D01*
X011839Y012552D01*
X011884Y012564D01*
X011930Y012572D01*
X011977Y012576D01*
X012023Y012576D01*
X012070Y012572D01*
X012116Y012564D01*
X012161Y012552D01*
X012205Y012536D01*
X012248Y012517D01*
X012289Y012494D01*
X012328Y012468D01*
X012364Y012439D01*
X012398Y012406D01*
X012429Y012371D01*
X012457Y012334D01*
X012481Y012294D01*
X012502Y012252D01*
X012520Y012209D01*
X012533Y012164D01*
X012543Y012118D01*
X012549Y012072D01*
X012551Y012025D01*
X012549Y011978D01*
X012543Y011932D01*
X012533Y011886D01*
X012520Y011841D01*
X012502Y011798D01*
X012481Y011756D01*
X012457Y011716D01*
X012429Y011679D01*
X012398Y011644D01*
X012364Y011611D01*
X012328Y011582D01*
X012289Y011556D01*
X012248Y011533D01*
X012205Y011514D01*
X012161Y011498D01*
X012116Y011486D01*
X012070Y011478D01*
X012023Y011474D01*
X011977Y011474D01*
X011930Y011478D01*
X011884Y011486D01*
X011839Y011498D01*
X011795Y011514D01*
X011752Y011533D01*
X011711Y011556D01*
X011672Y011582D01*
X011636Y011611D01*
X011602Y011644D01*
X011571Y011679D01*
X011543Y011716D01*
X011519Y011756D01*
X011498Y011798D01*
X011480Y011841D01*
X011467Y011886D01*
X011457Y011932D01*
X011451Y011978D01*
X011449Y012025D01*
D11*
X011054Y010685D02*
X010962Y010593D01*
X010742Y010373D01*
X010594Y010373D01*
X010350Y010272D01*
X010226Y010148D01*
X010103Y010272D01*
X010066Y010287D01*
X010066Y010491D01*
X010015Y010616D01*
X009946Y010685D01*
X011054Y010685D01*
X010960Y010591D02*
X010025Y010591D01*
X010066Y010493D02*
X010862Y010493D01*
X010763Y010394D02*
X010066Y010394D01*
X010066Y010296D02*
X010407Y010296D01*
X010275Y010197D02*
X010177Y010197D01*
X009726Y010424D02*
X009726Y009709D01*
X009275Y010197D02*
X008920Y010197D01*
X008928Y010195D02*
X008849Y010220D01*
X008776Y010232D01*
X008776Y009759D01*
X008676Y009759D01*
X008676Y010232D01*
X008604Y010220D01*
X008525Y010195D01*
X008452Y010157D01*
X008385Y010109D01*
X008327Y010050D01*
X008312Y010030D01*
X008289Y010085D01*
X008103Y010272D01*
X008011Y010310D01*
X009359Y010310D01*
X009383Y010286D01*
X009350Y010272D01*
X009163Y010085D01*
X009141Y010030D01*
X009126Y010050D01*
X009068Y010109D01*
X009001Y010157D01*
X008928Y010195D01*
X008776Y010197D02*
X008676Y010197D01*
X008676Y010099D02*
X008776Y010099D01*
X008776Y010000D02*
X008676Y010000D01*
X008676Y009902D02*
X008776Y009902D01*
X008776Y009803D02*
X008676Y009803D01*
X008532Y010197D02*
X008177Y010197D01*
X008276Y010099D02*
X008375Y010099D01*
X008046Y010296D02*
X009374Y010296D01*
X009177Y010099D02*
X009078Y010099D01*
X009500Y010650D02*
X002000Y010650D01*
X002000Y009650D01*
X001500Y009150D02*
X009785Y009150D01*
X010226Y007709D01*
X010726Y007270D02*
X010758Y007238D01*
X010652Y007132D01*
X010165Y006645D01*
X009557Y006645D01*
X009451Y006601D01*
X009410Y006560D01*
X008549Y006560D01*
X008459Y006650D01*
X008242Y006740D01*
X008008Y006740D01*
X007791Y006650D01*
X007625Y006484D01*
X007535Y006267D01*
X007535Y006033D01*
X007625Y005816D01*
X007791Y005650D01*
X007625Y005484D01*
X007535Y005267D01*
X007535Y005033D01*
X007625Y004816D01*
X007791Y004650D01*
X007625Y004484D01*
X007121Y004484D01*
X007045Y004560D02*
X006905Y004560D01*
X006905Y004180D01*
X006845Y004180D01*
X006845Y004560D01*
X006705Y004560D01*
X006465Y004320D01*
X006465Y004180D01*
X006845Y004180D01*
X006845Y004120D01*
X006511Y004120D01*
X005340Y005291D01*
X005340Y005718D01*
X005288Y005843D01*
X005193Y005938D01*
X005068Y005990D01*
X004309Y005990D01*
X004323Y005996D01*
X004387Y006060D01*
X006818Y006060D01*
X007535Y006060D01*
X007535Y006159D02*
X006989Y006159D01*
X006943Y006112D02*
X007940Y007109D01*
X008094Y007045D01*
X008358Y007045D01*
X008603Y007146D01*
X008726Y007270D01*
X008850Y007146D01*
X009094Y007045D01*
X009358Y007045D01*
X009603Y007146D01*
X009726Y007270D01*
X009850Y007146D01*
X010094Y007045D01*
X010358Y007045D01*
X010603Y007146D01*
X010726Y007270D01*
X010698Y007242D02*
X010754Y007242D01*
X010664Y007144D02*
X010596Y007144D01*
X010565Y007045D02*
X007876Y007045D01*
X007777Y006947D02*
X010467Y006947D01*
X010368Y006848D02*
X007679Y006848D01*
X007580Y006750D02*
X010270Y006750D01*
X010171Y006651D02*
X008457Y006651D01*
X008596Y007144D02*
X008857Y007144D01*
X008754Y007242D02*
X008698Y007242D01*
X008226Y007709D02*
X008059Y007709D01*
X006750Y006400D01*
X004000Y006400D01*
X003552Y006356D02*
X002105Y006356D01*
X002105Y006401D02*
X002105Y006026D01*
X002141Y005990D01*
X003691Y005990D01*
X003677Y005996D01*
X003596Y006077D01*
X003552Y006184D01*
X003552Y006616D01*
X003596Y006723D01*
X003677Y006804D01*
X003784Y006848D01*
X004216Y006848D01*
X004323Y006804D01*
X004387Y006740D01*
X006609Y006740D01*
X006967Y007098D01*
X006850Y007146D01*
X006726Y007270D01*
X006603Y007146D01*
X006358Y007045D01*
X006094Y007045D01*
X005850Y007146D01*
X005663Y007333D01*
X005641Y007388D01*
X005626Y007368D01*
X005568Y007309D01*
X005501Y007261D01*
X005428Y007223D01*
X005349Y007198D01*
X005276Y007186D01*
X005276Y007659D01*
X005176Y007659D01*
X004704Y007659D01*
X004715Y007586D01*
X004741Y007508D01*
X004778Y007434D01*
X004827Y007368D01*
X004885Y007309D01*
X004952Y007261D01*
X005025Y007223D01*
X005104Y007198D01*
X005176Y007186D01*
X005176Y007659D01*
X005176Y007759D01*
X004704Y007759D01*
X004715Y007832D01*
X004741Y007910D01*
X004778Y007984D01*
X004827Y008050D01*
X004885Y008109D01*
X004952Y008157D01*
X005025Y008195D01*
X005104Y008220D01*
X005176Y008232D01*
X005176Y007759D01*
X005276Y007759D01*
X005276Y008232D01*
X005349Y008220D01*
X005428Y008195D01*
X005501Y008157D01*
X005568Y008109D01*
X005626Y008050D01*
X005641Y008030D01*
X005663Y008085D01*
X005850Y008272D01*
X006094Y008373D01*
X006358Y008373D01*
X006603Y008272D01*
X006726Y008148D01*
X006850Y008272D01*
X007094Y008373D01*
X007300Y008373D01*
X007238Y008435D01*
X003484Y008435D01*
X002721Y007890D01*
X002693Y007862D01*
X002666Y007851D01*
X002643Y007834D01*
X002604Y007825D01*
X002568Y007810D01*
X002539Y007810D01*
X002511Y007804D01*
X002472Y007810D01*
X002016Y007810D01*
X001856Y007650D01*
X002016Y007490D01*
X002575Y007490D01*
X002576Y007492D01*
X002658Y007574D01*
X002764Y007618D01*
X003236Y007618D01*
X003342Y007574D01*
X003424Y007492D01*
X003468Y007386D01*
X003468Y006914D01*
X003424Y006808D01*
X003342Y006726D01*
X003236Y006682D01*
X002764Y006682D01*
X002658Y006726D01*
X002576Y006808D01*
X002575Y006810D01*
X002016Y006810D01*
X001856Y006650D01*
X002105Y006401D01*
X002052Y006454D02*
X003552Y006454D01*
X003552Y006553D02*
X001953Y006553D01*
X001857Y006651D02*
X003566Y006651D01*
X003623Y006750D02*
X003366Y006750D01*
X003441Y006848D02*
X003783Y006848D01*
X003468Y006947D02*
X006816Y006947D01*
X006914Y007045D02*
X003468Y007045D01*
X003468Y007144D02*
X005857Y007144D01*
X005754Y007242D02*
X005464Y007242D01*
X005599Y007341D02*
X005660Y007341D01*
X005276Y007341D02*
X005176Y007341D01*
X005176Y007439D02*
X005276Y007439D01*
X005250Y007483D02*
X005250Y007150D01*
X005500Y006775D01*
X005276Y007242D02*
X005176Y007242D01*
X004989Y007242D02*
X003468Y007242D01*
X003468Y007341D02*
X004854Y007341D01*
X004776Y007439D02*
X003446Y007439D01*
X003379Y007538D02*
X004731Y007538D01*
X004707Y007636D02*
X001870Y007636D01*
X001940Y007735D02*
X005176Y007735D01*
X005226Y007709D02*
X005250Y007483D01*
X005276Y007538D02*
X005176Y007538D01*
X005176Y007636D02*
X005276Y007636D01*
X005276Y007833D02*
X005176Y007833D01*
X005176Y007932D02*
X005276Y007932D01*
X005276Y008030D02*
X005176Y008030D01*
X005176Y008129D02*
X005276Y008129D01*
X005276Y008227D02*
X005176Y008227D01*
X005147Y008227D02*
X003193Y008227D01*
X003331Y008326D02*
X005980Y008326D01*
X005805Y008227D02*
X005306Y008227D01*
X004912Y008129D02*
X003055Y008129D01*
X002917Y008030D02*
X004812Y008030D01*
X004752Y007932D02*
X002779Y007932D01*
X002638Y007833D02*
X004716Y007833D01*
X005541Y008129D02*
X005707Y008129D01*
X006473Y008326D02*
X006980Y008326D01*
X006805Y008227D02*
X006647Y008227D01*
X007249Y008424D02*
X003469Y008424D01*
X003375Y008775D02*
X002500Y008150D01*
X001500Y008150D01*
X001968Y007538D02*
X002621Y007538D01*
X003000Y007150D02*
X001500Y007150D01*
X001955Y006750D02*
X002634Y006750D01*
X002105Y006257D02*
X003552Y006257D01*
X003562Y006159D02*
X002105Y006159D01*
X002105Y006060D02*
X003613Y006060D01*
X004217Y006848D02*
X006717Y006848D01*
X006619Y006750D02*
X004377Y006750D01*
X005136Y005962D02*
X007564Y005962D01*
X007605Y005863D02*
X005268Y005863D01*
X005321Y005765D02*
X007676Y005765D01*
X007775Y005666D02*
X007137Y005666D01*
X007103Y005700D02*
X006647Y005700D01*
X006325Y005378D01*
X006325Y004922D01*
X006647Y004600D01*
X007103Y004600D01*
X007425Y004922D01*
X007425Y005378D01*
X007103Y005700D01*
X007235Y005568D02*
X007708Y005568D01*
X007619Y005469D02*
X007334Y005469D01*
X007425Y005371D02*
X007578Y005371D01*
X007537Y005272D02*
X007425Y005272D01*
X007425Y005174D02*
X007535Y005174D01*
X007535Y005075D02*
X007425Y005075D01*
X007425Y004977D02*
X007558Y004977D01*
X007599Y004878D02*
X007381Y004878D01*
X007282Y004780D02*
X007661Y004780D01*
X007760Y004681D02*
X007184Y004681D01*
X007045Y004560D02*
X007285Y004320D01*
X007285Y004180D01*
X006905Y004180D01*
X006905Y004120D01*
X007285Y004120D01*
X007285Y003980D01*
X007045Y003740D01*
X006905Y003740D01*
X006905Y004120D01*
X006845Y004120D01*
X006845Y003786D01*
X007141Y003490D01*
X009568Y003490D01*
X009693Y003438D01*
X009788Y003343D01*
X009933Y003197D01*
X010128Y003197D01*
X010329Y003114D01*
X010337Y003106D01*
X010384Y003153D01*
X010491Y003197D01*
X011121Y003197D01*
X011228Y003153D01*
X011309Y003072D01*
X011354Y002965D01*
X011354Y002490D01*
X012693Y002490D01*
X012691Y002494D01*
X012671Y002555D01*
X012661Y002618D01*
X012661Y002621D01*
X013040Y002621D01*
X013040Y002679D01*
X012661Y002679D01*
X012661Y002682D01*
X012671Y002745D01*
X012691Y002806D01*
X012720Y002864D01*
X012758Y002915D01*
X012803Y002961D01*
X012855Y002999D01*
X012912Y003028D01*
X012936Y003035D01*
X012927Y003059D01*
X012927Y003491D01*
X012965Y003584D01*
X012965Y004119D01*
X012943Y004110D01*
X012037Y004110D01*
X011931Y004154D01*
X011849Y004236D01*
X011805Y004342D01*
X011805Y005512D01*
X011756Y005395D01*
X011630Y005269D01*
X011140Y004779D01*
X010975Y004710D01*
X010655Y004710D01*
X010651Y004701D01*
X010569Y004619D01*
X010546Y004609D01*
X010555Y004575D01*
X010555Y004310D01*
X010060Y004310D01*
X010060Y004210D01*
X010555Y004210D01*
X010555Y003945D01*
X010545Y003907D01*
X010525Y003873D01*
X010497Y003845D01*
X010463Y003825D01*
X010425Y003815D01*
X010060Y003815D01*
X010060Y004210D01*
X009960Y004210D01*
X009960Y003815D01*
X009595Y003815D01*
X009557Y003825D01*
X009523Y003845D01*
X009495Y003873D01*
X009475Y003907D01*
X009465Y003945D01*
X009465Y004210D01*
X009960Y004210D01*
X009960Y004310D01*
X009960Y004575D01*
X010060Y004575D01*
X010060Y004310D01*
X009960Y004310D01*
X009465Y004310D01*
X009465Y004575D01*
X009474Y004609D01*
X009451Y004619D01*
X009369Y004701D01*
X009325Y004807D01*
X009325Y005513D01*
X009365Y005610D01*
X009325Y005707D01*
X009325Y005740D01*
X008549Y005740D01*
X008459Y005650D01*
X008625Y005484D01*
X008715Y005267D01*
X008715Y005033D01*
X008625Y004816D01*
X008459Y004650D01*
X008625Y004484D01*
X009465Y004484D01*
X009465Y004386D02*
X008666Y004386D01*
X008625Y004484D02*
X008715Y004267D01*
X008715Y004033D01*
X008625Y003816D01*
X008459Y003650D01*
X008242Y003560D01*
X008008Y003560D01*
X007791Y003650D01*
X007625Y003816D01*
X007535Y004033D01*
X007535Y004267D01*
X007625Y004484D01*
X007584Y004386D02*
X007219Y004386D01*
X007285Y004287D02*
X007543Y004287D01*
X007535Y004189D02*
X007285Y004189D01*
X007285Y004090D02*
X007535Y004090D01*
X007552Y003992D02*
X007285Y003992D01*
X007198Y003893D02*
X007593Y003893D01*
X007646Y003795D02*
X007099Y003795D01*
X006935Y003696D02*
X007745Y003696D01*
X007917Y003598D02*
X007033Y003598D01*
X007132Y003499D02*
X012930Y003499D01*
X012927Y003401D02*
X009730Y003401D01*
X009829Y003302D02*
X012927Y003302D01*
X012927Y003204D02*
X009927Y003204D01*
X009500Y003150D02*
X010000Y002650D01*
X010019Y002650D01*
X009500Y003150D02*
X007000Y003150D01*
X005000Y005150D01*
X005000Y005650D01*
X002000Y005650D01*
X001500Y006150D01*
X001500Y005150D02*
X004500Y005150D01*
X005359Y005272D02*
X006325Y005272D01*
X006325Y005174D02*
X005457Y005174D01*
X005556Y005075D02*
X006325Y005075D01*
X006325Y004977D02*
X005654Y004977D01*
X005753Y004878D02*
X006369Y004878D01*
X006468Y004780D02*
X005851Y004780D01*
X005950Y004681D02*
X006566Y004681D01*
X006629Y004484D02*
X006147Y004484D01*
X006245Y004386D02*
X006531Y004386D01*
X006465Y004287D02*
X006344Y004287D01*
X006442Y004189D02*
X006465Y004189D01*
X006845Y004189D02*
X006905Y004189D01*
X006905Y004287D02*
X006845Y004287D01*
X006845Y004386D02*
X006905Y004386D01*
X006905Y004484D02*
X006845Y004484D01*
X006845Y004090D02*
X006905Y004090D01*
X006905Y003992D02*
X006845Y003992D01*
X006845Y003893D02*
X006905Y003893D01*
X006905Y003795D02*
X006845Y003795D01*
X006367Y003302D02*
X005133Y003302D01*
X005160Y003197D02*
X004959Y003114D01*
X004875Y003031D01*
X004868Y003037D01*
X005388Y003557D01*
X005611Y003557D01*
X005717Y003601D01*
X005799Y003683D01*
X005843Y003789D01*
X005843Y003826D01*
X006807Y002862D01*
X006932Y002810D01*
X008068Y002810D01*
X008066Y002806D01*
X008046Y002745D01*
X008036Y002682D01*
X008036Y002679D01*
X008415Y002679D01*
X008415Y002621D01*
X008036Y002621D01*
X008036Y002618D01*
X008046Y002555D01*
X008066Y002494D01*
X008068Y002490D01*
X006932Y002490D01*
X006807Y002438D01*
X006712Y002343D01*
X006540Y002171D01*
X006513Y002182D01*
X006559Y002228D01*
X006604Y002335D01*
X006604Y002965D01*
X006559Y003072D01*
X006478Y003153D01*
X006371Y003197D01*
X005741Y003197D01*
X005634Y003153D01*
X005587Y003106D01*
X005579Y003114D01*
X005378Y003197D01*
X005160Y003197D01*
X005034Y003204D02*
X006466Y003204D01*
X006526Y003105D02*
X006564Y003105D01*
X006586Y003007D02*
X006663Y003007D01*
X006604Y002908D02*
X006761Y002908D01*
X006604Y002810D02*
X008068Y002810D01*
X008041Y002711D02*
X006604Y002711D01*
X006604Y002613D02*
X008037Y002613D01*
X008060Y002514D02*
X006604Y002514D01*
X006604Y002416D02*
X006785Y002416D01*
X006686Y002317D02*
X006596Y002317D01*
X006588Y002219D02*
X006550Y002219D01*
X007000Y002150D02*
X016250Y002150D01*
X016750Y001650D01*
X016825Y002310D02*
X016619Y002310D01*
X016585Y002296D01*
X016556Y002325D01*
X016593Y002414D01*
X016593Y002886D01*
X016549Y002992D01*
X016467Y003074D01*
X016361Y003118D01*
X015889Y003118D01*
X015888Y003118D01*
X015853Y003153D01*
X015746Y003197D01*
X015116Y003197D01*
X015009Y003153D01*
X014962Y003106D01*
X014954Y003114D01*
X014753Y003197D01*
X014535Y003197D01*
X014334Y003114D01*
X014250Y003031D01*
X014166Y003114D01*
X013965Y003197D01*
X013823Y003197D01*
X013823Y003491D01*
X013785Y003584D01*
X013785Y005964D01*
X013825Y006060D01*
X014180Y006060D01*
X014161Y006047D02*
X014103Y005989D01*
X014055Y005923D01*
X014018Y005850D01*
X013993Y005772D01*
X013981Y005700D01*
X014450Y005700D01*
X014450Y006169D01*
X014378Y006157D01*
X014300Y006132D01*
X014227Y006095D01*
X014161Y006047D01*
X014084Y005962D02*
X013785Y005962D01*
X013785Y005863D02*
X014025Y005863D01*
X013992Y005765D02*
X013785Y005765D01*
X013785Y005666D02*
X014450Y005666D01*
X014450Y005700D02*
X014450Y005600D01*
X013981Y005600D01*
X013993Y005528D01*
X014018Y005450D01*
X014055Y005377D01*
X014103Y005311D01*
X014161Y005253D01*
X014227Y005205D01*
X014300Y005168D01*
X014378Y005143D01*
X014450Y005131D01*
X014450Y005600D01*
X014550Y005600D01*
X014550Y005131D01*
X014622Y005143D01*
X014700Y005168D01*
X014773Y005205D01*
X014839Y005253D01*
X014897Y005311D01*
X014915Y005337D01*
X014940Y005276D01*
X015126Y005090D01*
X015369Y004990D01*
X015631Y004990D01*
X015874Y005090D01*
X016000Y005217D01*
X016126Y005090D01*
X016369Y004990D01*
X016631Y004990D01*
X016665Y005004D01*
X016910Y004759D01*
X016910Y004673D01*
X016874Y004710D01*
X016631Y004810D01*
X016369Y004810D01*
X016126Y004710D01*
X016000Y004583D01*
X015874Y004710D01*
X015631Y004810D01*
X015369Y004810D01*
X015126Y004710D01*
X014940Y004524D01*
X014915Y004463D01*
X014897Y004489D01*
X014839Y004547D01*
X014773Y004595D01*
X014700Y004632D01*
X014622Y004657D01*
X014550Y004669D01*
X014550Y004200D01*
X014450Y004200D01*
X014450Y004669D01*
X014378Y004657D01*
X014300Y004632D01*
X014227Y004595D01*
X014161Y004547D01*
X014103Y004489D01*
X014055Y004423D01*
X014018Y004350D01*
X013993Y004272D01*
X013981Y004200D01*
X014450Y004200D01*
X014450Y004100D01*
X014550Y004100D01*
X014550Y003631D01*
X014622Y003643D01*
X014700Y003668D01*
X014773Y003705D01*
X014839Y003753D01*
X014897Y003811D01*
X014915Y003837D01*
X014940Y003776D01*
X015126Y003590D01*
X015369Y003490D01*
X015631Y003490D01*
X015874Y003590D01*
X016000Y003717D01*
X016126Y003590D01*
X016369Y003490D01*
X016631Y003490D01*
X016874Y003590D01*
X016910Y003627D01*
X016910Y003075D01*
X016908Y003074D01*
X016826Y002992D01*
X016782Y002886D01*
X016782Y002414D01*
X016825Y002310D01*
X016822Y002317D02*
X016564Y002317D01*
X016593Y002416D02*
X016782Y002416D01*
X016782Y002514D02*
X016593Y002514D01*
X016593Y002613D02*
X016782Y002613D01*
X016782Y002711D02*
X016593Y002711D01*
X016593Y002810D02*
X016782Y002810D01*
X016791Y002908D02*
X016584Y002908D01*
X016535Y003007D02*
X016840Y003007D01*
X016910Y003105D02*
X016392Y003105D01*
X016347Y003499D02*
X015653Y003499D01*
X015881Y003598D02*
X016119Y003598D01*
X016021Y003696D02*
X015979Y003696D01*
X015347Y003499D02*
X013820Y003499D01*
X013823Y003401D02*
X016910Y003401D01*
X016910Y003499D02*
X016653Y003499D01*
X016881Y003598D02*
X016910Y003598D01*
X016910Y003302D02*
X013823Y003302D01*
X013823Y003204D02*
X016910Y003204D01*
X017250Y002650D02*
X017250Y004900D01*
X016500Y005650D01*
X016000Y006083D02*
X015874Y006210D01*
X015631Y006310D01*
X015369Y006310D01*
X015126Y006210D01*
X014940Y006024D01*
X014915Y005963D01*
X014897Y005989D01*
X014839Y006047D01*
X014773Y006095D01*
X014700Y006132D01*
X014622Y006157D01*
X014550Y006169D01*
X014550Y005700D01*
X014450Y005700D01*
X014450Y005765D02*
X014550Y005765D01*
X014550Y005863D02*
X014450Y005863D01*
X014450Y005962D02*
X014550Y005962D01*
X014550Y006060D02*
X014450Y006060D01*
X014450Y006159D02*
X014550Y006159D01*
X014613Y006159D02*
X015075Y006159D01*
X014977Y006060D02*
X014820Y006060D01*
X014387Y006159D02*
X013825Y006159D01*
X013825Y006240D02*
X013756Y006405D01*
X013710Y006452D01*
X013841Y006452D01*
X013948Y006496D01*
X014029Y006577D01*
X014073Y006684D01*
X014073Y006855D01*
X014806Y008111D01*
X015444Y008537D01*
X015482Y008552D01*
X015511Y008581D01*
X015545Y008604D01*
X015568Y008638D01*
X015848Y008918D01*
X015856Y008938D01*
X015911Y008883D01*
X015977Y008835D01*
X016050Y008798D01*
X016128Y008773D01*
X016200Y008761D01*
X016200Y009600D01*
X016300Y009600D01*
X016300Y008761D01*
X016302Y008762D01*
X016302Y008559D01*
X016346Y008452D01*
X016410Y008388D01*
X016410Y007707D01*
X016448Y007614D01*
X016376Y007585D01*
X016190Y007399D01*
X016165Y007338D01*
X016147Y007364D01*
X016089Y007422D01*
X016023Y007470D01*
X015950Y007507D01*
X015872Y007532D01*
X015800Y007544D01*
X015800Y007075D01*
X016090Y007075D01*
X016090Y006975D01*
X015800Y006975D01*
X015800Y007075D01*
X015700Y007075D01*
X015700Y007544D01*
X015628Y007532D01*
X015550Y007507D01*
X015477Y007470D01*
X015411Y007422D01*
X015353Y007364D01*
X015305Y007298D01*
X015268Y007225D01*
X015243Y007147D01*
X015231Y007075D01*
X015700Y007075D01*
X015700Y006975D01*
X015800Y006975D01*
X015800Y006506D01*
X015872Y006518D01*
X015950Y006543D01*
X016023Y006580D01*
X016089Y006628D01*
X016147Y006686D01*
X016165Y006712D01*
X016190Y006651D01*
X016376Y006465D01*
X016619Y006365D01*
X016881Y006365D01*
X017124Y006465D01*
X017250Y006592D01*
X017376Y006465D01*
X017619Y006365D01*
X017660Y006365D01*
X017660Y003575D01*
X017658Y003574D01*
X017590Y003506D01*
X017590Y004968D01*
X017538Y005093D01*
X017146Y005485D01*
X017160Y005519D01*
X017160Y005781D01*
X017060Y006024D01*
X016874Y006210D01*
X016631Y006310D01*
X016369Y006310D01*
X016126Y006210D01*
X016000Y006083D01*
X015925Y006159D02*
X016075Y006159D01*
X016241Y006257D02*
X015759Y006257D01*
X015700Y006506D02*
X015700Y006975D01*
X015231Y006975D01*
X015243Y006903D01*
X015268Y006825D01*
X015305Y006752D01*
X015353Y006686D01*
X015411Y006628D01*
X015477Y006580D01*
X015550Y006543D01*
X015628Y006518D01*
X015700Y006506D01*
X015700Y006553D02*
X015800Y006553D01*
X015800Y006651D02*
X015700Y006651D01*
X015700Y006750D02*
X015800Y006750D01*
X015800Y006848D02*
X015700Y006848D01*
X015700Y006947D02*
X015800Y006947D01*
X015800Y007045D02*
X016090Y007045D01*
X015800Y007144D02*
X015700Y007144D01*
X015700Y007242D02*
X015800Y007242D01*
X015800Y007341D02*
X015700Y007341D01*
X015700Y007439D02*
X015800Y007439D01*
X015800Y007538D02*
X015700Y007538D01*
X015662Y007538D02*
X014472Y007538D01*
X014529Y007636D02*
X016440Y007636D01*
X016410Y007735D02*
X014586Y007735D01*
X014644Y007833D02*
X016410Y007833D01*
X016410Y007932D02*
X014701Y007932D01*
X014759Y008030D02*
X016410Y008030D01*
X016410Y008129D02*
X014832Y008129D01*
X014980Y008227D02*
X016410Y008227D01*
X016410Y008326D02*
X015127Y008326D01*
X015275Y008424D02*
X016374Y008424D01*
X016317Y008523D02*
X015423Y008523D01*
X015557Y008621D02*
X016302Y008621D01*
X016302Y008720D02*
X015649Y008720D01*
X015748Y008818D02*
X016011Y008818D01*
X015878Y008917D02*
X015846Y008917D01*
X016200Y008917D02*
X016300Y008917D01*
X016300Y009015D02*
X016200Y009015D01*
X016200Y009114D02*
X016300Y009114D01*
X016300Y009212D02*
X016200Y009212D01*
X016200Y009311D02*
X016300Y009311D01*
X016300Y009409D02*
X016200Y009409D01*
X016200Y009508D02*
X016300Y009508D01*
X016300Y009700D02*
X016200Y009700D01*
X016200Y010539D01*
X016128Y010527D01*
X016050Y010502D01*
X015977Y010465D01*
X015924Y010426D01*
X015904Y010473D01*
X015823Y010554D01*
X015716Y010598D01*
X015284Y010598D01*
X015177Y010554D01*
X015141Y010518D01*
X015084Y010575D01*
X014867Y010665D01*
X014633Y010665D01*
X014416Y010575D01*
X014250Y010409D01*
X014084Y010575D01*
X013867Y010665D01*
X013633Y010665D01*
X013416Y010575D01*
X013250Y010409D01*
X013160Y010192D01*
X013160Y009998D01*
X013150Y010007D01*
X013090Y010032D01*
X013090Y010093D01*
X013038Y010218D01*
X012943Y010313D01*
X012571Y010685D01*
X019910Y010685D01*
X019910Y010398D01*
X019693Y010615D01*
X019540Y010615D01*
X019540Y010190D01*
X019460Y010190D01*
X019460Y010615D01*
X019307Y010615D01*
X019035Y010343D01*
X019035Y010190D01*
X019460Y010190D01*
X019460Y010110D01*
X019035Y010110D01*
X019035Y009957D01*
X019243Y009749D01*
X018895Y009401D01*
X018895Y008899D01*
X019144Y008650D01*
X018895Y008401D01*
X018895Y008026D01*
X018807Y007938D01*
X018750Y007881D01*
X018693Y007938D01*
X018568Y008063D01*
X018443Y008115D01*
X017090Y008115D01*
X017090Y008388D01*
X017154Y008452D01*
X017198Y008559D01*
X017198Y008620D01*
X017381Y008620D01*
X017624Y008720D01*
X017810Y008906D01*
X017835Y008967D01*
X017853Y008941D01*
X017911Y008883D01*
X017977Y008835D01*
X018050Y008798D01*
X018128Y008773D01*
X018200Y008761D01*
X018200Y009600D01*
X018300Y009600D01*
X018300Y009700D01*
X018200Y009700D01*
X018200Y010539D01*
X018128Y010527D01*
X018050Y010502D01*
X017977Y010465D01*
X017911Y010417D01*
X017853Y010359D01*
X017835Y010333D01*
X017810Y010394D01*
X017624Y010580D01*
X017381Y010680D01*
X017119Y010680D01*
X016876Y010580D01*
X016690Y010394D01*
X016665Y010333D01*
X016647Y010359D01*
X016589Y010417D01*
X016523Y010465D01*
X016450Y010502D01*
X016372Y010527D01*
X016300Y010539D01*
X016300Y009700D01*
X016300Y009705D02*
X016200Y009705D01*
X016200Y009803D02*
X016300Y009803D01*
X016300Y009902D02*
X016200Y009902D01*
X016200Y010000D02*
X016300Y010000D01*
X016300Y010099D02*
X016200Y010099D01*
X016200Y010197D02*
X016300Y010197D01*
X016300Y010296D02*
X016200Y010296D01*
X016200Y010394D02*
X016300Y010394D01*
X016300Y010493D02*
X016200Y010493D01*
X016032Y010493D02*
X015884Y010493D01*
X015734Y010591D02*
X016904Y010591D01*
X016789Y010493D02*
X016468Y010493D01*
X016611Y010394D02*
X016691Y010394D01*
X017596Y010591D02*
X019283Y010591D01*
X019185Y010493D02*
X018468Y010493D01*
X018450Y010502D02*
X018372Y010527D01*
X018300Y010539D01*
X018300Y009700D01*
X018770Y009700D01*
X018770Y010061D01*
X018757Y010142D01*
X018732Y010220D01*
X018695Y010293D01*
X018647Y010359D01*
X018589Y010417D01*
X018523Y010465D01*
X018450Y010502D01*
X018300Y010493D02*
X018200Y010493D01*
X018200Y010394D02*
X018300Y010394D01*
X018300Y010296D02*
X018200Y010296D01*
X018200Y010197D02*
X018300Y010197D01*
X018300Y010099D02*
X018200Y010099D01*
X018200Y010000D02*
X018300Y010000D01*
X018300Y009902D02*
X018200Y009902D01*
X018200Y009803D02*
X018300Y009803D01*
X018300Y009705D02*
X018200Y009705D01*
X018300Y009606D02*
X019100Y009606D01*
X019002Y009508D02*
X018770Y009508D01*
X018770Y009600D02*
X018300Y009600D01*
X018300Y008761D01*
X018372Y008773D01*
X018450Y008798D01*
X018523Y008835D01*
X018589Y008883D01*
X018647Y008941D01*
X018695Y009007D01*
X018732Y009080D01*
X018757Y009158D01*
X018770Y009239D01*
X018770Y009600D01*
X018770Y009705D02*
X019199Y009705D01*
X019189Y009803D02*
X018770Y009803D01*
X018770Y009902D02*
X019091Y009902D01*
X019035Y010000D02*
X018770Y010000D01*
X018764Y010099D02*
X019035Y010099D01*
X019035Y010197D02*
X018739Y010197D01*
X018693Y010296D02*
X019035Y010296D01*
X019086Y010394D02*
X018611Y010394D01*
X018032Y010493D02*
X017711Y010493D01*
X017809Y010394D02*
X017889Y010394D01*
X018200Y009508D02*
X018300Y009508D01*
X018300Y009409D02*
X018200Y009409D01*
X018200Y009311D02*
X018300Y009311D01*
X018300Y009212D02*
X018200Y009212D01*
X018200Y009114D02*
X018300Y009114D01*
X018300Y009015D02*
X018200Y009015D01*
X018200Y008917D02*
X018300Y008917D01*
X018300Y008818D02*
X018200Y008818D01*
X018011Y008818D02*
X017721Y008818D01*
X017814Y008917D02*
X017878Y008917D01*
X017622Y008720D02*
X019075Y008720D01*
X019115Y008621D02*
X017384Y008621D01*
X017183Y008523D02*
X019017Y008523D01*
X018918Y008424D02*
X017126Y008424D01*
X017090Y008326D02*
X018895Y008326D01*
X018895Y008227D02*
X017090Y008227D01*
X017090Y008129D02*
X018895Y008129D01*
X018895Y008030D02*
X018601Y008030D01*
X018699Y007932D02*
X018801Y007932D01*
X019000Y007650D02*
X019000Y001150D01*
X017750Y001150D01*
X017750Y001650D01*
X018500Y001650D02*
X018500Y007650D01*
X018375Y007775D01*
X016750Y007775D01*
X016750Y008775D01*
X016300Y008818D02*
X016200Y008818D01*
X016329Y007538D02*
X015838Y007538D01*
X016065Y007439D02*
X016231Y007439D01*
X016166Y007341D02*
X016164Y007341D01*
X015700Y007045D02*
X014184Y007045D01*
X014127Y006947D02*
X015236Y006947D01*
X015261Y006848D02*
X014073Y006848D01*
X014073Y006750D02*
X015307Y006750D01*
X015389Y006651D02*
X014060Y006651D01*
X014004Y006553D02*
X015532Y006553D01*
X015241Y006257D02*
X013818Y006257D01*
X013825Y006240D02*
X013825Y006060D01*
X013777Y006356D02*
X017660Y006356D01*
X017660Y006257D02*
X016759Y006257D01*
X016925Y006159D02*
X017660Y006159D01*
X017660Y006060D02*
X017023Y006060D01*
X017085Y005962D02*
X017660Y005962D01*
X017660Y005863D02*
X017126Y005863D01*
X017160Y005765D02*
X017660Y005765D01*
X017660Y005666D02*
X017160Y005666D01*
X017160Y005568D02*
X017660Y005568D01*
X017660Y005469D02*
X017162Y005469D01*
X017260Y005371D02*
X017660Y005371D01*
X017660Y005272D02*
X017359Y005272D01*
X017457Y005174D02*
X017660Y005174D01*
X017660Y005075D02*
X017546Y005075D01*
X017586Y004977D02*
X017660Y004977D01*
X017660Y004878D02*
X017590Y004878D01*
X017590Y004780D02*
X017660Y004780D01*
X017660Y004681D02*
X017590Y004681D01*
X017590Y004583D02*
X017660Y004583D01*
X017660Y004484D02*
X017590Y004484D01*
X017590Y004386D02*
X017660Y004386D01*
X017660Y004287D02*
X017590Y004287D01*
X017590Y004189D02*
X017660Y004189D01*
X017660Y004090D02*
X017590Y004090D01*
X017590Y003992D02*
X017660Y003992D01*
X017660Y003893D02*
X017590Y003893D01*
X017590Y003795D02*
X017660Y003795D01*
X017660Y003696D02*
X017590Y003696D01*
X017590Y003598D02*
X017660Y003598D01*
X018000Y003150D02*
X018000Y006650D01*
X017750Y007025D01*
X017289Y006553D02*
X017211Y006553D01*
X017096Y006454D02*
X017404Y006454D01*
X016404Y006454D02*
X013847Y006454D01*
X014242Y007144D02*
X015242Y007144D01*
X015277Y007242D02*
X014299Y007242D01*
X014357Y007341D02*
X015336Y007341D01*
X015435Y007439D02*
X014414Y007439D01*
X012965Y007570D02*
X012705Y007310D01*
X012568Y007310D01*
X012626Y007368D01*
X012675Y007434D01*
X012712Y007508D01*
X012737Y007586D01*
X012749Y007659D01*
X012276Y007659D01*
X012276Y007759D01*
X012176Y007759D01*
X012176Y008232D01*
X012104Y008220D01*
X012025Y008195D01*
X011952Y008157D01*
X011885Y008109D01*
X011827Y008050D01*
X011812Y008030D01*
X011789Y008085D01*
X011636Y008238D01*
X011636Y008457D01*
X011670Y008490D01*
X012927Y008490D01*
X012927Y008184D01*
X012965Y008091D01*
X012965Y007570D01*
X012933Y007538D02*
X012722Y007538D01*
X012745Y007636D02*
X012965Y007636D01*
X012965Y007735D02*
X012276Y007735D01*
X012276Y007759D02*
X012749Y007759D01*
X012737Y007832D01*
X012712Y007910D01*
X012675Y007984D01*
X012626Y008050D01*
X012568Y008109D01*
X012501Y008157D01*
X012428Y008195D01*
X012349Y008220D01*
X012276Y008232D01*
X012276Y007759D01*
X012276Y007833D02*
X012176Y007833D01*
X012176Y007932D02*
X012276Y007932D01*
X012276Y008030D02*
X012176Y008030D01*
X012176Y008129D02*
X012276Y008129D01*
X012276Y008227D02*
X012176Y008227D01*
X012147Y008227D02*
X011647Y008227D01*
X011636Y008326D02*
X012927Y008326D01*
X012927Y008424D02*
X011636Y008424D01*
X011746Y008129D02*
X011912Y008129D01*
X012306Y008227D02*
X012927Y008227D01*
X012950Y008129D02*
X012541Y008129D01*
X012641Y008030D02*
X012965Y008030D01*
X012965Y007932D02*
X012701Y007932D01*
X012737Y007833D02*
X012965Y007833D01*
X012834Y007439D02*
X012677Y007439D01*
X012736Y007341D02*
X012599Y007341D01*
X011805Y005469D02*
X011787Y005469D01*
X011805Y005371D02*
X011732Y005371D01*
X011805Y005272D02*
X011633Y005272D01*
X011535Y005174D02*
X011805Y005174D01*
X011805Y005075D02*
X011436Y005075D01*
X011338Y004977D02*
X011805Y004977D01*
X011805Y004878D02*
X011239Y004878D01*
X011141Y004780D02*
X011805Y004780D01*
X011805Y004681D02*
X010631Y004681D01*
X010553Y004583D02*
X011805Y004583D01*
X011805Y004484D02*
X010555Y004484D01*
X010555Y004386D02*
X011805Y004386D01*
X011828Y004287D02*
X010060Y004287D01*
X010060Y004189D02*
X009960Y004189D01*
X009960Y004287D02*
X008707Y004287D01*
X008715Y004189D02*
X009465Y004189D01*
X009465Y004090D02*
X008715Y004090D01*
X008698Y003992D02*
X009465Y003992D01*
X009483Y003893D02*
X008657Y003893D01*
X008604Y003795D02*
X012965Y003795D01*
X012965Y003893D02*
X010537Y003893D01*
X010555Y003992D02*
X012965Y003992D01*
X012965Y004090D02*
X010555Y004090D01*
X010555Y004189D02*
X011896Y004189D01*
X012965Y003696D02*
X008505Y003696D01*
X008333Y003598D02*
X012965Y003598D01*
X012927Y003105D02*
X011276Y003105D01*
X011336Y003007D02*
X012871Y003007D01*
X012753Y002908D02*
X011354Y002908D01*
X011354Y002810D02*
X012693Y002810D01*
X012666Y002711D02*
X011354Y002711D01*
X011354Y002613D02*
X012662Y002613D01*
X012685Y002514D02*
X011354Y002514D01*
X011773Y001810D02*
X012255Y001810D01*
X012243Y001772D01*
X012231Y001700D01*
X012700Y001700D01*
X012700Y001600D01*
X012231Y001600D01*
X012243Y001528D01*
X012268Y001450D01*
X012305Y001377D01*
X012353Y001311D01*
X012411Y001253D01*
X012477Y001205D01*
X012550Y001168D01*
X012628Y001143D01*
X012650Y001139D01*
X012582Y001070D01*
X012495Y000863D01*
X012495Y000637D01*
X012557Y000490D01*
X007631Y000490D01*
X007639Y000498D01*
X007678Y000552D01*
X007708Y000612D01*
X007729Y000675D01*
X007740Y000742D01*
X007740Y000746D01*
X007343Y000746D01*
X007343Y000804D01*
X007740Y000804D01*
X007740Y000808D01*
X007729Y000875D01*
X007708Y000938D01*
X007709Y000938D02*
X012527Y000938D01*
X012495Y000840D02*
X007735Y000840D01*
X007739Y000741D02*
X012495Y000741D01*
X012495Y000643D02*
X007718Y000643D01*
X007672Y000544D02*
X012534Y000544D01*
X012568Y001037D02*
X011369Y001037D01*
X011256Y000990D02*
X011499Y001090D01*
X011685Y001276D01*
X011785Y001519D01*
X011785Y001781D01*
X011773Y001810D01*
X011785Y001726D02*
X012236Y001726D01*
X012243Y001529D02*
X011785Y001529D01*
X011785Y001628D02*
X012700Y001628D01*
X012278Y001431D02*
X011748Y001431D01*
X011708Y001332D02*
X012338Y001332D01*
X012439Y001234D02*
X011642Y001234D01*
X011543Y001135D02*
X012646Y001135D01*
X011256Y000990D02*
X010994Y000990D01*
X010751Y001090D01*
X010625Y001217D01*
X010499Y001090D01*
X010256Y000990D01*
X009994Y000990D01*
X009751Y001090D01*
X009625Y001217D01*
X009499Y001090D01*
X009256Y000990D01*
X008994Y000990D01*
X008751Y001090D01*
X008629Y001212D01*
X008615Y001188D01*
X008587Y001160D01*
X008553Y001140D01*
X008515Y001130D01*
X008175Y001130D01*
X008175Y001600D01*
X008075Y001600D01*
X008075Y001130D01*
X007735Y001130D01*
X007697Y001140D01*
X007663Y001160D01*
X007635Y001188D01*
X007615Y001222D01*
X007605Y001260D01*
X007605Y001600D01*
X008075Y001600D01*
X008075Y001700D01*
X007605Y001700D01*
X007605Y001810D01*
X007141Y001810D01*
X007021Y001690D01*
X007035Y001656D01*
X007035Y001394D01*
X006935Y001151D01*
X006749Y000965D01*
X006506Y000865D01*
X006502Y000865D01*
X006502Y000662D01*
X006430Y000490D01*
X006997Y000490D01*
X006989Y000498D01*
X006950Y000552D01*
X006920Y000612D01*
X006899Y000675D01*
X006888Y000742D01*
X006888Y000746D01*
X007285Y000746D01*
X007285Y000804D01*
X007285Y001201D01*
X007280Y001201D01*
X007214Y001190D01*
X007151Y001169D01*
X007091Y001139D01*
X007037Y001100D01*
X006989Y001052D01*
X006950Y000998D01*
X006920Y000938D01*
X006919Y000938D02*
X006683Y000938D01*
X006820Y001037D02*
X006978Y001037D01*
X006920Y000938D02*
X006899Y000875D01*
X006888Y000808D01*
X006888Y000804D01*
X007285Y000804D01*
X007343Y000804D01*
X007343Y001201D01*
X007347Y001201D01*
X007414Y001190D01*
X007477Y001169D01*
X007537Y001139D01*
X007591Y001100D01*
X007639Y001052D01*
X007678Y000998D01*
X007708Y000938D01*
X007650Y001037D02*
X008881Y001037D01*
X008707Y001135D02*
X008533Y001135D01*
X008175Y001135D02*
X008075Y001135D01*
X008075Y001234D02*
X008175Y001234D01*
X008175Y001332D02*
X008075Y001332D01*
X008075Y001431D02*
X008175Y001431D01*
X008175Y001529D02*
X008075Y001529D01*
X008075Y001628D02*
X007035Y001628D01*
X007035Y001529D02*
X007605Y001529D01*
X007605Y001431D02*
X007035Y001431D01*
X007009Y001332D02*
X007605Y001332D01*
X007612Y001234D02*
X006969Y001234D01*
X006918Y001135D02*
X007085Y001135D01*
X007285Y001135D02*
X007343Y001135D01*
X007343Y001037D02*
X007285Y001037D01*
X007285Y000938D02*
X007343Y000938D01*
X007343Y000840D02*
X007285Y000840D01*
X007543Y001135D02*
X007717Y001135D01*
X007605Y001726D02*
X007057Y001726D01*
X007000Y002150D02*
X006375Y001525D01*
X006502Y000840D02*
X006893Y000840D01*
X006888Y000741D02*
X006502Y000741D01*
X006493Y000643D02*
X006910Y000643D01*
X006956Y000544D02*
X006453Y000544D01*
X005442Y000490D02*
X001090Y000490D01*
X001090Y000704D01*
X001249Y000545D01*
X001751Y000545D01*
X002105Y000899D01*
X002105Y001401D01*
X001856Y001650D01*
X002105Y001899D01*
X002105Y002072D01*
X003318Y002679D01*
X003665Y002679D01*
X003665Y002621D01*
X003723Y002621D01*
X003723Y002243D01*
X003726Y002243D01*
X003789Y002253D01*
X003850Y002272D01*
X003907Y002301D01*
X003959Y002339D01*
X004000Y002380D01*
X004017Y002340D01*
X004171Y002186D01*
X004208Y002170D01*
X004001Y002085D01*
X003879Y001963D01*
X003865Y001987D01*
X003837Y002015D01*
X003803Y002035D01*
X003765Y002045D01*
X003425Y002045D01*
X003425Y001575D01*
X003325Y001575D01*
X003325Y002045D01*
X002985Y002045D01*
X002947Y002035D01*
X002913Y002015D01*
X002885Y001987D01*
X002865Y001953D01*
X002855Y001915D01*
X002855Y001575D01*
X003325Y001575D01*
X003325Y001475D01*
X003425Y001475D01*
X003425Y001005D01*
X003765Y001005D01*
X003803Y001015D01*
X003837Y001035D01*
X003865Y001063D01*
X003879Y001087D01*
X004001Y000965D01*
X004244Y000865D01*
X004506Y000865D01*
X004749Y000965D01*
X004875Y001092D01*
X005001Y000965D01*
X005244Y000865D01*
X005370Y000865D01*
X005370Y000662D01*
X005442Y000490D01*
X005420Y000544D02*
X001090Y000544D01*
X001090Y000643D02*
X001152Y000643D01*
X000750Y000150D02*
X000750Y011025D01*
X000750Y019650D01*
X013000Y019650D01*
X013000Y011150D01*
X012665Y010591D02*
X013454Y010591D01*
X013333Y010493D02*
X012763Y010493D01*
X012862Y010394D02*
X013244Y010394D01*
X013203Y010296D02*
X012960Y010296D01*
X013047Y010197D02*
X013162Y010197D01*
X013160Y010099D02*
X013088Y010099D01*
X013158Y010000D02*
X013160Y010000D01*
X012750Y010025D02*
X012750Y009525D01*
X012750Y010025D02*
X012375Y010400D01*
X011250Y010400D01*
X010726Y009876D01*
X010726Y009709D01*
X009726Y010424D02*
X009500Y010650D01*
X008000Y011150D02*
X008000Y019650D01*
X013000Y019650D02*
X020250Y019650D01*
X020250Y011025D01*
X020250Y000150D01*
X000750Y000150D01*
X001848Y000643D02*
X005379Y000643D01*
X005370Y000741D02*
X001947Y000741D01*
X002045Y000840D02*
X005370Y000840D01*
X005067Y000938D02*
X004683Y000938D01*
X004820Y001037D02*
X004930Y001037D01*
X004067Y000938D02*
X002105Y000938D01*
X002105Y001037D02*
X002911Y001037D01*
X002913Y001035D02*
X002947Y001015D01*
X002985Y001005D01*
X003325Y001005D01*
X003325Y001475D01*
X002855Y001475D01*
X002855Y001135D01*
X002105Y001135D01*
X002105Y001234D02*
X002855Y001234D01*
X002855Y001332D02*
X002105Y001332D01*
X002075Y001431D02*
X002855Y001431D01*
X002855Y001628D02*
X001878Y001628D01*
X001932Y001726D02*
X002855Y001726D01*
X002855Y001825D02*
X002030Y001825D01*
X002105Y001923D02*
X002857Y001923D01*
X002924Y002022D02*
X002105Y002022D01*
X002200Y002120D02*
X004087Y002120D01*
X004139Y002219D02*
X002397Y002219D01*
X002594Y002317D02*
X003459Y002317D01*
X003480Y002301D02*
X003428Y002339D01*
X003383Y002385D01*
X003345Y002436D01*
X003316Y002494D01*
X003296Y002555D01*
X003286Y002618D01*
X003286Y002621D01*
X003665Y002621D01*
X003665Y002243D01*
X003662Y002243D01*
X003598Y002253D01*
X003537Y002272D01*
X003480Y002301D01*
X003361Y002416D02*
X002791Y002416D01*
X002988Y002514D02*
X003310Y002514D01*
X003287Y002613D02*
X003185Y002613D01*
X003665Y002613D02*
X003723Y002613D01*
X003723Y002514D02*
X003665Y002514D01*
X003665Y002416D02*
X003723Y002416D01*
X003694Y002356D02*
X003875Y002275D01*
X003929Y002317D02*
X004040Y002317D01*
X003938Y002022D02*
X003826Y002022D01*
X003723Y002317D02*
X003665Y002317D01*
X003425Y002022D02*
X003325Y002022D01*
X003325Y001923D02*
X003425Y001923D01*
X003425Y001825D02*
X003325Y001825D01*
X003325Y001726D02*
X003425Y001726D01*
X003425Y001628D02*
X003325Y001628D01*
X003325Y001529D02*
X001977Y001529D01*
X001500Y002150D02*
X004000Y003400D01*
X004481Y003131D02*
X005375Y004025D01*
X005843Y003795D02*
X005875Y003795D01*
X005805Y003696D02*
X005973Y003696D01*
X006072Y003598D02*
X005709Y003598D01*
X005330Y003499D02*
X006170Y003499D01*
X006269Y003401D02*
X005231Y003401D01*
X004949Y003105D02*
X004936Y003105D01*
X004481Y003131D02*
X004481Y002650D01*
X003425Y001431D02*
X003325Y001431D01*
X003325Y001332D02*
X003425Y001332D01*
X003425Y001234D02*
X003325Y001234D01*
X003325Y001135D02*
X003425Y001135D01*
X003425Y001037D02*
X003325Y001037D01*
X002913Y001035D02*
X002885Y001063D01*
X002865Y001097D01*
X002855Y001135D01*
X003839Y001037D02*
X003930Y001037D01*
X002500Y003150D02*
X001500Y003150D01*
X001500Y004150D02*
X004875Y004150D01*
X006048Y004583D02*
X007723Y004583D01*
X008490Y004681D02*
X009389Y004681D01*
X009337Y004780D02*
X008589Y004780D01*
X008651Y004878D02*
X009325Y004878D01*
X009325Y004977D02*
X008692Y004977D01*
X008715Y005075D02*
X009325Y005075D01*
X009325Y005174D02*
X008715Y005174D01*
X008713Y005272D02*
X009325Y005272D01*
X009325Y005371D02*
X008672Y005371D01*
X008631Y005469D02*
X009325Y005469D01*
X009348Y005568D02*
X008542Y005568D01*
X008475Y005666D02*
X009342Y005666D01*
X010000Y006150D02*
X010010Y006140D01*
X010010Y006060D01*
X010250Y006150D02*
X010500Y006150D01*
X009857Y007144D02*
X009596Y007144D01*
X009698Y007242D02*
X009754Y007242D01*
X007793Y006651D02*
X007482Y006651D01*
X007383Y006553D02*
X007693Y006553D01*
X007612Y006454D02*
X007285Y006454D01*
X007186Y006356D02*
X007572Y006356D01*
X007535Y006257D02*
X007088Y006257D01*
X006943Y006112D02*
X006818Y006060D01*
X006613Y005666D02*
X005340Y005666D01*
X005340Y005568D02*
X006515Y005568D01*
X006416Y005469D02*
X005340Y005469D01*
X005340Y005371D02*
X006325Y005371D01*
X006596Y007144D02*
X006857Y007144D01*
X006754Y007242D02*
X006698Y007242D01*
X007625Y008775D02*
X003375Y008775D01*
X000750Y011025D02*
X020250Y011025D01*
X019910Y010591D02*
X019717Y010591D01*
X019815Y010493D02*
X019910Y010493D01*
X019540Y010493D02*
X019460Y010493D01*
X019460Y010591D02*
X019540Y010591D01*
X019540Y010394D02*
X019460Y010394D01*
X019460Y010296D02*
X019540Y010296D01*
X019540Y010197D02*
X019460Y010197D01*
X018903Y009409D02*
X018770Y009409D01*
X018770Y009311D02*
X018895Y009311D01*
X018895Y009212D02*
X018766Y009212D01*
X018743Y009114D02*
X018895Y009114D01*
X018895Y009015D02*
X018699Y009015D01*
X018622Y008917D02*
X018895Y008917D01*
X018976Y008818D02*
X018489Y008818D01*
X019500Y008150D02*
X019000Y007650D01*
X016693Y004977D02*
X013785Y004977D01*
X013785Y005075D02*
X015163Y005075D01*
X015043Y005174D02*
X014710Y005174D01*
X014550Y005174D02*
X014450Y005174D01*
X014450Y005272D02*
X014550Y005272D01*
X014550Y005371D02*
X014450Y005371D01*
X014450Y005469D02*
X014550Y005469D01*
X014550Y005568D02*
X014450Y005568D01*
X014143Y005272D02*
X013785Y005272D01*
X013785Y005174D02*
X014290Y005174D01*
X014060Y005371D02*
X013785Y005371D01*
X013785Y005469D02*
X014012Y005469D01*
X013987Y005568D02*
X013785Y005568D01*
X013785Y004878D02*
X016791Y004878D01*
X016705Y004780D02*
X016890Y004780D01*
X016902Y004681D02*
X016910Y004681D01*
X016295Y004780D02*
X015705Y004780D01*
X015902Y004681D02*
X016098Y004681D01*
X016163Y005075D02*
X015837Y005075D01*
X015957Y005174D02*
X016043Y005174D01*
X015295Y004780D02*
X013785Y004780D01*
X013785Y004681D02*
X015098Y004681D01*
X014999Y004583D02*
X014789Y004583D01*
X014900Y004484D02*
X014924Y004484D01*
X014550Y004484D02*
X014450Y004484D01*
X014450Y004386D02*
X014550Y004386D01*
X014550Y004287D02*
X014450Y004287D01*
X014450Y004189D02*
X013785Y004189D01*
X013785Y004287D02*
X013998Y004287D01*
X014036Y004386D02*
X013785Y004386D01*
X013785Y004484D02*
X014100Y004484D01*
X014211Y004583D02*
X013785Y004583D01*
X013785Y004090D02*
X013983Y004090D01*
X013981Y004100D02*
X013993Y004028D01*
X014018Y003950D01*
X014055Y003877D01*
X014103Y003811D01*
X014161Y003753D01*
X014227Y003705D01*
X014300Y003668D01*
X014378Y003643D01*
X014450Y003631D01*
X014450Y004100D01*
X013981Y004100D01*
X014005Y003992D02*
X013785Y003992D01*
X013785Y003893D02*
X014047Y003893D01*
X014120Y003795D02*
X013785Y003795D01*
X013785Y003696D02*
X014246Y003696D01*
X014450Y003696D02*
X014550Y003696D01*
X014550Y003795D02*
X014450Y003795D01*
X014450Y003893D02*
X014550Y003893D01*
X014550Y003992D02*
X014450Y003992D01*
X014450Y004090D02*
X014550Y004090D01*
X014880Y003795D02*
X014933Y003795D01*
X015021Y003696D02*
X014754Y003696D01*
X015119Y003598D02*
X013785Y003598D01*
X014176Y003105D02*
X014324Y003105D01*
X014450Y004583D02*
X014550Y004583D01*
X014857Y005272D02*
X014945Y005272D01*
X015968Y006553D02*
X016289Y006553D01*
X016191Y006651D02*
X016111Y006651D01*
X015266Y010591D02*
X015046Y010591D01*
X014454Y010591D02*
X014046Y010591D01*
X014167Y010493D02*
X014333Y010493D01*
X015250Y011900D02*
X014875Y012275D01*
X014875Y015150D01*
X014375Y014775D02*
X013750Y015275D01*
X013500Y015275D01*
X014375Y014775D02*
X014375Y014400D01*
X015875Y015025D02*
X016625Y015025D01*
X017875Y015961D02*
X019250Y017586D01*
X018250Y017275D02*
X017500Y016650D01*
X017500Y012650D01*
X018250Y011900D01*
X018000Y013025D02*
X017875Y013025D01*
X017875Y015961D01*
X018250Y015400D02*
X018500Y015150D01*
X018500Y014400D01*
X018750Y014150D01*
X019000Y014150D01*
X019250Y014275D02*
X019625Y013650D01*
X019250Y014275D02*
X019000Y014650D01*
X018875Y014775D01*
X018875Y015650D01*
X015500Y017650D02*
X015500Y013025D01*
X015250Y012775D01*
X015500Y017650D02*
X014750Y018150D01*
X010060Y004484D02*
X009960Y004484D01*
X009960Y004386D02*
X010060Y004386D01*
X010060Y004090D02*
X009960Y004090D01*
X009960Y003992D02*
X010060Y003992D01*
X010060Y003893D02*
X009960Y003893D01*
X009467Y004583D02*
X008527Y004583D01*
X009543Y001135D02*
X009707Y001135D01*
X009881Y001037D02*
X009369Y001037D01*
X010369Y001037D02*
X010881Y001037D01*
X010707Y001135D02*
X010543Y001135D01*
X019250Y001275D02*
X019375Y001275D01*
D12*
X012226Y007709D03*
X011226Y007709D03*
X010226Y007709D03*
X009226Y007709D03*
X008226Y007709D03*
X007226Y007709D03*
X006226Y007709D03*
X005226Y007709D03*
X005726Y009709D03*
X006726Y009709D03*
X007726Y009709D03*
X008726Y009709D03*
X009726Y009709D03*
X010726Y009709D03*
X011726Y009709D03*
D13*
X011000Y012025D03*
X013500Y013400D03*
X014375Y013400D03*
X014375Y014400D03*
X013500Y014400D03*
X018750Y014150D03*
X018750Y013150D03*
X019625Y013650D03*
X019625Y014650D03*
X019500Y010150D03*
X019500Y009150D03*
X019500Y008150D03*
X019500Y007150D03*
X019500Y006150D03*
X019500Y005150D03*
X019500Y004150D03*
X019500Y003150D03*
X019500Y002150D03*
X019500Y001150D03*
X001500Y001150D03*
X001500Y002150D03*
X001500Y003150D03*
X001500Y004150D03*
X001500Y005150D03*
X001500Y006150D03*
X001500Y007150D03*
X001500Y008150D03*
X001500Y009150D03*
X001500Y010150D03*
D14*
X002803Y010200D02*
X002803Y009600D01*
X003803Y009600D02*
X003803Y010200D01*
X013750Y010075D02*
X013750Y009475D01*
X014750Y009475D02*
X014750Y010075D01*
D15*
X006875Y005150D03*
X006875Y004150D03*
X004875Y018150D03*
X003875Y018150D03*
D16*
X010010Y006060D03*
X010010Y005160D03*
X010010Y004260D03*
D17*
X012490Y005150D03*
D18*
X008125Y005150D03*
X008125Y004150D03*
X008125Y006150D03*
D19*
X007375Y018150D03*
X006375Y018150D03*
X002500Y018150D03*
X001500Y018150D03*
D20*
X016250Y010020D02*
X016250Y009280D01*
X017250Y009280D02*
X017250Y010020D01*
X018250Y010020D02*
X018250Y009280D01*
D21*
X015431Y002650D03*
X010806Y002650D03*
X006056Y002650D03*
D22*
X005269Y002650D03*
X004481Y002650D03*
X003694Y002650D03*
X008444Y002650D03*
X009231Y002650D03*
X010019Y002650D03*
X013069Y002650D03*
X013856Y002650D03*
X014644Y002650D03*
D23*
X014750Y001650D03*
X013750Y001650D03*
X012750Y001650D03*
X011125Y001650D03*
X010125Y001650D03*
X009125Y001650D03*
X006375Y001525D03*
X005375Y001525D03*
X004375Y001525D03*
X014500Y004150D03*
X015500Y004150D03*
X016500Y004150D03*
X016500Y005650D03*
X015500Y005650D03*
X014500Y005650D03*
X015750Y007025D03*
X016750Y007025D03*
X017750Y007025D03*
X017250Y011900D03*
X016250Y011900D03*
X015250Y011900D03*
X014250Y011900D03*
X011905Y014385D03*
X011000Y013275D03*
X010000Y013275D03*
X009000Y013275D03*
X009345Y014385D03*
X009345Y016165D03*
X009345Y017260D03*
X009345Y019040D03*
X011905Y019040D03*
X011905Y017260D03*
X011905Y016165D03*
X018250Y011900D03*
X019250Y011900D03*
X017750Y001650D03*
X016750Y001650D03*
X015750Y001650D03*
X005000Y012650D03*
X004000Y012650D03*
X003000Y012650D03*
D24*
X006000Y012650D03*
X012000Y013275D03*
X008125Y001650D03*
X003375Y001525D03*
D25*
X005936Y000775D03*
X007314Y000775D03*
X013061Y000750D03*
X014439Y000750D03*
X007250Y014961D03*
X007250Y016339D03*
X001250Y016339D03*
X001250Y014961D03*
X019250Y017586D03*
X019250Y018964D03*
D26*
X015500Y010150D02*
X015500Y009150D01*
X015250Y008900D01*
X014500Y008400D01*
X013625Y006900D01*
X013375Y007400D02*
X013375Y008400D01*
X013375Y007400D02*
X012875Y006900D01*
X011000Y006900D01*
X010250Y006150D01*
X010000Y006150D01*
X008125Y006150D01*
X009250Y007685D02*
X009226Y007709D01*
X011226Y007709D02*
X011226Y008626D01*
X011500Y008900D01*
X014500Y008900D01*
X014750Y009150D01*
X014750Y009775D01*
X016250Y009650D02*
X016500Y009400D01*
X015875Y007025D02*
X015750Y007025D01*
X013375Y006150D02*
X013375Y003275D01*
D27*
X013375Y003275D03*
X011750Y006275D03*
X013625Y006900D03*
X014875Y006650D03*
X015500Y008400D03*
X016750Y008775D03*
X015500Y010150D03*
X013375Y008400D03*
X015250Y012775D03*
X015875Y015025D03*
X016625Y015025D03*
X018250Y015400D03*
X018875Y015650D03*
X018000Y013025D03*
X014875Y015150D03*
X013500Y015275D03*
X014750Y018150D03*
X007625Y008775D03*
X005500Y006775D03*
X004000Y006400D03*
X004000Y003400D03*
X002500Y003150D03*
X002000Y009650D03*
D28*
X003000Y007150D03*
X004500Y005150D03*
X004875Y004150D03*
X005375Y004025D03*
X008000Y006900D03*
X003375Y014300D03*
X002750Y014650D03*
X004600Y014575D03*
X005375Y015400D03*
X004875Y017400D03*
X003375Y017025D03*
X016125Y002650D03*
X017250Y002650D03*
X018000Y003150D03*
D29*
X013375Y006150D02*
X013125Y006400D01*
X011625Y006400D01*
X011375Y006025D01*
X011500Y006025D01*
X011750Y006275D01*
X011375Y006025D02*
X011375Y005650D01*
X010885Y005160D01*
X010010Y005160D01*
D30*
X011250Y004150D03*
X012000Y002775D03*
X012750Y009525D03*
D31*
X010250Y010275D03*
X003300Y002350D03*
X018500Y001650D03*
X018250Y017275D03*
D32*
X011905Y016165D02*
X009345Y016165D01*
X008625Y015445D01*
X008625Y014025D01*
X009000Y013650D01*
X009000Y013275D01*
X009345Y014385D02*
X011905Y014385D01*
X012000Y014290D01*
X012000Y013275D01*
X010500Y010650D02*
X016000Y010650D01*
X016250Y010400D01*
X016250Y009650D01*
X007250Y016339D02*
X004875Y017400D01*
X003375Y017025D02*
X001448Y016332D01*
X001250Y016339D01*
X001250Y016275D02*
X001448Y016332D01*
X001250Y014961D02*
X002000Y014775D01*
X002750Y013900D01*
X003000Y012650D01*
X003375Y014300D02*
X004500Y014150D01*
X005000Y013650D01*
X005000Y012650D01*
X006000Y012650D02*
X006000Y013650D01*
X004975Y014575D01*
X004600Y014575D01*
X005375Y015400D02*
X002750Y014650D01*
X003694Y002650D02*
X003694Y002356D01*
X003300Y002350D01*
M02*
