G75*
G70*
%OFA0B0*%
%FSLAX24Y24*%
%IPPOS*%
%LPD*%
%AMOC8*
5,1,8,0,0,1.08239X$1,22.5*
%
%ADD10C,0.0000*%
%ADD11C,0.0060*%
%ADD12C,0.0030*%
%ADD13C,0.0100*%
%ADD14C,0.0040*%
%ADD15C,0.0080*%
%ADD16C,0.0050*%
%ADD17C,0.0010*%
%ADD18C,0.0090*%
D10*
X000750Y000138D02*
X000750Y010995D01*
X020252Y010995D01*
X020252Y000138D01*
X000750Y000138D01*
X000750Y000150D02*
X000750Y019650D01*
X020250Y019650D01*
X020250Y000150D01*
X000750Y000150D01*
X008574Y012025D02*
X008576Y012072D01*
X008582Y012118D01*
X008592Y012164D01*
X008605Y012209D01*
X008623Y012252D01*
X008644Y012294D01*
X008668Y012334D01*
X008696Y012371D01*
X008727Y012406D01*
X008761Y012439D01*
X008797Y012468D01*
X008836Y012494D01*
X008877Y012517D01*
X008920Y012536D01*
X008964Y012552D01*
X009009Y012564D01*
X009055Y012572D01*
X009102Y012576D01*
X009148Y012576D01*
X009195Y012572D01*
X009241Y012564D01*
X009286Y012552D01*
X009330Y012536D01*
X009373Y012517D01*
X009414Y012494D01*
X009453Y012468D01*
X009489Y012439D01*
X009523Y012406D01*
X009554Y012371D01*
X009582Y012334D01*
X009606Y012294D01*
X009627Y012252D01*
X009645Y012209D01*
X009658Y012164D01*
X009668Y012118D01*
X009674Y012072D01*
X009676Y012025D01*
X009674Y011978D01*
X009668Y011932D01*
X009658Y011886D01*
X009645Y011841D01*
X009627Y011798D01*
X009606Y011756D01*
X009582Y011716D01*
X009554Y011679D01*
X009523Y011644D01*
X009489Y011611D01*
X009453Y011582D01*
X009414Y011556D01*
X009373Y011533D01*
X009330Y011514D01*
X009286Y011498D01*
X009241Y011486D01*
X009195Y011478D01*
X009148Y011474D01*
X009102Y011474D01*
X009055Y011478D01*
X009009Y011486D01*
X008964Y011498D01*
X008920Y011514D01*
X008877Y011533D01*
X008836Y011556D01*
X008797Y011582D01*
X008761Y011611D01*
X008727Y011644D01*
X008696Y011679D01*
X008668Y011716D01*
X008644Y011756D01*
X008623Y011798D01*
X008605Y011841D01*
X008592Y011886D01*
X008582Y011932D01*
X008576Y011978D01*
X008574Y012025D01*
X006574Y013900D02*
X006576Y013947D01*
X006582Y013993D01*
X006592Y014039D01*
X006605Y014084D01*
X006623Y014127D01*
X006644Y014169D01*
X006668Y014209D01*
X006696Y014246D01*
X006727Y014281D01*
X006761Y014314D01*
X006797Y014343D01*
X006836Y014369D01*
X006877Y014392D01*
X006920Y014411D01*
X006964Y014427D01*
X007009Y014439D01*
X007055Y014447D01*
X007102Y014451D01*
X007148Y014451D01*
X007195Y014447D01*
X007241Y014439D01*
X007286Y014427D01*
X007330Y014411D01*
X007373Y014392D01*
X007414Y014369D01*
X007453Y014343D01*
X007489Y014314D01*
X007523Y014281D01*
X007554Y014246D01*
X007582Y014209D01*
X007606Y014169D01*
X007627Y014127D01*
X007645Y014084D01*
X007658Y014039D01*
X007668Y013993D01*
X007674Y013947D01*
X007676Y013900D01*
X007674Y013853D01*
X007668Y013807D01*
X007658Y013761D01*
X007645Y013716D01*
X007627Y013673D01*
X007606Y013631D01*
X007582Y013591D01*
X007554Y013554D01*
X007523Y013519D01*
X007489Y013486D01*
X007453Y013457D01*
X007414Y013431D01*
X007373Y013408D01*
X007330Y013389D01*
X007286Y013373D01*
X007241Y013361D01*
X007195Y013353D01*
X007148Y013349D01*
X007102Y013349D01*
X007055Y013353D01*
X007009Y013361D01*
X006964Y013373D01*
X006920Y013389D01*
X006877Y013408D01*
X006836Y013431D01*
X006797Y013457D01*
X006761Y013486D01*
X006727Y013519D01*
X006696Y013554D01*
X006668Y013591D01*
X006644Y013631D01*
X006623Y013673D01*
X006605Y013716D01*
X006592Y013761D01*
X006582Y013807D01*
X006576Y013853D01*
X006574Y013900D01*
X001074Y013900D02*
X001076Y013947D01*
X001082Y013993D01*
X001092Y014039D01*
X001105Y014084D01*
X001123Y014127D01*
X001144Y014169D01*
X001168Y014209D01*
X001196Y014246D01*
X001227Y014281D01*
X001261Y014314D01*
X001297Y014343D01*
X001336Y014369D01*
X001377Y014392D01*
X001420Y014411D01*
X001464Y014427D01*
X001509Y014439D01*
X001555Y014447D01*
X001602Y014451D01*
X001648Y014451D01*
X001695Y014447D01*
X001741Y014439D01*
X001786Y014427D01*
X001830Y014411D01*
X001873Y014392D01*
X001914Y014369D01*
X001953Y014343D01*
X001989Y014314D01*
X002023Y014281D01*
X002054Y014246D01*
X002082Y014209D01*
X002106Y014169D01*
X002127Y014127D01*
X002145Y014084D01*
X002158Y014039D01*
X002168Y013993D01*
X002174Y013947D01*
X002176Y013900D01*
X002174Y013853D01*
X002168Y013807D01*
X002158Y013761D01*
X002145Y013716D01*
X002127Y013673D01*
X002106Y013631D01*
X002082Y013591D01*
X002054Y013554D01*
X002023Y013519D01*
X001989Y013486D01*
X001953Y013457D01*
X001914Y013431D01*
X001873Y013408D01*
X001830Y013389D01*
X001786Y013373D01*
X001741Y013361D01*
X001695Y013353D01*
X001648Y013349D01*
X001602Y013349D01*
X001555Y013353D01*
X001509Y013361D01*
X001464Y013373D01*
X001420Y013389D01*
X001377Y013408D01*
X001336Y013431D01*
X001297Y013457D01*
X001261Y013486D01*
X001227Y013519D01*
X001196Y013554D01*
X001168Y013591D01*
X001144Y013631D01*
X001123Y013673D01*
X001105Y013716D01*
X001092Y013761D01*
X001082Y013807D01*
X001076Y013853D01*
X001074Y013900D01*
X011449Y012025D02*
X011451Y012072D01*
X011457Y012118D01*
X011467Y012164D01*
X011480Y012209D01*
X011498Y012252D01*
X011519Y012294D01*
X011543Y012334D01*
X011571Y012371D01*
X011602Y012406D01*
X011636Y012439D01*
X011672Y012468D01*
X011711Y012494D01*
X011752Y012517D01*
X011795Y012536D01*
X011839Y012552D01*
X011884Y012564D01*
X011930Y012572D01*
X011977Y012576D01*
X012023Y012576D01*
X012070Y012572D01*
X012116Y012564D01*
X012161Y012552D01*
X012205Y012536D01*
X012248Y012517D01*
X012289Y012494D01*
X012328Y012468D01*
X012364Y012439D01*
X012398Y012406D01*
X012429Y012371D01*
X012457Y012334D01*
X012481Y012294D01*
X012502Y012252D01*
X012520Y012209D01*
X012533Y012164D01*
X012543Y012118D01*
X012549Y012072D01*
X012551Y012025D01*
X012549Y011978D01*
X012543Y011932D01*
X012533Y011886D01*
X012520Y011841D01*
X012502Y011798D01*
X012481Y011756D01*
X012457Y011716D01*
X012429Y011679D01*
X012398Y011644D01*
X012364Y011611D01*
X012328Y011582D01*
X012289Y011556D01*
X012248Y011533D01*
X012205Y011514D01*
X012161Y011498D01*
X012116Y011486D01*
X012070Y011478D01*
X012023Y011474D01*
X011977Y011474D01*
X011930Y011478D01*
X011884Y011486D01*
X011839Y011498D01*
X011795Y011514D01*
X011752Y011533D01*
X011711Y011556D01*
X011672Y011582D01*
X011636Y011611D01*
X011602Y011644D01*
X011571Y011679D01*
X011543Y011716D01*
X011519Y011756D01*
X011498Y011798D01*
X011480Y011841D01*
X011467Y011886D01*
X011457Y011932D01*
X011451Y011978D01*
X011449Y012025D01*
D11*
X011300Y011825D02*
X011300Y011725D01*
X011200Y011725D01*
X010800Y011725D02*
X010700Y011725D01*
X010700Y011825D01*
X010700Y012225D02*
X010700Y012325D01*
X010800Y012325D01*
X011200Y012325D02*
X011300Y012325D01*
X011300Y012225D01*
X013200Y013100D02*
X013200Y013200D01*
X013200Y013100D02*
X013300Y013100D01*
X013700Y013100D02*
X013800Y013100D01*
X013800Y013200D01*
X014075Y013200D02*
X014075Y013100D01*
X014175Y013100D01*
X014575Y013100D02*
X014675Y013100D01*
X014675Y013200D01*
X014675Y013600D02*
X014675Y013700D01*
X014575Y013700D01*
X014575Y014100D02*
X014675Y014100D01*
X014675Y014200D01*
X014675Y014600D02*
X014675Y014700D01*
X014575Y014700D01*
X014175Y014700D02*
X014075Y014700D01*
X014075Y014600D01*
X013800Y014600D02*
X013800Y014700D01*
X013700Y014700D01*
X013300Y014700D02*
X013200Y014700D01*
X013200Y014600D01*
X013200Y014200D02*
X013200Y014100D01*
X013300Y014100D01*
X013300Y013700D02*
X013200Y013700D01*
X013200Y013600D01*
X013700Y013700D02*
X013800Y013700D01*
X013800Y013600D01*
X014075Y013600D02*
X014075Y013700D01*
X014175Y013700D01*
X014175Y014100D02*
X014075Y014100D01*
X014075Y014200D01*
X013800Y014200D02*
X013800Y014100D01*
X013700Y014100D01*
X013500Y010275D02*
X014000Y010275D01*
X014250Y010025D01*
X014500Y010275D01*
X015000Y010275D01*
X015250Y010025D01*
X015250Y009525D01*
X015000Y009275D01*
X014500Y009275D01*
X014250Y009525D01*
X014000Y009275D01*
X013500Y009275D01*
X013250Y009525D01*
X013250Y010025D01*
X013500Y010275D01*
X014250Y010025D02*
X014250Y009525D01*
X016042Y008620D02*
X016469Y008620D01*
X017026Y008575D02*
X017453Y008575D01*
X017240Y008789D02*
X017240Y008362D01*
X018175Y008620D02*
X018602Y008620D01*
X018550Y012850D02*
X018450Y012850D01*
X018450Y012950D01*
X018450Y013350D02*
X018450Y013450D01*
X018550Y013450D01*
X018550Y013850D02*
X018450Y013850D01*
X018450Y013950D01*
X018450Y014350D02*
X018450Y014450D01*
X018550Y014450D01*
X018950Y014450D02*
X019050Y014450D01*
X019050Y014350D01*
X019325Y014350D02*
X019325Y014450D01*
X019325Y014350D02*
X019425Y014350D01*
X019425Y013950D02*
X019325Y013950D01*
X019325Y013850D01*
X019050Y013850D02*
X019050Y013950D01*
X019050Y013850D02*
X018950Y013850D01*
X018950Y013450D02*
X019050Y013450D01*
X019050Y013350D01*
X019325Y013350D02*
X019325Y013450D01*
X019325Y013350D02*
X019425Y013350D01*
X019825Y013350D02*
X019925Y013350D01*
X019925Y013450D01*
X019925Y013850D02*
X019925Y013950D01*
X019825Y013950D01*
X019825Y014350D02*
X019925Y014350D01*
X019925Y014450D01*
X019925Y014850D02*
X019925Y014950D01*
X019825Y014950D01*
X019425Y014950D02*
X019325Y014950D01*
X019325Y014850D01*
X019050Y012950D02*
X019050Y012850D01*
X018950Y012850D01*
X008625Y006400D02*
X008625Y005900D01*
X008375Y005650D01*
X008625Y005400D01*
X008625Y004900D01*
X008375Y004650D01*
X008625Y004400D01*
X008625Y003900D01*
X008375Y003650D01*
X007875Y003650D01*
X007625Y003900D01*
X007625Y004400D01*
X007875Y004650D01*
X007625Y004900D01*
X007625Y005400D01*
X007875Y005650D01*
X007625Y005900D01*
X007625Y006400D01*
X007875Y006650D01*
X008375Y006650D01*
X008625Y006400D01*
X008375Y005650D02*
X007875Y005650D01*
X007475Y005500D02*
X007475Y003800D01*
X007473Y003783D01*
X007469Y003766D01*
X007462Y003750D01*
X007452Y003736D01*
X007439Y003723D01*
X007425Y003713D01*
X007409Y003706D01*
X007392Y003702D01*
X007375Y003700D01*
X006375Y003700D01*
X006358Y003702D01*
X006341Y003706D01*
X006325Y003713D01*
X006311Y003723D01*
X006298Y003736D01*
X006288Y003750D01*
X006281Y003766D01*
X006277Y003783D01*
X006275Y003800D01*
X006275Y005500D01*
X006277Y005517D01*
X006281Y005534D01*
X006288Y005550D01*
X006298Y005564D01*
X006311Y005577D01*
X006325Y005587D01*
X006341Y005594D01*
X006358Y005598D01*
X006375Y005600D01*
X007375Y005600D01*
X007392Y005598D01*
X007409Y005594D01*
X007425Y005587D01*
X007439Y005577D01*
X007452Y005564D01*
X007462Y005550D01*
X007469Y005534D01*
X007473Y005517D01*
X007475Y005500D01*
X006875Y004800D02*
X006875Y004750D01*
X006875Y004550D02*
X006875Y004500D01*
X007875Y004650D02*
X008375Y004650D01*
X004053Y009400D02*
X004303Y009650D01*
X004303Y010150D01*
X004053Y010400D01*
X003553Y010400D01*
X003303Y010150D01*
X003053Y010400D01*
X002553Y010400D01*
X002303Y010150D01*
X002303Y009650D01*
X002553Y009400D01*
X003053Y009400D01*
X003303Y009650D01*
X003303Y010150D01*
X003303Y009650D02*
X003553Y009400D01*
X004053Y009400D01*
X005262Y014094D02*
X005262Y014456D01*
X005988Y014456D01*
X005988Y014094D01*
X005262Y014094D01*
X006369Y017287D02*
X006369Y017714D01*
X006582Y017500D02*
X006155Y017500D01*
X005875Y018150D02*
X005877Y018213D01*
X005883Y018275D01*
X005893Y018337D01*
X005906Y018399D01*
X005924Y018459D01*
X005945Y018518D01*
X005970Y018576D01*
X005999Y018632D01*
X006031Y018686D01*
X006066Y018738D01*
X006104Y018787D01*
X006146Y018835D01*
X006190Y018879D01*
X006238Y018921D01*
X006287Y018959D01*
X006339Y018994D01*
X006393Y019026D01*
X006449Y019055D01*
X006507Y019080D01*
X006566Y019101D01*
X006626Y019119D01*
X006688Y019132D01*
X006750Y019142D01*
X006812Y019148D01*
X006875Y019150D01*
X006938Y019148D01*
X007000Y019142D01*
X007062Y019132D01*
X007124Y019119D01*
X007184Y019101D01*
X007243Y019080D01*
X007301Y019055D01*
X007357Y019026D01*
X007411Y018994D01*
X007463Y018959D01*
X007512Y018921D01*
X007560Y018879D01*
X007604Y018835D01*
X007646Y018787D01*
X007684Y018738D01*
X007719Y018686D01*
X007751Y018632D01*
X007780Y018576D01*
X007805Y018518D01*
X007826Y018459D01*
X007844Y018399D01*
X007857Y018337D01*
X007867Y018275D01*
X007873Y018213D01*
X007875Y018150D01*
X007873Y018087D01*
X007867Y018025D01*
X007857Y017963D01*
X007844Y017901D01*
X007826Y017841D01*
X007805Y017782D01*
X007780Y017724D01*
X007751Y017668D01*
X007719Y017614D01*
X007684Y017562D01*
X007646Y017513D01*
X007604Y017465D01*
X007560Y017421D01*
X007512Y017379D01*
X007463Y017341D01*
X007411Y017306D01*
X007357Y017274D01*
X007301Y017245D01*
X007243Y017220D01*
X007184Y017199D01*
X007124Y017181D01*
X007062Y017168D01*
X007000Y017158D01*
X006938Y017152D01*
X006875Y017150D01*
X006812Y017152D01*
X006750Y017158D01*
X006688Y017168D01*
X006626Y017181D01*
X006566Y017199D01*
X006507Y017220D01*
X006449Y017245D01*
X006393Y017274D01*
X006339Y017306D01*
X006287Y017341D01*
X006238Y017379D01*
X006190Y017421D01*
X006146Y017465D01*
X006104Y017513D01*
X006066Y017562D01*
X006031Y017614D01*
X005999Y017668D01*
X005970Y017724D01*
X005945Y017782D01*
X005924Y017841D01*
X005906Y017901D01*
X005893Y017963D01*
X005883Y018025D01*
X005877Y018087D01*
X005875Y018150D01*
X005275Y017800D02*
X005275Y018500D01*
X003475Y018500D01*
X003475Y017800D01*
X005275Y017800D01*
X004725Y018500D02*
X004723Y018537D01*
X004717Y018573D01*
X004708Y018608D01*
X004695Y018642D01*
X004678Y018675D01*
X004658Y018706D01*
X004635Y018734D01*
X004609Y018760D01*
X004581Y018783D01*
X004550Y018803D01*
X004517Y018820D01*
X004483Y018833D01*
X004448Y018842D01*
X004412Y018848D01*
X004375Y018850D01*
X004338Y018848D01*
X004302Y018842D01*
X004267Y018833D01*
X004233Y018820D01*
X004200Y018803D01*
X004169Y018783D01*
X004141Y018760D01*
X004115Y018734D01*
X004092Y018706D01*
X004072Y018675D01*
X004055Y018642D01*
X004042Y018608D01*
X004033Y018573D01*
X004027Y018537D01*
X004025Y018500D01*
X003744Y017714D02*
X003744Y017287D01*
X003530Y017500D02*
X003957Y017500D01*
X001000Y018150D02*
X001002Y018213D01*
X001008Y018275D01*
X001018Y018337D01*
X001031Y018399D01*
X001049Y018459D01*
X001070Y018518D01*
X001095Y018576D01*
X001124Y018632D01*
X001156Y018686D01*
X001191Y018738D01*
X001229Y018787D01*
X001271Y018835D01*
X001315Y018879D01*
X001363Y018921D01*
X001412Y018959D01*
X001464Y018994D01*
X001518Y019026D01*
X001574Y019055D01*
X001632Y019080D01*
X001691Y019101D01*
X001751Y019119D01*
X001813Y019132D01*
X001875Y019142D01*
X001937Y019148D01*
X002000Y019150D01*
X002063Y019148D01*
X002125Y019142D01*
X002187Y019132D01*
X002249Y019119D01*
X002309Y019101D01*
X002368Y019080D01*
X002426Y019055D01*
X002482Y019026D01*
X002536Y018994D01*
X002588Y018959D01*
X002637Y018921D01*
X002685Y018879D01*
X002729Y018835D01*
X002771Y018787D01*
X002809Y018738D01*
X002844Y018686D01*
X002876Y018632D01*
X002905Y018576D01*
X002930Y018518D01*
X002951Y018459D01*
X002969Y018399D01*
X002982Y018337D01*
X002992Y018275D01*
X002998Y018213D01*
X003000Y018150D01*
X002998Y018087D01*
X002992Y018025D01*
X002982Y017963D01*
X002969Y017901D01*
X002951Y017841D01*
X002930Y017782D01*
X002905Y017724D01*
X002876Y017668D01*
X002844Y017614D01*
X002809Y017562D01*
X002771Y017513D01*
X002729Y017465D01*
X002685Y017421D01*
X002637Y017379D01*
X002588Y017341D01*
X002536Y017306D01*
X002482Y017274D01*
X002426Y017245D01*
X002368Y017220D01*
X002309Y017199D01*
X002249Y017181D01*
X002187Y017168D01*
X002125Y017158D01*
X002063Y017152D01*
X002000Y017150D01*
X001937Y017152D01*
X001875Y017158D01*
X001813Y017168D01*
X001751Y017181D01*
X001691Y017199D01*
X001632Y017220D01*
X001574Y017245D01*
X001518Y017274D01*
X001464Y017306D01*
X001412Y017341D01*
X001363Y017379D01*
X001315Y017421D01*
X001271Y017465D01*
X001229Y017513D01*
X001191Y017562D01*
X001156Y017614D01*
X001124Y017668D01*
X001095Y017724D01*
X001070Y017782D01*
X001049Y017841D01*
X001031Y017901D01*
X001018Y017963D01*
X001008Y018025D01*
X001002Y018087D01*
X001000Y018150D01*
X001494Y017714D02*
X001494Y017287D01*
X001280Y017500D02*
X001707Y017500D01*
D12*
X006765Y012724D02*
X006765Y012477D01*
X006827Y012415D01*
X006950Y012415D01*
X007012Y012477D01*
X007012Y012600D01*
X006888Y012600D01*
X006765Y012724D02*
X006827Y012785D01*
X006950Y012785D01*
X007012Y012724D01*
X007133Y012785D02*
X007380Y012415D01*
X007380Y012785D01*
X007502Y012785D02*
X007687Y012785D01*
X007749Y012724D01*
X007749Y012477D01*
X007687Y012415D01*
X007502Y012415D01*
X007502Y012785D01*
X007133Y012785D02*
X007133Y012415D01*
X006847Y011910D02*
X006847Y011540D01*
X007032Y011540D01*
X007094Y011602D01*
X007094Y011725D01*
X007032Y011787D01*
X006847Y011787D01*
X006724Y011602D02*
X006724Y011540D01*
X006662Y011540D01*
X006662Y011602D01*
X006724Y011602D01*
X006541Y011540D02*
X006356Y011540D01*
X006294Y011602D01*
X006294Y011725D01*
X006356Y011787D01*
X006541Y011787D01*
X006541Y011910D02*
X006541Y011540D01*
X006173Y011540D02*
X006173Y011725D01*
X006111Y011787D01*
X005926Y011787D01*
X005926Y011540D01*
X005804Y011540D02*
X005804Y011725D01*
X005743Y011787D01*
X005619Y011787D01*
X005619Y011663D02*
X005804Y011663D01*
X005804Y011540D02*
X005619Y011540D01*
X005558Y011602D01*
X005619Y011663D01*
X005435Y011540D02*
X005312Y011540D01*
X005374Y011540D02*
X005374Y011910D01*
X005312Y011910D01*
X005129Y011787D02*
X005005Y011787D01*
X004944Y011725D01*
X004944Y011602D01*
X005005Y011540D01*
X005129Y011540D01*
X005191Y011602D01*
X005191Y011725D01*
X005129Y011787D01*
X004822Y011787D02*
X004760Y011787D01*
X004637Y011663D01*
X004637Y011540D02*
X004637Y011787D01*
X004514Y011602D02*
X004453Y011602D01*
X004453Y011540D01*
X004514Y011540D01*
X004514Y011602D01*
X004331Y011602D02*
X004269Y011663D01*
X004146Y011663D01*
X004084Y011725D01*
X004146Y011787D01*
X004331Y011787D01*
X004331Y011602D02*
X004269Y011540D01*
X004084Y011540D01*
X003963Y011787D02*
X003901Y011787D01*
X003777Y011663D01*
X003656Y011663D02*
X003471Y011663D01*
X003409Y011602D01*
X003471Y011540D01*
X003656Y011540D01*
X003656Y011725D01*
X003594Y011787D01*
X003471Y011787D01*
X003225Y011910D02*
X003225Y011540D01*
X003164Y011540D02*
X003287Y011540D01*
X003225Y011910D02*
X003164Y011910D01*
X003042Y011910D02*
X002795Y011540D01*
X002427Y011540D02*
X002674Y011910D01*
X002304Y011787D02*
X002304Y011725D01*
X002243Y011725D01*
X002243Y011787D01*
X002304Y011787D01*
X002304Y011602D02*
X002243Y011602D01*
X002243Y011540D01*
X002304Y011540D01*
X002304Y011602D01*
X002121Y011602D02*
X002121Y011725D01*
X002060Y011787D01*
X001874Y011787D01*
X001874Y011417D01*
X001874Y011540D02*
X002060Y011540D01*
X002121Y011602D01*
X001752Y011540D02*
X001691Y011602D01*
X001691Y011849D01*
X001752Y011787D02*
X001629Y011787D01*
X001507Y011787D02*
X001383Y011787D01*
X001445Y011849D02*
X001445Y011602D01*
X001507Y011540D01*
X001262Y011540D02*
X001262Y011725D01*
X001200Y011787D01*
X001077Y011787D01*
X001015Y011725D01*
X001015Y011910D02*
X001015Y011540D01*
X003777Y011540D02*
X003777Y011787D01*
X002195Y008618D02*
X002485Y008424D01*
X002485Y008324D02*
X002437Y008276D01*
X002243Y008276D01*
X002292Y008228D02*
X002292Y008324D01*
X002340Y008127D02*
X002292Y008078D01*
X002292Y007981D01*
X002340Y007933D01*
X002437Y007933D01*
X002485Y007981D01*
X002485Y008078D01*
X002437Y008127D01*
X002340Y008127D01*
X002340Y007832D02*
X002292Y007784D01*
X002292Y007638D01*
X002195Y007638D02*
X002485Y007638D01*
X002485Y007784D01*
X002437Y007832D01*
X002340Y007832D01*
X002340Y007537D02*
X002292Y007489D01*
X002292Y007392D01*
X002340Y007344D01*
X002437Y007344D01*
X002485Y007392D01*
X002485Y007489D01*
X002437Y007537D01*
X002340Y007537D01*
X002292Y007243D02*
X002485Y007146D01*
X002292Y007049D01*
X002292Y006949D02*
X002292Y006900D01*
X002388Y006804D01*
X002292Y006804D02*
X002485Y006804D01*
X002388Y006702D02*
X002388Y006509D01*
X002340Y006509D02*
X002292Y006557D01*
X002292Y006654D01*
X002340Y006702D01*
X002388Y006702D01*
X002485Y006654D02*
X002485Y006557D01*
X002437Y006509D01*
X002340Y006509D01*
X002292Y006408D02*
X002292Y006263D01*
X002340Y006214D01*
X002388Y006263D01*
X002388Y006359D01*
X002437Y006408D01*
X002485Y006359D01*
X002485Y006214D01*
X002485Y005920D02*
X002195Y006113D01*
X002292Y005818D02*
X002485Y005625D01*
X002485Y005818D01*
X002292Y005818D02*
X002292Y005625D01*
X002340Y005524D02*
X002292Y005475D01*
X002292Y005330D01*
X002195Y005330D02*
X002485Y005330D01*
X002485Y005475D01*
X002437Y005524D01*
X002340Y005524D01*
X002437Y005231D02*
X002485Y005231D01*
X002485Y005183D01*
X002437Y005183D01*
X002437Y005231D01*
X002485Y005082D02*
X002485Y004937D01*
X002437Y004888D01*
X002340Y004888D01*
X002292Y004937D01*
X002292Y005082D01*
X002195Y005082D02*
X002485Y005082D01*
X002485Y004787D02*
X002340Y004787D01*
X002292Y004739D01*
X002292Y004594D01*
X002485Y004594D01*
X002485Y004493D02*
X002485Y004347D01*
X002437Y004299D01*
X002388Y004347D01*
X002388Y004493D01*
X002340Y004493D02*
X002485Y004493D01*
X002340Y004493D02*
X002292Y004444D01*
X002292Y004347D01*
X002195Y004151D02*
X002485Y004151D01*
X002485Y004103D02*
X002485Y004199D01*
X002437Y004001D02*
X002340Y004001D01*
X002292Y003953D01*
X002292Y003856D01*
X002340Y003808D01*
X002437Y003808D01*
X002485Y003856D01*
X002485Y003953D01*
X002437Y004001D01*
X002195Y004103D02*
X002195Y004151D01*
X002292Y003708D02*
X002292Y003659D01*
X002388Y003562D01*
X002292Y003562D02*
X002485Y003562D01*
X002485Y003463D02*
X002485Y003415D01*
X002437Y003415D01*
X002437Y003463D01*
X002485Y003463D01*
X002437Y003314D02*
X002388Y003266D01*
X002388Y003169D01*
X002340Y003120D01*
X002292Y003169D01*
X002292Y003314D01*
X002437Y003314D02*
X002485Y003266D01*
X002485Y003120D01*
X002292Y003020D02*
X002292Y002972D01*
X002388Y002875D01*
X002292Y002875D02*
X002485Y002875D01*
X002485Y002774D02*
X002340Y002774D01*
X002292Y002725D01*
X002292Y002629D01*
X002388Y002629D02*
X002388Y002774D01*
X002485Y002774D02*
X002485Y002629D01*
X002437Y002580D01*
X002388Y002629D01*
X002485Y002481D02*
X002485Y002384D01*
X002485Y002432D02*
X002195Y002432D01*
X002195Y002384D01*
X002195Y002283D02*
X002485Y002089D01*
X002485Y001794D02*
X002195Y001988D01*
X002292Y001696D02*
X002340Y001696D01*
X002340Y001647D01*
X002292Y001647D01*
X002292Y001696D01*
X002437Y001696D02*
X002485Y001696D01*
X002485Y001647D01*
X002437Y001647D01*
X002437Y001696D01*
X002437Y001546D02*
X002485Y001498D01*
X002485Y001353D01*
X002582Y001353D02*
X002292Y001353D01*
X002292Y001498D01*
X002340Y001546D01*
X002437Y001546D01*
X002485Y001253D02*
X002437Y001204D01*
X002243Y001204D01*
X002292Y001156D02*
X002292Y001253D01*
X002292Y001056D02*
X002292Y000960D01*
X002243Y001008D02*
X002437Y001008D01*
X002485Y001056D01*
X002485Y000858D02*
X002340Y000858D01*
X002292Y000810D01*
X002292Y000713D01*
X002340Y000665D01*
X002195Y000665D02*
X002485Y000665D01*
X003051Y002165D02*
X003298Y002165D01*
X003360Y002227D01*
X003360Y002350D01*
X003298Y002412D01*
X003175Y002412D01*
X003175Y002288D01*
X003051Y002165D02*
X002990Y002227D01*
X002990Y002350D01*
X003051Y002412D01*
X002990Y002533D02*
X003360Y002780D01*
X002990Y002780D01*
X002990Y002902D02*
X002990Y003087D01*
X003051Y003149D01*
X003298Y003149D01*
X003360Y003087D01*
X003360Y002902D01*
X002990Y002902D01*
X002990Y002533D02*
X003360Y002533D01*
X007740Y002475D02*
X007740Y002352D01*
X007801Y002290D01*
X008048Y002290D01*
X008110Y002352D01*
X008110Y002475D01*
X008048Y002537D01*
X007925Y002537D01*
X007925Y002413D01*
X007801Y002537D02*
X007740Y002475D01*
X007740Y002658D02*
X008110Y002905D01*
X007740Y002905D01*
X007740Y003027D02*
X007740Y003212D01*
X007801Y003274D01*
X008048Y003274D01*
X008110Y003212D01*
X008110Y003027D01*
X007740Y003027D01*
X007740Y002658D02*
X008110Y002658D01*
X008702Y003415D02*
X008640Y003477D01*
X008702Y003415D02*
X008825Y003415D01*
X008887Y003477D01*
X008887Y003538D01*
X008825Y003600D01*
X008763Y003600D01*
X008825Y003600D02*
X008887Y003662D01*
X008887Y003724D01*
X008825Y003785D01*
X008702Y003785D01*
X008640Y003724D01*
X009008Y003662D02*
X009132Y003415D01*
X009255Y003662D01*
X009375Y006665D02*
X009375Y007035D01*
X009252Y007035D02*
X009499Y007035D01*
X009130Y006912D02*
X009130Y006665D01*
X009130Y006850D02*
X008883Y006850D01*
X008883Y006912D02*
X008883Y006665D01*
X008762Y006727D02*
X008700Y006665D01*
X008515Y006665D01*
X008515Y007035D01*
X008700Y007035D01*
X008762Y006974D01*
X008762Y006912D01*
X008700Y006850D01*
X008515Y006850D01*
X008700Y006850D02*
X008762Y006788D01*
X008762Y006727D01*
X008883Y006912D02*
X009007Y007035D01*
X009130Y006912D01*
X012426Y003274D02*
X012365Y003212D01*
X012365Y003027D01*
X012735Y003027D01*
X012735Y003212D01*
X012673Y003274D01*
X012426Y003274D01*
X012365Y002905D02*
X012735Y002905D01*
X012365Y002658D01*
X012735Y002658D01*
X012673Y002537D02*
X012550Y002537D01*
X012550Y002413D01*
X012673Y002290D02*
X012426Y002290D01*
X012365Y002352D01*
X012365Y002475D01*
X012426Y002537D01*
X012673Y002537D02*
X012735Y002475D01*
X012735Y002352D01*
X012673Y002290D01*
X014179Y004745D02*
X014276Y004745D01*
X014325Y004793D01*
X014325Y004890D01*
X014228Y004890D01*
X014325Y004987D02*
X014276Y005035D01*
X014179Y005035D01*
X014131Y004987D01*
X014131Y004793D01*
X014179Y004745D01*
X014426Y004745D02*
X014426Y005035D01*
X014619Y004745D01*
X014619Y005035D01*
X014720Y005035D02*
X014720Y004745D01*
X014865Y004745D01*
X014914Y004793D01*
X014914Y004987D01*
X014865Y005035D01*
X014720Y005035D01*
X015379Y007645D02*
X015476Y007645D01*
X015525Y007693D01*
X015525Y007790D01*
X015428Y007790D01*
X015525Y007887D02*
X015476Y007935D01*
X015379Y007935D01*
X015331Y007887D01*
X015331Y007693D01*
X015379Y007645D01*
X015626Y007645D02*
X015626Y007935D01*
X015819Y007645D01*
X015819Y007935D01*
X015920Y007935D02*
X016065Y007935D01*
X016114Y007887D01*
X016114Y007693D01*
X016065Y007645D01*
X015920Y007645D01*
X015920Y007935D01*
X018365Y008230D02*
X018735Y007983D01*
X018735Y007862D02*
X018735Y007615D01*
X018488Y007862D01*
X018488Y007615D01*
X018550Y007494D02*
X018488Y007432D01*
X018488Y007247D01*
X018365Y007247D02*
X018735Y007247D01*
X018735Y007432D01*
X018673Y007494D01*
X018550Y007494D01*
X018673Y007124D02*
X018735Y007124D01*
X018735Y007062D01*
X018673Y007062D01*
X018673Y007124D01*
X018735Y006941D02*
X018735Y006756D01*
X018673Y006694D01*
X018550Y006694D01*
X018488Y006756D01*
X018488Y006941D01*
X018365Y006941D02*
X018735Y006941D01*
X018735Y006573D02*
X018550Y006573D01*
X018488Y006511D01*
X018488Y006326D01*
X018735Y006326D01*
X018735Y006204D02*
X018550Y006204D01*
X018488Y006143D01*
X018488Y006019D01*
X018612Y006019D02*
X018612Y006204D01*
X018735Y006204D02*
X018735Y006019D01*
X018673Y005958D01*
X018612Y006019D01*
X018735Y005835D02*
X018735Y005712D01*
X018735Y005774D02*
X018365Y005774D01*
X018365Y005712D01*
X018488Y005529D02*
X018488Y005405D01*
X018550Y005344D01*
X018673Y005344D01*
X018735Y005405D01*
X018735Y005529D01*
X018673Y005591D01*
X018550Y005591D01*
X018488Y005529D01*
X018488Y005222D02*
X018488Y005160D01*
X018612Y005037D01*
X018735Y005037D02*
X018488Y005037D01*
X018673Y004914D02*
X018735Y004914D01*
X018735Y004853D01*
X018673Y004853D01*
X018673Y004914D01*
X018673Y004731D02*
X018612Y004669D01*
X018612Y004546D01*
X018550Y004484D01*
X018488Y004546D01*
X018488Y004731D01*
X018673Y004731D02*
X018735Y004669D01*
X018735Y004484D01*
X018488Y004363D02*
X018488Y004301D01*
X018612Y004177D01*
X018612Y004056D02*
X018612Y003871D01*
X018673Y003809D01*
X018735Y003871D01*
X018735Y004056D01*
X018550Y004056D01*
X018488Y003994D01*
X018488Y003871D01*
X018488Y004177D02*
X018735Y004177D01*
X018735Y003687D02*
X018735Y003564D01*
X018735Y003625D02*
X018365Y003625D01*
X018365Y003564D01*
X018365Y003442D02*
X018735Y003195D01*
X018735Y002827D02*
X018365Y003074D01*
X018488Y002704D02*
X018550Y002704D01*
X018550Y002643D01*
X018488Y002643D01*
X018488Y002704D01*
X018673Y002704D02*
X018735Y002704D01*
X018735Y002643D01*
X018673Y002643D01*
X018673Y002704D01*
X018673Y002521D02*
X018550Y002521D01*
X018488Y002460D01*
X018488Y002274D01*
X018858Y002274D01*
X018735Y002274D02*
X018735Y002460D01*
X018673Y002521D01*
X018735Y002152D02*
X018673Y002091D01*
X018426Y002091D01*
X018488Y002152D02*
X018488Y002029D01*
X018488Y001907D02*
X018488Y001783D01*
X018426Y001845D02*
X018673Y001845D01*
X018735Y001907D01*
X018735Y001662D02*
X018550Y001662D01*
X018488Y001600D01*
X018488Y001477D01*
X018550Y001415D01*
X018365Y001415D02*
X018735Y001415D01*
X016787Y000610D02*
X016594Y000610D01*
X016739Y000755D01*
X016739Y000465D01*
X016492Y000513D02*
X016492Y000610D01*
X016444Y000658D01*
X016396Y000658D01*
X016299Y000610D01*
X016299Y000755D01*
X016492Y000755D01*
X016492Y000513D02*
X016444Y000465D01*
X016347Y000465D01*
X016299Y000513D01*
X016198Y000513D02*
X016149Y000465D01*
X016053Y000465D01*
X016004Y000513D01*
X016004Y000610D02*
X016101Y000658D01*
X016149Y000658D01*
X016198Y000610D01*
X016198Y000513D01*
X016004Y000610D02*
X016004Y000755D01*
X016198Y000755D01*
X015903Y000707D02*
X015903Y000513D01*
X015855Y000465D01*
X015758Y000465D01*
X015710Y000513D01*
X015903Y000707D01*
X015855Y000755D01*
X015758Y000755D01*
X015710Y000707D01*
X015710Y000513D01*
X015608Y000513D02*
X015560Y000465D01*
X015463Y000465D01*
X015415Y000513D01*
X015415Y000610D02*
X015512Y000658D01*
X015560Y000658D01*
X015608Y000610D01*
X015608Y000513D01*
X015415Y000610D02*
X015415Y000755D01*
X015608Y000755D01*
X007583Y011540D02*
X007830Y011910D01*
X007462Y011787D02*
X007215Y011540D01*
X007462Y011540D01*
X007462Y011787D02*
X007215Y011787D01*
X009851Y011868D02*
X009899Y011820D01*
X009996Y011820D01*
X010044Y011868D01*
X010044Y011917D01*
X009996Y011965D01*
X009947Y011965D01*
X009996Y011965D02*
X010044Y012013D01*
X010044Y012062D01*
X009996Y012110D01*
X009899Y012110D01*
X009851Y012062D01*
X010145Y012110D02*
X010145Y011917D01*
X010242Y011820D01*
X010339Y011917D01*
X010339Y012110D01*
X008610Y015040D02*
X008610Y015163D01*
X008610Y015102D02*
X008240Y015102D01*
X008240Y015040D01*
X008548Y015286D02*
X008487Y015347D01*
X008487Y015532D01*
X008425Y015532D02*
X008610Y015532D01*
X008610Y015347D01*
X008548Y015286D01*
X008363Y015347D02*
X008363Y015471D01*
X008425Y015532D01*
X008487Y015654D02*
X008363Y015777D01*
X008363Y015839D01*
X008425Y015961D02*
X008363Y016023D01*
X008363Y016208D01*
X008487Y016146D02*
X008487Y016023D01*
X008425Y015961D01*
X008610Y015961D02*
X008610Y016146D01*
X008548Y016208D01*
X008487Y016146D01*
X008548Y016329D02*
X008548Y016391D01*
X008610Y016391D01*
X008610Y016329D01*
X008548Y016329D01*
X008487Y016513D02*
X008363Y016637D01*
X008363Y016698D01*
X008425Y016820D02*
X008363Y016882D01*
X008363Y017005D01*
X008425Y017067D01*
X008548Y017067D01*
X008610Y017005D01*
X008610Y016882D01*
X008548Y016820D01*
X008425Y016820D01*
X008363Y016513D02*
X008610Y016513D01*
X008610Y017188D02*
X008610Y017312D01*
X008610Y017250D02*
X008240Y017250D01*
X008240Y017188D01*
X008363Y017496D02*
X008363Y017619D01*
X008425Y017681D01*
X008610Y017681D01*
X008610Y017496D01*
X008548Y017434D01*
X008487Y017496D01*
X008487Y017681D01*
X008610Y017802D02*
X008363Y017802D01*
X008363Y017988D01*
X008425Y018049D01*
X008610Y018049D01*
X008548Y018171D02*
X008425Y018171D01*
X008363Y018232D01*
X008363Y018418D01*
X008240Y018418D02*
X008610Y018418D01*
X008610Y018232D01*
X008548Y018171D01*
X008548Y018539D02*
X008548Y018601D01*
X008610Y018601D01*
X008610Y018539D01*
X008548Y018539D01*
X008610Y018723D02*
X008610Y018908D01*
X008548Y018970D01*
X008425Y018970D01*
X008363Y018908D01*
X008363Y018723D01*
X008240Y018723D02*
X008610Y018723D01*
X008610Y019091D02*
X008610Y019338D01*
X008363Y019338D02*
X008610Y019091D01*
X008363Y019091D02*
X008363Y019338D01*
X008363Y015654D02*
X008610Y015654D01*
X017840Y018815D02*
X017840Y019105D01*
X017985Y019105D01*
X018033Y019057D01*
X018033Y018960D01*
X017985Y018912D01*
X017840Y018912D01*
X017937Y018912D02*
X018033Y018815D01*
X018135Y018815D02*
X018328Y018815D01*
X018231Y018815D02*
X018231Y019105D01*
X018135Y019008D01*
X018429Y019057D02*
X018429Y018863D01*
X018623Y019057D01*
X018623Y018863D01*
X018574Y018815D01*
X018478Y018815D01*
X018429Y018863D01*
X018429Y019057D02*
X018478Y019105D01*
X018574Y019105D01*
X018623Y019057D01*
D13*
X020250Y019650D02*
X020250Y011025D01*
X020250Y000150D01*
X000750Y000150D01*
X000750Y011025D01*
X000750Y019650D01*
X013000Y019650D01*
X013000Y011150D01*
X008000Y011150D02*
X008000Y019650D01*
X013000Y019650D02*
X020250Y019650D01*
X020250Y011025D02*
X000750Y011025D01*
X006575Y004750D02*
X006875Y004750D01*
X007175Y004750D01*
X007175Y004550D02*
X006875Y004550D01*
X006575Y004550D01*
D14*
X008865Y004483D02*
X009225Y004483D01*
X009105Y004604D01*
X009225Y004724D01*
X008865Y004724D01*
X008865Y004852D02*
X008865Y005032D01*
X008925Y005092D01*
X009045Y005092D01*
X009105Y005032D01*
X009105Y004852D01*
X009105Y004972D02*
X009225Y005092D01*
X009165Y005220D02*
X009225Y005280D01*
X009225Y005400D01*
X009165Y005460D01*
X009105Y005460D01*
X009045Y005400D01*
X009045Y005280D01*
X008985Y005220D01*
X008925Y005220D01*
X008865Y005280D01*
X008865Y005400D01*
X008925Y005460D01*
X008865Y005588D02*
X009225Y005588D01*
X009225Y005829D01*
X009225Y005957D02*
X009225Y006197D01*
X009225Y005957D02*
X008865Y005957D01*
X008865Y005829D02*
X008865Y005588D01*
X009045Y005588D02*
X009045Y005708D01*
X009225Y004852D02*
X008865Y004852D01*
X008925Y004355D02*
X009045Y004355D01*
X009105Y004295D01*
X009105Y004115D01*
X009225Y004115D02*
X008865Y004115D01*
X008865Y004295D01*
X008925Y004355D01*
X010724Y005172D02*
X010801Y005095D01*
X010954Y005095D01*
X011031Y005172D01*
X011185Y005095D02*
X011492Y005402D01*
X011492Y005479D01*
X011415Y005555D01*
X011261Y005555D01*
X011185Y005479D01*
X011031Y005479D02*
X010954Y005555D01*
X010801Y005555D01*
X010724Y005479D01*
X010724Y005172D01*
X011185Y005095D02*
X011492Y005095D01*
X013827Y008675D02*
X013827Y009035D01*
X013947Y008915D01*
X014067Y009035D01*
X014067Y008675D01*
X014195Y008735D02*
X014195Y008975D01*
X014255Y009035D01*
X014375Y009035D01*
X014435Y008975D01*
X014435Y008735D01*
X014375Y008675D01*
X014255Y008675D01*
X014195Y008735D01*
X014563Y009035D02*
X014804Y009035D01*
X014683Y009035D02*
X014683Y008675D01*
X014932Y008675D02*
X015172Y008915D01*
X015172Y008975D01*
X015112Y009035D01*
X014992Y009035D01*
X014932Y008975D01*
X014932Y008675D02*
X015172Y008675D01*
X014643Y012570D02*
X014523Y012570D01*
X014463Y012630D01*
X014583Y012750D02*
X014643Y012750D01*
X014704Y012690D01*
X014704Y012630D01*
X014643Y012570D01*
X014643Y012750D02*
X014704Y012810D01*
X014704Y012870D01*
X014643Y012930D01*
X014523Y012930D01*
X014463Y012870D01*
X014335Y012870D02*
X014335Y012750D01*
X014275Y012690D01*
X014095Y012690D01*
X014095Y012570D02*
X014095Y012930D01*
X014275Y012930D01*
X014335Y012870D01*
X013829Y012870D02*
X013768Y012930D01*
X013648Y012930D01*
X013588Y012870D01*
X013460Y012870D02*
X013400Y012930D01*
X013220Y012930D01*
X013220Y012570D01*
X013220Y012690D02*
X013400Y012690D01*
X013460Y012750D01*
X013460Y012870D01*
X013588Y012570D02*
X013829Y012810D01*
X013829Y012870D01*
X013829Y012570D02*
X013588Y012570D01*
X013648Y014820D02*
X013588Y014880D01*
X013829Y015120D01*
X013829Y014880D01*
X013768Y014820D01*
X013648Y014820D01*
X013588Y014880D02*
X013588Y015120D01*
X013648Y015180D01*
X013768Y015180D01*
X013829Y015120D01*
X014095Y015180D02*
X014095Y014820D01*
X014095Y014940D02*
X014275Y014940D01*
X014335Y015000D01*
X014335Y015120D01*
X014275Y015180D01*
X014095Y015180D01*
X014463Y015060D02*
X014583Y015180D01*
X014583Y014820D01*
X014463Y014820D02*
X014704Y014820D01*
X013460Y015000D02*
X013400Y014940D01*
X013220Y014940D01*
X013220Y014820D02*
X013220Y015180D01*
X013400Y015180D01*
X013460Y015120D01*
X013460Y015000D01*
X017833Y012855D02*
X017833Y012495D01*
X017833Y012615D02*
X018014Y012615D01*
X018074Y012675D01*
X018074Y012795D01*
X018014Y012855D01*
X017833Y012855D01*
X018202Y012675D02*
X018442Y012675D01*
X018382Y012495D02*
X018382Y012855D01*
X018202Y012675D01*
X019345Y012820D02*
X019345Y013180D01*
X019525Y013180D01*
X019585Y013120D01*
X019585Y013000D01*
X019525Y012940D01*
X019345Y012940D01*
X019713Y012880D02*
X019773Y012820D01*
X019893Y012820D01*
X019954Y012880D01*
X019954Y013000D01*
X019893Y013060D01*
X019833Y013060D01*
X019713Y013000D01*
X019713Y013180D01*
X019954Y013180D01*
X019018Y014570D02*
X018898Y014570D01*
X018838Y014630D01*
X018838Y014750D01*
X019018Y014750D01*
X019079Y014690D01*
X019079Y014630D01*
X019018Y014570D01*
X018838Y014750D02*
X018958Y014870D01*
X019079Y014930D01*
X018710Y014870D02*
X018710Y014750D01*
X018650Y014690D01*
X018470Y014690D01*
X018470Y014570D02*
X018470Y014930D01*
X018650Y014930D01*
X018710Y014870D01*
X019470Y015070D02*
X019470Y015430D01*
X019650Y015430D01*
X019710Y015370D01*
X019710Y015250D01*
X019650Y015190D01*
X019470Y015190D01*
X019838Y015130D02*
X019838Y015070D01*
X019838Y015130D02*
X020079Y015370D01*
X020079Y015430D01*
X019838Y015430D01*
X007867Y015497D02*
X007790Y015420D01*
X007636Y015420D01*
X007560Y015497D01*
X007406Y015420D02*
X007406Y015880D01*
X007560Y015804D02*
X007636Y015880D01*
X007790Y015880D01*
X007867Y015804D01*
X007867Y015727D01*
X007790Y015650D01*
X007867Y015573D01*
X007867Y015497D01*
X007790Y015650D02*
X007713Y015650D01*
X007406Y015650D02*
X007099Y015650D01*
X006946Y015650D02*
X006869Y015573D01*
X006639Y015573D01*
X006639Y015420D02*
X006639Y015880D01*
X006869Y015880D01*
X006946Y015804D01*
X006946Y015650D01*
X007099Y015420D02*
X007099Y015880D01*
X005530Y015745D02*
X005070Y015745D01*
X005070Y015975D01*
X005146Y016052D01*
X005300Y016052D01*
X005377Y015975D01*
X005377Y015745D01*
X005377Y015898D02*
X005530Y016052D01*
X005453Y016205D02*
X005530Y016282D01*
X005530Y016436D01*
X005453Y016512D01*
X005377Y016512D01*
X005300Y016436D01*
X005300Y016359D01*
X005300Y016436D02*
X005223Y016512D01*
X005146Y016512D01*
X005070Y016436D01*
X005070Y016282D01*
X005146Y016205D01*
X004155Y016137D02*
X004155Y015830D01*
X003848Y016137D01*
X003771Y016137D01*
X003695Y016061D01*
X003695Y015907D01*
X003771Y015830D01*
X003771Y015677D02*
X003925Y015677D01*
X004002Y015600D01*
X004002Y015370D01*
X004155Y015370D02*
X003695Y015370D01*
X003695Y015600D01*
X003771Y015677D01*
X004002Y015523D02*
X004155Y015677D01*
X003576Y015925D02*
X003116Y015925D01*
X003116Y016155D01*
X003193Y016232D01*
X003346Y016232D01*
X003423Y016155D01*
X003423Y015925D01*
X003423Y016079D02*
X003576Y016232D01*
X003576Y016386D02*
X003576Y016692D01*
X003576Y016539D02*
X003116Y016539D01*
X003269Y016386D01*
X002117Y015650D02*
X001810Y015650D01*
X002040Y015880D01*
X002040Y015420D01*
X001656Y015420D02*
X001656Y015880D01*
X001656Y015650D02*
X001349Y015650D01*
X001196Y015650D02*
X001196Y015804D01*
X001119Y015880D01*
X000889Y015880D01*
X000889Y015420D01*
X000889Y015573D02*
X001119Y015573D01*
X001196Y015650D01*
X001349Y015420D02*
X001349Y015880D01*
X004633Y014629D02*
X004633Y014322D01*
X004633Y014169D02*
X004633Y013862D01*
X005093Y013862D01*
X005093Y014169D01*
X004863Y014015D02*
X004863Y013862D01*
X004633Y013708D02*
X004633Y013401D01*
X005093Y013401D01*
X004863Y013401D02*
X004863Y013555D01*
X005093Y014476D02*
X004633Y014476D01*
X004731Y009158D02*
X004731Y008698D01*
X005038Y008698D01*
X005191Y008698D02*
X005498Y009004D01*
X005498Y009081D01*
X005421Y009158D01*
X005268Y009158D01*
X005191Y009081D01*
X005191Y008698D02*
X005498Y008698D01*
X005651Y008774D02*
X005728Y008698D01*
X005882Y008698D01*
X005958Y008774D01*
X005958Y009081D01*
X005882Y009158D01*
X005728Y009158D01*
X005651Y009081D01*
X005651Y009004D01*
X005728Y008928D01*
X005958Y008928D01*
X006112Y009004D02*
X006112Y009081D01*
X006189Y009158D01*
X006342Y009158D01*
X006419Y009081D01*
X006419Y009004D01*
X006342Y008928D01*
X006189Y008928D01*
X006112Y009004D01*
X006189Y008928D02*
X006112Y008851D01*
X006112Y008774D01*
X006189Y008698D01*
X006342Y008698D01*
X006419Y008774D01*
X006419Y008851D01*
X006342Y008928D01*
X004225Y008800D02*
X003985Y008800D01*
X004105Y008800D02*
X004105Y009160D01*
X003985Y009040D01*
X003857Y009160D02*
X003617Y009160D01*
X003737Y009160D02*
X003737Y008800D01*
X003488Y008860D02*
X003488Y009100D01*
X003428Y009160D01*
X003308Y009160D01*
X003248Y009100D01*
X003248Y008860D01*
X003308Y008800D01*
X003428Y008800D01*
X003488Y008860D01*
X003120Y008800D02*
X003120Y009160D01*
X003000Y009040D01*
X002880Y009160D01*
X002880Y008800D01*
X007770Y000880D02*
X008000Y000880D01*
X008077Y000804D01*
X008077Y000650D01*
X008000Y000573D01*
X007770Y000573D01*
X007770Y000420D02*
X007770Y000880D01*
X008230Y000880D02*
X008230Y000420D01*
X008230Y000650D02*
X008537Y000650D01*
X008691Y000804D02*
X008768Y000880D01*
X008921Y000880D01*
X008998Y000804D01*
X008998Y000727D01*
X008691Y000420D01*
X008998Y000420D01*
X008537Y000420D02*
X008537Y000880D01*
X011389Y000980D02*
X011389Y000520D01*
X011389Y000673D02*
X011619Y000673D01*
X011696Y000750D01*
X011696Y000904D01*
X011619Y000980D01*
X011389Y000980D01*
X011849Y000980D02*
X011849Y000520D01*
X011849Y000750D02*
X012156Y000750D01*
X012310Y000827D02*
X012463Y000980D01*
X012463Y000520D01*
X012310Y000520D02*
X012617Y000520D01*
X012156Y000520D02*
X012156Y000980D01*
X017770Y000727D02*
X017923Y000420D01*
X018077Y000727D01*
X018230Y000727D02*
X018384Y000880D01*
X018384Y000420D01*
X018537Y000420D02*
X018230Y000420D01*
D15*
X018000Y001150D02*
X017500Y001150D01*
X017250Y001400D01*
X017000Y001150D01*
X016500Y001150D01*
X016250Y001400D01*
X016000Y001150D01*
X015500Y001150D01*
X015250Y001400D01*
X015000Y001150D01*
X014500Y001150D01*
X014250Y001400D01*
X014000Y001150D01*
X013500Y001150D01*
X013250Y001400D01*
X013000Y001150D01*
X012500Y001150D01*
X012250Y001400D01*
X012250Y001900D01*
X012500Y002150D01*
X013000Y002150D01*
X013250Y001900D01*
X013500Y002150D01*
X014000Y002150D01*
X014250Y001900D01*
X014500Y002150D01*
X015000Y002150D01*
X015250Y001900D01*
X015500Y002150D01*
X016000Y002150D01*
X016250Y001900D01*
X016500Y002150D01*
X017000Y002150D01*
X017250Y001900D01*
X017500Y002150D01*
X018000Y002150D01*
X018250Y001900D01*
X018250Y001400D01*
X018000Y001150D01*
X016750Y003650D02*
X016250Y003650D01*
X016000Y003900D01*
X015750Y003650D01*
X015250Y003650D01*
X015000Y003900D01*
X014750Y003650D01*
X014250Y003650D01*
X014000Y003900D01*
X014000Y004400D01*
X014250Y004650D01*
X014750Y004650D01*
X015000Y004400D01*
X015250Y004650D01*
X015750Y004650D01*
X016000Y004400D01*
X016250Y004650D01*
X016750Y004650D01*
X017000Y004400D01*
X017000Y003900D01*
X016750Y003650D01*
X016750Y005150D02*
X016250Y005150D01*
X016000Y005400D01*
X015750Y005150D01*
X015250Y005150D01*
X015000Y005400D01*
X014750Y005150D01*
X014250Y005150D01*
X014000Y005400D01*
X014000Y005900D01*
X014250Y006150D01*
X014750Y006150D01*
X015000Y005900D01*
X015250Y006150D01*
X015750Y006150D01*
X016000Y005900D01*
X016250Y006150D01*
X016750Y006150D01*
X017000Y005900D01*
X017000Y005400D01*
X016750Y005150D01*
X016500Y006525D02*
X016250Y006775D01*
X016000Y006525D01*
X015500Y006525D01*
X015250Y006775D01*
X015250Y007275D01*
X015500Y007525D01*
X016000Y007525D01*
X016250Y007275D01*
X016500Y007525D01*
X017000Y007525D01*
X017250Y007275D01*
X017500Y007525D01*
X018000Y007525D01*
X018250Y007275D01*
X018250Y006775D01*
X018000Y006525D01*
X017500Y006525D01*
X017250Y006775D01*
X017000Y006525D01*
X016500Y006525D01*
X015750Y009400D02*
X015750Y009900D01*
X015500Y011400D02*
X015000Y011400D01*
X014750Y011650D01*
X014500Y011400D01*
X014000Y011400D01*
X013750Y011650D01*
X013750Y012150D01*
X014000Y012400D01*
X014500Y012400D01*
X014750Y012150D01*
X015000Y012400D01*
X015500Y012400D01*
X015750Y012150D01*
X016000Y012400D01*
X016500Y012400D01*
X016750Y012150D01*
X017000Y012400D01*
X017500Y012400D01*
X017750Y012150D01*
X018000Y012400D01*
X018500Y012400D01*
X018750Y012150D01*
X019000Y012400D01*
X019500Y012400D01*
X019750Y012150D01*
X019750Y011650D01*
X019500Y011400D01*
X019000Y011400D01*
X018750Y011650D01*
X018500Y011400D01*
X018000Y011400D01*
X017750Y011650D01*
X017500Y011400D01*
X017000Y011400D01*
X016750Y011650D01*
X016500Y011400D01*
X016000Y011400D01*
X015750Y011650D01*
X015500Y011400D01*
X015656Y013139D02*
X015656Y015161D01*
X017344Y015161D01*
X017344Y013139D01*
X015656Y013139D01*
X015757Y014892D02*
X015759Y014916D01*
X015765Y014940D01*
X015774Y014962D01*
X015786Y014983D01*
X015802Y015001D01*
X015820Y015017D01*
X015841Y015029D01*
X015863Y015038D01*
X015887Y015044D01*
X015911Y015046D01*
X015935Y015044D01*
X015959Y015038D01*
X015981Y015029D01*
X016002Y015017D01*
X016020Y015001D01*
X016036Y014983D01*
X016048Y014962D01*
X016057Y014940D01*
X016063Y014916D01*
X016065Y014892D01*
X016063Y014868D01*
X016057Y014844D01*
X016048Y014822D01*
X016036Y014801D01*
X016020Y014783D01*
X016002Y014767D01*
X015981Y014755D01*
X015959Y014746D01*
X015935Y014740D01*
X015911Y014738D01*
X015887Y014740D01*
X015863Y014746D01*
X015841Y014755D01*
X015820Y014767D01*
X015802Y014783D01*
X015786Y014801D01*
X015774Y014822D01*
X015765Y014844D01*
X015759Y014868D01*
X015757Y014892D01*
X018754Y017291D02*
X019101Y017291D01*
X018754Y017291D02*
X018754Y019259D01*
X019101Y019259D01*
X012500Y013525D02*
X012500Y013025D01*
X012250Y012775D01*
X011750Y012775D01*
X011500Y013025D01*
X011250Y012775D01*
X010750Y012775D01*
X010500Y013025D01*
X010250Y012775D01*
X009750Y012775D01*
X009500Y013025D01*
X009250Y012775D01*
X008750Y012775D01*
X008500Y013025D01*
X008500Y013525D01*
X008750Y013775D01*
X009250Y013775D01*
X009500Y013525D01*
X009750Y013775D01*
X010250Y013775D01*
X010500Y013525D01*
X010750Y013775D01*
X011250Y013775D01*
X011500Y013525D01*
X011750Y013775D01*
X012250Y013775D01*
X012500Y013525D01*
X011475Y014075D02*
X009775Y014075D01*
X009425Y014882D02*
X009425Y015675D01*
X009775Y016475D02*
X011475Y016475D01*
X011475Y016950D02*
X009775Y016950D01*
X009425Y017750D02*
X009425Y018555D01*
X009775Y019350D02*
X011475Y019350D01*
X011825Y018543D02*
X011825Y017750D01*
X009925Y018150D02*
X009927Y018202D01*
X009933Y018254D01*
X009943Y018306D01*
X009956Y018356D01*
X009973Y018406D01*
X009994Y018454D01*
X010019Y018500D01*
X010047Y018544D01*
X010078Y018586D01*
X010112Y018626D01*
X010149Y018663D01*
X010189Y018697D01*
X010231Y018728D01*
X010275Y018756D01*
X010321Y018781D01*
X010369Y018802D01*
X010419Y018819D01*
X010469Y018832D01*
X010521Y018842D01*
X010573Y018848D01*
X010625Y018850D01*
X010677Y018848D01*
X010729Y018842D01*
X010781Y018832D01*
X010831Y018819D01*
X010881Y018802D01*
X010929Y018781D01*
X010975Y018756D01*
X011019Y018728D01*
X011061Y018697D01*
X011101Y018663D01*
X011138Y018626D01*
X011172Y018586D01*
X011203Y018544D01*
X011231Y018500D01*
X011256Y018454D01*
X011277Y018406D01*
X011294Y018356D01*
X011307Y018306D01*
X011317Y018254D01*
X011323Y018202D01*
X011325Y018150D01*
X011323Y018098D01*
X011317Y018046D01*
X011307Y017994D01*
X011294Y017944D01*
X011277Y017894D01*
X011256Y017846D01*
X011231Y017800D01*
X011203Y017756D01*
X011172Y017714D01*
X011138Y017674D01*
X011101Y017637D01*
X011061Y017603D01*
X011019Y017572D01*
X010975Y017544D01*
X010929Y017519D01*
X010881Y017498D01*
X010831Y017481D01*
X010781Y017468D01*
X010729Y017458D01*
X010677Y017452D01*
X010625Y017450D01*
X010573Y017452D01*
X010521Y017458D01*
X010469Y017468D01*
X010419Y017481D01*
X010369Y017498D01*
X010321Y017519D01*
X010275Y017544D01*
X010231Y017572D01*
X010189Y017603D01*
X010149Y017637D01*
X010112Y017674D01*
X010078Y017714D01*
X010047Y017756D01*
X010019Y017800D01*
X009994Y017846D01*
X009973Y017894D01*
X009956Y017944D01*
X009943Y017994D01*
X009933Y018046D01*
X009927Y018098D01*
X009925Y018150D01*
X007875Y017400D02*
X007875Y018900D01*
X007746Y016634D02*
X007399Y016634D01*
X007746Y016634D02*
X007746Y014666D01*
X007399Y014666D01*
X006250Y013150D02*
X005750Y013150D01*
X005500Y012900D01*
X005250Y013150D01*
X004750Y013150D01*
X004500Y012900D01*
X004250Y013150D01*
X003750Y013150D01*
X003500Y012900D01*
X003250Y013150D01*
X002750Y013150D01*
X002500Y012900D01*
X002500Y012400D01*
X002750Y012150D01*
X003250Y012150D01*
X003500Y012400D01*
X003750Y012150D01*
X004250Y012150D01*
X004500Y012400D01*
X004750Y012150D01*
X005250Y012150D01*
X005500Y012400D01*
X005750Y012150D01*
X006250Y012150D01*
X006500Y012400D01*
X006500Y012900D01*
X006250Y013150D01*
X004750Y011619D02*
X012703Y011619D01*
X012703Y010989D01*
X004750Y010989D01*
X004750Y011619D01*
X004750Y010989D02*
X004750Y009650D01*
X004754Y009654D02*
X005266Y009654D01*
X006191Y009654D02*
X006270Y009654D01*
X007195Y009654D02*
X007274Y009654D01*
X008179Y009654D02*
X008258Y009654D01*
X009183Y009654D02*
X009262Y009654D01*
X010187Y009654D02*
X010266Y009654D01*
X011191Y009654D02*
X011270Y009654D01*
X012195Y009654D02*
X012707Y009654D01*
X012703Y009650D02*
X012703Y010989D01*
X011825Y014870D02*
X011825Y015675D01*
X009925Y015275D02*
X009927Y015327D01*
X009933Y015379D01*
X009943Y015431D01*
X009956Y015481D01*
X009973Y015531D01*
X009994Y015579D01*
X010019Y015625D01*
X010047Y015669D01*
X010078Y015711D01*
X010112Y015751D01*
X010149Y015788D01*
X010189Y015822D01*
X010231Y015853D01*
X010275Y015881D01*
X010321Y015906D01*
X010369Y015927D01*
X010419Y015944D01*
X010469Y015957D01*
X010521Y015967D01*
X010573Y015973D01*
X010625Y015975D01*
X010677Y015973D01*
X010729Y015967D01*
X010781Y015957D01*
X010831Y015944D01*
X010881Y015927D01*
X010929Y015906D01*
X010975Y015881D01*
X011019Y015853D01*
X011061Y015822D01*
X011101Y015788D01*
X011138Y015751D01*
X011172Y015711D01*
X011203Y015669D01*
X011231Y015625D01*
X011256Y015579D01*
X011277Y015531D01*
X011294Y015481D01*
X011307Y015431D01*
X011317Y015379D01*
X011323Y015327D01*
X011325Y015275D01*
X011323Y015223D01*
X011317Y015171D01*
X011307Y015119D01*
X011294Y015069D01*
X011277Y015019D01*
X011256Y014971D01*
X011231Y014925D01*
X011203Y014881D01*
X011172Y014839D01*
X011138Y014799D01*
X011101Y014762D01*
X011061Y014728D01*
X011019Y014697D01*
X010975Y014669D01*
X010929Y014644D01*
X010881Y014623D01*
X010831Y014606D01*
X010781Y014593D01*
X010729Y014583D01*
X010677Y014577D01*
X010625Y014575D01*
X010573Y014577D01*
X010521Y014583D01*
X010469Y014593D01*
X010419Y014606D01*
X010369Y014623D01*
X010321Y014644D01*
X010275Y014669D01*
X010231Y014697D01*
X010189Y014728D01*
X010149Y014762D01*
X010112Y014799D01*
X010078Y014839D01*
X010047Y014881D01*
X010019Y014925D01*
X009994Y014971D01*
X009973Y015019D01*
X009956Y015069D01*
X009943Y015119D01*
X009933Y015171D01*
X009927Y015223D01*
X009925Y015275D01*
X003000Y017400D02*
X003000Y018900D01*
X001746Y016634D02*
X001399Y016634D01*
X001746Y016634D02*
X001746Y014666D01*
X001399Y014666D01*
X003125Y002025D02*
X002875Y001775D01*
X002875Y001275D01*
X003125Y001025D01*
X003625Y001025D01*
X003875Y001275D01*
X004125Y001025D01*
X004625Y001025D01*
X004875Y001275D01*
X005125Y001025D01*
X005625Y001025D01*
X005875Y001275D01*
X006125Y001025D01*
X006625Y001025D01*
X006875Y001275D01*
X006875Y001775D01*
X006625Y002025D01*
X006125Y002025D01*
X005875Y001775D01*
X005625Y002025D01*
X005125Y002025D01*
X004875Y001775D01*
X004625Y002025D01*
X004125Y002025D01*
X003875Y001775D01*
X003625Y002025D01*
X003125Y002025D01*
X005641Y000626D02*
X005641Y000279D01*
X007609Y000279D01*
X007609Y000626D01*
X007875Y001150D02*
X008375Y001150D01*
X008625Y001400D01*
X008875Y001150D01*
X009375Y001150D01*
X009625Y001400D01*
X009875Y001150D01*
X010375Y001150D01*
X010625Y001400D01*
X010875Y001150D01*
X011375Y001150D01*
X011625Y001400D01*
X011625Y001900D01*
X011375Y002150D01*
X010875Y002150D01*
X010625Y001900D01*
X010375Y002150D01*
X009875Y002150D01*
X009625Y001900D01*
X009375Y002150D01*
X008875Y002150D01*
X008625Y001900D01*
X008375Y002150D01*
X007875Y002150D01*
X007625Y001900D01*
X007625Y001400D01*
X007875Y001150D01*
X012766Y001246D02*
X012766Y000899D01*
X012766Y001246D02*
X014734Y001246D01*
X014734Y000899D01*
X018750Y009400D02*
X018750Y009900D01*
D16*
X019000Y009750D02*
X019100Y009650D01*
X019000Y009550D01*
X019000Y008750D01*
X019100Y008650D01*
X019000Y008550D01*
X019000Y007750D01*
X019100Y007650D01*
X019000Y007550D01*
X019000Y006750D01*
X019100Y006650D01*
X019000Y006550D01*
X019000Y005750D01*
X019100Y005650D01*
X019000Y005550D01*
X019000Y004750D01*
X019100Y004650D01*
X019000Y004550D01*
X019000Y003750D01*
X019100Y003650D01*
X019000Y003550D01*
X019000Y002750D01*
X019100Y002650D01*
X019000Y002550D01*
X019000Y001750D01*
X019100Y001650D01*
X019000Y001550D01*
X019000Y000650D01*
X020000Y000650D01*
X020000Y001550D01*
X019900Y001650D01*
X020000Y001750D01*
X020000Y002550D01*
X019900Y002650D01*
X020000Y002750D01*
X020000Y003550D01*
X019900Y003650D01*
X020000Y003750D01*
X020000Y004550D01*
X019900Y004650D01*
X020000Y004750D01*
X020000Y005550D01*
X019900Y005650D01*
X020000Y005750D01*
X020000Y006550D01*
X019900Y006650D01*
X020000Y006750D01*
X020000Y007550D01*
X019900Y007650D01*
X020000Y007750D01*
X020000Y008550D01*
X019900Y008650D01*
X020000Y008750D01*
X020000Y009550D01*
X019900Y009650D01*
X020000Y009750D01*
X020000Y010650D01*
X019000Y010650D01*
X019000Y009750D01*
X018238Y008352D02*
X018013Y008352D01*
X018013Y007902D01*
X018013Y008052D02*
X018238Y008052D01*
X018313Y008127D01*
X018313Y008277D01*
X018238Y008352D01*
X018163Y008052D02*
X018313Y007902D01*
X017853Y007902D02*
X017552Y007902D01*
X017552Y008352D01*
X017853Y008352D01*
X017702Y008127D02*
X017552Y008127D01*
X017392Y007902D02*
X017242Y008052D01*
X017092Y007902D01*
X017092Y008352D01*
X016932Y008277D02*
X016857Y008352D01*
X016707Y008352D01*
X016632Y008277D01*
X016632Y007977D01*
X016707Y007902D01*
X016857Y007902D01*
X016932Y007977D01*
X016932Y008277D01*
X016471Y008277D02*
X016471Y008127D01*
X016396Y008052D01*
X016171Y008052D01*
X016171Y007902D02*
X016171Y008352D01*
X016396Y008352D01*
X016471Y008277D01*
X017392Y008352D02*
X017392Y007902D01*
X015131Y006895D02*
X014830Y006895D01*
X014981Y006895D02*
X014981Y007345D01*
X014830Y007195D01*
X014670Y007270D02*
X014595Y007345D01*
X014445Y007345D01*
X014370Y007270D01*
X014370Y007195D01*
X014445Y007120D01*
X014595Y007120D01*
X014670Y007045D01*
X014670Y006970D01*
X014595Y006895D01*
X014445Y006895D01*
X014370Y006970D01*
X013681Y005845D02*
X013530Y005845D01*
X013455Y005770D01*
X013295Y005770D02*
X013220Y005845D01*
X013070Y005845D01*
X012995Y005770D01*
X012995Y005695D01*
X013070Y005620D01*
X013220Y005620D01*
X013295Y005545D01*
X013295Y005470D01*
X013220Y005395D01*
X013070Y005395D01*
X012995Y005470D01*
X013455Y005395D02*
X013756Y005695D01*
X013756Y005770D01*
X013681Y005845D01*
X013756Y005395D02*
X013455Y005395D01*
X013530Y004345D02*
X013455Y004270D01*
X013530Y004345D02*
X013681Y004345D01*
X013756Y004270D01*
X013756Y004195D01*
X013681Y004120D01*
X013756Y004045D01*
X013756Y003970D01*
X013681Y003895D01*
X013530Y003895D01*
X013455Y003970D01*
X013295Y003970D02*
X013220Y003895D01*
X013070Y003895D01*
X012995Y003970D01*
X013070Y004120D02*
X012995Y004195D01*
X012995Y004270D01*
X013070Y004345D01*
X013220Y004345D01*
X013295Y004270D01*
X013220Y004120D02*
X013295Y004045D01*
X013295Y003970D01*
X013220Y004120D02*
X013070Y004120D01*
X013606Y004120D02*
X013681Y004120D01*
X013700Y003339D02*
X013900Y003339D01*
X014150Y003339D02*
X014350Y003339D01*
X014600Y003339D02*
X014800Y003339D01*
X015037Y003339D02*
X016219Y003339D01*
X016219Y002847D01*
X016219Y002750D02*
X016219Y002700D01*
X016219Y002600D02*
X016219Y002550D01*
X016219Y002453D02*
X016219Y001370D01*
X012281Y001370D01*
X012281Y002453D01*
X012281Y002550D02*
X012281Y002600D01*
X012281Y002700D02*
X012281Y002750D01*
X012281Y002847D02*
X012281Y003339D01*
X013463Y003339D01*
X011594Y003339D02*
X011594Y002847D01*
X011594Y002750D02*
X011594Y002700D01*
X011594Y002600D02*
X011594Y002550D01*
X011594Y002453D02*
X011594Y001370D01*
X007656Y001370D01*
X007656Y002453D01*
X007656Y002550D02*
X007656Y002600D01*
X007656Y002700D02*
X007656Y002750D01*
X007656Y002847D02*
X007656Y003339D01*
X008838Y003339D01*
X009075Y003339D02*
X009275Y003339D01*
X009525Y003339D02*
X009725Y003339D01*
X009975Y003339D02*
X010175Y003339D01*
X010412Y003339D02*
X011594Y003339D01*
X007147Y005808D02*
X007147Y005958D01*
X007072Y006033D01*
X007147Y006193D02*
X007147Y006494D01*
X007147Y006343D02*
X006697Y006343D01*
X006847Y006193D01*
X006772Y006033D02*
X006697Y005958D01*
X006697Y005808D01*
X006772Y005733D01*
X007072Y005733D01*
X007147Y005808D01*
X006844Y003339D02*
X005662Y003339D01*
X005425Y003339D02*
X005225Y003339D01*
X004975Y003339D02*
X004775Y003339D01*
X004525Y003339D02*
X004325Y003339D01*
X004088Y003339D02*
X002906Y003339D01*
X002906Y002847D01*
X002906Y002750D02*
X002906Y002700D01*
X002906Y002600D02*
X002906Y002550D01*
X002906Y002453D02*
X002906Y001370D01*
X006844Y001370D01*
X006844Y002453D01*
X006844Y002550D02*
X006844Y002600D01*
X006844Y002700D02*
X006844Y002750D01*
X006844Y002847D02*
X006844Y003339D01*
X002000Y003550D02*
X002000Y002750D01*
X001900Y002650D01*
X002000Y002550D01*
X002000Y001750D01*
X001900Y001650D01*
X002000Y001550D01*
X002000Y000650D01*
X001000Y000650D01*
X001000Y001550D01*
X001100Y001650D01*
X001000Y001750D01*
X001000Y002550D01*
X001100Y002650D01*
X001000Y002750D01*
X001000Y003550D01*
X001100Y003650D01*
X001000Y003750D01*
X001000Y004550D01*
X001100Y004650D01*
X001000Y004750D01*
X001000Y005550D01*
X001100Y005650D01*
X001000Y005750D01*
X001000Y006550D01*
X001100Y006650D01*
X001000Y006750D01*
X001000Y007550D01*
X001100Y007650D01*
X001000Y007750D01*
X001000Y008550D01*
X001100Y008650D01*
X001000Y008750D01*
X001000Y009550D01*
X001100Y009650D01*
X001000Y009750D01*
X001000Y010650D01*
X002000Y010650D01*
X002000Y009750D01*
X001900Y009650D01*
X002000Y009550D01*
X002000Y008750D01*
X001900Y008650D01*
X002000Y008550D01*
X002000Y007750D01*
X001900Y007650D01*
X002000Y007550D01*
X002000Y006750D01*
X001900Y006650D01*
X002000Y006550D01*
X002000Y005750D01*
X001900Y005650D01*
X002000Y005550D01*
X002000Y004750D01*
X001900Y004650D01*
X002000Y004550D01*
X002000Y003750D01*
X001900Y003650D01*
X002000Y003550D01*
X010304Y015050D02*
X010229Y015125D01*
X010304Y015050D02*
X010454Y015050D01*
X010529Y015125D01*
X010529Y015200D01*
X010454Y015275D01*
X010304Y015275D01*
X010229Y015350D01*
X010229Y015425D01*
X010304Y015500D01*
X010454Y015500D01*
X010529Y015425D01*
X010690Y015500D02*
X010690Y015275D01*
X010840Y015350D01*
X010915Y015350D01*
X010990Y015275D01*
X010990Y015125D01*
X010915Y015050D01*
X010765Y015050D01*
X010690Y015125D01*
X010690Y015500D02*
X010990Y015500D01*
X013266Y017166D02*
X015234Y017166D01*
X015234Y018741D01*
X014841Y019134D01*
X015234Y019134D01*
X015234Y018741D01*
X014841Y019134D02*
X013266Y019134D01*
X013266Y017166D01*
X013423Y018150D02*
X013425Y018207D01*
X013431Y018264D01*
X013441Y018320D01*
X013454Y018376D01*
X013472Y018430D01*
X013493Y018483D01*
X013518Y018534D01*
X013546Y018584D01*
X013578Y018631D01*
X013612Y018677D01*
X013650Y018719D01*
X013691Y018759D01*
X013734Y018797D01*
X013780Y018831D01*
X013828Y018861D01*
X013878Y018889D01*
X013930Y018913D01*
X013984Y018933D01*
X014038Y018949D01*
X014094Y018962D01*
X014150Y018971D01*
X014207Y018976D01*
X014264Y018977D01*
X014321Y018974D01*
X014378Y018967D01*
X014434Y018956D01*
X014489Y018942D01*
X014543Y018923D01*
X014596Y018901D01*
X014647Y018876D01*
X014696Y018846D01*
X014743Y018814D01*
X014788Y018778D01*
X014830Y018740D01*
X014869Y018698D01*
X014905Y018654D01*
X014939Y018608D01*
X014969Y018559D01*
X014995Y018509D01*
X015018Y018457D01*
X015037Y018403D01*
X015053Y018348D01*
X015065Y018292D01*
X015073Y018235D01*
X015077Y018179D01*
X015077Y018121D01*
X015073Y018065D01*
X015065Y018008D01*
X015053Y017952D01*
X015037Y017897D01*
X015018Y017843D01*
X014995Y017791D01*
X014969Y017741D01*
X014939Y017692D01*
X014905Y017646D01*
X014869Y017602D01*
X014830Y017560D01*
X014788Y017522D01*
X014743Y017486D01*
X014696Y017454D01*
X014647Y017424D01*
X014596Y017399D01*
X014543Y017377D01*
X014489Y017358D01*
X014434Y017344D01*
X014378Y017333D01*
X014321Y017326D01*
X014264Y017323D01*
X014207Y017324D01*
X014150Y017329D01*
X014094Y017338D01*
X014038Y017351D01*
X013984Y017367D01*
X013930Y017387D01*
X013878Y017411D01*
X013828Y017439D01*
X013780Y017469D01*
X013734Y017503D01*
X013691Y017541D01*
X013650Y017581D01*
X013612Y017623D01*
X013578Y017669D01*
X013546Y017716D01*
X013518Y017766D01*
X013493Y017817D01*
X013472Y017870D01*
X013454Y017924D01*
X013441Y017980D01*
X013431Y018036D01*
X013425Y018093D01*
X013423Y018150D01*
X015252Y019305D02*
X015254Y019319D01*
X015260Y019333D01*
X015268Y019345D01*
X015280Y019353D01*
X015294Y019359D01*
X015308Y019361D01*
X015322Y019359D01*
X015336Y019353D01*
X015348Y019345D01*
X015356Y019333D01*
X015362Y019319D01*
X015364Y019305D01*
X015362Y019291D01*
X015356Y019277D01*
X015348Y019265D01*
X015336Y019257D01*
X015322Y019251D01*
X015308Y019249D01*
X015294Y019251D01*
X015280Y019257D01*
X015268Y019265D01*
X015260Y019277D01*
X015254Y019291D01*
X015252Y019305D01*
X015766Y019134D02*
X017341Y019134D01*
X017734Y018741D01*
X017734Y017166D01*
X015766Y017166D01*
X015766Y019134D01*
X015923Y018150D02*
X015925Y018207D01*
X015931Y018264D01*
X015941Y018320D01*
X015954Y018376D01*
X015972Y018430D01*
X015993Y018483D01*
X016018Y018534D01*
X016046Y018584D01*
X016078Y018631D01*
X016112Y018677D01*
X016150Y018719D01*
X016191Y018759D01*
X016234Y018797D01*
X016280Y018831D01*
X016328Y018861D01*
X016378Y018889D01*
X016430Y018913D01*
X016484Y018933D01*
X016538Y018949D01*
X016594Y018962D01*
X016650Y018971D01*
X016707Y018976D01*
X016764Y018977D01*
X016821Y018974D01*
X016878Y018967D01*
X016934Y018956D01*
X016989Y018942D01*
X017043Y018923D01*
X017096Y018901D01*
X017147Y018876D01*
X017196Y018846D01*
X017243Y018814D01*
X017288Y018778D01*
X017330Y018740D01*
X017369Y018698D01*
X017405Y018654D01*
X017439Y018608D01*
X017469Y018559D01*
X017495Y018509D01*
X017518Y018457D01*
X017537Y018403D01*
X017553Y018348D01*
X017565Y018292D01*
X017573Y018235D01*
X017577Y018179D01*
X017577Y018121D01*
X017573Y018065D01*
X017565Y018008D01*
X017553Y017952D01*
X017537Y017897D01*
X017518Y017843D01*
X017495Y017791D01*
X017469Y017741D01*
X017439Y017692D01*
X017405Y017646D01*
X017369Y017602D01*
X017330Y017560D01*
X017288Y017522D01*
X017243Y017486D01*
X017196Y017454D01*
X017147Y017424D01*
X017096Y017399D01*
X017043Y017377D01*
X016989Y017358D01*
X016934Y017344D01*
X016878Y017333D01*
X016821Y017326D01*
X016764Y017323D01*
X016707Y017324D01*
X016650Y017329D01*
X016594Y017338D01*
X016538Y017351D01*
X016484Y017367D01*
X016430Y017387D01*
X016378Y017411D01*
X016328Y017439D01*
X016280Y017469D01*
X016234Y017503D01*
X016191Y017541D01*
X016150Y017581D01*
X016112Y017623D01*
X016078Y017669D01*
X016046Y017716D01*
X016018Y017766D01*
X015993Y017817D01*
X015972Y017870D01*
X015954Y017924D01*
X015941Y017980D01*
X015931Y018036D01*
X015925Y018093D01*
X015923Y018150D01*
X017341Y019134D02*
X017734Y019134D01*
X017734Y018741D01*
X017752Y019305D02*
X017754Y019319D01*
X017760Y019333D01*
X017768Y019345D01*
X017780Y019353D01*
X017794Y019359D01*
X017808Y019361D01*
X017822Y019359D01*
X017836Y019353D01*
X017848Y019345D01*
X017856Y019333D01*
X017862Y019319D01*
X017864Y019305D01*
X017862Y019291D01*
X017856Y019277D01*
X017848Y019265D01*
X017836Y019257D01*
X017822Y019251D01*
X017808Y019249D01*
X017794Y019251D01*
X017780Y019257D01*
X017768Y019265D01*
X017760Y019277D01*
X017754Y019291D01*
X017752Y019305D01*
X011036Y018150D02*
X010735Y018150D01*
X010961Y018375D01*
X010961Y017925D01*
X010575Y018000D02*
X010500Y017925D01*
X010350Y017925D01*
X010275Y018000D01*
X010350Y018150D02*
X010500Y018150D01*
X010575Y018075D01*
X010575Y018000D01*
X010350Y018150D02*
X010275Y018225D01*
X010275Y018300D01*
X010350Y018375D01*
X010500Y018375D01*
X010575Y018300D01*
X004761Y019050D02*
X004460Y019050D01*
X004611Y019050D02*
X004611Y019500D01*
X004460Y019350D01*
X004300Y019500D02*
X004000Y019500D01*
X004150Y019500D02*
X004150Y019050D01*
D17*
X003032Y018930D02*
X002960Y018876D01*
X002961Y018877D02*
X002918Y018930D01*
X002873Y018981D01*
X002824Y019029D01*
X002773Y019074D01*
X002719Y019117D01*
X002663Y019156D01*
X002605Y019192D01*
X002545Y019225D01*
X002484Y019254D01*
X002420Y019279D01*
X002356Y019301D01*
X002290Y019320D01*
X002223Y019334D01*
X002156Y019345D01*
X002088Y019352D01*
X002020Y019355D01*
X001951Y019354D01*
X001883Y019349D01*
X001815Y019341D01*
X001748Y019328D01*
X001682Y019312D01*
X001617Y019292D01*
X001552Y019269D01*
X001490Y019242D01*
X001429Y019211D01*
X001370Y019177D01*
X001312Y019140D01*
X001257Y019099D01*
X001205Y019055D01*
X001155Y019009D01*
X001108Y018960D01*
X001063Y018908D01*
X001022Y018854D01*
X000983Y018797D01*
X000948Y018738D01*
X000917Y018678D01*
X000889Y018616D01*
X000864Y018552D01*
X000843Y018487D01*
X000826Y018421D01*
X000812Y018354D01*
X000803Y018286D01*
X000797Y018218D01*
X000795Y018150D01*
X000797Y018082D01*
X000803Y018014D01*
X000812Y017946D01*
X000826Y017879D01*
X000843Y017813D01*
X000864Y017748D01*
X000889Y017684D01*
X000917Y017622D01*
X000948Y017562D01*
X000983Y017503D01*
X001022Y017446D01*
X001063Y017392D01*
X001108Y017340D01*
X001155Y017291D01*
X001205Y017245D01*
X001257Y017201D01*
X001312Y017160D01*
X001370Y017123D01*
X001429Y017089D01*
X001490Y017058D01*
X001552Y017031D01*
X001617Y017008D01*
X001682Y016988D01*
X001748Y016972D01*
X001815Y016959D01*
X001883Y016951D01*
X001951Y016946D01*
X002020Y016945D01*
X002088Y016948D01*
X002156Y016955D01*
X002223Y016966D01*
X002290Y016980D01*
X002356Y016999D01*
X002420Y017021D01*
X002484Y017046D01*
X002545Y017075D01*
X002605Y017108D01*
X002663Y017144D01*
X002719Y017183D01*
X002773Y017226D01*
X002824Y017271D01*
X002873Y017319D01*
X002918Y017370D01*
X002961Y017423D01*
X003032Y017370D01*
X003033Y017369D01*
X002989Y017314D01*
X002941Y017261D01*
X002891Y017210D01*
X002838Y017163D01*
X002783Y017119D01*
X002725Y017077D01*
X002665Y017039D01*
X002604Y017004D01*
X002540Y016973D01*
X002475Y016945D01*
X002408Y016921D01*
X002340Y016900D01*
X002271Y016884D01*
X002201Y016871D01*
X002131Y016862D01*
X002060Y016856D01*
X001989Y016855D01*
X001918Y016858D01*
X001847Y016864D01*
X001777Y016874D01*
X001708Y016888D01*
X001639Y016906D01*
X001571Y016928D01*
X001505Y016953D01*
X001440Y016982D01*
X001377Y017015D01*
X001316Y017051D01*
X001257Y017090D01*
X001200Y017132D01*
X001145Y017177D01*
X001093Y017226D01*
X001044Y017277D01*
X000997Y017330D01*
X000954Y017387D01*
X000914Y017445D01*
X000877Y017506D01*
X000843Y017568D01*
X000813Y017632D01*
X000786Y017698D01*
X000763Y017765D01*
X000744Y017834D01*
X000729Y017903D01*
X000717Y017973D01*
X000709Y018044D01*
X000705Y018115D01*
X000705Y018185D01*
X000709Y018256D01*
X000717Y018327D01*
X000729Y018397D01*
X000744Y018466D01*
X000763Y018535D01*
X000786Y018602D01*
X000813Y018668D01*
X000843Y018732D01*
X000877Y018794D01*
X000914Y018855D01*
X000954Y018913D01*
X000997Y018970D01*
X001044Y019023D01*
X001093Y019074D01*
X001145Y019123D01*
X001200Y019168D01*
X001257Y019210D01*
X001316Y019249D01*
X001377Y019285D01*
X001440Y019318D01*
X001505Y019347D01*
X001571Y019372D01*
X001639Y019394D01*
X001708Y019412D01*
X001777Y019426D01*
X001847Y019436D01*
X001918Y019442D01*
X001989Y019445D01*
X002060Y019444D01*
X002131Y019438D01*
X002201Y019429D01*
X002271Y019416D01*
X002340Y019400D01*
X002408Y019379D01*
X002475Y019355D01*
X002540Y019327D01*
X002604Y019296D01*
X002665Y019261D01*
X002725Y019223D01*
X002783Y019181D01*
X002838Y019137D01*
X002891Y019090D01*
X002941Y019039D01*
X002989Y018986D01*
X003033Y018931D01*
X003026Y018926D01*
X002981Y018981D01*
X002934Y019034D01*
X002883Y019085D01*
X002830Y019132D01*
X002774Y019177D01*
X002716Y019218D01*
X002656Y019256D01*
X002594Y019291D01*
X002530Y019322D01*
X002464Y019349D01*
X002397Y019373D01*
X002328Y019393D01*
X002259Y019410D01*
X002189Y019422D01*
X002118Y019431D01*
X002047Y019435D01*
X001976Y019436D01*
X001905Y019432D01*
X001834Y019425D01*
X001763Y019414D01*
X001694Y019399D01*
X001625Y019380D01*
X001557Y019357D01*
X001491Y019331D01*
X001426Y019301D01*
X001364Y019267D01*
X001303Y019231D01*
X001244Y019190D01*
X001187Y019147D01*
X001133Y019100D01*
X001082Y019051D01*
X001034Y018998D01*
X000988Y018944D01*
X000946Y018886D01*
X000907Y018827D01*
X000871Y018765D01*
X000838Y018702D01*
X000810Y018637D01*
X000784Y018570D01*
X000763Y018502D01*
X000745Y018433D01*
X000732Y018363D01*
X000722Y018292D01*
X000716Y018221D01*
X000714Y018150D01*
X000716Y018079D01*
X000722Y018008D01*
X000732Y017937D01*
X000745Y017867D01*
X000763Y017798D01*
X000784Y017730D01*
X000810Y017663D01*
X000838Y017598D01*
X000871Y017535D01*
X000907Y017473D01*
X000946Y017414D01*
X000988Y017356D01*
X001034Y017302D01*
X001082Y017249D01*
X001133Y017200D01*
X001187Y017153D01*
X001244Y017110D01*
X001303Y017069D01*
X001364Y017033D01*
X001426Y016999D01*
X001491Y016969D01*
X001557Y016943D01*
X001625Y016920D01*
X001694Y016901D01*
X001763Y016886D01*
X001834Y016875D01*
X001905Y016868D01*
X001976Y016864D01*
X002047Y016865D01*
X002118Y016869D01*
X002189Y016878D01*
X002259Y016890D01*
X002328Y016907D01*
X002397Y016927D01*
X002464Y016951D01*
X002530Y016978D01*
X002594Y017009D01*
X002656Y017044D01*
X002716Y017082D01*
X002774Y017123D01*
X002830Y017168D01*
X002883Y017215D01*
X002934Y017266D01*
X002981Y017319D01*
X003026Y017374D01*
X003019Y017380D01*
X002974Y017325D01*
X002927Y017272D01*
X002877Y017222D01*
X002824Y017175D01*
X002769Y017131D01*
X002711Y017089D01*
X002652Y017052D01*
X002590Y017017D01*
X002526Y016986D01*
X002461Y016959D01*
X002394Y016935D01*
X002326Y016915D01*
X002257Y016899D01*
X002188Y016887D01*
X002117Y016878D01*
X002047Y016874D01*
X001976Y016873D01*
X001905Y016877D01*
X001835Y016884D01*
X001765Y016895D01*
X001696Y016910D01*
X001628Y016929D01*
X001560Y016951D01*
X001495Y016977D01*
X001430Y017007D01*
X001368Y017040D01*
X001308Y017077D01*
X001249Y017117D01*
X001193Y017160D01*
X001139Y017206D01*
X001089Y017256D01*
X001040Y017307D01*
X000995Y017362D01*
X000953Y017419D01*
X000914Y017478D01*
X000879Y017539D01*
X000846Y017602D01*
X000818Y017667D01*
X000793Y017733D01*
X000772Y017801D01*
X000754Y017869D01*
X000741Y017939D01*
X000731Y018009D01*
X000725Y018079D01*
X000723Y018150D01*
X000725Y018221D01*
X000731Y018291D01*
X000741Y018361D01*
X000754Y018431D01*
X000772Y018499D01*
X000793Y018567D01*
X000818Y018633D01*
X000846Y018698D01*
X000879Y018761D01*
X000914Y018822D01*
X000953Y018881D01*
X000995Y018938D01*
X001040Y018993D01*
X001089Y019044D01*
X001139Y019094D01*
X001193Y019140D01*
X001249Y019183D01*
X001308Y019223D01*
X001368Y019260D01*
X001430Y019293D01*
X001495Y019323D01*
X001560Y019349D01*
X001628Y019371D01*
X001696Y019390D01*
X001765Y019405D01*
X001835Y019416D01*
X001905Y019423D01*
X001976Y019427D01*
X002047Y019426D01*
X002117Y019422D01*
X002188Y019413D01*
X002257Y019401D01*
X002326Y019385D01*
X002394Y019365D01*
X002461Y019341D01*
X002526Y019314D01*
X002590Y019283D01*
X002652Y019248D01*
X002711Y019211D01*
X002769Y019169D01*
X002824Y019125D01*
X002877Y019078D01*
X002927Y019028D01*
X002974Y018975D01*
X003019Y018920D01*
X003011Y018915D01*
X002967Y018970D01*
X002919Y019023D01*
X002869Y019073D01*
X002816Y019121D01*
X002760Y019165D01*
X002702Y019206D01*
X002642Y019243D01*
X002580Y019278D01*
X002516Y019308D01*
X002450Y019335D01*
X002383Y019359D01*
X002315Y019378D01*
X002245Y019394D01*
X002175Y019406D01*
X002105Y019414D01*
X002034Y019418D01*
X001963Y019417D01*
X001892Y019413D01*
X001821Y019405D01*
X001751Y019393D01*
X001682Y019377D01*
X001614Y019358D01*
X001546Y019334D01*
X001481Y019307D01*
X001417Y019276D01*
X001355Y019242D01*
X001295Y019204D01*
X001237Y019162D01*
X001181Y019118D01*
X001128Y019071D01*
X001078Y019020D01*
X001031Y018967D01*
X000986Y018912D01*
X000945Y018854D01*
X000908Y018794D01*
X000873Y018731D01*
X000842Y018667D01*
X000815Y018602D01*
X000792Y018535D01*
X000772Y018466D01*
X000756Y018397D01*
X000744Y018327D01*
X000736Y018256D01*
X000732Y018186D01*
X000732Y018114D01*
X000736Y018044D01*
X000744Y017973D01*
X000756Y017903D01*
X000772Y017834D01*
X000792Y017765D01*
X000815Y017698D01*
X000842Y017633D01*
X000873Y017569D01*
X000908Y017506D01*
X000945Y017446D01*
X000986Y017388D01*
X001031Y017333D01*
X001078Y017280D01*
X001128Y017229D01*
X001181Y017182D01*
X001237Y017138D01*
X001295Y017096D01*
X001355Y017058D01*
X001417Y017024D01*
X001481Y016993D01*
X001546Y016966D01*
X001614Y016942D01*
X001682Y016923D01*
X001751Y016907D01*
X001821Y016895D01*
X001892Y016887D01*
X001963Y016883D01*
X002034Y016882D01*
X002105Y016886D01*
X002175Y016894D01*
X002245Y016906D01*
X002315Y016922D01*
X002383Y016941D01*
X002450Y016965D01*
X002516Y016992D01*
X002580Y017022D01*
X002642Y017057D01*
X002702Y017094D01*
X002760Y017135D01*
X002816Y017179D01*
X002869Y017227D01*
X002919Y017277D01*
X002967Y017330D01*
X003011Y017385D01*
X003004Y017391D01*
X002960Y017336D01*
X002913Y017283D01*
X002863Y017233D01*
X002810Y017186D01*
X002755Y017142D01*
X002697Y017102D01*
X002638Y017064D01*
X002576Y017030D01*
X002512Y017000D01*
X002447Y016973D01*
X002380Y016950D01*
X002312Y016930D01*
X002244Y016915D01*
X002174Y016903D01*
X002104Y016895D01*
X002033Y016891D01*
X001963Y016892D01*
X001892Y016896D01*
X001822Y016904D01*
X001753Y016916D01*
X001684Y016931D01*
X001616Y016951D01*
X001550Y016974D01*
X001485Y017001D01*
X001421Y017032D01*
X001359Y017066D01*
X001300Y017104D01*
X001242Y017145D01*
X001187Y017189D01*
X001134Y017236D01*
X001085Y017286D01*
X001038Y017338D01*
X000994Y017394D01*
X000953Y017451D01*
X000915Y017511D01*
X000881Y017573D01*
X000851Y017636D01*
X000824Y017701D01*
X000800Y017768D01*
X000781Y017836D01*
X000765Y017905D01*
X000753Y017974D01*
X000745Y018044D01*
X000741Y018115D01*
X000741Y018185D01*
X000745Y018256D01*
X000753Y018326D01*
X000765Y018395D01*
X000781Y018464D01*
X000800Y018532D01*
X000824Y018599D01*
X000851Y018664D01*
X000881Y018727D01*
X000915Y018789D01*
X000953Y018849D01*
X000994Y018906D01*
X001038Y018962D01*
X001085Y019014D01*
X001134Y019064D01*
X001187Y019111D01*
X001242Y019155D01*
X001300Y019196D01*
X001359Y019234D01*
X001421Y019268D01*
X001485Y019299D01*
X001550Y019326D01*
X001616Y019349D01*
X001684Y019369D01*
X001753Y019384D01*
X001822Y019396D01*
X001892Y019404D01*
X001963Y019408D01*
X002033Y019409D01*
X002104Y019405D01*
X002174Y019397D01*
X002244Y019385D01*
X002312Y019370D01*
X002380Y019350D01*
X002447Y019327D01*
X002512Y019300D01*
X002576Y019270D01*
X002638Y019236D01*
X002697Y019198D01*
X002755Y019158D01*
X002810Y019114D01*
X002863Y019067D01*
X002913Y019017D01*
X002960Y018964D01*
X003004Y018909D01*
X002997Y018904D01*
X002953Y018959D01*
X002906Y019011D01*
X002857Y019060D01*
X002804Y019107D01*
X002750Y019150D01*
X002692Y019191D01*
X002633Y019228D01*
X002572Y019262D01*
X002508Y019292D01*
X002444Y019319D01*
X002377Y019342D01*
X002310Y019361D01*
X002242Y019376D01*
X002173Y019388D01*
X002103Y019396D01*
X002033Y019400D01*
X001963Y019399D01*
X001893Y019395D01*
X001824Y019387D01*
X001755Y019376D01*
X001686Y019360D01*
X001619Y019341D01*
X001553Y019317D01*
X001488Y019290D01*
X001425Y019260D01*
X001364Y019226D01*
X001305Y019189D01*
X001247Y019148D01*
X001193Y019104D01*
X001141Y019058D01*
X001091Y019008D01*
X001044Y018956D01*
X001001Y018901D01*
X000960Y018844D01*
X000923Y018785D01*
X000889Y018723D01*
X000859Y018660D01*
X000832Y018595D01*
X000809Y018529D01*
X000790Y018462D01*
X000774Y018394D01*
X000762Y018325D01*
X000754Y018255D01*
X000750Y018185D01*
X000750Y018115D01*
X000754Y018045D01*
X000762Y017975D01*
X000774Y017906D01*
X000790Y017838D01*
X000809Y017771D01*
X000832Y017705D01*
X000859Y017640D01*
X000889Y017577D01*
X000923Y017515D01*
X000960Y017456D01*
X001001Y017399D01*
X001044Y017344D01*
X001091Y017292D01*
X001141Y017242D01*
X001193Y017196D01*
X001247Y017152D01*
X001305Y017111D01*
X001364Y017074D01*
X001425Y017040D01*
X001488Y017010D01*
X001553Y016983D01*
X001619Y016959D01*
X001686Y016940D01*
X001755Y016924D01*
X001824Y016913D01*
X001893Y016905D01*
X001963Y016901D01*
X002033Y016900D01*
X002103Y016904D01*
X002173Y016912D01*
X002242Y016924D01*
X002310Y016939D01*
X002377Y016958D01*
X002444Y016981D01*
X002508Y017008D01*
X002572Y017038D01*
X002633Y017072D01*
X002692Y017109D01*
X002750Y017150D01*
X002804Y017193D01*
X002857Y017240D01*
X002906Y017289D01*
X002953Y017341D01*
X002997Y017396D01*
X002990Y017401D01*
X002946Y017347D01*
X002900Y017295D01*
X002851Y017246D01*
X002799Y017200D01*
X002744Y017157D01*
X002687Y017117D01*
X002628Y017080D01*
X002567Y017046D01*
X002505Y017016D01*
X002440Y016990D01*
X002375Y016967D01*
X002308Y016948D01*
X002240Y016932D01*
X002171Y016921D01*
X002102Y016913D01*
X002033Y016909D01*
X001963Y016910D01*
X001894Y016914D01*
X001825Y016921D01*
X001756Y016933D01*
X001689Y016949D01*
X001622Y016968D01*
X001556Y016991D01*
X001492Y017018D01*
X001429Y017048D01*
X001368Y017082D01*
X001310Y017119D01*
X001253Y017159D01*
X001199Y017202D01*
X001147Y017249D01*
X001098Y017298D01*
X001051Y017350D01*
X001008Y017404D01*
X000968Y017461D01*
X000931Y017520D01*
X000897Y017581D01*
X000867Y017644D01*
X000840Y017708D01*
X000817Y017773D01*
X000798Y017840D01*
X000783Y017908D01*
X000771Y017977D01*
X000763Y018046D01*
X000759Y018115D01*
X000759Y018185D01*
X000763Y018254D01*
X000771Y018323D01*
X000783Y018392D01*
X000798Y018460D01*
X000817Y018527D01*
X000840Y018592D01*
X000867Y018656D01*
X000897Y018719D01*
X000931Y018780D01*
X000968Y018839D01*
X001008Y018896D01*
X001051Y018950D01*
X001098Y019002D01*
X001147Y019051D01*
X001199Y019098D01*
X001253Y019141D01*
X001310Y019181D01*
X001368Y019218D01*
X001429Y019252D01*
X001492Y019282D01*
X001556Y019309D01*
X001622Y019332D01*
X001689Y019351D01*
X001756Y019367D01*
X001825Y019379D01*
X001894Y019386D01*
X001963Y019390D01*
X002033Y019391D01*
X002102Y019387D01*
X002171Y019379D01*
X002240Y019368D01*
X002308Y019352D01*
X002375Y019333D01*
X002440Y019310D01*
X002505Y019284D01*
X002567Y019254D01*
X002628Y019220D01*
X002687Y019183D01*
X002744Y019143D01*
X002799Y019100D01*
X002851Y019054D01*
X002900Y019005D01*
X002946Y018953D01*
X002990Y018899D01*
X002983Y018893D01*
X002939Y018947D01*
X002893Y018998D01*
X002844Y019047D01*
X002793Y019093D01*
X002739Y019136D01*
X002682Y019176D01*
X002624Y019212D01*
X002563Y019246D01*
X002501Y019276D01*
X002437Y019302D01*
X002372Y019324D01*
X002306Y019343D01*
X002238Y019359D01*
X002170Y019370D01*
X002102Y019378D01*
X002033Y019382D01*
X001964Y019381D01*
X001895Y019377D01*
X001826Y019370D01*
X001758Y019358D01*
X001691Y019343D01*
X001624Y019323D01*
X001559Y019300D01*
X001496Y019274D01*
X001433Y019244D01*
X001373Y019211D01*
X001315Y019174D01*
X001258Y019134D01*
X001204Y019091D01*
X001153Y019045D01*
X001104Y018996D01*
X001058Y018944D01*
X001015Y018890D01*
X000975Y018834D01*
X000939Y018775D01*
X000905Y018715D01*
X000875Y018653D01*
X000849Y018589D01*
X000826Y018524D01*
X000807Y018457D01*
X000792Y018390D01*
X000780Y018322D01*
X000772Y018253D01*
X000768Y018185D01*
X000768Y018115D01*
X000772Y018047D01*
X000780Y017978D01*
X000792Y017910D01*
X000807Y017843D01*
X000826Y017776D01*
X000849Y017711D01*
X000875Y017647D01*
X000905Y017585D01*
X000939Y017525D01*
X000975Y017466D01*
X001015Y017410D01*
X001058Y017356D01*
X001104Y017304D01*
X001153Y017255D01*
X001204Y017209D01*
X001258Y017166D01*
X001315Y017126D01*
X001373Y017089D01*
X001433Y017056D01*
X001496Y017026D01*
X001559Y017000D01*
X001624Y016977D01*
X001691Y016957D01*
X001758Y016942D01*
X001826Y016930D01*
X001895Y016923D01*
X001964Y016919D01*
X002033Y016918D01*
X002102Y016922D01*
X002170Y016930D01*
X002238Y016941D01*
X002306Y016957D01*
X002372Y016976D01*
X002437Y016998D01*
X002501Y017024D01*
X002563Y017054D01*
X002624Y017088D01*
X002682Y017124D01*
X002739Y017164D01*
X002793Y017207D01*
X002844Y017253D01*
X002893Y017302D01*
X002939Y017353D01*
X002983Y017407D01*
X002975Y017412D01*
X002932Y017358D01*
X002886Y017307D01*
X002836Y017258D01*
X002785Y017212D01*
X002730Y017169D01*
X002673Y017129D01*
X002615Y017093D01*
X002554Y017059D01*
X002491Y017030D01*
X002427Y017004D01*
X002361Y016982D01*
X002294Y016963D01*
X002227Y016948D01*
X002158Y016937D01*
X002089Y016930D01*
X002020Y016927D01*
X001951Y016928D01*
X001881Y016933D01*
X001813Y016941D01*
X001745Y016954D01*
X001677Y016970D01*
X001611Y016991D01*
X001546Y017014D01*
X001482Y017042D01*
X001420Y017073D01*
X001360Y017108D01*
X001302Y017146D01*
X001246Y017187D01*
X001193Y017231D01*
X001142Y017278D01*
X001094Y017328D01*
X001049Y017381D01*
X001007Y017436D01*
X000968Y017493D01*
X000933Y017553D01*
X000901Y017614D01*
X000872Y017677D01*
X000847Y017742D01*
X000826Y017808D01*
X000808Y017875D01*
X000795Y017943D01*
X000785Y018012D01*
X000779Y018081D01*
X000777Y018150D01*
X000779Y018219D01*
X000785Y018288D01*
X000795Y018357D01*
X000808Y018425D01*
X000826Y018492D01*
X000847Y018558D01*
X000872Y018623D01*
X000901Y018686D01*
X000933Y018747D01*
X000968Y018807D01*
X001007Y018864D01*
X001049Y018919D01*
X001094Y018972D01*
X001142Y019022D01*
X001193Y019069D01*
X001246Y019113D01*
X001302Y019154D01*
X001360Y019192D01*
X001420Y019227D01*
X001482Y019258D01*
X001546Y019286D01*
X001611Y019309D01*
X001677Y019330D01*
X001745Y019346D01*
X001813Y019359D01*
X001881Y019367D01*
X001951Y019372D01*
X002020Y019373D01*
X002089Y019370D01*
X002158Y019363D01*
X002227Y019352D01*
X002294Y019337D01*
X002361Y019318D01*
X002427Y019296D01*
X002491Y019270D01*
X002554Y019241D01*
X002615Y019207D01*
X002673Y019171D01*
X002730Y019131D01*
X002785Y019088D01*
X002836Y019042D01*
X002886Y018993D01*
X002932Y018942D01*
X002975Y018888D01*
X002968Y018882D01*
X002925Y018936D01*
X002879Y018987D01*
X002830Y019036D01*
X002779Y019081D01*
X002725Y019124D01*
X002668Y019163D01*
X002610Y019200D01*
X002550Y019233D01*
X002487Y019262D01*
X002424Y019288D01*
X002358Y019310D01*
X002292Y019328D01*
X002225Y019343D01*
X002157Y019354D01*
X002088Y019361D01*
X002020Y019364D01*
X001951Y019363D01*
X001882Y019358D01*
X001814Y019350D01*
X001746Y019337D01*
X001680Y019321D01*
X001614Y019301D01*
X001549Y019277D01*
X001486Y019250D01*
X001425Y019219D01*
X001365Y019185D01*
X001307Y019147D01*
X001252Y019106D01*
X001199Y019062D01*
X001149Y019015D01*
X001101Y018966D01*
X001056Y018914D01*
X001014Y018859D01*
X000976Y018802D01*
X000941Y018743D01*
X000909Y018682D01*
X000880Y018619D01*
X000856Y018555D01*
X000834Y018489D01*
X000817Y018423D01*
X000804Y018355D01*
X000794Y018287D01*
X000788Y018219D01*
X000786Y018150D01*
X000788Y018081D01*
X000794Y018013D01*
X000804Y017945D01*
X000817Y017877D01*
X000834Y017811D01*
X000856Y017745D01*
X000880Y017681D01*
X000909Y017618D01*
X000941Y017557D01*
X000976Y017498D01*
X001014Y017441D01*
X001056Y017386D01*
X001101Y017334D01*
X001149Y017285D01*
X001199Y017238D01*
X001252Y017194D01*
X001307Y017153D01*
X001365Y017115D01*
X001425Y017081D01*
X001486Y017050D01*
X001549Y017023D01*
X001614Y016999D01*
X001680Y016979D01*
X001746Y016963D01*
X001814Y016950D01*
X001882Y016942D01*
X001951Y016937D01*
X002020Y016936D01*
X002088Y016939D01*
X002157Y016946D01*
X002225Y016957D01*
X002292Y016972D01*
X002358Y016990D01*
X002424Y017012D01*
X002487Y017038D01*
X002550Y017067D01*
X002610Y017100D01*
X002668Y017137D01*
X002725Y017176D01*
X002779Y017219D01*
X002830Y017264D01*
X002879Y017313D01*
X002925Y017364D01*
X002968Y017418D01*
X007907Y018930D02*
X007835Y018876D01*
X007836Y018877D02*
X007793Y018930D01*
X007748Y018981D01*
X007699Y019029D01*
X007648Y019074D01*
X007594Y019117D01*
X007538Y019156D01*
X007480Y019192D01*
X007420Y019225D01*
X007359Y019254D01*
X007295Y019279D01*
X007231Y019301D01*
X007165Y019320D01*
X007098Y019334D01*
X007031Y019345D01*
X006963Y019352D01*
X006895Y019355D01*
X006826Y019354D01*
X006758Y019349D01*
X006690Y019341D01*
X006623Y019328D01*
X006557Y019312D01*
X006492Y019292D01*
X006427Y019269D01*
X006365Y019242D01*
X006304Y019211D01*
X006245Y019177D01*
X006187Y019140D01*
X006132Y019099D01*
X006080Y019055D01*
X006030Y019009D01*
X005983Y018960D01*
X005938Y018908D01*
X005897Y018854D01*
X005858Y018797D01*
X005823Y018738D01*
X005792Y018678D01*
X005764Y018616D01*
X005739Y018552D01*
X005718Y018487D01*
X005701Y018421D01*
X005687Y018354D01*
X005678Y018286D01*
X005672Y018218D01*
X005670Y018150D01*
X005672Y018082D01*
X005678Y018014D01*
X005687Y017946D01*
X005701Y017879D01*
X005718Y017813D01*
X005739Y017748D01*
X005764Y017684D01*
X005792Y017622D01*
X005823Y017562D01*
X005858Y017503D01*
X005897Y017446D01*
X005938Y017392D01*
X005983Y017340D01*
X006030Y017291D01*
X006080Y017245D01*
X006132Y017201D01*
X006187Y017160D01*
X006245Y017123D01*
X006304Y017089D01*
X006365Y017058D01*
X006427Y017031D01*
X006492Y017008D01*
X006557Y016988D01*
X006623Y016972D01*
X006690Y016959D01*
X006758Y016951D01*
X006826Y016946D01*
X006895Y016945D01*
X006963Y016948D01*
X007031Y016955D01*
X007098Y016966D01*
X007165Y016980D01*
X007231Y016999D01*
X007295Y017021D01*
X007359Y017046D01*
X007420Y017075D01*
X007480Y017108D01*
X007538Y017144D01*
X007594Y017183D01*
X007648Y017226D01*
X007699Y017271D01*
X007748Y017319D01*
X007793Y017370D01*
X007836Y017423D01*
X007907Y017370D01*
X007908Y017369D01*
X007864Y017314D01*
X007816Y017261D01*
X007766Y017210D01*
X007713Y017163D01*
X007658Y017119D01*
X007600Y017077D01*
X007540Y017039D01*
X007479Y017004D01*
X007415Y016973D01*
X007350Y016945D01*
X007283Y016921D01*
X007215Y016900D01*
X007146Y016884D01*
X007076Y016871D01*
X007006Y016862D01*
X006935Y016856D01*
X006864Y016855D01*
X006793Y016858D01*
X006722Y016864D01*
X006652Y016874D01*
X006583Y016888D01*
X006514Y016906D01*
X006446Y016928D01*
X006380Y016953D01*
X006315Y016982D01*
X006252Y017015D01*
X006191Y017051D01*
X006132Y017090D01*
X006075Y017132D01*
X006020Y017177D01*
X005968Y017226D01*
X005919Y017277D01*
X005872Y017330D01*
X005829Y017387D01*
X005789Y017445D01*
X005752Y017506D01*
X005718Y017568D01*
X005688Y017632D01*
X005661Y017698D01*
X005638Y017765D01*
X005619Y017834D01*
X005604Y017903D01*
X005592Y017973D01*
X005584Y018044D01*
X005580Y018115D01*
X005580Y018185D01*
X005584Y018256D01*
X005592Y018327D01*
X005604Y018397D01*
X005619Y018466D01*
X005638Y018535D01*
X005661Y018602D01*
X005688Y018668D01*
X005718Y018732D01*
X005752Y018794D01*
X005789Y018855D01*
X005829Y018913D01*
X005872Y018970D01*
X005919Y019023D01*
X005968Y019074D01*
X006020Y019123D01*
X006075Y019168D01*
X006132Y019210D01*
X006191Y019249D01*
X006252Y019285D01*
X006315Y019318D01*
X006380Y019347D01*
X006446Y019372D01*
X006514Y019394D01*
X006583Y019412D01*
X006652Y019426D01*
X006722Y019436D01*
X006793Y019442D01*
X006864Y019445D01*
X006935Y019444D01*
X007006Y019438D01*
X007076Y019429D01*
X007146Y019416D01*
X007215Y019400D01*
X007283Y019379D01*
X007350Y019355D01*
X007415Y019327D01*
X007479Y019296D01*
X007540Y019261D01*
X007600Y019223D01*
X007658Y019181D01*
X007713Y019137D01*
X007766Y019090D01*
X007816Y019039D01*
X007864Y018986D01*
X007908Y018931D01*
X007901Y018926D01*
X007856Y018981D01*
X007809Y019034D01*
X007758Y019085D01*
X007705Y019132D01*
X007649Y019177D01*
X007591Y019218D01*
X007531Y019256D01*
X007469Y019291D01*
X007405Y019322D01*
X007339Y019349D01*
X007272Y019373D01*
X007203Y019393D01*
X007134Y019410D01*
X007064Y019422D01*
X006993Y019431D01*
X006922Y019435D01*
X006851Y019436D01*
X006780Y019432D01*
X006709Y019425D01*
X006638Y019414D01*
X006569Y019399D01*
X006500Y019380D01*
X006432Y019357D01*
X006366Y019331D01*
X006301Y019301D01*
X006239Y019267D01*
X006178Y019231D01*
X006119Y019190D01*
X006062Y019147D01*
X006008Y019100D01*
X005957Y019051D01*
X005909Y018998D01*
X005863Y018944D01*
X005821Y018886D01*
X005782Y018827D01*
X005746Y018765D01*
X005713Y018702D01*
X005685Y018637D01*
X005659Y018570D01*
X005638Y018502D01*
X005620Y018433D01*
X005607Y018363D01*
X005597Y018292D01*
X005591Y018221D01*
X005589Y018150D01*
X005591Y018079D01*
X005597Y018008D01*
X005607Y017937D01*
X005620Y017867D01*
X005638Y017798D01*
X005659Y017730D01*
X005685Y017663D01*
X005713Y017598D01*
X005746Y017535D01*
X005782Y017473D01*
X005821Y017414D01*
X005863Y017356D01*
X005909Y017302D01*
X005957Y017249D01*
X006008Y017200D01*
X006062Y017153D01*
X006119Y017110D01*
X006178Y017069D01*
X006239Y017033D01*
X006301Y016999D01*
X006366Y016969D01*
X006432Y016943D01*
X006500Y016920D01*
X006569Y016901D01*
X006638Y016886D01*
X006709Y016875D01*
X006780Y016868D01*
X006851Y016864D01*
X006922Y016865D01*
X006993Y016869D01*
X007064Y016878D01*
X007134Y016890D01*
X007203Y016907D01*
X007272Y016927D01*
X007339Y016951D01*
X007405Y016978D01*
X007469Y017009D01*
X007531Y017044D01*
X007591Y017082D01*
X007649Y017123D01*
X007705Y017168D01*
X007758Y017215D01*
X007809Y017266D01*
X007856Y017319D01*
X007901Y017374D01*
X007894Y017380D01*
X007849Y017325D01*
X007802Y017272D01*
X007752Y017222D01*
X007699Y017175D01*
X007644Y017131D01*
X007586Y017089D01*
X007527Y017052D01*
X007465Y017017D01*
X007401Y016986D01*
X007336Y016959D01*
X007269Y016935D01*
X007201Y016915D01*
X007132Y016899D01*
X007063Y016887D01*
X006992Y016878D01*
X006922Y016874D01*
X006851Y016873D01*
X006780Y016877D01*
X006710Y016884D01*
X006640Y016895D01*
X006571Y016910D01*
X006503Y016929D01*
X006435Y016951D01*
X006370Y016977D01*
X006305Y017007D01*
X006243Y017040D01*
X006183Y017077D01*
X006124Y017117D01*
X006068Y017160D01*
X006014Y017206D01*
X005964Y017256D01*
X005915Y017307D01*
X005870Y017362D01*
X005828Y017419D01*
X005789Y017478D01*
X005754Y017539D01*
X005721Y017602D01*
X005693Y017667D01*
X005668Y017733D01*
X005647Y017801D01*
X005629Y017869D01*
X005616Y017939D01*
X005606Y018009D01*
X005600Y018079D01*
X005598Y018150D01*
X005600Y018221D01*
X005606Y018291D01*
X005616Y018361D01*
X005629Y018431D01*
X005647Y018499D01*
X005668Y018567D01*
X005693Y018633D01*
X005721Y018698D01*
X005754Y018761D01*
X005789Y018822D01*
X005828Y018881D01*
X005870Y018938D01*
X005915Y018993D01*
X005964Y019044D01*
X006014Y019094D01*
X006068Y019140D01*
X006124Y019183D01*
X006183Y019223D01*
X006243Y019260D01*
X006305Y019293D01*
X006370Y019323D01*
X006435Y019349D01*
X006503Y019371D01*
X006571Y019390D01*
X006640Y019405D01*
X006710Y019416D01*
X006780Y019423D01*
X006851Y019427D01*
X006922Y019426D01*
X006992Y019422D01*
X007063Y019413D01*
X007132Y019401D01*
X007201Y019385D01*
X007269Y019365D01*
X007336Y019341D01*
X007401Y019314D01*
X007465Y019283D01*
X007527Y019248D01*
X007586Y019211D01*
X007644Y019169D01*
X007699Y019125D01*
X007752Y019078D01*
X007802Y019028D01*
X007849Y018975D01*
X007894Y018920D01*
X007886Y018915D01*
X007842Y018970D01*
X007794Y019023D01*
X007744Y019073D01*
X007691Y019121D01*
X007635Y019165D01*
X007577Y019206D01*
X007517Y019243D01*
X007455Y019278D01*
X007391Y019308D01*
X007325Y019335D01*
X007258Y019359D01*
X007190Y019378D01*
X007120Y019394D01*
X007050Y019406D01*
X006980Y019414D01*
X006909Y019418D01*
X006838Y019417D01*
X006767Y019413D01*
X006696Y019405D01*
X006626Y019393D01*
X006557Y019377D01*
X006489Y019358D01*
X006421Y019334D01*
X006356Y019307D01*
X006292Y019276D01*
X006230Y019242D01*
X006170Y019204D01*
X006112Y019162D01*
X006056Y019118D01*
X006003Y019071D01*
X005953Y019020D01*
X005906Y018967D01*
X005861Y018912D01*
X005820Y018854D01*
X005783Y018794D01*
X005748Y018731D01*
X005717Y018667D01*
X005690Y018602D01*
X005667Y018535D01*
X005647Y018466D01*
X005631Y018397D01*
X005619Y018327D01*
X005611Y018256D01*
X005607Y018186D01*
X005607Y018114D01*
X005611Y018044D01*
X005619Y017973D01*
X005631Y017903D01*
X005647Y017834D01*
X005667Y017765D01*
X005690Y017698D01*
X005717Y017633D01*
X005748Y017569D01*
X005783Y017506D01*
X005820Y017446D01*
X005861Y017388D01*
X005906Y017333D01*
X005953Y017280D01*
X006003Y017229D01*
X006056Y017182D01*
X006112Y017138D01*
X006170Y017096D01*
X006230Y017058D01*
X006292Y017024D01*
X006356Y016993D01*
X006421Y016966D01*
X006489Y016942D01*
X006557Y016923D01*
X006626Y016907D01*
X006696Y016895D01*
X006767Y016887D01*
X006838Y016883D01*
X006909Y016882D01*
X006980Y016886D01*
X007050Y016894D01*
X007120Y016906D01*
X007190Y016922D01*
X007258Y016941D01*
X007325Y016965D01*
X007391Y016992D01*
X007455Y017022D01*
X007517Y017057D01*
X007577Y017094D01*
X007635Y017135D01*
X007691Y017179D01*
X007744Y017227D01*
X007794Y017277D01*
X007842Y017330D01*
X007886Y017385D01*
X007879Y017391D01*
X007835Y017336D01*
X007788Y017283D01*
X007738Y017233D01*
X007685Y017186D01*
X007630Y017142D01*
X007572Y017102D01*
X007513Y017064D01*
X007451Y017030D01*
X007387Y017000D01*
X007322Y016973D01*
X007255Y016950D01*
X007187Y016930D01*
X007119Y016915D01*
X007049Y016903D01*
X006979Y016895D01*
X006908Y016891D01*
X006838Y016892D01*
X006767Y016896D01*
X006697Y016904D01*
X006628Y016916D01*
X006559Y016931D01*
X006491Y016951D01*
X006425Y016974D01*
X006360Y017001D01*
X006296Y017032D01*
X006234Y017066D01*
X006175Y017104D01*
X006117Y017145D01*
X006062Y017189D01*
X006009Y017236D01*
X005960Y017286D01*
X005913Y017338D01*
X005869Y017394D01*
X005828Y017451D01*
X005790Y017511D01*
X005756Y017573D01*
X005726Y017636D01*
X005699Y017701D01*
X005675Y017768D01*
X005656Y017836D01*
X005640Y017905D01*
X005628Y017974D01*
X005620Y018044D01*
X005616Y018115D01*
X005616Y018185D01*
X005620Y018256D01*
X005628Y018326D01*
X005640Y018395D01*
X005656Y018464D01*
X005675Y018532D01*
X005699Y018599D01*
X005726Y018664D01*
X005756Y018727D01*
X005790Y018789D01*
X005828Y018849D01*
X005869Y018906D01*
X005913Y018962D01*
X005960Y019014D01*
X006009Y019064D01*
X006062Y019111D01*
X006117Y019155D01*
X006175Y019196D01*
X006234Y019234D01*
X006296Y019268D01*
X006360Y019299D01*
X006425Y019326D01*
X006491Y019349D01*
X006559Y019369D01*
X006628Y019384D01*
X006697Y019396D01*
X006767Y019404D01*
X006838Y019408D01*
X006908Y019409D01*
X006979Y019405D01*
X007049Y019397D01*
X007119Y019385D01*
X007187Y019370D01*
X007255Y019350D01*
X007322Y019327D01*
X007387Y019300D01*
X007451Y019270D01*
X007513Y019236D01*
X007572Y019198D01*
X007630Y019158D01*
X007685Y019114D01*
X007738Y019067D01*
X007788Y019017D01*
X007835Y018964D01*
X007879Y018909D01*
X007872Y018904D01*
X007828Y018959D01*
X007781Y019011D01*
X007732Y019060D01*
X007679Y019107D01*
X007625Y019150D01*
X007567Y019191D01*
X007508Y019228D01*
X007447Y019262D01*
X007383Y019292D01*
X007319Y019319D01*
X007252Y019342D01*
X007185Y019361D01*
X007117Y019376D01*
X007048Y019388D01*
X006978Y019396D01*
X006908Y019400D01*
X006838Y019399D01*
X006768Y019395D01*
X006699Y019387D01*
X006630Y019376D01*
X006561Y019360D01*
X006494Y019341D01*
X006428Y019317D01*
X006363Y019290D01*
X006300Y019260D01*
X006239Y019226D01*
X006180Y019189D01*
X006122Y019148D01*
X006068Y019104D01*
X006016Y019058D01*
X005966Y019008D01*
X005919Y018956D01*
X005876Y018901D01*
X005835Y018844D01*
X005798Y018785D01*
X005764Y018723D01*
X005734Y018660D01*
X005707Y018595D01*
X005684Y018529D01*
X005665Y018462D01*
X005649Y018394D01*
X005637Y018325D01*
X005629Y018255D01*
X005625Y018185D01*
X005625Y018115D01*
X005629Y018045D01*
X005637Y017975D01*
X005649Y017906D01*
X005665Y017838D01*
X005684Y017771D01*
X005707Y017705D01*
X005734Y017640D01*
X005764Y017577D01*
X005798Y017515D01*
X005835Y017456D01*
X005876Y017399D01*
X005919Y017344D01*
X005966Y017292D01*
X006016Y017242D01*
X006068Y017196D01*
X006122Y017152D01*
X006180Y017111D01*
X006239Y017074D01*
X006300Y017040D01*
X006363Y017010D01*
X006428Y016983D01*
X006494Y016959D01*
X006561Y016940D01*
X006630Y016924D01*
X006699Y016913D01*
X006768Y016905D01*
X006838Y016901D01*
X006908Y016900D01*
X006978Y016904D01*
X007048Y016912D01*
X007117Y016924D01*
X007185Y016939D01*
X007252Y016958D01*
X007319Y016981D01*
X007383Y017008D01*
X007447Y017038D01*
X007508Y017072D01*
X007567Y017109D01*
X007625Y017150D01*
X007679Y017193D01*
X007732Y017240D01*
X007781Y017289D01*
X007828Y017341D01*
X007872Y017396D01*
X007865Y017401D01*
X007821Y017347D01*
X007775Y017295D01*
X007726Y017246D01*
X007674Y017200D01*
X007619Y017157D01*
X007562Y017117D01*
X007503Y017080D01*
X007442Y017046D01*
X007380Y017016D01*
X007315Y016990D01*
X007250Y016967D01*
X007183Y016948D01*
X007115Y016932D01*
X007046Y016921D01*
X006977Y016913D01*
X006908Y016909D01*
X006838Y016910D01*
X006769Y016914D01*
X006700Y016921D01*
X006631Y016933D01*
X006564Y016949D01*
X006497Y016968D01*
X006431Y016991D01*
X006367Y017018D01*
X006304Y017048D01*
X006243Y017082D01*
X006185Y017119D01*
X006128Y017159D01*
X006074Y017202D01*
X006022Y017249D01*
X005973Y017298D01*
X005926Y017350D01*
X005883Y017404D01*
X005843Y017461D01*
X005806Y017520D01*
X005772Y017581D01*
X005742Y017644D01*
X005715Y017708D01*
X005692Y017773D01*
X005673Y017840D01*
X005658Y017908D01*
X005646Y017977D01*
X005638Y018046D01*
X005634Y018115D01*
X005634Y018185D01*
X005638Y018254D01*
X005646Y018323D01*
X005658Y018392D01*
X005673Y018460D01*
X005692Y018527D01*
X005715Y018592D01*
X005742Y018656D01*
X005772Y018719D01*
X005806Y018780D01*
X005843Y018839D01*
X005883Y018896D01*
X005926Y018950D01*
X005973Y019002D01*
X006022Y019051D01*
X006074Y019098D01*
X006128Y019141D01*
X006185Y019181D01*
X006243Y019218D01*
X006304Y019252D01*
X006367Y019282D01*
X006431Y019309D01*
X006497Y019332D01*
X006564Y019351D01*
X006631Y019367D01*
X006700Y019379D01*
X006769Y019386D01*
X006838Y019390D01*
X006908Y019391D01*
X006977Y019387D01*
X007046Y019379D01*
X007115Y019368D01*
X007183Y019352D01*
X007250Y019333D01*
X007315Y019310D01*
X007380Y019284D01*
X007442Y019254D01*
X007503Y019220D01*
X007562Y019183D01*
X007619Y019143D01*
X007674Y019100D01*
X007726Y019054D01*
X007775Y019005D01*
X007821Y018953D01*
X007865Y018899D01*
X007858Y018893D01*
X007814Y018947D01*
X007768Y018998D01*
X007719Y019047D01*
X007668Y019093D01*
X007614Y019136D01*
X007557Y019176D01*
X007499Y019212D01*
X007438Y019246D01*
X007376Y019276D01*
X007312Y019302D01*
X007247Y019324D01*
X007181Y019343D01*
X007113Y019359D01*
X007045Y019370D01*
X006977Y019378D01*
X006908Y019382D01*
X006839Y019381D01*
X006770Y019377D01*
X006701Y019370D01*
X006633Y019358D01*
X006566Y019343D01*
X006499Y019323D01*
X006434Y019300D01*
X006371Y019274D01*
X006308Y019244D01*
X006248Y019211D01*
X006190Y019174D01*
X006133Y019134D01*
X006079Y019091D01*
X006028Y019045D01*
X005979Y018996D01*
X005933Y018944D01*
X005890Y018890D01*
X005850Y018834D01*
X005814Y018775D01*
X005780Y018715D01*
X005750Y018653D01*
X005724Y018589D01*
X005701Y018524D01*
X005682Y018457D01*
X005667Y018390D01*
X005655Y018322D01*
X005647Y018253D01*
X005643Y018185D01*
X005643Y018115D01*
X005647Y018047D01*
X005655Y017978D01*
X005667Y017910D01*
X005682Y017843D01*
X005701Y017776D01*
X005724Y017711D01*
X005750Y017647D01*
X005780Y017585D01*
X005814Y017525D01*
X005850Y017466D01*
X005890Y017410D01*
X005933Y017356D01*
X005979Y017304D01*
X006028Y017255D01*
X006079Y017209D01*
X006133Y017166D01*
X006190Y017126D01*
X006248Y017089D01*
X006308Y017056D01*
X006371Y017026D01*
X006434Y017000D01*
X006499Y016977D01*
X006566Y016957D01*
X006633Y016942D01*
X006701Y016930D01*
X006770Y016923D01*
X006839Y016919D01*
X006908Y016918D01*
X006977Y016922D01*
X007045Y016930D01*
X007113Y016941D01*
X007181Y016957D01*
X007247Y016976D01*
X007312Y016998D01*
X007376Y017024D01*
X007438Y017054D01*
X007499Y017088D01*
X007557Y017124D01*
X007614Y017164D01*
X007668Y017207D01*
X007719Y017253D01*
X007768Y017302D01*
X007814Y017353D01*
X007858Y017407D01*
X007850Y017412D01*
X007807Y017358D01*
X007761Y017307D01*
X007711Y017258D01*
X007660Y017212D01*
X007605Y017169D01*
X007548Y017129D01*
X007490Y017093D01*
X007429Y017059D01*
X007366Y017030D01*
X007302Y017004D01*
X007236Y016982D01*
X007169Y016963D01*
X007102Y016948D01*
X007033Y016937D01*
X006964Y016930D01*
X006895Y016927D01*
X006826Y016928D01*
X006756Y016933D01*
X006688Y016941D01*
X006620Y016954D01*
X006552Y016970D01*
X006486Y016991D01*
X006421Y017014D01*
X006357Y017042D01*
X006295Y017073D01*
X006235Y017108D01*
X006177Y017146D01*
X006121Y017187D01*
X006068Y017231D01*
X006017Y017278D01*
X005969Y017328D01*
X005924Y017381D01*
X005882Y017436D01*
X005843Y017493D01*
X005808Y017553D01*
X005776Y017614D01*
X005747Y017677D01*
X005722Y017742D01*
X005701Y017808D01*
X005683Y017875D01*
X005670Y017943D01*
X005660Y018012D01*
X005654Y018081D01*
X005652Y018150D01*
X005654Y018219D01*
X005660Y018288D01*
X005670Y018357D01*
X005683Y018425D01*
X005701Y018492D01*
X005722Y018558D01*
X005747Y018623D01*
X005776Y018686D01*
X005808Y018747D01*
X005843Y018807D01*
X005882Y018864D01*
X005924Y018919D01*
X005969Y018972D01*
X006017Y019022D01*
X006068Y019069D01*
X006121Y019113D01*
X006177Y019154D01*
X006235Y019192D01*
X006295Y019227D01*
X006357Y019258D01*
X006421Y019286D01*
X006486Y019309D01*
X006552Y019330D01*
X006620Y019346D01*
X006688Y019359D01*
X006756Y019367D01*
X006826Y019372D01*
X006895Y019373D01*
X006964Y019370D01*
X007033Y019363D01*
X007102Y019352D01*
X007169Y019337D01*
X007236Y019318D01*
X007302Y019296D01*
X007366Y019270D01*
X007429Y019241D01*
X007490Y019207D01*
X007548Y019171D01*
X007605Y019131D01*
X007660Y019088D01*
X007711Y019042D01*
X007761Y018993D01*
X007807Y018942D01*
X007850Y018888D01*
X007843Y018882D01*
X007800Y018936D01*
X007754Y018987D01*
X007705Y019036D01*
X007654Y019081D01*
X007600Y019124D01*
X007543Y019163D01*
X007485Y019200D01*
X007425Y019233D01*
X007362Y019262D01*
X007299Y019288D01*
X007233Y019310D01*
X007167Y019328D01*
X007100Y019343D01*
X007032Y019354D01*
X006963Y019361D01*
X006895Y019364D01*
X006826Y019363D01*
X006757Y019358D01*
X006689Y019350D01*
X006621Y019337D01*
X006555Y019321D01*
X006489Y019301D01*
X006424Y019277D01*
X006361Y019250D01*
X006300Y019219D01*
X006240Y019185D01*
X006182Y019147D01*
X006127Y019106D01*
X006074Y019062D01*
X006024Y019015D01*
X005976Y018966D01*
X005931Y018914D01*
X005889Y018859D01*
X005851Y018802D01*
X005816Y018743D01*
X005784Y018682D01*
X005755Y018619D01*
X005731Y018555D01*
X005709Y018489D01*
X005692Y018423D01*
X005679Y018355D01*
X005669Y018287D01*
X005663Y018219D01*
X005661Y018150D01*
X005663Y018081D01*
X005669Y018013D01*
X005679Y017945D01*
X005692Y017877D01*
X005709Y017811D01*
X005731Y017745D01*
X005755Y017681D01*
X005784Y017618D01*
X005816Y017557D01*
X005851Y017498D01*
X005889Y017441D01*
X005931Y017386D01*
X005976Y017334D01*
X006024Y017285D01*
X006074Y017238D01*
X006127Y017194D01*
X006182Y017153D01*
X006240Y017115D01*
X006300Y017081D01*
X006361Y017050D01*
X006424Y017023D01*
X006489Y016999D01*
X006555Y016979D01*
X006621Y016963D01*
X006689Y016950D01*
X006757Y016942D01*
X006826Y016937D01*
X006895Y016936D01*
X006963Y016939D01*
X007032Y016946D01*
X007100Y016957D01*
X007167Y016972D01*
X007233Y016990D01*
X007299Y017012D01*
X007362Y017038D01*
X007425Y017067D01*
X007485Y017100D01*
X007543Y017137D01*
X007600Y017176D01*
X007654Y017219D01*
X007705Y017264D01*
X007754Y017313D01*
X007800Y017364D01*
X007843Y017418D01*
D18*
X003775Y004436D02*
X003518Y004436D01*
X003390Y004307D01*
X003390Y003793D01*
X003518Y003665D01*
X003775Y003665D01*
X003904Y003793D01*
X003904Y004307D02*
X003775Y004436D01*
X010265Y004054D02*
X010265Y003540D01*
X010265Y003925D02*
X010779Y003925D01*
X010779Y004054D02*
X010779Y003540D01*
X010779Y004054D02*
X010522Y004311D01*
X010265Y004054D01*
X016515Y003186D02*
X016515Y002415D01*
X016900Y002415D01*
X017029Y002543D01*
X017029Y002672D01*
X016900Y002800D01*
X016515Y002800D01*
X016900Y002800D02*
X017029Y002929D01*
X017029Y003057D01*
X016900Y003186D01*
X016515Y003186D01*
M02*
