G75*
G70*
%OFA0B0*%
%FSLAX24Y24*%
%IPPOS*%
%LPD*%
%AMOC8*
5,1,8,0,0,1.08239X$1,22.5*
%
%ADD10C,0.0000*%
%ADD11C,0.0100*%
%ADD12C,0.1142*%
%ADD13C,0.0788*%
%ADD14OC8,0.0670*%
%ADD15C,0.0640*%
%ADD16OC8,0.0560*%
%ADD17R,0.0830X0.0630*%
%ADD18R,0.0830X0.1540*%
%ADD19C,0.0640*%
%ADD20OC8,0.0700*%
%ADD21C,0.0780*%
%ADD22R,0.0555X0.0555*%
%ADD23C,0.0555*%
%ADD24C,0.0780*%
%ADD25R,0.0780X0.0780*%
%ADD26C,0.0591*%
D10*
X000750Y000138D02*
X000750Y010995D01*
X020252Y010995D01*
X020252Y000138D01*
X000750Y000138D01*
X000750Y000150D02*
X000750Y019650D01*
X020250Y019650D01*
X020250Y000150D01*
X000750Y000150D01*
X008574Y012025D02*
X008576Y012072D01*
X008582Y012118D01*
X008592Y012164D01*
X008605Y012209D01*
X008623Y012252D01*
X008644Y012294D01*
X008668Y012334D01*
X008696Y012371D01*
X008727Y012406D01*
X008761Y012439D01*
X008797Y012468D01*
X008836Y012494D01*
X008877Y012517D01*
X008920Y012536D01*
X008964Y012552D01*
X009009Y012564D01*
X009055Y012572D01*
X009102Y012576D01*
X009148Y012576D01*
X009195Y012572D01*
X009241Y012564D01*
X009286Y012552D01*
X009330Y012536D01*
X009373Y012517D01*
X009414Y012494D01*
X009453Y012468D01*
X009489Y012439D01*
X009523Y012406D01*
X009554Y012371D01*
X009582Y012334D01*
X009606Y012294D01*
X009627Y012252D01*
X009645Y012209D01*
X009658Y012164D01*
X009668Y012118D01*
X009674Y012072D01*
X009676Y012025D01*
X009674Y011978D01*
X009668Y011932D01*
X009658Y011886D01*
X009645Y011841D01*
X009627Y011798D01*
X009606Y011756D01*
X009582Y011716D01*
X009554Y011679D01*
X009523Y011644D01*
X009489Y011611D01*
X009453Y011582D01*
X009414Y011556D01*
X009373Y011533D01*
X009330Y011514D01*
X009286Y011498D01*
X009241Y011486D01*
X009195Y011478D01*
X009148Y011474D01*
X009102Y011474D01*
X009055Y011478D01*
X009009Y011486D01*
X008964Y011498D01*
X008920Y011514D01*
X008877Y011533D01*
X008836Y011556D01*
X008797Y011582D01*
X008761Y011611D01*
X008727Y011644D01*
X008696Y011679D01*
X008668Y011716D01*
X008644Y011756D01*
X008623Y011798D01*
X008605Y011841D01*
X008592Y011886D01*
X008582Y011932D01*
X008576Y011978D01*
X008574Y012025D01*
X006574Y013900D02*
X006576Y013947D01*
X006582Y013993D01*
X006592Y014039D01*
X006605Y014084D01*
X006623Y014127D01*
X006644Y014169D01*
X006668Y014209D01*
X006696Y014246D01*
X006727Y014281D01*
X006761Y014314D01*
X006797Y014343D01*
X006836Y014369D01*
X006877Y014392D01*
X006920Y014411D01*
X006964Y014427D01*
X007009Y014439D01*
X007055Y014447D01*
X007102Y014451D01*
X007148Y014451D01*
X007195Y014447D01*
X007241Y014439D01*
X007286Y014427D01*
X007330Y014411D01*
X007373Y014392D01*
X007414Y014369D01*
X007453Y014343D01*
X007489Y014314D01*
X007523Y014281D01*
X007554Y014246D01*
X007582Y014209D01*
X007606Y014169D01*
X007627Y014127D01*
X007645Y014084D01*
X007658Y014039D01*
X007668Y013993D01*
X007674Y013947D01*
X007676Y013900D01*
X007674Y013853D01*
X007668Y013807D01*
X007658Y013761D01*
X007645Y013716D01*
X007627Y013673D01*
X007606Y013631D01*
X007582Y013591D01*
X007554Y013554D01*
X007523Y013519D01*
X007489Y013486D01*
X007453Y013457D01*
X007414Y013431D01*
X007373Y013408D01*
X007330Y013389D01*
X007286Y013373D01*
X007241Y013361D01*
X007195Y013353D01*
X007148Y013349D01*
X007102Y013349D01*
X007055Y013353D01*
X007009Y013361D01*
X006964Y013373D01*
X006920Y013389D01*
X006877Y013408D01*
X006836Y013431D01*
X006797Y013457D01*
X006761Y013486D01*
X006727Y013519D01*
X006696Y013554D01*
X006668Y013591D01*
X006644Y013631D01*
X006623Y013673D01*
X006605Y013716D01*
X006592Y013761D01*
X006582Y013807D01*
X006576Y013853D01*
X006574Y013900D01*
X001074Y013900D02*
X001076Y013947D01*
X001082Y013993D01*
X001092Y014039D01*
X001105Y014084D01*
X001123Y014127D01*
X001144Y014169D01*
X001168Y014209D01*
X001196Y014246D01*
X001227Y014281D01*
X001261Y014314D01*
X001297Y014343D01*
X001336Y014369D01*
X001377Y014392D01*
X001420Y014411D01*
X001464Y014427D01*
X001509Y014439D01*
X001555Y014447D01*
X001602Y014451D01*
X001648Y014451D01*
X001695Y014447D01*
X001741Y014439D01*
X001786Y014427D01*
X001830Y014411D01*
X001873Y014392D01*
X001914Y014369D01*
X001953Y014343D01*
X001989Y014314D01*
X002023Y014281D01*
X002054Y014246D01*
X002082Y014209D01*
X002106Y014169D01*
X002127Y014127D01*
X002145Y014084D01*
X002158Y014039D01*
X002168Y013993D01*
X002174Y013947D01*
X002176Y013900D01*
X002174Y013853D01*
X002168Y013807D01*
X002158Y013761D01*
X002145Y013716D01*
X002127Y013673D01*
X002106Y013631D01*
X002082Y013591D01*
X002054Y013554D01*
X002023Y013519D01*
X001989Y013486D01*
X001953Y013457D01*
X001914Y013431D01*
X001873Y013408D01*
X001830Y013389D01*
X001786Y013373D01*
X001741Y013361D01*
X001695Y013353D01*
X001648Y013349D01*
X001602Y013349D01*
X001555Y013353D01*
X001509Y013361D01*
X001464Y013373D01*
X001420Y013389D01*
X001377Y013408D01*
X001336Y013431D01*
X001297Y013457D01*
X001261Y013486D01*
X001227Y013519D01*
X001196Y013554D01*
X001168Y013591D01*
X001144Y013631D01*
X001123Y013673D01*
X001105Y013716D01*
X001092Y013761D01*
X001082Y013807D01*
X001076Y013853D01*
X001074Y013900D01*
X011449Y012025D02*
X011451Y012072D01*
X011457Y012118D01*
X011467Y012164D01*
X011480Y012209D01*
X011498Y012252D01*
X011519Y012294D01*
X011543Y012334D01*
X011571Y012371D01*
X011602Y012406D01*
X011636Y012439D01*
X011672Y012468D01*
X011711Y012494D01*
X011752Y012517D01*
X011795Y012536D01*
X011839Y012552D01*
X011884Y012564D01*
X011930Y012572D01*
X011977Y012576D01*
X012023Y012576D01*
X012070Y012572D01*
X012116Y012564D01*
X012161Y012552D01*
X012205Y012536D01*
X012248Y012517D01*
X012289Y012494D01*
X012328Y012468D01*
X012364Y012439D01*
X012398Y012406D01*
X012429Y012371D01*
X012457Y012334D01*
X012481Y012294D01*
X012502Y012252D01*
X012520Y012209D01*
X012533Y012164D01*
X012543Y012118D01*
X012549Y012072D01*
X012551Y012025D01*
X012549Y011978D01*
X012543Y011932D01*
X012533Y011886D01*
X012520Y011841D01*
X012502Y011798D01*
X012481Y011756D01*
X012457Y011716D01*
X012429Y011679D01*
X012398Y011644D01*
X012364Y011611D01*
X012328Y011582D01*
X012289Y011556D01*
X012248Y011533D01*
X012205Y011514D01*
X012161Y011498D01*
X012116Y011486D01*
X012070Y011478D01*
X012023Y011474D01*
X011977Y011474D01*
X011930Y011478D01*
X011884Y011486D01*
X011839Y011498D01*
X011795Y011514D01*
X011752Y011533D01*
X011711Y011556D01*
X011672Y011582D01*
X011636Y011611D01*
X011602Y011644D01*
X011571Y011679D01*
X011543Y011716D01*
X011519Y011756D01*
X011498Y011798D01*
X011480Y011841D01*
X011467Y011886D01*
X011457Y011932D01*
X011451Y011978D01*
X011449Y012025D01*
D11*
X013000Y011150D02*
X013000Y019650D01*
X020250Y019650D01*
X020250Y011025D01*
X020250Y000150D01*
X000750Y000150D01*
X000750Y011025D01*
X000750Y019650D01*
X013000Y019650D01*
X008000Y019650D02*
X008000Y011150D01*
X000750Y011025D02*
X020250Y011025D01*
D12*
X012000Y012025D03*
X009125Y012025D03*
X007125Y013900D03*
X001625Y013900D03*
D13*
X005726Y009709D03*
X006726Y009709D03*
X007726Y009709D03*
X008726Y009709D03*
X009726Y009709D03*
X010726Y009709D03*
X011726Y009709D03*
X011226Y007709D03*
X010226Y007709D03*
X009226Y007709D03*
X008226Y007709D03*
X007226Y007709D03*
X006226Y007709D03*
X005226Y007709D03*
X012226Y007709D03*
D14*
X011000Y012025D03*
X013500Y013400D03*
X014375Y013400D03*
X014375Y014400D03*
X013500Y014400D03*
X018750Y014150D03*
X018750Y013150D03*
X019625Y013650D03*
X019625Y014650D03*
X019500Y010150D03*
X019500Y009150D03*
X019500Y008150D03*
X019500Y007150D03*
X019500Y006150D03*
X019500Y005150D03*
X019500Y004150D03*
X019500Y003150D03*
X019500Y002150D03*
X019500Y001150D03*
X001500Y001150D03*
X001500Y002150D03*
X001500Y003150D03*
X001500Y004150D03*
X001500Y005150D03*
X001500Y006150D03*
X001500Y007150D03*
X001500Y008150D03*
X001500Y009150D03*
X001500Y010150D03*
D15*
X002803Y010200D02*
X002803Y009600D01*
X003803Y009600D02*
X003803Y010200D01*
X013750Y010075D02*
X013750Y009475D01*
X014750Y009475D02*
X014750Y010075D01*
D16*
X006875Y005150D03*
X006875Y004150D03*
X004875Y018150D03*
X003875Y018150D03*
D17*
X010010Y006060D03*
X010010Y005160D03*
X010010Y004260D03*
D18*
X012490Y005150D03*
D19*
X008125Y005150D03*
X008125Y004150D03*
X008125Y006150D03*
D20*
X007375Y018150D03*
X006375Y018150D03*
X002500Y018150D03*
X001500Y018150D03*
D21*
X016250Y010020D02*
X016250Y009280D01*
X017250Y009280D02*
X017250Y010020D01*
X018250Y010020D02*
X018250Y009280D01*
D22*
X015431Y002650D03*
X010806Y002650D03*
X006056Y002650D03*
D23*
X005269Y002650D03*
X004481Y002650D03*
X003694Y002650D03*
X008444Y002650D03*
X009231Y002650D03*
X010019Y002650D03*
X013069Y002650D03*
X013856Y002650D03*
X014644Y002650D03*
D24*
X014750Y001650D03*
X013750Y001650D03*
X012750Y001650D03*
X011125Y001650D03*
X010125Y001650D03*
X009125Y001650D03*
X006375Y001525D03*
X005375Y001525D03*
X004375Y001525D03*
X014500Y004150D03*
X015500Y004150D03*
X016500Y004150D03*
X016500Y005650D03*
X015500Y005650D03*
X014500Y005650D03*
X015750Y007025D03*
X016750Y007025D03*
X017750Y007025D03*
X017250Y011900D03*
X016250Y011900D03*
X015250Y011900D03*
X014250Y011900D03*
X011905Y014385D03*
X011000Y013275D03*
X010000Y013275D03*
X009000Y013275D03*
X009345Y014385D03*
X009345Y016165D03*
X009345Y017260D03*
X009345Y019040D03*
X011905Y019040D03*
X011905Y017260D03*
X011905Y016165D03*
X018250Y011900D03*
X019250Y011900D03*
X017750Y001650D03*
X016750Y001650D03*
X015750Y001650D03*
X005000Y012650D03*
X004000Y012650D03*
X003000Y012650D03*
D25*
X006000Y012650D03*
X012000Y013275D03*
X008125Y001650D03*
X003375Y001525D03*
D26*
X005936Y000775D03*
X007314Y000775D03*
X013061Y000750D03*
X014439Y000750D03*
X007250Y014961D03*
X007250Y016339D03*
X001250Y016339D03*
X001250Y014961D03*
X019250Y017586D03*
X019250Y018964D03*
M02*
