G75*
G70*
%OFA0B0*%
%FSLAX24Y24*%
%IPPOS*%
%LPD*%
%AMOC8*
5,1,8,0,0,1.08239X$1,22.5*
%
%ADD10C,0.0000*%
%ADD11R,0.0157X0.0787*%
D10*
X000736Y000100D02*
X000736Y019663D01*
X020252Y019663D01*
X020250Y019628D02*
X020250Y000128D01*
X000750Y000128D01*
X000750Y019628D01*
X020250Y019628D01*
X016477Y019071D02*
X016479Y019104D01*
X016485Y019136D01*
X016494Y019167D01*
X016507Y019197D01*
X016524Y019225D01*
X016544Y019251D01*
X016567Y019275D01*
X016592Y019295D01*
X016620Y019313D01*
X016649Y019327D01*
X016680Y019337D01*
X016712Y019344D01*
X016745Y019347D01*
X016778Y019346D01*
X016810Y019341D01*
X016841Y019332D01*
X016872Y019320D01*
X016900Y019304D01*
X016927Y019285D01*
X016951Y019263D01*
X016972Y019238D01*
X016991Y019211D01*
X017006Y019182D01*
X017017Y019152D01*
X017025Y019120D01*
X017029Y019087D01*
X017029Y019055D01*
X017025Y019022D01*
X017017Y018990D01*
X017006Y018960D01*
X016991Y018931D01*
X016972Y018904D01*
X016951Y018879D01*
X016927Y018857D01*
X016900Y018838D01*
X016872Y018822D01*
X016841Y018810D01*
X016810Y018801D01*
X016778Y018796D01*
X016745Y018795D01*
X016712Y018798D01*
X016680Y018805D01*
X016649Y018815D01*
X016620Y018829D01*
X016592Y018847D01*
X016567Y018867D01*
X016544Y018891D01*
X016524Y018917D01*
X016507Y018945D01*
X016494Y018975D01*
X016485Y019006D01*
X016479Y019038D01*
X016477Y019071D01*
X011871Y010489D02*
X011873Y010516D01*
X011879Y010543D01*
X011888Y010569D01*
X011901Y010593D01*
X011917Y010616D01*
X011936Y010635D01*
X011958Y010652D01*
X011982Y010666D01*
X012007Y010676D01*
X012034Y010683D01*
X012061Y010686D01*
X012089Y010685D01*
X012116Y010680D01*
X012142Y010672D01*
X012166Y010660D01*
X012189Y010644D01*
X012210Y010626D01*
X012227Y010605D01*
X012242Y010581D01*
X012253Y010556D01*
X012261Y010530D01*
X012265Y010503D01*
X012265Y010475D01*
X012261Y010448D01*
X012253Y010422D01*
X012242Y010397D01*
X012227Y010373D01*
X012210Y010352D01*
X012189Y010334D01*
X012167Y010318D01*
X012142Y010306D01*
X012116Y010298D01*
X012089Y010293D01*
X012061Y010292D01*
X012034Y010295D01*
X012007Y010302D01*
X011982Y010312D01*
X011958Y010326D01*
X011936Y010343D01*
X011917Y010362D01*
X011901Y010385D01*
X011888Y010409D01*
X011879Y010435D01*
X011873Y010462D01*
X011871Y010489D01*
X008643Y010489D02*
X008645Y010516D01*
X008651Y010543D01*
X008660Y010569D01*
X008673Y010593D01*
X008689Y010616D01*
X008708Y010635D01*
X008730Y010652D01*
X008754Y010666D01*
X008779Y010676D01*
X008806Y010683D01*
X008833Y010686D01*
X008861Y010685D01*
X008888Y010680D01*
X008914Y010672D01*
X008938Y010660D01*
X008961Y010644D01*
X008982Y010626D01*
X008999Y010605D01*
X009014Y010581D01*
X009025Y010556D01*
X009033Y010530D01*
X009037Y010503D01*
X009037Y010475D01*
X009033Y010448D01*
X009025Y010422D01*
X009014Y010397D01*
X008999Y010373D01*
X008982Y010352D01*
X008961Y010334D01*
X008939Y010318D01*
X008914Y010306D01*
X008888Y010298D01*
X008861Y010293D01*
X008833Y010292D01*
X008806Y010295D01*
X008779Y010302D01*
X008754Y010312D01*
X008730Y010326D01*
X008708Y010343D01*
X008689Y010362D01*
X008673Y010385D01*
X008660Y010409D01*
X008651Y010435D01*
X008645Y010462D01*
X008643Y010489D01*
X003879Y008245D02*
X003881Y008278D01*
X003887Y008310D01*
X003896Y008341D01*
X003909Y008371D01*
X003926Y008399D01*
X003946Y008425D01*
X003969Y008449D01*
X003994Y008469D01*
X004022Y008487D01*
X004051Y008501D01*
X004082Y008511D01*
X004114Y008518D01*
X004147Y008521D01*
X004180Y008520D01*
X004212Y008515D01*
X004243Y008506D01*
X004274Y008494D01*
X004302Y008478D01*
X004329Y008459D01*
X004353Y008437D01*
X004374Y008412D01*
X004393Y008385D01*
X004408Y008356D01*
X004419Y008326D01*
X004427Y008294D01*
X004431Y008261D01*
X004431Y008229D01*
X004427Y008196D01*
X004419Y008164D01*
X004408Y008134D01*
X004393Y008105D01*
X004374Y008078D01*
X004353Y008053D01*
X004329Y008031D01*
X004302Y008012D01*
X004274Y007996D01*
X004243Y007984D01*
X004212Y007975D01*
X004180Y007970D01*
X004147Y007969D01*
X004114Y007972D01*
X004082Y007979D01*
X004051Y007989D01*
X004022Y008003D01*
X003994Y008021D01*
X003969Y008041D01*
X003946Y008065D01*
X003926Y008091D01*
X003909Y008119D01*
X003896Y008149D01*
X003887Y008180D01*
X003881Y008212D01*
X003879Y008245D01*
X000736Y000100D02*
X020252Y000100D01*
X016477Y008284D02*
X016479Y008317D01*
X016485Y008349D01*
X016494Y008380D01*
X016507Y008410D01*
X016524Y008438D01*
X016544Y008464D01*
X016567Y008488D01*
X016592Y008508D01*
X016620Y008526D01*
X016649Y008540D01*
X016680Y008550D01*
X016712Y008557D01*
X016745Y008560D01*
X016778Y008559D01*
X016810Y008554D01*
X016841Y008545D01*
X016872Y008533D01*
X016900Y008517D01*
X016927Y008498D01*
X016951Y008476D01*
X016972Y008451D01*
X016991Y008424D01*
X017006Y008395D01*
X017017Y008365D01*
X017025Y008333D01*
X017029Y008300D01*
X017029Y008268D01*
X017025Y008235D01*
X017017Y008203D01*
X017006Y008173D01*
X016991Y008144D01*
X016972Y008117D01*
X016951Y008092D01*
X016927Y008070D01*
X016900Y008051D01*
X016872Y008035D01*
X016841Y008023D01*
X016810Y008014D01*
X016778Y008009D01*
X016745Y008008D01*
X016712Y008011D01*
X016680Y008018D01*
X016649Y008028D01*
X016620Y008042D01*
X016592Y008060D01*
X016567Y008080D01*
X016544Y008104D01*
X016524Y008130D01*
X016507Y008158D01*
X016494Y008188D01*
X016485Y008219D01*
X016479Y008251D01*
X016477Y008284D01*
X003879Y019111D02*
X003881Y019144D01*
X003887Y019176D01*
X003896Y019207D01*
X003909Y019237D01*
X003926Y019265D01*
X003946Y019291D01*
X003969Y019315D01*
X003994Y019335D01*
X004022Y019353D01*
X004051Y019367D01*
X004082Y019377D01*
X004114Y019384D01*
X004147Y019387D01*
X004180Y019386D01*
X004212Y019381D01*
X004243Y019372D01*
X004274Y019360D01*
X004302Y019344D01*
X004329Y019325D01*
X004353Y019303D01*
X004374Y019278D01*
X004393Y019251D01*
X004408Y019222D01*
X004419Y019192D01*
X004427Y019160D01*
X004431Y019127D01*
X004431Y019095D01*
X004427Y019062D01*
X004419Y019030D01*
X004408Y019000D01*
X004393Y018971D01*
X004374Y018944D01*
X004353Y018919D01*
X004329Y018897D01*
X004302Y018878D01*
X004274Y018862D01*
X004243Y018850D01*
X004212Y018841D01*
X004180Y018836D01*
X004147Y018835D01*
X004114Y018838D01*
X004082Y018845D01*
X004051Y018855D01*
X004022Y018869D01*
X003994Y018887D01*
X003969Y018907D01*
X003946Y018931D01*
X003926Y018957D01*
X003909Y018985D01*
X003896Y019015D01*
X003887Y019046D01*
X003881Y019078D01*
X003879Y019111D01*
D11*
X008721Y011631D03*
X009036Y011631D03*
X009351Y011631D03*
X009666Y011631D03*
X009981Y011631D03*
X010296Y011631D03*
X010611Y011631D03*
X010926Y011631D03*
X011241Y011631D03*
X011556Y011631D03*
X011871Y011631D03*
X012186Y011631D03*
M02*
