G75*
G70*
%OFA0B0*%
%FSLAX24Y24*%
%IPPOS*%
%LPD*%
%AMOC8*
5,1,8,0,0,1.08239X$1,22.5*
%
%ADD10C,0.0000*%
%ADD11OC8,0.0630*%
%ADD12OC8,0.0850*%
%ADD13R,0.0740X0.0740*%
%ADD14C,0.0740*%
%ADD15C,0.0080*%
%ADD16R,0.0250X0.0500*%
%ADD17R,0.0436X0.0436*%
%ADD18C,0.0160*%
D10*
X000736Y000100D02*
X000736Y019663D01*
X020252Y019663D01*
X020252Y000100D01*
X000736Y000100D01*
X000750Y000128D02*
X000750Y019628D01*
X020250Y019628D01*
X020250Y000128D01*
X000750Y000128D01*
X004181Y008120D02*
X004183Y008151D01*
X004189Y008182D01*
X004198Y008212D01*
X004211Y008241D01*
X004228Y008268D01*
X004248Y008292D01*
X004270Y008314D01*
X004296Y008333D01*
X004323Y008349D01*
X004352Y008361D01*
X004382Y008370D01*
X004413Y008375D01*
X004445Y008376D01*
X004476Y008373D01*
X004507Y008366D01*
X004537Y008356D01*
X004565Y008342D01*
X004591Y008324D01*
X004615Y008304D01*
X004636Y008280D01*
X004655Y008255D01*
X004670Y008227D01*
X004681Y008198D01*
X004689Y008167D01*
X004693Y008136D01*
X004693Y008104D01*
X004689Y008073D01*
X004681Y008042D01*
X004670Y008013D01*
X004655Y007985D01*
X004636Y007960D01*
X004615Y007936D01*
X004591Y007916D01*
X004565Y007898D01*
X004537Y007884D01*
X004507Y007874D01*
X004476Y007867D01*
X004445Y007864D01*
X004413Y007865D01*
X004382Y007870D01*
X004352Y007879D01*
X004323Y007891D01*
X004296Y007907D01*
X004270Y007926D01*
X004248Y007948D01*
X004228Y007972D01*
X004211Y007999D01*
X004198Y008028D01*
X004189Y008058D01*
X004183Y008089D01*
X004181Y008120D01*
X008768Y010364D02*
X008770Y010391D01*
X008776Y010418D01*
X008785Y010444D01*
X008798Y010468D01*
X008814Y010491D01*
X008833Y010510D01*
X008855Y010527D01*
X008879Y010541D01*
X008904Y010551D01*
X008931Y010558D01*
X008958Y010561D01*
X008986Y010560D01*
X009013Y010555D01*
X009039Y010547D01*
X009063Y010535D01*
X009086Y010519D01*
X009107Y010501D01*
X009124Y010480D01*
X009139Y010456D01*
X009150Y010431D01*
X009158Y010405D01*
X009162Y010378D01*
X009162Y010350D01*
X009158Y010323D01*
X009150Y010297D01*
X009139Y010272D01*
X009124Y010248D01*
X009107Y010227D01*
X009086Y010209D01*
X009064Y010193D01*
X009039Y010181D01*
X009013Y010173D01*
X008986Y010168D01*
X008958Y010167D01*
X008931Y010170D01*
X008904Y010177D01*
X008879Y010187D01*
X008855Y010201D01*
X008833Y010218D01*
X008814Y010237D01*
X008798Y010260D01*
X008785Y010284D01*
X008776Y010310D01*
X008770Y010337D01*
X008768Y010364D01*
X011996Y010364D02*
X011998Y010391D01*
X012004Y010418D01*
X012013Y010444D01*
X012026Y010468D01*
X012042Y010491D01*
X012061Y010510D01*
X012083Y010527D01*
X012107Y010541D01*
X012132Y010551D01*
X012159Y010558D01*
X012186Y010561D01*
X012214Y010560D01*
X012241Y010555D01*
X012267Y010547D01*
X012291Y010535D01*
X012314Y010519D01*
X012335Y010501D01*
X012352Y010480D01*
X012367Y010456D01*
X012378Y010431D01*
X012386Y010405D01*
X012390Y010378D01*
X012390Y010350D01*
X012386Y010323D01*
X012378Y010297D01*
X012367Y010272D01*
X012352Y010248D01*
X012335Y010227D01*
X012314Y010209D01*
X012292Y010193D01*
X012267Y010181D01*
X012241Y010173D01*
X012214Y010168D01*
X012186Y010167D01*
X012159Y010170D01*
X012132Y010177D01*
X012107Y010187D01*
X012083Y010201D01*
X012061Y010218D01*
X012042Y010237D01*
X012026Y010260D01*
X012013Y010284D01*
X012004Y010310D01*
X011998Y010337D01*
X011996Y010364D01*
X016425Y008159D02*
X016427Y008190D01*
X016433Y008221D01*
X016442Y008251D01*
X016455Y008280D01*
X016472Y008307D01*
X016492Y008331D01*
X016514Y008353D01*
X016540Y008372D01*
X016567Y008388D01*
X016596Y008400D01*
X016626Y008409D01*
X016657Y008414D01*
X016689Y008415D01*
X016720Y008412D01*
X016751Y008405D01*
X016781Y008395D01*
X016809Y008381D01*
X016835Y008363D01*
X016859Y008343D01*
X016880Y008319D01*
X016899Y008294D01*
X016914Y008266D01*
X016925Y008237D01*
X016933Y008206D01*
X016937Y008175D01*
X016937Y008143D01*
X016933Y008112D01*
X016925Y008081D01*
X016914Y008052D01*
X016899Y008024D01*
X016880Y007999D01*
X016859Y007975D01*
X016835Y007955D01*
X016809Y007937D01*
X016781Y007923D01*
X016751Y007913D01*
X016720Y007906D01*
X016689Y007903D01*
X016657Y007904D01*
X016626Y007909D01*
X016596Y007918D01*
X016567Y007930D01*
X016540Y007946D01*
X016514Y007965D01*
X016492Y007987D01*
X016472Y008011D01*
X016455Y008038D01*
X016442Y008067D01*
X016433Y008097D01*
X016427Y008128D01*
X016425Y008159D01*
X016425Y018946D02*
X016427Y018977D01*
X016433Y019008D01*
X016442Y019038D01*
X016455Y019067D01*
X016472Y019094D01*
X016492Y019118D01*
X016514Y019140D01*
X016540Y019159D01*
X016567Y019175D01*
X016596Y019187D01*
X016626Y019196D01*
X016657Y019201D01*
X016689Y019202D01*
X016720Y019199D01*
X016751Y019192D01*
X016781Y019182D01*
X016809Y019168D01*
X016835Y019150D01*
X016859Y019130D01*
X016880Y019106D01*
X016899Y019081D01*
X016914Y019053D01*
X016925Y019024D01*
X016933Y018993D01*
X016937Y018962D01*
X016937Y018930D01*
X016933Y018899D01*
X016925Y018868D01*
X016914Y018839D01*
X016899Y018811D01*
X016880Y018786D01*
X016859Y018762D01*
X016835Y018742D01*
X016809Y018724D01*
X016781Y018710D01*
X016751Y018700D01*
X016720Y018693D01*
X016689Y018690D01*
X016657Y018691D01*
X016626Y018696D01*
X016596Y018705D01*
X016567Y018717D01*
X016540Y018733D01*
X016514Y018752D01*
X016492Y018774D01*
X016472Y018798D01*
X016455Y018825D01*
X016442Y018854D01*
X016433Y018884D01*
X016427Y018915D01*
X016425Y018946D01*
X004220Y018986D02*
X004222Y019017D01*
X004228Y019048D01*
X004237Y019078D01*
X004250Y019107D01*
X004267Y019134D01*
X004287Y019158D01*
X004309Y019180D01*
X004335Y019199D01*
X004362Y019215D01*
X004391Y019227D01*
X004421Y019236D01*
X004452Y019241D01*
X004484Y019242D01*
X004515Y019239D01*
X004546Y019232D01*
X004576Y019222D01*
X004604Y019208D01*
X004630Y019190D01*
X004654Y019170D01*
X004675Y019146D01*
X004694Y019121D01*
X004709Y019093D01*
X004720Y019064D01*
X004728Y019033D01*
X004732Y019002D01*
X004732Y018970D01*
X004728Y018939D01*
X004720Y018908D01*
X004709Y018879D01*
X004694Y018851D01*
X004675Y018826D01*
X004654Y018802D01*
X004630Y018782D01*
X004604Y018764D01*
X004576Y018750D01*
X004546Y018740D01*
X004515Y018733D01*
X004484Y018730D01*
X004452Y018731D01*
X004421Y018736D01*
X004391Y018745D01*
X004362Y018757D01*
X004335Y018773D01*
X004309Y018792D01*
X004287Y018814D01*
X004267Y018838D01*
X004250Y018865D01*
X004237Y018894D01*
X004228Y018924D01*
X004222Y018955D01*
X004220Y018986D01*
D11*
X001500Y014128D03*
X001500Y013128D03*
X001500Y012128D03*
X001500Y011128D03*
X001500Y010128D03*
X001500Y009128D03*
X001500Y008128D03*
X001500Y007128D03*
X001500Y006128D03*
X001500Y005128D03*
X019500Y005128D03*
X019500Y006128D03*
X019500Y007128D03*
X019500Y008128D03*
X019500Y009128D03*
X019500Y010128D03*
X019500Y011128D03*
X019500Y012128D03*
X019500Y013128D03*
X019500Y014128D03*
D12*
X019500Y015443D03*
X018000Y008443D03*
X018039Y007179D03*
X013250Y006693D03*
X012250Y006693D03*
X011250Y006693D03*
X002750Y007193D03*
X002750Y010193D03*
X002750Y011193D03*
X002750Y012193D03*
X002729Y013199D03*
X001500Y015443D03*
D13*
X007125Y006693D03*
D14*
X008125Y006693D03*
X009125Y006693D03*
X010125Y006693D03*
D15*
X013350Y007943D02*
X013650Y007943D01*
X002650Y008193D02*
X002350Y008193D01*
D16*
X002300Y008193D03*
X002700Y008193D03*
X013300Y007943D03*
X013700Y007943D03*
D17*
X014000Y009443D03*
X015000Y009943D03*
X015500Y007943D03*
X015500Y006943D03*
X011500Y008943D03*
X010500Y007443D03*
X006500Y010443D03*
X005500Y011443D03*
X005000Y014943D03*
X006000Y014943D03*
X011500Y013943D03*
X011500Y017443D03*
X014500Y017943D03*
X015000Y014943D03*
X005500Y006943D03*
D18*
X005500Y006883D02*
X005500Y000608D01*
X005000Y000608D02*
X005000Y006883D01*
X004500Y006883D02*
X004500Y000608D01*
X004000Y000608D02*
X004000Y006883D01*
X003655Y006883D02*
X003655Y006818D01*
X003125Y006288D01*
X002375Y006288D01*
X002295Y006368D01*
X002295Y005798D01*
X002124Y005628D01*
X002295Y005457D01*
X002295Y004798D01*
X001829Y004333D01*
X001230Y004333D01*
X001230Y000608D01*
X019770Y000608D01*
X019770Y004333D01*
X019171Y004333D01*
X018705Y004798D01*
X018705Y005457D01*
X018876Y005628D01*
X018705Y005798D01*
X018705Y006457D01*
X018876Y006628D01*
X018822Y006681D01*
X018414Y006274D01*
X017665Y006274D01*
X017134Y006804D01*
X017134Y007554D01*
X017372Y007791D01*
X017339Y007824D01*
X017305Y007742D01*
X017098Y007535D01*
X016827Y007423D01*
X016535Y007423D01*
X016264Y007535D01*
X016057Y007742D01*
X015945Y008013D01*
X015945Y008305D01*
X016057Y008576D01*
X016114Y008633D01*
X015857Y008633D01*
X014692Y007468D01*
X014486Y007383D01*
X014194Y007383D01*
X014097Y007286D01*
X013984Y007239D01*
X014155Y007067D01*
X014155Y006318D01*
X013625Y005788D01*
X012875Y005788D01*
X012750Y005913D01*
X012625Y005788D01*
X011875Y005788D01*
X011750Y005913D01*
X011625Y005788D01*
X010875Y005788D01*
X010649Y006014D01*
X010606Y005972D01*
X010294Y005843D01*
X009956Y005843D01*
X009644Y005972D01*
X009625Y005990D01*
X009606Y005972D01*
X009294Y005843D01*
X008956Y005843D01*
X008644Y005972D01*
X008625Y005990D01*
X008606Y005972D01*
X008294Y005843D01*
X007956Y005843D01*
X007644Y005972D01*
X007473Y006143D01*
X007145Y006143D01*
X007145Y006673D01*
X007105Y006673D01*
X006575Y006673D01*
X006575Y006299D01*
X006587Y006253D01*
X006611Y006212D01*
X006644Y006178D01*
X006686Y006155D01*
X006731Y006143D01*
X007105Y006143D01*
X007105Y006673D01*
X007105Y006713D01*
X006575Y006713D01*
X006575Y006883D01*
X003655Y006883D01*
X003500Y006663D02*
X003500Y000608D01*
X003000Y000608D02*
X003000Y006288D01*
X003280Y006443D02*
X006575Y006443D01*
X006500Y006883D02*
X006500Y000608D01*
X006000Y000608D02*
X006000Y006883D01*
X007000Y006713D02*
X007000Y006673D01*
X007105Y006443D02*
X007145Y006443D01*
X007000Y006143D02*
X007000Y000608D01*
X007500Y000608D02*
X007500Y006115D01*
X007715Y005943D02*
X002295Y005943D01*
X002500Y006288D02*
X002500Y000608D01*
X002000Y000608D02*
X002000Y004503D01*
X001939Y004443D02*
X019061Y004443D01*
X019000Y004503D02*
X019000Y000608D01*
X019500Y000608D02*
X019500Y004333D01*
X019770Y003943D02*
X001230Y003943D01*
X001500Y004333D02*
X001500Y000608D01*
X001230Y000943D02*
X019770Y000943D01*
X019770Y001443D02*
X001230Y001443D01*
X001230Y001943D02*
X019770Y001943D01*
X019770Y002443D02*
X001230Y002443D01*
X001230Y002943D02*
X019770Y002943D01*
X019770Y003443D02*
X001230Y003443D01*
X002295Y004943D02*
X018705Y004943D01*
X018705Y005443D02*
X002295Y005443D01*
X003750Y007443D02*
X003000Y008193D01*
X002700Y008193D01*
X002300Y008193D02*
X001565Y008193D01*
X001500Y008128D01*
X001500Y008943D02*
X001500Y009128D01*
X001500Y008943D02*
X011500Y008943D01*
X011500Y009640D02*
X011500Y013245D01*
X011813Y013245D02*
X011990Y013318D01*
X012125Y013453D01*
X012198Y013629D01*
X012198Y014256D01*
X012125Y014432D01*
X011990Y014567D01*
X011813Y014640D01*
X011187Y014640D01*
X011010Y014567D01*
X010946Y014503D01*
X002249Y014503D01*
X002045Y014707D01*
X002405Y015068D01*
X002405Y015817D01*
X001875Y016348D01*
X001230Y016348D01*
X001230Y019148D01*
X003747Y019148D01*
X003740Y019132D01*
X003740Y018839D01*
X003853Y018569D01*
X004060Y018362D01*
X004330Y018250D01*
X004623Y018250D01*
X004893Y018362D01*
X005100Y018569D01*
X005212Y018839D01*
X005212Y019132D01*
X005206Y019148D01*
X015968Y019148D01*
X015945Y019093D01*
X015945Y018800D01*
X016057Y018530D01*
X016264Y018323D01*
X016535Y018211D01*
X016827Y018211D01*
X017098Y018323D01*
X017305Y018530D01*
X017417Y018800D01*
X017417Y019093D01*
X017394Y019148D01*
X019770Y019148D01*
X019770Y016028D01*
X019751Y016048D01*
X019520Y016048D01*
X019520Y015463D01*
X019480Y015463D01*
X019480Y016048D01*
X019249Y016048D01*
X018895Y015693D01*
X018895Y015463D01*
X019480Y015463D01*
X019480Y015423D01*
X018895Y015423D01*
X018895Y015192D01*
X019249Y014838D01*
X019480Y014838D01*
X019480Y015423D01*
X019520Y015423D01*
X019520Y014838D01*
X019751Y014838D01*
X019770Y014857D01*
X019770Y014558D01*
X019705Y014623D01*
X019510Y014623D01*
X019510Y014138D01*
X019490Y014138D01*
X019490Y014623D01*
X019295Y014623D01*
X019005Y014333D01*
X019005Y014138D01*
X019490Y014138D01*
X019490Y014118D01*
X019005Y014118D01*
X019005Y013923D01*
X019088Y013840D01*
X018705Y013457D01*
X018705Y012798D01*
X018876Y012628D01*
X018705Y012457D01*
X018705Y011798D01*
X018876Y011628D01*
X018705Y011457D01*
X018705Y010798D01*
X018876Y010628D01*
X018705Y010457D01*
X018705Y009798D01*
X018751Y009753D01*
X015514Y009753D01*
X015308Y009667D01*
X015150Y009510D01*
X014168Y008528D01*
X014097Y008599D01*
X013920Y008673D01*
X013080Y008673D01*
X012903Y008599D01*
X012768Y008464D01*
X012764Y008456D01*
X012727Y008444D01*
X012707Y008427D01*
X012683Y008417D01*
X012622Y008356D01*
X011957Y007802D01*
X011933Y007792D01*
X011872Y007731D01*
X011806Y007676D01*
X011794Y007653D01*
X011775Y007635D01*
X011742Y007555D01*
X011716Y007506D01*
X011625Y007598D01*
X011198Y007598D01*
X011198Y007756D01*
X011125Y007932D01*
X010990Y008067D01*
X010813Y008140D01*
X010187Y008140D01*
X010010Y008067D01*
X009946Y008003D01*
X005173Y008003D01*
X005173Y008266D01*
X005125Y008383D01*
X010946Y008383D01*
X011010Y008318D01*
X011187Y008245D01*
X011813Y008245D01*
X011990Y008318D01*
X012125Y008453D01*
X012198Y008629D01*
X012198Y009256D01*
X012125Y009432D01*
X011990Y009567D01*
X011813Y009640D01*
X011187Y009640D01*
X011010Y009567D01*
X010946Y009503D01*
X003340Y009503D01*
X003655Y009818D01*
X003655Y010567D01*
X003530Y010693D01*
X003655Y010818D01*
X003655Y011567D01*
X003530Y011693D01*
X003655Y011818D01*
X003655Y012567D01*
X003516Y012706D01*
X003634Y012825D01*
X003634Y013383D01*
X010946Y013383D01*
X011010Y013318D01*
X011187Y013245D01*
X011813Y013245D01*
X012000Y013328D02*
X012000Y011016D01*
X012058Y011041D02*
X011810Y010938D01*
X011619Y010747D01*
X011516Y010498D01*
X011516Y010229D01*
X011619Y009980D01*
X011810Y009790D01*
X012058Y009687D01*
X012328Y009687D01*
X012576Y009790D01*
X012767Y009980D01*
X012870Y010229D01*
X012870Y010498D01*
X012767Y010747D01*
X012576Y010938D01*
X012328Y011041D01*
X012058Y011041D01*
X011821Y010943D02*
X009336Y010943D01*
X009348Y010938D02*
X009099Y011041D01*
X008830Y011041D01*
X008581Y010938D01*
X008391Y010747D01*
X008288Y010498D01*
X008288Y010229D01*
X008391Y009980D01*
X008581Y009790D01*
X008830Y009687D01*
X009099Y009687D01*
X009348Y009790D01*
X009538Y009980D01*
X009641Y010229D01*
X009641Y010498D01*
X009538Y010747D01*
X009348Y010938D01*
X009500Y010786D02*
X009500Y013383D01*
X009000Y013383D02*
X009000Y011041D01*
X008593Y010943D02*
X003655Y010943D01*
X003655Y011443D02*
X018705Y011443D01*
X018705Y010943D02*
X012564Y010943D01*
X012500Y010969D02*
X012500Y019148D01*
X013000Y019148D02*
X013000Y008640D01*
X012725Y008443D02*
X012114Y008443D01*
X012000Y008328D02*
X012000Y007838D01*
X012125Y007943D02*
X011114Y007943D01*
X011000Y008057D02*
X011000Y008328D01*
X010500Y008383D02*
X010500Y008140D01*
X010000Y008057D02*
X010000Y008383D01*
X009500Y008383D02*
X009500Y008003D01*
X009000Y008003D02*
X009000Y008383D01*
X008500Y008383D02*
X008500Y008003D01*
X008000Y008003D02*
X008000Y008383D01*
X007500Y008383D02*
X007500Y008003D01*
X007000Y008003D02*
X007000Y008383D01*
X006500Y008383D02*
X006500Y008003D01*
X006000Y008003D02*
X006000Y008383D01*
X005500Y008383D02*
X005500Y008003D01*
X005500Y009503D02*
X005500Y013383D01*
X005000Y013383D02*
X005000Y009503D01*
X004500Y009503D02*
X004500Y013383D01*
X004000Y013383D02*
X004000Y009503D01*
X003500Y009503D02*
X003500Y009663D01*
X003655Y009943D02*
X008429Y009943D01*
X008500Y009871D02*
X008500Y009503D01*
X008000Y009503D02*
X008000Y013383D01*
X008500Y013383D02*
X008500Y010856D01*
X008288Y010443D02*
X003655Y010443D01*
X003655Y011943D02*
X018705Y011943D01*
X018705Y012443D02*
X003655Y012443D01*
X003634Y012943D02*
X018705Y012943D01*
X018705Y013443D02*
X012114Y013443D01*
X012198Y013943D02*
X019005Y013943D01*
X019000Y013752D02*
X019000Y015087D01*
X019144Y014943D02*
X002280Y014943D01*
X002500Y014503D02*
X002500Y019148D01*
X003000Y019148D02*
X003000Y014503D01*
X003500Y014503D02*
X003500Y019148D01*
X003740Y018943D02*
X001230Y018943D01*
X001500Y019148D02*
X001500Y016348D01*
X001230Y016443D02*
X019770Y016443D01*
X019520Y015943D02*
X019480Y015943D01*
X019144Y015943D02*
X002280Y015943D01*
X002000Y016222D02*
X002000Y019148D01*
X001230Y018443D02*
X003979Y018443D01*
X004000Y018421D02*
X004000Y014503D01*
X004500Y014503D02*
X004500Y018250D01*
X004974Y018443D02*
X016144Y018443D01*
X016000Y018668D02*
X016000Y009753D01*
X016500Y009753D02*
X016500Y018225D01*
X017000Y018282D02*
X017000Y009753D01*
X017500Y009753D02*
X017500Y019148D01*
X017417Y018943D02*
X019770Y018943D01*
X019500Y019148D02*
X019500Y015463D01*
X019480Y015443D02*
X002405Y015443D01*
X001500Y014128D02*
X001685Y013943D01*
X011500Y013943D01*
X011500Y014640D02*
X011500Y019148D01*
X012000Y019148D02*
X012000Y014557D01*
X012114Y014443D02*
X019115Y014443D01*
X019490Y014443D02*
X019510Y014443D01*
X019500Y014138D02*
X019500Y015423D01*
X019480Y014943D02*
X019520Y014943D01*
X019000Y015423D02*
X019000Y015463D01*
X019000Y015798D02*
X019000Y019148D01*
X018500Y019148D02*
X018500Y009753D01*
X018705Y009943D02*
X012729Y009943D01*
X012500Y009758D02*
X012500Y008255D01*
X013000Y007943D02*
X012250Y007318D01*
X012250Y006693D01*
X011500Y007598D02*
X011500Y008245D01*
X012198Y008943D02*
X014583Y008943D01*
X014500Y008859D02*
X014500Y019148D01*
X015000Y019148D02*
X015000Y009359D01*
X015083Y009443D02*
X012114Y009443D01*
X012000Y009557D02*
X012000Y009711D01*
X011657Y009943D02*
X009501Y009943D01*
X009500Y009942D02*
X009500Y009503D01*
X009000Y009503D02*
X009000Y009687D01*
X009641Y010443D02*
X011516Y010443D01*
X011000Y009557D02*
X011000Y013328D01*
X010500Y013383D02*
X010500Y009503D01*
X010000Y009503D02*
X010000Y013383D01*
X010000Y014503D02*
X010000Y019148D01*
X010500Y019148D02*
X010500Y014503D01*
X011000Y014557D02*
X011000Y019148D01*
X009500Y019148D02*
X009500Y014503D01*
X009000Y014503D02*
X009000Y019148D01*
X008500Y019148D02*
X008500Y014503D01*
X008000Y014503D02*
X008000Y019148D01*
X007500Y019148D02*
X007500Y014503D01*
X007000Y014503D02*
X007000Y019148D01*
X006500Y019148D02*
X006500Y014503D01*
X006000Y014503D02*
X006000Y019148D01*
X005500Y019148D02*
X005500Y014503D01*
X005000Y014503D02*
X005000Y018469D01*
X005212Y018943D02*
X015945Y018943D01*
X015500Y019148D02*
X015500Y009747D01*
X015625Y009193D02*
X019435Y009193D01*
X019500Y009128D01*
X018705Y010443D02*
X012870Y010443D01*
X013500Y008673D02*
X013500Y019148D01*
X014000Y019148D02*
X014000Y008640D01*
X013700Y007943D02*
X014375Y007943D01*
X015625Y009193D01*
X016000Y008633D02*
X016000Y008438D01*
X016002Y008443D02*
X015667Y008443D01*
X015500Y008276D02*
X015500Y000608D01*
X016000Y000608D02*
X016000Y007880D01*
X015974Y007943D02*
X015167Y007943D01*
X015000Y007776D02*
X015000Y000608D01*
X014500Y000608D02*
X014500Y007388D01*
X014631Y007443D02*
X016488Y007443D01*
X016500Y007438D02*
X016500Y000608D01*
X017000Y000608D02*
X017000Y007495D01*
X016874Y007443D02*
X017134Y007443D01*
X017134Y006943D02*
X014155Y006943D01*
X014000Y007222D02*
X014000Y007245D01*
X014155Y006443D02*
X017496Y006443D01*
X017500Y006438D02*
X017500Y000608D01*
X018000Y000608D02*
X018000Y006274D01*
X018500Y006360D02*
X018500Y000608D01*
X014000Y000608D02*
X014000Y006163D01*
X013780Y005943D02*
X018705Y005943D01*
X018705Y006443D02*
X018583Y006443D01*
X018000Y009753D02*
X018000Y019148D01*
X017218Y018443D02*
X019770Y018443D01*
X019770Y017943D02*
X001230Y017943D01*
X001230Y017443D02*
X019770Y017443D01*
X019770Y016943D02*
X001230Y016943D01*
X006000Y013383D02*
X006000Y009503D01*
X006500Y009503D02*
X006500Y013383D01*
X007000Y013383D02*
X007000Y009503D01*
X007500Y009503D02*
X007500Y013383D01*
X013000Y007943D02*
X013300Y007943D01*
X013500Y005788D02*
X013500Y000608D01*
X013000Y000608D02*
X013000Y005788D01*
X012500Y005788D02*
X012500Y000608D01*
X012000Y000608D02*
X012000Y005788D01*
X011500Y005788D02*
X011500Y000608D01*
X011000Y000608D02*
X011000Y005788D01*
X010720Y005943D02*
X010535Y005943D01*
X010500Y005928D02*
X010500Y000608D01*
X010000Y000608D02*
X010000Y005843D01*
X009715Y005943D02*
X009535Y005943D01*
X009500Y005928D02*
X009500Y000608D01*
X009000Y000608D02*
X009000Y005843D01*
X008715Y005943D02*
X008535Y005943D01*
X008500Y005928D02*
X008500Y000608D01*
X008000Y000608D02*
X008000Y005843D01*
X010500Y007443D02*
X003750Y007443D01*
M02*
