%
M48
M72
T01C0.0276
T02C0.0360
T03C0.0394
T04C0.0400
T05C0.0512
%
T01
X5500Y6943
X6500Y10443
X5500Y11443
X5000Y14943
X6000Y14943
X11500Y13943
X11500Y17443
X14500Y17943
X15000Y14943
X15000Y9943
X14000Y9443
X15500Y7943
X15500Y6943
X11500Y8943
X10500Y7443
T02
X1500Y5128
X1500Y6128
X1500Y7128
X1500Y8128
X1500Y9128
X1500Y10128
X1500Y11128
X1500Y12128
X1500Y13128
X1500Y14128
X19500Y14128
X19500Y13128
X19500Y12128
X19500Y11128
X19500Y10128
X19500Y9128
X19500Y8128
X19500Y7128
X19500Y6128
X19500Y5128
T03
X12193Y10364
X8965Y10364
T04
X9125Y6693
X8125Y6693
X7125Y6693
X10125Y6693
X11250Y6693
X12250Y6693
X13250Y6693
X18039Y7179
X18000Y8443
X19500Y15443
X2729Y13199
X2750Y12193
X2750Y11193
X2750Y10193
X2750Y7193
X1500Y15443
T05
X4476Y18986
X4437Y8120
X16681Y8159
X16681Y18946
M30
