G75*
G70*
%OFA0B0*%
%FSLAX24Y24*%
%IPPOS*%
%LPD*%
%AMOC8*
5,1,8,0,0,1.08239X$1,22.5*
%
%ADD10C,0.0000*%
%ADD11R,0.3750X0.5500*%
%ADD12R,0.0157X0.0787*%
%ADD13R,0.0630X0.0709*%
%ADD14OC8,0.0630*%
%ADD15R,0.0710X0.0630*%
%ADD16R,0.0709X0.0630*%
%ADD17C,0.0276*%
%ADD18OC8,0.0850*%
%ADD19R,0.0740X0.0740*%
%ADD20C,0.0740*%
%ADD21C,0.0160*%
%ADD22R,0.0436X0.0436*%
%ADD23C,0.0240*%
D10*
X000736Y000100D02*
X000736Y019663D01*
X020252Y019663D01*
X020252Y000100D01*
X000736Y000100D01*
X000750Y000128D02*
X000750Y019628D01*
X020250Y019628D01*
X020250Y000128D01*
X000750Y000128D01*
X004181Y008120D02*
X004183Y008151D01*
X004189Y008182D01*
X004198Y008212D01*
X004211Y008241D01*
X004228Y008268D01*
X004248Y008292D01*
X004270Y008314D01*
X004296Y008333D01*
X004323Y008349D01*
X004352Y008361D01*
X004382Y008370D01*
X004413Y008375D01*
X004445Y008376D01*
X004476Y008373D01*
X004507Y008366D01*
X004537Y008356D01*
X004565Y008342D01*
X004591Y008324D01*
X004615Y008304D01*
X004636Y008280D01*
X004655Y008255D01*
X004670Y008227D01*
X004681Y008198D01*
X004689Y008167D01*
X004693Y008136D01*
X004693Y008104D01*
X004689Y008073D01*
X004681Y008042D01*
X004670Y008013D01*
X004655Y007985D01*
X004636Y007960D01*
X004615Y007936D01*
X004591Y007916D01*
X004565Y007898D01*
X004537Y007884D01*
X004507Y007874D01*
X004476Y007867D01*
X004445Y007864D01*
X004413Y007865D01*
X004382Y007870D01*
X004352Y007879D01*
X004323Y007891D01*
X004296Y007907D01*
X004270Y007926D01*
X004248Y007948D01*
X004228Y007972D01*
X004211Y007999D01*
X004198Y008028D01*
X004189Y008058D01*
X004183Y008089D01*
X004181Y008120D01*
X008768Y010364D02*
X008770Y010391D01*
X008776Y010418D01*
X008785Y010444D01*
X008798Y010468D01*
X008814Y010491D01*
X008833Y010510D01*
X008855Y010527D01*
X008879Y010541D01*
X008904Y010551D01*
X008931Y010558D01*
X008958Y010561D01*
X008986Y010560D01*
X009013Y010555D01*
X009039Y010547D01*
X009063Y010535D01*
X009086Y010519D01*
X009107Y010501D01*
X009124Y010480D01*
X009139Y010456D01*
X009150Y010431D01*
X009158Y010405D01*
X009162Y010378D01*
X009162Y010350D01*
X009158Y010323D01*
X009150Y010297D01*
X009139Y010272D01*
X009124Y010248D01*
X009107Y010227D01*
X009086Y010209D01*
X009064Y010193D01*
X009039Y010181D01*
X009013Y010173D01*
X008986Y010168D01*
X008958Y010167D01*
X008931Y010170D01*
X008904Y010177D01*
X008879Y010187D01*
X008855Y010201D01*
X008833Y010218D01*
X008814Y010237D01*
X008798Y010260D01*
X008785Y010284D01*
X008776Y010310D01*
X008770Y010337D01*
X008768Y010364D01*
X011996Y010364D02*
X011998Y010391D01*
X012004Y010418D01*
X012013Y010444D01*
X012026Y010468D01*
X012042Y010491D01*
X012061Y010510D01*
X012083Y010527D01*
X012107Y010541D01*
X012132Y010551D01*
X012159Y010558D01*
X012186Y010561D01*
X012214Y010560D01*
X012241Y010555D01*
X012267Y010547D01*
X012291Y010535D01*
X012314Y010519D01*
X012335Y010501D01*
X012352Y010480D01*
X012367Y010456D01*
X012378Y010431D01*
X012386Y010405D01*
X012390Y010378D01*
X012390Y010350D01*
X012386Y010323D01*
X012378Y010297D01*
X012367Y010272D01*
X012352Y010248D01*
X012335Y010227D01*
X012314Y010209D01*
X012292Y010193D01*
X012267Y010181D01*
X012241Y010173D01*
X012214Y010168D01*
X012186Y010167D01*
X012159Y010170D01*
X012132Y010177D01*
X012107Y010187D01*
X012083Y010201D01*
X012061Y010218D01*
X012042Y010237D01*
X012026Y010260D01*
X012013Y010284D01*
X012004Y010310D01*
X011998Y010337D01*
X011996Y010364D01*
X016425Y008159D02*
X016427Y008190D01*
X016433Y008221D01*
X016442Y008251D01*
X016455Y008280D01*
X016472Y008307D01*
X016492Y008331D01*
X016514Y008353D01*
X016540Y008372D01*
X016567Y008388D01*
X016596Y008400D01*
X016626Y008409D01*
X016657Y008414D01*
X016689Y008415D01*
X016720Y008412D01*
X016751Y008405D01*
X016781Y008395D01*
X016809Y008381D01*
X016835Y008363D01*
X016859Y008343D01*
X016880Y008319D01*
X016899Y008294D01*
X016914Y008266D01*
X016925Y008237D01*
X016933Y008206D01*
X016937Y008175D01*
X016937Y008143D01*
X016933Y008112D01*
X016925Y008081D01*
X016914Y008052D01*
X016899Y008024D01*
X016880Y007999D01*
X016859Y007975D01*
X016835Y007955D01*
X016809Y007937D01*
X016781Y007923D01*
X016751Y007913D01*
X016720Y007906D01*
X016689Y007903D01*
X016657Y007904D01*
X016626Y007909D01*
X016596Y007918D01*
X016567Y007930D01*
X016540Y007946D01*
X016514Y007965D01*
X016492Y007987D01*
X016472Y008011D01*
X016455Y008038D01*
X016442Y008067D01*
X016433Y008097D01*
X016427Y008128D01*
X016425Y008159D01*
X016425Y018946D02*
X016427Y018977D01*
X016433Y019008D01*
X016442Y019038D01*
X016455Y019067D01*
X016472Y019094D01*
X016492Y019118D01*
X016514Y019140D01*
X016540Y019159D01*
X016567Y019175D01*
X016596Y019187D01*
X016626Y019196D01*
X016657Y019201D01*
X016689Y019202D01*
X016720Y019199D01*
X016751Y019192D01*
X016781Y019182D01*
X016809Y019168D01*
X016835Y019150D01*
X016859Y019130D01*
X016880Y019106D01*
X016899Y019081D01*
X016914Y019053D01*
X016925Y019024D01*
X016933Y018993D01*
X016937Y018962D01*
X016937Y018930D01*
X016933Y018899D01*
X016925Y018868D01*
X016914Y018839D01*
X016899Y018811D01*
X016880Y018786D01*
X016859Y018762D01*
X016835Y018742D01*
X016809Y018724D01*
X016781Y018710D01*
X016751Y018700D01*
X016720Y018693D01*
X016689Y018690D01*
X016657Y018691D01*
X016626Y018696D01*
X016596Y018705D01*
X016567Y018717D01*
X016540Y018733D01*
X016514Y018752D01*
X016492Y018774D01*
X016472Y018798D01*
X016455Y018825D01*
X016442Y018854D01*
X016433Y018884D01*
X016427Y018915D01*
X016425Y018946D01*
X004220Y018986D02*
X004222Y019017D01*
X004228Y019048D01*
X004237Y019078D01*
X004250Y019107D01*
X004267Y019134D01*
X004287Y019158D01*
X004309Y019180D01*
X004335Y019199D01*
X004362Y019215D01*
X004391Y019227D01*
X004421Y019236D01*
X004452Y019241D01*
X004484Y019242D01*
X004515Y019239D01*
X004546Y019232D01*
X004576Y019222D01*
X004604Y019208D01*
X004630Y019190D01*
X004654Y019170D01*
X004675Y019146D01*
X004694Y019121D01*
X004709Y019093D01*
X004720Y019064D01*
X004728Y019033D01*
X004732Y019002D01*
X004732Y018970D01*
X004728Y018939D01*
X004720Y018908D01*
X004709Y018879D01*
X004694Y018851D01*
X004675Y018826D01*
X004654Y018802D01*
X004630Y018782D01*
X004604Y018764D01*
X004576Y018750D01*
X004546Y018740D01*
X004515Y018733D01*
X004484Y018730D01*
X004452Y018731D01*
X004421Y018736D01*
X004391Y018745D01*
X004362Y018757D01*
X004335Y018773D01*
X004309Y018792D01*
X004287Y018814D01*
X004267Y018838D01*
X004250Y018865D01*
X004237Y018894D01*
X004228Y018924D01*
X004222Y018955D01*
X004220Y018986D01*
D11*
X004125Y003193D03*
X008375Y003193D03*
X012625Y003193D03*
X016875Y003193D03*
D12*
X012311Y011506D03*
X011996Y011506D03*
X011681Y011506D03*
X011366Y011506D03*
X011051Y011506D03*
X010736Y011506D03*
X010421Y011506D03*
X010106Y011506D03*
X009791Y011506D03*
X009476Y011506D03*
X009161Y011506D03*
X008846Y011506D03*
D13*
X003429Y016773D03*
X002327Y016773D03*
X002335Y018021D03*
X003437Y018021D03*
D14*
X001500Y014128D03*
X001500Y013128D03*
X001500Y012128D03*
X001500Y011128D03*
X001500Y010128D03*
X001500Y009128D03*
X001500Y008128D03*
X001500Y007128D03*
X001500Y006128D03*
X001500Y005128D03*
X019500Y005128D03*
X019500Y006128D03*
X019500Y007128D03*
X019500Y008128D03*
X019500Y009128D03*
X019500Y010128D03*
X019500Y011128D03*
X019500Y012128D03*
X019500Y013128D03*
X019500Y014128D03*
D15*
X018112Y011101D03*
X018112Y009981D03*
D16*
X018121Y012002D03*
X018121Y013104D03*
D17*
X016592Y004305D03*
X012311Y004292D03*
X008036Y004292D03*
X003737Y004305D03*
D18*
X002750Y007193D03*
X002750Y010193D03*
X002750Y011193D03*
X002750Y012193D03*
X002729Y013199D03*
X001500Y015443D03*
X011250Y006693D03*
X012250Y006693D03*
X013250Y006693D03*
X018039Y007179D03*
X018000Y008443D03*
X019500Y015443D03*
D19*
X007125Y006693D03*
D20*
X008125Y006693D03*
X009125Y006693D03*
X010125Y006693D03*
D21*
X009500Y007318D01*
X009500Y010693D01*
X009161Y010906D01*
X009161Y011506D01*
X008846Y011506D02*
X008563Y011506D01*
X008000Y010943D01*
X008000Y006818D01*
X008125Y006693D01*
X007440Y007243D02*
X007145Y007243D01*
X007145Y006713D01*
X007105Y006713D01*
X007105Y007243D01*
X006731Y007243D01*
X006686Y007230D01*
X006644Y007207D01*
X006611Y007173D01*
X006587Y007132D01*
X006575Y007086D01*
X006575Y006899D01*
X006559Y006908D01*
X006527Y006911D01*
X006497Y006924D01*
X006417Y006924D01*
X006338Y006933D01*
X006307Y006924D01*
X003655Y006924D01*
X003655Y007567D01*
X003125Y008098D01*
X002375Y008098D01*
X002295Y008017D01*
X002295Y008457D01*
X002124Y008628D01*
X002295Y008798D01*
X002295Y009368D01*
X002375Y009288D01*
X003125Y009288D01*
X003655Y009818D01*
X003655Y010567D01*
X003530Y010693D01*
X003655Y010818D01*
X003655Y011567D01*
X003530Y011693D01*
X003655Y011818D01*
X003655Y012567D01*
X003516Y012706D01*
X003634Y012825D01*
X003634Y013574D01*
X003104Y014104D01*
X002354Y014104D01*
X002295Y014045D01*
X002295Y014457D01*
X002060Y014692D01*
X002060Y014723D01*
X002405Y015068D01*
X002405Y015428D01*
X002514Y015383D01*
X006268Y015383D01*
X008916Y012734D01*
X008916Y012379D01*
X008672Y012379D01*
X008496Y012306D01*
X008361Y012171D01*
X008289Y011998D01*
X008246Y011980D01*
X007683Y011417D01*
X007525Y011260D01*
X007440Y011054D01*
X007440Y007243D01*
X007440Y007392D02*
X004603Y007392D01*
X004583Y007384D02*
X004854Y007496D01*
X005061Y007703D01*
X005173Y007973D01*
X005173Y008266D01*
X005061Y008537D01*
X004854Y008744D01*
X004583Y008856D01*
X004291Y008856D01*
X004020Y008744D01*
X003813Y008537D01*
X003701Y008266D01*
X003701Y007973D01*
X003813Y007703D01*
X004020Y007496D01*
X004291Y007384D01*
X004583Y007384D01*
X004271Y007392D02*
X003655Y007392D01*
X003655Y007234D02*
X006698Y007234D01*
X006575Y007075D02*
X003655Y007075D01*
X003655Y007551D02*
X003965Y007551D01*
X003811Y007709D02*
X003513Y007709D01*
X003355Y007868D02*
X003745Y007868D01*
X003701Y008026D02*
X003196Y008026D01*
X003701Y008185D02*
X002295Y008185D01*
X002295Y008343D02*
X003733Y008343D01*
X003799Y008502D02*
X002250Y008502D01*
X002157Y008660D02*
X003937Y008660D01*
X004201Y008819D02*
X002295Y008819D01*
X002295Y008977D02*
X007440Y008977D01*
X007440Y008819D02*
X004673Y008819D01*
X004937Y008660D02*
X007440Y008660D01*
X007440Y008502D02*
X005075Y008502D01*
X005141Y008343D02*
X007440Y008343D01*
X007440Y008185D02*
X005173Y008185D01*
X005173Y008026D02*
X007440Y008026D01*
X007440Y007868D02*
X005129Y007868D01*
X005063Y007709D02*
X007440Y007709D01*
X007440Y007551D02*
X004909Y007551D01*
X006515Y006917D02*
X006575Y006917D01*
X007105Y006917D02*
X007145Y006917D01*
X007145Y007075D02*
X007105Y007075D01*
X007105Y007234D02*
X007145Y007234D01*
X007145Y006758D02*
X007105Y006758D01*
X006386Y006364D02*
X008036Y004292D01*
X006386Y006364D02*
X002000Y006364D01*
X001685Y006128D01*
X001500Y006128D01*
X001500Y007128D02*
X001565Y007193D01*
X002750Y007193D01*
X002304Y008026D02*
X002295Y008026D01*
X002295Y009136D02*
X007440Y009136D01*
X007440Y009294D02*
X003131Y009294D01*
X003290Y009453D02*
X007440Y009453D01*
X007440Y009611D02*
X003448Y009611D01*
X003607Y009770D02*
X007440Y009770D01*
X007440Y009928D02*
X003655Y009928D01*
X003655Y010087D02*
X007440Y010087D01*
X007440Y010245D02*
X003655Y010245D01*
X003655Y010404D02*
X007440Y010404D01*
X007440Y010562D02*
X003655Y010562D01*
X003558Y010721D02*
X007440Y010721D01*
X007440Y010879D02*
X003655Y010879D01*
X003655Y011038D02*
X007440Y011038D01*
X007499Y011196D02*
X003655Y011196D01*
X003655Y011355D02*
X007620Y011355D01*
X007779Y011513D02*
X003655Y011513D01*
X003551Y011672D02*
X007937Y011672D01*
X008096Y011830D02*
X003655Y011830D01*
X003655Y011989D02*
X008266Y011989D01*
X008351Y012147D02*
X003655Y012147D01*
X003655Y012306D02*
X008495Y012306D01*
X008916Y012464D02*
X003655Y012464D01*
X003600Y012623D02*
X008916Y012623D01*
X008870Y012781D02*
X003591Y012781D01*
X003634Y012940D02*
X008711Y012940D01*
X008553Y013098D02*
X003634Y013098D01*
X003634Y013257D02*
X008394Y013257D01*
X008236Y013415D02*
X003634Y013415D01*
X003634Y013574D02*
X008077Y013574D01*
X007919Y013732D02*
X003477Y013732D01*
X003318Y013891D02*
X007760Y013891D01*
X007602Y014049D02*
X003160Y014049D01*
X002299Y014049D02*
X002295Y014049D01*
X002295Y014208D02*
X007443Y014208D01*
X007285Y014366D02*
X002295Y014366D01*
X002227Y014525D02*
X007126Y014525D01*
X006968Y014683D02*
X002069Y014683D01*
X002179Y014842D02*
X006809Y014842D01*
X006651Y015000D02*
X002337Y015000D01*
X002405Y015159D02*
X006492Y015159D01*
X006334Y015317D02*
X002405Y015317D01*
X002625Y015943D02*
X002375Y016193D01*
X002375Y016725D01*
X002327Y016773D01*
X002500Y017443D02*
X002375Y017568D01*
X002375Y017981D01*
X002335Y018021D01*
X002500Y017443D02*
X006250Y017443D01*
X010106Y013586D01*
X010106Y011506D01*
X009791Y011506D02*
X009791Y013276D01*
X006250Y016818D01*
X003473Y016818D01*
X003429Y016773D01*
X002625Y015943D02*
X006500Y015943D01*
X009476Y012966D01*
X009476Y011506D01*
X010421Y011506D02*
X010421Y014021D01*
X006500Y017943D01*
X003516Y017943D01*
X003437Y018021D01*
X003514Y018012D02*
X019770Y018012D01*
X019770Y018170D02*
X003932Y018170D01*
X003932Y018099D02*
X003932Y018399D01*
X003920Y018445D01*
X003896Y018486D01*
X003862Y018520D01*
X003821Y018543D01*
X003776Y018556D01*
X003514Y018556D01*
X003514Y018099D01*
X003360Y018099D01*
X003360Y018556D01*
X003098Y018556D01*
X003095Y018555D01*
X003057Y018647D01*
X002922Y018783D01*
X002745Y018856D01*
X001924Y018856D01*
X001748Y018783D01*
X001613Y018647D01*
X001540Y018471D01*
X001540Y017571D01*
X001609Y017404D01*
X001605Y017399D01*
X001532Y017223D01*
X001532Y016348D01*
X001230Y016348D01*
X001230Y019148D01*
X003747Y019148D01*
X003740Y019132D01*
X003740Y018839D01*
X003853Y018569D01*
X004060Y018362D01*
X004330Y018250D01*
X004623Y018250D01*
X004893Y018362D01*
X005100Y018569D01*
X005212Y018839D01*
X005212Y019132D01*
X005206Y019148D01*
X015968Y019148D01*
X015945Y019093D01*
X015945Y018800D01*
X016057Y018530D01*
X016264Y018323D01*
X016535Y018211D01*
X016827Y018211D01*
X017098Y018323D01*
X017305Y018530D01*
X017417Y018800D01*
X017417Y019093D01*
X017394Y019148D01*
X019770Y019148D01*
X019770Y016028D01*
X019751Y016048D01*
X019520Y016048D01*
X019520Y015463D01*
X019480Y015463D01*
X019480Y016048D01*
X019249Y016048D01*
X018895Y015693D01*
X018895Y015463D01*
X019480Y015463D01*
X019480Y015423D01*
X018895Y015423D01*
X018895Y015192D01*
X019249Y014838D01*
X019480Y014838D01*
X019480Y015423D01*
X019520Y015423D01*
X019520Y014838D01*
X019751Y014838D01*
X019770Y014857D01*
X019770Y014558D01*
X019705Y014623D01*
X019510Y014623D01*
X019510Y014138D01*
X019490Y014138D01*
X019490Y014623D01*
X019295Y014623D01*
X019005Y014333D01*
X019005Y014138D01*
X019490Y014138D01*
X019490Y014118D01*
X019005Y014118D01*
X019005Y013923D01*
X019088Y013840D01*
X018705Y013457D01*
X018705Y012798D01*
X018876Y012628D01*
X018859Y012611D01*
X018747Y012723D01*
X018654Y012762D01*
X018655Y012765D01*
X018655Y013026D01*
X018199Y013026D01*
X018199Y013181D01*
X018655Y013181D01*
X018655Y013443D01*
X018643Y013488D01*
X018619Y013529D01*
X018586Y013563D01*
X018545Y013587D01*
X018499Y013599D01*
X018199Y013599D01*
X018199Y013181D01*
X018044Y013181D01*
X018044Y013026D01*
X017587Y013026D01*
X017587Y012765D01*
X017588Y012762D01*
X017495Y012723D01*
X017360Y012588D01*
X017287Y012412D01*
X017287Y011661D01*
X013422Y011661D01*
X013216Y011576D01*
X012875Y011234D01*
X012870Y011240D01*
X012870Y011391D01*
X012871Y011394D01*
X012871Y013243D01*
X012786Y013449D01*
X012198Y014037D01*
X012198Y014256D01*
X012125Y014432D01*
X011990Y014567D01*
X011813Y014640D01*
X011187Y014640D01*
X011010Y014567D01*
X010875Y014432D01*
X010802Y014256D01*
X010802Y013629D01*
X010875Y013453D01*
X011010Y013318D01*
X011187Y013245D01*
X011406Y013245D01*
X011751Y012900D01*
X011751Y012379D01*
X010666Y012379D01*
X010666Y013698D01*
X010581Y013903D01*
X006725Y017760D01*
X006567Y017917D01*
X006361Y018003D01*
X003514Y018003D01*
X003514Y018099D01*
X003932Y018099D01*
X003932Y018329D02*
X004140Y018329D01*
X003934Y018487D02*
X003895Y018487D01*
X003821Y018646D02*
X003057Y018646D01*
X002870Y018804D02*
X003755Y018804D01*
X003740Y018963D02*
X001230Y018963D01*
X001230Y019121D02*
X003740Y019121D01*
X003514Y018487D02*
X003360Y018487D01*
X003360Y018329D02*
X003514Y018329D01*
X003514Y018170D02*
X003360Y018170D01*
X004813Y018329D02*
X016258Y018329D01*
X016100Y018487D02*
X005018Y018487D01*
X005132Y018646D02*
X016009Y018646D01*
X015945Y018804D02*
X005198Y018804D01*
X005212Y018963D02*
X015945Y018963D01*
X015957Y019121D02*
X005212Y019121D01*
X006631Y017853D02*
X019770Y017853D01*
X019770Y017695D02*
X006790Y017695D01*
X006948Y017536D02*
X019770Y017536D01*
X019770Y017378D02*
X007107Y017378D01*
X007265Y017219D02*
X019770Y017219D01*
X019770Y017061D02*
X007424Y017061D01*
X007582Y016902D02*
X019770Y016902D01*
X019770Y016744D02*
X007741Y016744D01*
X007899Y016585D02*
X019770Y016585D01*
X019770Y016427D02*
X008058Y016427D01*
X008216Y016268D02*
X019770Y016268D01*
X019770Y016110D02*
X008375Y016110D01*
X008533Y015951D02*
X019153Y015951D01*
X018994Y015793D02*
X008692Y015793D01*
X008850Y015634D02*
X018895Y015634D01*
X018895Y015476D02*
X009009Y015476D01*
X009167Y015317D02*
X018895Y015317D01*
X018928Y015159D02*
X009326Y015159D01*
X009484Y015000D02*
X019087Y015000D01*
X019245Y014842D02*
X009643Y014842D01*
X009801Y014683D02*
X019770Y014683D01*
X019755Y014842D02*
X019770Y014842D01*
X019520Y014842D02*
X019480Y014842D01*
X019480Y015000D02*
X019520Y015000D01*
X019520Y015159D02*
X019480Y015159D01*
X019480Y015317D02*
X019520Y015317D01*
X019520Y015476D02*
X019480Y015476D01*
X019480Y015634D02*
X019520Y015634D01*
X019520Y015793D02*
X019480Y015793D01*
X019480Y015951D02*
X019520Y015951D01*
X019490Y014525D02*
X019510Y014525D01*
X019510Y014366D02*
X019490Y014366D01*
X019490Y014208D02*
X019510Y014208D01*
X019197Y014525D02*
X012032Y014525D01*
X012152Y014366D02*
X019038Y014366D01*
X019005Y014208D02*
X012198Y014208D01*
X012198Y014049D02*
X019005Y014049D01*
X019037Y013891D02*
X012344Y013891D01*
X012502Y013732D02*
X018980Y013732D01*
X018822Y013574D02*
X018568Y013574D01*
X018655Y013415D02*
X018705Y013415D01*
X018705Y013257D02*
X018655Y013257D01*
X018705Y013098D02*
X018199Y013098D01*
X018044Y013098D02*
X012871Y013098D01*
X012871Y012940D02*
X017587Y012940D01*
X017587Y012781D02*
X012871Y012781D01*
X012871Y012623D02*
X017394Y012623D01*
X017308Y012464D02*
X012871Y012464D01*
X012871Y012306D02*
X017287Y012306D01*
X017287Y012147D02*
X012871Y012147D01*
X012871Y011989D02*
X017287Y011989D01*
X017287Y011830D02*
X012871Y011830D01*
X012871Y011672D02*
X017287Y011672D01*
X018000Y011943D02*
X018112Y011830D01*
X018112Y011101D01*
X013533Y011101D01*
X012875Y010443D01*
X012875Y007068D01*
X013250Y006693D01*
X013830Y007392D02*
X017134Y007392D01*
X017098Y007535D02*
X017305Y007742D01*
X017339Y007824D01*
X017372Y007791D01*
X017134Y007554D01*
X017134Y006924D01*
X014600Y006924D01*
X014502Y006928D01*
X014489Y006924D01*
X014475Y006924D01*
X014384Y006886D01*
X014292Y006853D01*
X014282Y006844D01*
X014269Y006839D01*
X014200Y006769D01*
X014155Y006728D01*
X014155Y007067D01*
X013625Y007598D01*
X013435Y007598D01*
X013435Y010211D01*
X013765Y010541D01*
X017339Y010541D01*
X017277Y010392D01*
X017277Y009571D01*
X017350Y009394D01*
X017485Y009259D01*
X017522Y009244D01*
X017095Y008817D01*
X017095Y008784D01*
X016827Y008895D01*
X016535Y008895D01*
X016264Y008783D01*
X016057Y008576D01*
X015945Y008305D01*
X015945Y008013D01*
X016057Y007742D01*
X016264Y007535D01*
X016535Y007423D01*
X016827Y007423D01*
X017098Y007535D01*
X017113Y007551D02*
X017134Y007551D01*
X017272Y007709D02*
X017290Y007709D01*
X017134Y007234D02*
X013989Y007234D01*
X014147Y007075D02*
X017134Y007075D01*
X018028Y007191D02*
X018039Y007179D01*
X019449Y007179D01*
X019500Y007128D01*
X019000Y006364D02*
X014587Y006364D01*
X012311Y004292D01*
X012250Y006693D02*
X012250Y007193D01*
X011051Y008391D01*
X011051Y011506D01*
X010736Y011506D02*
X010736Y007206D01*
X010500Y007443D01*
X010736Y007206D02*
X011250Y006693D01*
X013435Y007709D02*
X016090Y007709D01*
X016005Y007868D02*
X013435Y007868D01*
X013435Y008026D02*
X015945Y008026D01*
X015945Y008185D02*
X013435Y008185D01*
X013435Y008343D02*
X015961Y008343D01*
X016026Y008502D02*
X013435Y008502D01*
X013435Y008660D02*
X016141Y008660D01*
X016350Y008819D02*
X013435Y008819D01*
X013435Y008977D02*
X017255Y008977D01*
X017413Y009136D02*
X013435Y009136D01*
X013435Y009294D02*
X017451Y009294D01*
X017326Y009453D02*
X013435Y009453D01*
X013435Y009611D02*
X017277Y009611D01*
X017277Y009770D02*
X013435Y009770D01*
X013435Y009928D02*
X017277Y009928D01*
X017277Y010087D02*
X013435Y010087D01*
X013469Y010245D02*
X017277Y010245D01*
X017282Y010404D02*
X013628Y010404D01*
X012875Y010443D02*
X012500Y010818D01*
X012125Y010818D01*
X011996Y010946D01*
X011996Y011506D01*
X011681Y011506D02*
X011681Y009124D01*
X011500Y008943D01*
X013672Y007551D02*
X016249Y007551D01*
X015500Y006943D02*
X015000Y007443D01*
X015000Y009943D01*
X013154Y011513D02*
X012871Y011513D01*
X012870Y011355D02*
X012995Y011355D01*
X012311Y011506D02*
X012311Y013131D01*
X011500Y013943D01*
X010802Y013891D02*
X010586Y013891D01*
X010652Y013732D02*
X010802Y013732D01*
X010825Y013574D02*
X010666Y013574D01*
X010666Y013415D02*
X010913Y013415D01*
X011158Y013257D02*
X010666Y013257D01*
X010666Y013098D02*
X011553Y013098D01*
X011711Y012940D02*
X010666Y012940D01*
X010666Y012781D02*
X011751Y012781D01*
X011751Y012623D02*
X010666Y012623D01*
X010666Y012464D02*
X011751Y012464D01*
X012800Y013415D02*
X017587Y013415D01*
X017587Y013443D02*
X017587Y013181D01*
X018044Y013181D01*
X018044Y013599D01*
X017743Y013599D01*
X017697Y013587D01*
X017656Y013563D01*
X017623Y013529D01*
X017599Y013488D01*
X017587Y013443D01*
X017675Y013574D02*
X012661Y013574D01*
X012865Y013257D02*
X017587Y013257D01*
X018044Y013257D02*
X018199Y013257D01*
X018199Y013415D02*
X018044Y013415D01*
X018044Y013574D02*
X018199Y013574D01*
X018655Y012940D02*
X018705Y012940D01*
X018722Y012781D02*
X018655Y012781D01*
X018848Y012623D02*
X018871Y012623D01*
X018121Y012002D02*
X018059Y012002D01*
X018000Y011943D01*
X018259Y010128D02*
X018112Y009981D01*
X018259Y010128D02*
X019500Y010128D01*
X018000Y008443D02*
X018315Y008128D01*
X019500Y008128D01*
X019000Y006364D02*
X019315Y006128D01*
X019500Y006128D01*
X019500Y005128D02*
X018539Y005128D01*
X016592Y004305D01*
X014188Y006758D02*
X014155Y006758D01*
X014155Y006917D02*
X014458Y006917D01*
X017012Y008819D02*
X017096Y008819D01*
X010802Y014049D02*
X010435Y014049D01*
X010277Y014208D02*
X010802Y014208D01*
X010848Y014366D02*
X010118Y014366D01*
X009960Y014525D02*
X010968Y014525D01*
X017104Y018329D02*
X019770Y018329D01*
X019770Y018487D02*
X017262Y018487D01*
X017353Y018646D02*
X019770Y018646D01*
X019770Y018804D02*
X017417Y018804D01*
X017417Y018963D02*
X019770Y018963D01*
X019770Y019121D02*
X017405Y019121D01*
X002729Y013199D02*
X001572Y013199D01*
X001500Y013128D01*
X001565Y012193D02*
X001500Y012128D01*
X001565Y012193D02*
X002750Y012193D01*
X002750Y011193D02*
X002685Y011128D01*
X001500Y011128D01*
X001565Y010193D02*
X001500Y010128D01*
X001565Y010193D02*
X002750Y010193D01*
X002369Y009294D02*
X002295Y009294D01*
X002539Y005128D02*
X001500Y005128D01*
X002539Y005128D02*
X003737Y004305D01*
X001500Y014128D02*
X001500Y015443D01*
X001532Y016427D02*
X001230Y016427D01*
X001230Y016585D02*
X001532Y016585D01*
X001532Y016744D02*
X001230Y016744D01*
X001230Y016902D02*
X001532Y016902D01*
X001532Y017061D02*
X001230Y017061D01*
X001230Y017219D02*
X001532Y017219D01*
X001596Y017378D02*
X001230Y017378D01*
X001230Y017536D02*
X001554Y017536D01*
X001540Y017695D02*
X001230Y017695D01*
X001230Y017853D02*
X001540Y017853D01*
X001540Y018012D02*
X001230Y018012D01*
X001230Y018170D02*
X001540Y018170D01*
X001540Y018329D02*
X001230Y018329D01*
X001230Y018487D02*
X001546Y018487D01*
X001612Y018646D02*
X001230Y018646D01*
X001230Y018804D02*
X001800Y018804D01*
D22*
X005000Y014943D03*
X006000Y014943D03*
X005500Y011443D03*
X006500Y010443D03*
X005500Y006943D03*
X010500Y007443D03*
X011500Y008943D03*
X014000Y009443D03*
X015000Y009943D03*
X015500Y007943D03*
X015500Y006943D03*
X011500Y013943D03*
X011500Y017443D03*
X014500Y017943D03*
X015000Y014943D03*
D23*
X001638Y009269D02*
X001484Y009116D01*
X001488Y009116D01*
X001500Y009128D01*
M02*
