G75*
G70*
%OFA0B0*%
%FSLAX24Y24*%
%IPPOS*%
%LPD*%
%AMOC8*
5,1,8,0,0,1.08239X$1,22.5*
%
%ADD10C,0.0000*%
%ADD11R,0.0237X0.0867*%
%ADD12C,0.0474*%
%ADD13C,0.0592*%
%ADD14R,0.0710X0.0789*%
%ADD15OC8,0.0710*%
%ADD16R,0.0790X0.0710*%
%ADD17R,0.0789X0.0710*%
%ADD18C,0.0356*%
%ADD19OC8,0.0930*%
%ADD20R,0.0820X0.0820*%
%ADD21C,0.0820*%
%ADD22R,0.0516X0.0516*%
D10*
X000736Y000100D02*
X000736Y019663D01*
X020252Y019663D01*
X020252Y000100D01*
X000736Y000100D01*
X000750Y000128D02*
X000750Y019628D01*
X020250Y019628D01*
X020250Y000128D01*
X000750Y000128D01*
X004181Y008120D02*
X004183Y008151D01*
X004189Y008182D01*
X004198Y008212D01*
X004211Y008241D01*
X004228Y008268D01*
X004248Y008292D01*
X004270Y008314D01*
X004296Y008333D01*
X004323Y008349D01*
X004352Y008361D01*
X004382Y008370D01*
X004413Y008375D01*
X004445Y008376D01*
X004476Y008373D01*
X004507Y008366D01*
X004537Y008356D01*
X004565Y008342D01*
X004591Y008324D01*
X004615Y008304D01*
X004636Y008280D01*
X004655Y008255D01*
X004670Y008227D01*
X004681Y008198D01*
X004689Y008167D01*
X004693Y008136D01*
X004693Y008104D01*
X004689Y008073D01*
X004681Y008042D01*
X004670Y008013D01*
X004655Y007985D01*
X004636Y007960D01*
X004615Y007936D01*
X004591Y007916D01*
X004565Y007898D01*
X004537Y007884D01*
X004507Y007874D01*
X004476Y007867D01*
X004445Y007864D01*
X004413Y007865D01*
X004382Y007870D01*
X004352Y007879D01*
X004323Y007891D01*
X004296Y007907D01*
X004270Y007926D01*
X004248Y007948D01*
X004228Y007972D01*
X004211Y007999D01*
X004198Y008028D01*
X004189Y008058D01*
X004183Y008089D01*
X004181Y008120D01*
X008768Y010364D02*
X008770Y010391D01*
X008776Y010418D01*
X008785Y010444D01*
X008798Y010468D01*
X008814Y010491D01*
X008833Y010510D01*
X008855Y010527D01*
X008879Y010541D01*
X008904Y010551D01*
X008931Y010558D01*
X008958Y010561D01*
X008986Y010560D01*
X009013Y010555D01*
X009039Y010547D01*
X009063Y010535D01*
X009086Y010519D01*
X009107Y010501D01*
X009124Y010480D01*
X009139Y010456D01*
X009150Y010431D01*
X009158Y010405D01*
X009162Y010378D01*
X009162Y010350D01*
X009158Y010323D01*
X009150Y010297D01*
X009139Y010272D01*
X009124Y010248D01*
X009107Y010227D01*
X009086Y010209D01*
X009064Y010193D01*
X009039Y010181D01*
X009013Y010173D01*
X008986Y010168D01*
X008958Y010167D01*
X008931Y010170D01*
X008904Y010177D01*
X008879Y010187D01*
X008855Y010201D01*
X008833Y010218D01*
X008814Y010237D01*
X008798Y010260D01*
X008785Y010284D01*
X008776Y010310D01*
X008770Y010337D01*
X008768Y010364D01*
X011996Y010364D02*
X011998Y010391D01*
X012004Y010418D01*
X012013Y010444D01*
X012026Y010468D01*
X012042Y010491D01*
X012061Y010510D01*
X012083Y010527D01*
X012107Y010541D01*
X012132Y010551D01*
X012159Y010558D01*
X012186Y010561D01*
X012214Y010560D01*
X012241Y010555D01*
X012267Y010547D01*
X012291Y010535D01*
X012314Y010519D01*
X012335Y010501D01*
X012352Y010480D01*
X012367Y010456D01*
X012378Y010431D01*
X012386Y010405D01*
X012390Y010378D01*
X012390Y010350D01*
X012386Y010323D01*
X012378Y010297D01*
X012367Y010272D01*
X012352Y010248D01*
X012335Y010227D01*
X012314Y010209D01*
X012292Y010193D01*
X012267Y010181D01*
X012241Y010173D01*
X012214Y010168D01*
X012186Y010167D01*
X012159Y010170D01*
X012132Y010177D01*
X012107Y010187D01*
X012083Y010201D01*
X012061Y010218D01*
X012042Y010237D01*
X012026Y010260D01*
X012013Y010284D01*
X012004Y010310D01*
X011998Y010337D01*
X011996Y010364D01*
X016425Y008159D02*
X016427Y008190D01*
X016433Y008221D01*
X016442Y008251D01*
X016455Y008280D01*
X016472Y008307D01*
X016492Y008331D01*
X016514Y008353D01*
X016540Y008372D01*
X016567Y008388D01*
X016596Y008400D01*
X016626Y008409D01*
X016657Y008414D01*
X016689Y008415D01*
X016720Y008412D01*
X016751Y008405D01*
X016781Y008395D01*
X016809Y008381D01*
X016835Y008363D01*
X016859Y008343D01*
X016880Y008319D01*
X016899Y008294D01*
X016914Y008266D01*
X016925Y008237D01*
X016933Y008206D01*
X016937Y008175D01*
X016937Y008143D01*
X016933Y008112D01*
X016925Y008081D01*
X016914Y008052D01*
X016899Y008024D01*
X016880Y007999D01*
X016859Y007975D01*
X016835Y007955D01*
X016809Y007937D01*
X016781Y007923D01*
X016751Y007913D01*
X016720Y007906D01*
X016689Y007903D01*
X016657Y007904D01*
X016626Y007909D01*
X016596Y007918D01*
X016567Y007930D01*
X016540Y007946D01*
X016514Y007965D01*
X016492Y007987D01*
X016472Y008011D01*
X016455Y008038D01*
X016442Y008067D01*
X016433Y008097D01*
X016427Y008128D01*
X016425Y008159D01*
X016425Y018946D02*
X016427Y018977D01*
X016433Y019008D01*
X016442Y019038D01*
X016455Y019067D01*
X016472Y019094D01*
X016492Y019118D01*
X016514Y019140D01*
X016540Y019159D01*
X016567Y019175D01*
X016596Y019187D01*
X016626Y019196D01*
X016657Y019201D01*
X016689Y019202D01*
X016720Y019199D01*
X016751Y019192D01*
X016781Y019182D01*
X016809Y019168D01*
X016835Y019150D01*
X016859Y019130D01*
X016880Y019106D01*
X016899Y019081D01*
X016914Y019053D01*
X016925Y019024D01*
X016933Y018993D01*
X016937Y018962D01*
X016937Y018930D01*
X016933Y018899D01*
X016925Y018868D01*
X016914Y018839D01*
X016899Y018811D01*
X016880Y018786D01*
X016859Y018762D01*
X016835Y018742D01*
X016809Y018724D01*
X016781Y018710D01*
X016751Y018700D01*
X016720Y018693D01*
X016689Y018690D01*
X016657Y018691D01*
X016626Y018696D01*
X016596Y018705D01*
X016567Y018717D01*
X016540Y018733D01*
X016514Y018752D01*
X016492Y018774D01*
X016472Y018798D01*
X016455Y018825D01*
X016442Y018854D01*
X016433Y018884D01*
X016427Y018915D01*
X016425Y018946D01*
X004220Y018986D02*
X004222Y019017D01*
X004228Y019048D01*
X004237Y019078D01*
X004250Y019107D01*
X004267Y019134D01*
X004287Y019158D01*
X004309Y019180D01*
X004335Y019199D01*
X004362Y019215D01*
X004391Y019227D01*
X004421Y019236D01*
X004452Y019241D01*
X004484Y019242D01*
X004515Y019239D01*
X004546Y019232D01*
X004576Y019222D01*
X004604Y019208D01*
X004630Y019190D01*
X004654Y019170D01*
X004675Y019146D01*
X004694Y019121D01*
X004709Y019093D01*
X004720Y019064D01*
X004728Y019033D01*
X004732Y019002D01*
X004732Y018970D01*
X004728Y018939D01*
X004720Y018908D01*
X004709Y018879D01*
X004694Y018851D01*
X004675Y018826D01*
X004654Y018802D01*
X004630Y018782D01*
X004604Y018764D01*
X004576Y018750D01*
X004546Y018740D01*
X004515Y018733D01*
X004484Y018730D01*
X004452Y018731D01*
X004421Y018736D01*
X004391Y018745D01*
X004362Y018757D01*
X004335Y018773D01*
X004309Y018792D01*
X004287Y018814D01*
X004267Y018838D01*
X004250Y018865D01*
X004237Y018894D01*
X004228Y018924D01*
X004222Y018955D01*
X004220Y018986D01*
D11*
X008846Y011506D03*
X009161Y011506D03*
X009476Y011506D03*
X009791Y011506D03*
X010106Y011506D03*
X010421Y011506D03*
X010736Y011506D03*
X011051Y011506D03*
X011366Y011506D03*
X011681Y011506D03*
X011996Y011506D03*
X012311Y011506D03*
D12*
X012193Y010364D03*
X008965Y010364D03*
D13*
X004437Y008120D03*
X004476Y018986D03*
X016681Y018946D03*
X016681Y008159D03*
D14*
X003429Y016773D03*
X002327Y016773D03*
X002335Y018021D03*
X003437Y018021D03*
D15*
X001500Y014128D03*
X001500Y013128D03*
X001500Y012128D03*
X001500Y011128D03*
X001500Y010128D03*
X001500Y009128D03*
X001500Y008128D03*
X001500Y007128D03*
X001500Y006128D03*
X001500Y005128D03*
X019500Y005128D03*
X019500Y006128D03*
X019500Y007128D03*
X019500Y008128D03*
X019500Y009128D03*
X019500Y010128D03*
X019500Y011128D03*
X019500Y012128D03*
X019500Y013128D03*
X019500Y014128D03*
D16*
X018112Y011101D03*
X018112Y009981D03*
D17*
X018121Y012002D03*
X018121Y013104D03*
D18*
X016592Y004305D03*
X012311Y004292D03*
X008036Y004292D03*
X003737Y004305D03*
D19*
X002750Y007193D03*
X002750Y010193D03*
X002750Y011193D03*
X002750Y012193D03*
X002729Y013199D03*
X001500Y015443D03*
X011250Y006693D03*
X012250Y006693D03*
X013250Y006693D03*
X018039Y007179D03*
X018000Y008443D03*
X019500Y015443D03*
D20*
X007125Y006693D03*
D21*
X008125Y006693D03*
X009125Y006693D03*
X010125Y006693D03*
D22*
X010500Y007443D03*
X011500Y008943D03*
X014000Y009443D03*
X015000Y009943D03*
X015500Y007943D03*
X015500Y006943D03*
X011500Y013943D03*
X011500Y017443D03*
X014500Y017943D03*
X015000Y014943D03*
X006500Y010443D03*
X005500Y011443D03*
X005000Y014943D03*
X006000Y014943D03*
X005500Y006943D03*
M02*
