G75*
G70*
%OFA0B0*%
%FSLAX24Y24*%
%IPPOS*%
%LPD*%
%AMOC8*
5,1,8,0,0,1.08239X$1,22.5*
%
%ADD10C,0.0000*%
%ADD11R,0.0157X0.0787*%
%ADD12OC8,0.0630*%
%ADD13C,0.0560*%
%ADD14C,0.0160*%
%ADD15R,0.0317X0.0317*%
%ADD16C,0.0120*%
%ADD17R,0.0356X0.0356*%
D10*
X000174Y000263D02*
X000174Y013537D01*
X013690Y013537D01*
X013690Y000263D01*
X000174Y000263D01*
X000540Y000869D02*
X000542Y000900D01*
X000548Y000931D01*
X000557Y000961D01*
X000570Y000990D01*
X000587Y001017D01*
X000607Y001041D01*
X000629Y001063D01*
X000655Y001082D01*
X000682Y001098D01*
X000711Y001110D01*
X000741Y001119D01*
X000772Y001124D01*
X000804Y001125D01*
X000835Y001122D01*
X000866Y001115D01*
X000896Y001105D01*
X000924Y001091D01*
X000950Y001073D01*
X000974Y001053D01*
X000995Y001029D01*
X001014Y001004D01*
X001029Y000976D01*
X001040Y000947D01*
X001048Y000916D01*
X001052Y000885D01*
X001052Y000853D01*
X001048Y000822D01*
X001040Y000791D01*
X001029Y000762D01*
X001014Y000734D01*
X000995Y000709D01*
X000974Y000685D01*
X000950Y000665D01*
X000924Y000647D01*
X000896Y000633D01*
X000866Y000623D01*
X000835Y000616D01*
X000804Y000613D01*
X000772Y000614D01*
X000741Y000619D01*
X000711Y000628D01*
X000682Y000640D01*
X000655Y000656D01*
X000629Y000675D01*
X000607Y000697D01*
X000587Y000721D01*
X000570Y000748D01*
X000557Y000777D01*
X000548Y000807D01*
X000542Y000838D01*
X000540Y000869D01*
X000348Y004448D02*
X000350Y004473D01*
X000356Y004497D01*
X000365Y004519D01*
X000378Y004540D01*
X000394Y004559D01*
X000413Y004575D01*
X000434Y004588D01*
X000456Y004597D01*
X000480Y004603D01*
X000505Y004605D01*
X000530Y004603D01*
X000554Y004597D01*
X000576Y004588D01*
X000597Y004575D01*
X000616Y004559D01*
X000632Y004540D01*
X000645Y004519D01*
X000654Y004497D01*
X000660Y004473D01*
X000662Y004448D01*
X000660Y004423D01*
X000654Y004399D01*
X000645Y004377D01*
X000632Y004356D01*
X000616Y004337D01*
X000597Y004321D01*
X000576Y004308D01*
X000554Y004299D01*
X000530Y004293D01*
X000505Y004291D01*
X000480Y004293D01*
X000456Y004299D01*
X000434Y004308D01*
X000413Y004321D01*
X000394Y004337D01*
X000378Y004356D01*
X000365Y004377D01*
X000356Y004399D01*
X000350Y004423D01*
X000348Y004448D01*
X001411Y004448D02*
X001413Y004473D01*
X001419Y004497D01*
X001428Y004519D01*
X001441Y004540D01*
X001457Y004559D01*
X001476Y004575D01*
X001497Y004588D01*
X001519Y004597D01*
X001543Y004603D01*
X001568Y004605D01*
X001593Y004603D01*
X001617Y004597D01*
X001639Y004588D01*
X001660Y004575D01*
X001679Y004559D01*
X001695Y004540D01*
X001708Y004519D01*
X001717Y004497D01*
X001723Y004473D01*
X001725Y004448D01*
X001723Y004423D01*
X001717Y004399D01*
X001708Y004377D01*
X001695Y004356D01*
X001679Y004337D01*
X001660Y004321D01*
X001639Y004308D01*
X001617Y004299D01*
X001593Y004293D01*
X001568Y004291D01*
X001543Y004293D01*
X001519Y004299D01*
X001497Y004308D01*
X001476Y004321D01*
X001457Y004337D01*
X001441Y004356D01*
X001428Y004377D01*
X001419Y004399D01*
X001413Y004423D01*
X001411Y004448D01*
X005127Y003113D02*
X005129Y003140D01*
X005135Y003167D01*
X005144Y003193D01*
X005157Y003217D01*
X005173Y003240D01*
X005192Y003259D01*
X005214Y003276D01*
X005238Y003290D01*
X005263Y003300D01*
X005290Y003307D01*
X005317Y003310D01*
X005345Y003309D01*
X005372Y003304D01*
X005398Y003296D01*
X005422Y003284D01*
X005445Y003268D01*
X005466Y003250D01*
X005483Y003229D01*
X005498Y003205D01*
X005509Y003180D01*
X005517Y003154D01*
X005521Y003127D01*
X005521Y003099D01*
X005517Y003072D01*
X005509Y003046D01*
X005498Y003021D01*
X005483Y002997D01*
X005466Y002976D01*
X005445Y002958D01*
X005423Y002942D01*
X005398Y002930D01*
X005372Y002922D01*
X005345Y002917D01*
X005317Y002916D01*
X005290Y002919D01*
X005263Y002926D01*
X005238Y002936D01*
X005214Y002950D01*
X005192Y002967D01*
X005173Y002986D01*
X005157Y003009D01*
X005144Y003033D01*
X005135Y003059D01*
X005129Y003086D01*
X005127Y003113D01*
X008355Y003113D02*
X008357Y003140D01*
X008363Y003167D01*
X008372Y003193D01*
X008385Y003217D01*
X008401Y003240D01*
X008420Y003259D01*
X008442Y003276D01*
X008466Y003290D01*
X008491Y003300D01*
X008518Y003307D01*
X008545Y003310D01*
X008573Y003309D01*
X008600Y003304D01*
X008626Y003296D01*
X008650Y003284D01*
X008673Y003268D01*
X008694Y003250D01*
X008711Y003229D01*
X008726Y003205D01*
X008737Y003180D01*
X008745Y003154D01*
X008749Y003127D01*
X008749Y003099D01*
X008745Y003072D01*
X008737Y003046D01*
X008726Y003021D01*
X008711Y002997D01*
X008694Y002976D01*
X008673Y002958D01*
X008651Y002942D01*
X008626Y002930D01*
X008600Y002922D01*
X008573Y002917D01*
X008545Y002916D01*
X008518Y002919D01*
X008491Y002926D01*
X008466Y002936D01*
X008442Y002950D01*
X008420Y002967D01*
X008401Y002986D01*
X008385Y003009D01*
X008372Y003033D01*
X008363Y003059D01*
X008357Y003086D01*
X008355Y003113D01*
X012182Y005983D02*
X012184Y006014D01*
X012190Y006045D01*
X012199Y006075D01*
X012212Y006104D01*
X012229Y006131D01*
X012249Y006155D01*
X012271Y006177D01*
X012297Y006196D01*
X012324Y006212D01*
X012353Y006224D01*
X012383Y006233D01*
X012414Y006238D01*
X012446Y006239D01*
X012477Y006236D01*
X012508Y006229D01*
X012538Y006219D01*
X012566Y006205D01*
X012592Y006187D01*
X012616Y006167D01*
X012637Y006143D01*
X012656Y006118D01*
X012671Y006090D01*
X012682Y006061D01*
X012690Y006030D01*
X012694Y005999D01*
X012694Y005967D01*
X012690Y005936D01*
X012682Y005905D01*
X012671Y005876D01*
X012656Y005848D01*
X012637Y005823D01*
X012616Y005799D01*
X012592Y005779D01*
X012566Y005761D01*
X012538Y005747D01*
X012508Y005737D01*
X012477Y005730D01*
X012446Y005727D01*
X012414Y005728D01*
X012383Y005733D01*
X012353Y005742D01*
X012324Y005754D01*
X012297Y005770D01*
X012271Y005789D01*
X012249Y005811D01*
X012229Y005835D01*
X012212Y005862D01*
X012199Y005891D01*
X012190Y005921D01*
X012184Y005952D01*
X012182Y005983D01*
X012182Y007893D02*
X012184Y007924D01*
X012190Y007955D01*
X012199Y007985D01*
X012212Y008014D01*
X012229Y008041D01*
X012249Y008065D01*
X012271Y008087D01*
X012297Y008106D01*
X012324Y008122D01*
X012353Y008134D01*
X012383Y008143D01*
X012414Y008148D01*
X012446Y008149D01*
X012477Y008146D01*
X012508Y008139D01*
X012538Y008129D01*
X012566Y008115D01*
X012592Y008097D01*
X012616Y008077D01*
X012637Y008053D01*
X012656Y008028D01*
X012671Y008000D01*
X012682Y007971D01*
X012690Y007940D01*
X012694Y007909D01*
X012694Y007877D01*
X012690Y007846D01*
X012682Y007815D01*
X012671Y007786D01*
X012656Y007758D01*
X012637Y007733D01*
X012616Y007709D01*
X012592Y007689D01*
X012566Y007671D01*
X012538Y007657D01*
X012508Y007647D01*
X012477Y007640D01*
X012446Y007637D01*
X012414Y007638D01*
X012383Y007643D01*
X012353Y007652D01*
X012324Y007664D01*
X012297Y007680D01*
X012271Y007699D01*
X012249Y007721D01*
X012229Y007745D01*
X012212Y007772D01*
X012199Y007801D01*
X012190Y007831D01*
X012184Y007862D01*
X012182Y007893D01*
X012784Y011696D02*
X012786Y011727D01*
X012792Y011758D01*
X012801Y011788D01*
X012814Y011817D01*
X012831Y011844D01*
X012851Y011868D01*
X012873Y011890D01*
X012899Y011909D01*
X012926Y011925D01*
X012955Y011937D01*
X012985Y011946D01*
X013016Y011951D01*
X013048Y011952D01*
X013079Y011949D01*
X013110Y011942D01*
X013140Y011932D01*
X013168Y011918D01*
X013194Y011900D01*
X013218Y011880D01*
X013239Y011856D01*
X013258Y011831D01*
X013273Y011803D01*
X013284Y011774D01*
X013292Y011743D01*
X013296Y011712D01*
X013296Y011680D01*
X013292Y011649D01*
X013284Y011618D01*
X013273Y011589D01*
X013258Y011561D01*
X013239Y011536D01*
X013218Y011512D01*
X013194Y011492D01*
X013168Y011474D01*
X013140Y011460D01*
X013110Y011450D01*
X013079Y011443D01*
X013048Y011440D01*
X013016Y011441D01*
X012985Y011446D01*
X012955Y011455D01*
X012926Y011467D01*
X012899Y011483D01*
X012873Y011502D01*
X012851Y011524D01*
X012831Y011548D01*
X012814Y011575D01*
X012801Y011604D01*
X012792Y011634D01*
X012786Y011665D01*
X012784Y011696D01*
X012989Y012940D02*
X012991Y012971D01*
X012997Y013002D01*
X013006Y013032D01*
X013019Y013061D01*
X013036Y013088D01*
X013056Y013112D01*
X013078Y013134D01*
X013104Y013153D01*
X013131Y013169D01*
X013160Y013181D01*
X013190Y013190D01*
X013221Y013195D01*
X013253Y013196D01*
X013284Y013193D01*
X013315Y013186D01*
X013345Y013176D01*
X013373Y013162D01*
X013399Y013144D01*
X013423Y013124D01*
X013444Y013100D01*
X013463Y013075D01*
X013478Y013047D01*
X013489Y013018D01*
X013497Y012987D01*
X013501Y012956D01*
X013501Y012924D01*
X013497Y012893D01*
X013489Y012862D01*
X013478Y012833D01*
X013463Y012805D01*
X013444Y012780D01*
X013423Y012756D01*
X013399Y012736D01*
X013373Y012718D01*
X013345Y012704D01*
X013315Y012694D01*
X013284Y012687D01*
X013253Y012684D01*
X013221Y012685D01*
X013190Y012690D01*
X013160Y012699D01*
X013131Y012711D01*
X013104Y012727D01*
X013078Y012746D01*
X013056Y012768D01*
X013036Y012792D01*
X013019Y012819D01*
X013006Y012848D01*
X012997Y012878D01*
X012991Y012909D01*
X012989Y012940D01*
X001411Y009448D02*
X001413Y009473D01*
X001419Y009497D01*
X001428Y009519D01*
X001441Y009540D01*
X001457Y009559D01*
X001476Y009575D01*
X001497Y009588D01*
X001519Y009597D01*
X001543Y009603D01*
X001568Y009605D01*
X001593Y009603D01*
X001617Y009597D01*
X001639Y009588D01*
X001660Y009575D01*
X001679Y009559D01*
X001695Y009540D01*
X001708Y009519D01*
X001717Y009497D01*
X001723Y009473D01*
X001725Y009448D01*
X001723Y009423D01*
X001717Y009399D01*
X001708Y009377D01*
X001695Y009356D01*
X001679Y009337D01*
X001660Y009321D01*
X001639Y009308D01*
X001617Y009299D01*
X001593Y009293D01*
X001568Y009291D01*
X001543Y009293D01*
X001519Y009299D01*
X001497Y009308D01*
X001476Y009321D01*
X001457Y009337D01*
X001441Y009356D01*
X001428Y009377D01*
X001419Y009399D01*
X001413Y009423D01*
X001411Y009448D01*
X000348Y009448D02*
X000350Y009473D01*
X000356Y009497D01*
X000365Y009519D01*
X000378Y009540D01*
X000394Y009559D01*
X000413Y009575D01*
X000434Y009588D01*
X000456Y009597D01*
X000480Y009603D01*
X000505Y009605D01*
X000530Y009603D01*
X000554Y009597D01*
X000576Y009588D01*
X000597Y009575D01*
X000616Y009559D01*
X000632Y009540D01*
X000645Y009519D01*
X000654Y009497D01*
X000660Y009473D01*
X000662Y009448D01*
X000660Y009423D01*
X000654Y009399D01*
X000645Y009377D01*
X000632Y009356D01*
X000616Y009337D01*
X000597Y009321D01*
X000576Y009308D01*
X000554Y009299D01*
X000530Y009293D01*
X000505Y009291D01*
X000480Y009293D01*
X000456Y009299D01*
X000434Y009308D01*
X000413Y009321D01*
X000394Y009337D01*
X000378Y009356D01*
X000365Y009377D01*
X000356Y009399D01*
X000350Y009423D01*
X000348Y009448D01*
X000580Y011735D02*
X000582Y011766D01*
X000588Y011797D01*
X000597Y011827D01*
X000610Y011856D01*
X000627Y011883D01*
X000647Y011907D01*
X000669Y011929D01*
X000695Y011948D01*
X000722Y011964D01*
X000751Y011976D01*
X000781Y011985D01*
X000812Y011990D01*
X000844Y011991D01*
X000875Y011988D01*
X000906Y011981D01*
X000936Y011971D01*
X000964Y011957D01*
X000990Y011939D01*
X001014Y011919D01*
X001035Y011895D01*
X001054Y011870D01*
X001069Y011842D01*
X001080Y011813D01*
X001088Y011782D01*
X001092Y011751D01*
X001092Y011719D01*
X001088Y011688D01*
X001080Y011657D01*
X001069Y011628D01*
X001054Y011600D01*
X001035Y011575D01*
X001014Y011551D01*
X000990Y011531D01*
X000964Y011513D01*
X000936Y011499D01*
X000906Y011489D01*
X000875Y011482D01*
X000844Y011479D01*
X000812Y011480D01*
X000781Y011485D01*
X000751Y011494D01*
X000722Y011506D01*
X000695Y011522D01*
X000669Y011541D01*
X000647Y011563D01*
X000627Y011587D01*
X000610Y011614D01*
X000597Y011643D01*
X000588Y011673D01*
X000582Y011704D01*
X000580Y011735D01*
X000351Y012940D02*
X000353Y012971D01*
X000359Y013002D01*
X000368Y013032D01*
X000381Y013061D01*
X000398Y013088D01*
X000418Y013112D01*
X000440Y013134D01*
X000466Y013153D01*
X000493Y013169D01*
X000522Y013181D01*
X000552Y013190D01*
X000583Y013195D01*
X000615Y013196D01*
X000646Y013193D01*
X000677Y013186D01*
X000707Y013176D01*
X000735Y013162D01*
X000761Y013144D01*
X000785Y013124D01*
X000806Y013100D01*
X000825Y013075D01*
X000840Y013047D01*
X000851Y013018D01*
X000859Y012987D01*
X000863Y012956D01*
X000863Y012924D01*
X000859Y012893D01*
X000851Y012862D01*
X000840Y012833D01*
X000825Y012805D01*
X000806Y012780D01*
X000785Y012756D01*
X000761Y012736D01*
X000735Y012718D01*
X000707Y012704D01*
X000677Y012694D01*
X000646Y012687D01*
X000615Y012684D01*
X000583Y012685D01*
X000552Y012690D01*
X000522Y012699D01*
X000493Y012711D01*
X000466Y012727D01*
X000440Y012746D01*
X000418Y012768D01*
X000398Y012792D01*
X000381Y012819D01*
X000368Y012848D01*
X000359Y012878D01*
X000353Y012909D01*
X000351Y012940D01*
X012784Y000909D02*
X012786Y000940D01*
X012792Y000971D01*
X012801Y001001D01*
X012814Y001030D01*
X012831Y001057D01*
X012851Y001081D01*
X012873Y001103D01*
X012899Y001122D01*
X012926Y001138D01*
X012955Y001150D01*
X012985Y001159D01*
X013016Y001164D01*
X013048Y001165D01*
X013079Y001162D01*
X013110Y001155D01*
X013140Y001145D01*
X013168Y001131D01*
X013194Y001113D01*
X013218Y001093D01*
X013239Y001069D01*
X013258Y001044D01*
X013273Y001016D01*
X013284Y000987D01*
X013292Y000956D01*
X013296Y000925D01*
X013296Y000893D01*
X013292Y000862D01*
X013284Y000831D01*
X013273Y000802D01*
X013258Y000774D01*
X013239Y000749D01*
X013218Y000725D01*
X013194Y000705D01*
X013168Y000687D01*
X013140Y000673D01*
X013110Y000663D01*
X013079Y000656D01*
X013048Y000653D01*
X013016Y000654D01*
X012985Y000659D01*
X012955Y000668D01*
X012926Y000680D01*
X012899Y000696D01*
X012873Y000715D01*
X012851Y000737D01*
X012831Y000761D01*
X012814Y000788D01*
X012801Y000817D01*
X012792Y000847D01*
X012786Y000878D01*
X012784Y000909D01*
D11*
X008670Y004255D03*
X008355Y004255D03*
X008040Y004255D03*
X007725Y004255D03*
X007411Y004255D03*
X007096Y004255D03*
X006781Y004255D03*
X006466Y004255D03*
X006151Y004255D03*
X005836Y004255D03*
X005521Y004255D03*
X005206Y004255D03*
D12*
X005438Y012948D03*
X004438Y012948D03*
X003438Y012948D03*
X002438Y012948D03*
X001438Y012948D03*
X006438Y012948D03*
X007438Y012948D03*
X008438Y012948D03*
X009438Y012948D03*
X010438Y012948D03*
X011438Y012948D03*
X012438Y012948D03*
D13*
X002430Y001125D03*
X001643Y001125D03*
D14*
X001094Y001369D02*
X001134Y001465D01*
X001303Y001634D01*
X001523Y001725D01*
X001762Y001725D01*
X001983Y001634D01*
X002136Y001480D01*
X002189Y001519D01*
X002254Y001551D01*
X002322Y001574D01*
X002394Y001585D01*
X002430Y001585D01*
X002430Y001125D01*
X002430Y001125D01*
X002430Y000665D01*
X002394Y000665D01*
X002322Y000677D01*
X002254Y000699D01*
X002189Y000732D01*
X002136Y000770D01*
X001983Y000617D01*
X001902Y000583D01*
X009638Y000583D01*
X009547Y000621D01*
X009517Y000650D01*
X007661Y000650D01*
X007628Y000643D01*
X007582Y000650D01*
X007536Y000650D01*
X007505Y000663D01*
X007471Y000669D01*
X007432Y000693D01*
X007389Y000711D01*
X007365Y000735D01*
X007336Y000753D01*
X007309Y000791D01*
X007276Y000824D01*
X007263Y000855D01*
X005797Y002905D01*
X005762Y002821D01*
X005617Y002675D01*
X005427Y002597D01*
X005221Y002597D01*
X005031Y002675D01*
X004886Y002821D01*
X004807Y003011D01*
X004807Y003216D01*
X004886Y003406D01*
X005031Y003552D01*
X005035Y003553D01*
X004946Y003590D01*
X004856Y003680D01*
X004807Y003798D01*
X004807Y003855D01*
X004551Y003855D01*
X004404Y003916D01*
X004099Y004221D01*
X004038Y004368D01*
X004038Y004528D01*
X004058Y004576D01*
X004058Y005320D01*
X004038Y005368D01*
X004038Y005539D01*
X003989Y005589D01*
X003940Y005706D01*
X003940Y006190D01*
X003989Y006307D01*
X004058Y006377D01*
X004058Y012430D01*
X003938Y012550D01*
X003701Y012313D01*
X003175Y012313D01*
X002938Y012550D01*
X002701Y012313D01*
X002175Y012313D01*
X001938Y012550D01*
X001701Y012313D01*
X001175Y012313D01*
X000985Y012503D01*
X000934Y012452D01*
X000722Y012364D01*
X000494Y012364D01*
X000494Y012208D01*
X000509Y012224D01*
X000721Y012311D01*
X000950Y012311D01*
X001162Y012224D01*
X001324Y012062D01*
X001412Y011850D01*
X001412Y011621D01*
X001324Y011409D01*
X001162Y011247D01*
X000950Y011160D01*
X000721Y011160D01*
X000509Y011247D01*
X000494Y011262D01*
X000494Y009926D01*
X000600Y009926D01*
X000775Y009853D01*
X000910Y009719D01*
X000982Y009543D01*
X000982Y009353D01*
X000910Y009178D01*
X000775Y009043D01*
X000600Y008971D01*
X000494Y008971D01*
X000494Y004926D01*
X000600Y004926D01*
X000775Y004853D01*
X000910Y004719D01*
X000982Y004543D01*
X000982Y004353D01*
X000910Y004178D01*
X000775Y004043D01*
X000600Y003971D01*
X000494Y003971D01*
X000494Y001368D01*
X000682Y001445D01*
X000911Y001445D01*
X001094Y001369D01*
X001097Y001375D02*
X001081Y001375D01*
X001202Y001533D02*
X000494Y001533D01*
X000494Y001375D02*
X000511Y001375D01*
X000494Y001692D02*
X001442Y001692D01*
X001843Y001692D02*
X006665Y001692D01*
X006552Y001850D02*
X000494Y001850D01*
X000494Y002009D02*
X006438Y002009D01*
X006325Y002167D02*
X000494Y002167D01*
X000494Y002326D02*
X006211Y002326D01*
X006098Y002484D02*
X000494Y002484D01*
X000494Y002643D02*
X005110Y002643D01*
X004905Y002801D02*
X000494Y002801D01*
X000494Y002960D02*
X004828Y002960D01*
X004807Y003118D02*
X000494Y003118D01*
X000494Y003277D02*
X004832Y003277D01*
X004915Y003435D02*
X000494Y003435D01*
X000494Y003594D02*
X004942Y003594D01*
X004826Y003752D02*
X000494Y003752D01*
X000494Y003911D02*
X004418Y003911D01*
X004251Y004069D02*
X001864Y004069D01*
X001838Y004043D02*
X001973Y004178D01*
X002045Y004353D01*
X002045Y004543D01*
X001973Y004719D01*
X001838Y004853D01*
X001663Y004926D01*
X001473Y004926D01*
X001298Y004853D01*
X001163Y004719D01*
X001091Y004543D01*
X001091Y004353D01*
X001163Y004178D01*
X001298Y004043D01*
X001473Y003971D01*
X001663Y003971D01*
X001838Y004043D01*
X001993Y004228D02*
X004096Y004228D01*
X004038Y004386D02*
X002045Y004386D01*
X002045Y004545D02*
X004045Y004545D01*
X004058Y004703D02*
X001979Y004703D01*
X001817Y004862D02*
X004058Y004862D01*
X004058Y005020D02*
X000494Y005020D01*
X000494Y005179D02*
X004058Y005179D01*
X004051Y005337D02*
X000494Y005337D01*
X000494Y005496D02*
X004038Y005496D01*
X003962Y005654D02*
X000494Y005654D01*
X000494Y005813D02*
X003940Y005813D01*
X003940Y005971D02*
X000494Y005971D01*
X000494Y006130D02*
X003940Y006130D01*
X003981Y006288D02*
X000494Y006288D01*
X000494Y006447D02*
X004058Y006447D01*
X004058Y006605D02*
X000494Y006605D01*
X000494Y006764D02*
X004058Y006764D01*
X004058Y006922D02*
X000494Y006922D01*
X000494Y007081D02*
X004058Y007081D01*
X004058Y007239D02*
X000494Y007239D01*
X000494Y007398D02*
X004058Y007398D01*
X004058Y007556D02*
X000494Y007556D01*
X000494Y007715D02*
X004058Y007715D01*
X004058Y007873D02*
X000494Y007873D01*
X000494Y008032D02*
X004058Y008032D01*
X004058Y008190D02*
X000494Y008190D01*
X000494Y008349D02*
X004058Y008349D01*
X004058Y008507D02*
X000494Y008507D01*
X000494Y008666D02*
X004058Y008666D01*
X004058Y008824D02*
X000494Y008824D01*
X000629Y008983D02*
X001444Y008983D01*
X001473Y008971D02*
X001663Y008971D01*
X001838Y009043D01*
X001973Y009178D01*
X002045Y009353D01*
X002045Y009543D01*
X001973Y009719D01*
X001838Y009853D01*
X001663Y009926D01*
X001473Y009926D01*
X001298Y009853D01*
X001163Y009719D01*
X001091Y009543D01*
X001091Y009353D01*
X001163Y009178D01*
X001298Y009043D01*
X001473Y008971D01*
X001692Y008983D02*
X004058Y008983D01*
X004058Y009141D02*
X001936Y009141D01*
X002023Y009300D02*
X004058Y009300D01*
X004058Y009458D02*
X002045Y009458D01*
X002015Y009617D02*
X004058Y009617D01*
X004058Y009775D02*
X001916Y009775D01*
X001220Y009775D02*
X000853Y009775D01*
X000952Y009617D02*
X001121Y009617D01*
X001091Y009458D02*
X000982Y009458D01*
X000960Y009300D02*
X001113Y009300D01*
X001200Y009141D02*
X000873Y009141D01*
X000494Y009934D02*
X004058Y009934D01*
X004058Y010092D02*
X000494Y010092D01*
X000494Y010251D02*
X004058Y010251D01*
X004058Y010409D02*
X000494Y010409D01*
X000494Y010568D02*
X004058Y010568D01*
X004058Y010726D02*
X000494Y010726D01*
X000494Y010885D02*
X004058Y010885D01*
X004058Y011043D02*
X000494Y011043D01*
X000494Y011202D02*
X000620Y011202D01*
X001052Y011202D02*
X004058Y011202D01*
X004058Y011360D02*
X001275Y011360D01*
X001369Y011519D02*
X004058Y011519D01*
X004058Y011677D02*
X001412Y011677D01*
X001412Y011836D02*
X004058Y011836D01*
X004058Y011994D02*
X001352Y011994D01*
X001233Y012153D02*
X004058Y012153D01*
X004058Y012311D02*
X000951Y012311D01*
X000951Y012470D02*
X001019Y012470D01*
X000720Y012311D02*
X000494Y012311D01*
X001858Y012470D02*
X002019Y012470D01*
X002858Y012470D02*
X003019Y012470D01*
X003858Y012470D02*
X004019Y012470D01*
X005438Y012948D02*
X005529Y012857D01*
X005529Y009987D01*
X005529Y005381D01*
X005529Y004239D01*
X005836Y004255D02*
X005836Y003539D01*
X007615Y001050D01*
X009887Y001050D01*
X010365Y000828D02*
X010317Y000711D01*
X010227Y000621D01*
X010136Y000583D01*
X012552Y000583D01*
X012465Y000794D01*
X012465Y001023D01*
X012552Y001235D01*
X012714Y001397D01*
X012926Y001485D01*
X013155Y001485D01*
X013367Y001397D01*
X013370Y001394D01*
X013370Y011211D01*
X013367Y011208D01*
X013155Y011120D01*
X012936Y011120D01*
X012936Y010706D01*
X012887Y010589D01*
X012818Y010519D01*
X012818Y008872D01*
X012760Y008733D01*
X012653Y008626D01*
X012496Y008469D01*
X012553Y008469D01*
X012764Y008381D01*
X012926Y008219D01*
X013014Y008007D01*
X013014Y007778D01*
X012926Y007567D01*
X012764Y007405D01*
X012553Y007317D01*
X012324Y007317D01*
X012112Y007405D01*
X011950Y007567D01*
X011862Y007778D01*
X011862Y007835D01*
X009416Y005389D01*
X009416Y005226D01*
X009368Y005108D01*
X009278Y005018D01*
X009160Y004970D01*
X009070Y004970D01*
X009070Y004176D01*
X009069Y004173D01*
X009069Y003798D01*
X009020Y003680D01*
X008930Y003590D01*
X008841Y003553D01*
X008845Y003552D01*
X008990Y003406D01*
X009069Y003216D01*
X009069Y003011D01*
X008990Y002821D01*
X008845Y002675D01*
X008787Y002651D01*
X010187Y002651D01*
X010342Y002657D01*
X010386Y002701D01*
X010503Y002749D01*
X010948Y002749D01*
X011065Y002701D01*
X011155Y002611D01*
X011204Y002493D01*
X011204Y002049D01*
X011155Y001931D01*
X011065Y001841D01*
X010948Y001792D01*
X010503Y001792D01*
X010495Y001796D01*
X010495Y001458D01*
X010447Y001341D01*
X010365Y001259D01*
X010365Y000828D01*
X010365Y000899D02*
X012465Y000899D01*
X012479Y001058D02*
X010365Y001058D01*
X010365Y001216D02*
X012544Y001216D01*
X012692Y001375D02*
X010461Y001375D01*
X010495Y001533D02*
X013370Y001533D01*
X013370Y001692D02*
X010495Y001692D01*
X010017Y001680D02*
X007615Y001680D01*
X006151Y003617D01*
X006151Y004255D01*
X006466Y004255D02*
X006466Y003657D01*
X007635Y002251D01*
X010194Y002251D01*
X010725Y002271D01*
X011123Y002643D02*
X013370Y002643D01*
X013370Y002801D02*
X008971Y002801D01*
X009048Y002960D02*
X013370Y002960D01*
X013370Y003118D02*
X009069Y003118D01*
X009044Y003277D02*
X013370Y003277D01*
X013370Y003435D02*
X008962Y003435D01*
X008934Y003594D02*
X013370Y003594D01*
X013370Y003752D02*
X009050Y003752D01*
X009069Y003911D02*
X013370Y003911D01*
X013370Y004069D02*
X009069Y004069D01*
X009070Y004228D02*
X013370Y004228D01*
X013370Y004386D02*
X009070Y004386D01*
X009070Y004545D02*
X013370Y004545D01*
X013370Y004703D02*
X009070Y004703D01*
X009070Y004862D02*
X013370Y004862D01*
X013370Y005020D02*
X009279Y005020D01*
X009397Y005179D02*
X013370Y005179D01*
X013370Y005337D02*
X009416Y005337D01*
X009523Y005496D02*
X012112Y005496D01*
X012112Y005495D02*
X012324Y005408D01*
X012553Y005408D01*
X012764Y005495D01*
X012926Y005657D01*
X013014Y005869D01*
X013014Y006098D01*
X012926Y006310D01*
X012764Y006472D01*
X012553Y006559D01*
X012324Y006559D01*
X012112Y006472D01*
X011950Y006310D01*
X011862Y006098D01*
X011862Y005869D01*
X011950Y005657D01*
X012112Y005495D01*
X011953Y005654D02*
X009681Y005654D01*
X009840Y005813D02*
X011886Y005813D01*
X011862Y005971D02*
X009998Y005971D01*
X010157Y006130D02*
X011875Y006130D01*
X011941Y006288D02*
X010315Y006288D01*
X010474Y006447D02*
X012087Y006447D01*
X012789Y006447D02*
X013370Y006447D01*
X013370Y006605D02*
X010632Y006605D01*
X010791Y006764D02*
X013370Y006764D01*
X013370Y006922D02*
X010949Y006922D01*
X011108Y007081D02*
X013370Y007081D01*
X013370Y007239D02*
X011266Y007239D01*
X011425Y007398D02*
X012129Y007398D01*
X011960Y007556D02*
X011583Y007556D01*
X011742Y007715D02*
X011889Y007715D01*
X012747Y007398D02*
X013370Y007398D01*
X013370Y007556D02*
X012916Y007556D01*
X012988Y007715D02*
X013370Y007715D01*
X013370Y007873D02*
X013014Y007873D01*
X013004Y008032D02*
X013370Y008032D01*
X013370Y008190D02*
X012938Y008190D01*
X012797Y008349D02*
X013370Y008349D01*
X013370Y008507D02*
X012534Y008507D01*
X012693Y008666D02*
X013370Y008666D01*
X013370Y008824D02*
X012798Y008824D01*
X012818Y008983D02*
X013370Y008983D01*
X013370Y009141D02*
X012818Y009141D01*
X012818Y009300D02*
X013370Y009300D01*
X013370Y009458D02*
X012818Y009458D01*
X012818Y009617D02*
X013370Y009617D01*
X013370Y009775D02*
X012818Y009775D01*
X012818Y009934D02*
X013370Y009934D01*
X013370Y010092D02*
X012818Y010092D01*
X012818Y010251D02*
X013370Y010251D01*
X013370Y010409D02*
X012818Y010409D01*
X012866Y010568D02*
X013370Y010568D01*
X013370Y010726D02*
X012936Y010726D01*
X012936Y010885D02*
X013370Y010885D01*
X013370Y011043D02*
X012936Y011043D01*
X013351Y011202D02*
X013370Y011202D01*
X012438Y010948D02*
X010438Y012948D01*
X010438Y011712D01*
X012935Y006288D02*
X013370Y006288D01*
X013370Y006130D02*
X013001Y006130D01*
X013014Y005971D02*
X013370Y005971D01*
X013370Y005813D02*
X012991Y005813D01*
X012923Y005654D02*
X013370Y005654D01*
X013370Y005496D02*
X012765Y005496D01*
X013370Y002484D02*
X011204Y002484D01*
X011204Y002326D02*
X013370Y002326D01*
X013370Y002167D02*
X011204Y002167D01*
X011187Y002009D02*
X013370Y002009D01*
X013370Y001850D02*
X011074Y001850D01*
X010329Y000741D02*
X012487Y000741D01*
X008670Y004255D02*
X008670Y005180D01*
X008938Y005448D01*
X008198Y003548D02*
X008213Y003541D01*
X008249Y003541D01*
X008114Y003406D01*
X008035Y003216D01*
X008035Y003011D01*
X008114Y002821D01*
X008259Y002675D01*
X008318Y002651D01*
X007822Y002651D01*
X007082Y003541D01*
X007238Y003541D01*
X007253Y003548D01*
X007268Y003541D01*
X007553Y003541D01*
X007568Y003548D01*
X007583Y003541D01*
X007868Y003541D01*
X007883Y003548D01*
X007898Y003541D01*
X008183Y003541D01*
X008198Y003548D01*
X008143Y003435D02*
X007170Y003435D01*
X007302Y003277D02*
X008060Y003277D01*
X008035Y003118D02*
X007434Y003118D01*
X007566Y002960D02*
X008057Y002960D01*
X008134Y002801D02*
X007698Y002801D01*
X007438Y003448D02*
X006781Y003724D01*
X006781Y004255D01*
X005871Y002801D02*
X005742Y002801D01*
X005538Y002643D02*
X005985Y002643D01*
X006778Y001533D02*
X002643Y001533D01*
X002671Y001519D02*
X002607Y001551D01*
X002538Y001574D01*
X002466Y001585D01*
X002430Y001585D01*
X002430Y001125D01*
X002430Y000665D01*
X002466Y000665D01*
X002538Y000677D01*
X002607Y000699D01*
X002671Y000732D01*
X002730Y000774D01*
X002781Y000826D01*
X002824Y000884D01*
X002856Y000949D01*
X002879Y001017D01*
X002890Y001089D01*
X002890Y001125D01*
X002430Y001125D01*
X002430Y001125D01*
X002430Y001125D01*
X002890Y001125D01*
X002890Y001161D01*
X002879Y001233D01*
X002856Y001302D01*
X002824Y001366D01*
X002781Y001425D01*
X002730Y001476D01*
X002671Y001519D01*
X002818Y001375D02*
X006892Y001375D01*
X007005Y001216D02*
X002882Y001216D01*
X002885Y001058D02*
X007118Y001058D01*
X007232Y000899D02*
X002831Y000899D01*
X002683Y000741D02*
X007356Y000741D01*
X005206Y004255D02*
X004631Y004255D01*
X004438Y004448D01*
X004438Y005448D02*
X004438Y005948D01*
X001319Y004862D02*
X000754Y004862D01*
X000916Y004703D02*
X001157Y004703D01*
X001091Y004545D02*
X000982Y004545D01*
X000982Y004386D02*
X001091Y004386D01*
X001143Y004228D02*
X000930Y004228D01*
X000801Y004069D02*
X001272Y004069D01*
X002083Y001533D02*
X002217Y001533D01*
X002430Y001533D02*
X002430Y001533D01*
X002430Y001375D02*
X002430Y001375D01*
X002430Y001216D02*
X002430Y001216D01*
X002430Y001058D02*
X002430Y001058D01*
X002430Y000899D02*
X002430Y000899D01*
X002430Y000741D02*
X002430Y000741D01*
X002177Y000741D02*
X002107Y000741D01*
D15*
X002162Y002487D03*
X005529Y005381D03*
X006977Y007070D03*
X008938Y005448D03*
X007438Y003448D03*
X006662Y000987D03*
X009887Y001050D03*
X010017Y001680D03*
X010725Y002271D03*
X013044Y001869D03*
X012938Y006948D03*
X011938Y009948D03*
X009702Y010381D03*
X009662Y009791D03*
X008438Y010448D03*
X007438Y010448D03*
X005096Y009987D03*
X003938Y010948D03*
X002662Y008487D03*
X000922Y006672D03*
D16*
X004438Y005948D02*
X004438Y012948D01*
X005438Y012948D02*
X005489Y012940D01*
X005529Y009987D01*
X005096Y009987D01*
X007438Y010448D02*
X007438Y012948D01*
X007411Y012920D01*
X007411Y004255D01*
X007103Y004263D02*
X007096Y004255D01*
X007103Y004263D02*
X007103Y005224D01*
X006438Y005889D01*
X006438Y012948D01*
X006438Y007609D01*
X006977Y007070D01*
X008355Y005365D02*
X008355Y009428D01*
X009190Y010263D01*
X009584Y010263D01*
X009702Y010381D01*
X009607Y010476D01*
X009607Y012224D01*
X009438Y012448D01*
X009438Y012948D01*
X008438Y012948D02*
X008438Y010448D01*
X008040Y010050D01*
X008040Y004255D01*
X008355Y004255D02*
X008355Y005145D01*
X008355Y005365D01*
X008938Y005448D02*
X012438Y008948D01*
X012438Y010948D01*
X011938Y009948D02*
X011781Y009791D01*
X009662Y009791D01*
X004438Y005448D02*
X004438Y004448D01*
D17*
X004438Y005948D03*
X010438Y011712D03*
X012438Y010948D03*
M02*
