G75*
G70*
%OFA0B0*%
%FSLAX24Y24*%
%IPPOS*%
%LPD*%
%AMOC8*
5,1,8,0,0,1.08239X$1,22.5*
%
%ADD10C,0.0000*%
%ADD11OC8,0.0630*%
%ADD12R,0.0315X0.0472*%
%ADD13R,0.0472X0.0118*%
%ADD14R,0.1000X0.0500*%
%ADD15R,0.0748X0.0748*%
%ADD16R,0.0500X0.1000*%
%ADD17R,0.1000X0.2000*%
%ADD18R,0.0394X0.0787*%
%ADD19C,0.0100*%
%ADD20R,0.0394X0.0591*%
%ADD21C,0.0866*%
%ADD22R,0.0472X0.0315*%
%ADD23C,0.0560*%
%ADD24R,0.0317X0.0317*%
%ADD25C,0.0160*%
%ADD26C,0.0120*%
%ADD27R,0.0356X0.0356*%
D10*
X000174Y000263D02*
X000174Y013537D01*
X013690Y013537D01*
X013690Y000263D01*
X000174Y000263D01*
X000540Y000869D02*
X000542Y000900D01*
X000548Y000931D01*
X000557Y000961D01*
X000570Y000990D01*
X000587Y001017D01*
X000607Y001041D01*
X000629Y001063D01*
X000655Y001082D01*
X000682Y001098D01*
X000711Y001110D01*
X000741Y001119D01*
X000772Y001124D01*
X000804Y001125D01*
X000835Y001122D01*
X000866Y001115D01*
X000896Y001105D01*
X000924Y001091D01*
X000950Y001073D01*
X000974Y001053D01*
X000995Y001029D01*
X001014Y001004D01*
X001029Y000976D01*
X001040Y000947D01*
X001048Y000916D01*
X001052Y000885D01*
X001052Y000853D01*
X001048Y000822D01*
X001040Y000791D01*
X001029Y000762D01*
X001014Y000734D01*
X000995Y000709D01*
X000974Y000685D01*
X000950Y000665D01*
X000924Y000647D01*
X000896Y000633D01*
X000866Y000623D01*
X000835Y000616D01*
X000804Y000613D01*
X000772Y000614D01*
X000741Y000619D01*
X000711Y000628D01*
X000682Y000640D01*
X000655Y000656D01*
X000629Y000675D01*
X000607Y000697D01*
X000587Y000721D01*
X000570Y000748D01*
X000557Y000777D01*
X000548Y000807D01*
X000542Y000838D01*
X000540Y000869D01*
X000348Y004448D02*
X000350Y004473D01*
X000356Y004497D01*
X000365Y004519D01*
X000378Y004540D01*
X000394Y004559D01*
X000413Y004575D01*
X000434Y004588D01*
X000456Y004597D01*
X000480Y004603D01*
X000505Y004605D01*
X000530Y004603D01*
X000554Y004597D01*
X000576Y004588D01*
X000597Y004575D01*
X000616Y004559D01*
X000632Y004540D01*
X000645Y004519D01*
X000654Y004497D01*
X000660Y004473D01*
X000662Y004448D01*
X000660Y004423D01*
X000654Y004399D01*
X000645Y004377D01*
X000632Y004356D01*
X000616Y004337D01*
X000597Y004321D01*
X000576Y004308D01*
X000554Y004299D01*
X000530Y004293D01*
X000505Y004291D01*
X000480Y004293D01*
X000456Y004299D01*
X000434Y004308D01*
X000413Y004321D01*
X000394Y004337D01*
X000378Y004356D01*
X000365Y004377D01*
X000356Y004399D01*
X000350Y004423D01*
X000348Y004448D01*
X001411Y004448D02*
X001413Y004473D01*
X001419Y004497D01*
X001428Y004519D01*
X001441Y004540D01*
X001457Y004559D01*
X001476Y004575D01*
X001497Y004588D01*
X001519Y004597D01*
X001543Y004603D01*
X001568Y004605D01*
X001593Y004603D01*
X001617Y004597D01*
X001639Y004588D01*
X001660Y004575D01*
X001679Y004559D01*
X001695Y004540D01*
X001708Y004519D01*
X001717Y004497D01*
X001723Y004473D01*
X001725Y004448D01*
X001723Y004423D01*
X001717Y004399D01*
X001708Y004377D01*
X001695Y004356D01*
X001679Y004337D01*
X001660Y004321D01*
X001639Y004308D01*
X001617Y004299D01*
X001593Y004293D01*
X001568Y004291D01*
X001543Y004293D01*
X001519Y004299D01*
X001497Y004308D01*
X001476Y004321D01*
X001457Y004337D01*
X001441Y004356D01*
X001428Y004377D01*
X001419Y004399D01*
X001413Y004423D01*
X001411Y004448D01*
X005127Y003113D02*
X005129Y003140D01*
X005135Y003167D01*
X005144Y003193D01*
X005157Y003217D01*
X005173Y003240D01*
X005192Y003259D01*
X005214Y003276D01*
X005238Y003290D01*
X005263Y003300D01*
X005290Y003307D01*
X005317Y003310D01*
X005345Y003309D01*
X005372Y003304D01*
X005398Y003296D01*
X005422Y003284D01*
X005445Y003268D01*
X005466Y003250D01*
X005483Y003229D01*
X005498Y003205D01*
X005509Y003180D01*
X005517Y003154D01*
X005521Y003127D01*
X005521Y003099D01*
X005517Y003072D01*
X005509Y003046D01*
X005498Y003021D01*
X005483Y002997D01*
X005466Y002976D01*
X005445Y002958D01*
X005423Y002942D01*
X005398Y002930D01*
X005372Y002922D01*
X005345Y002917D01*
X005317Y002916D01*
X005290Y002919D01*
X005263Y002926D01*
X005238Y002936D01*
X005214Y002950D01*
X005192Y002967D01*
X005173Y002986D01*
X005157Y003009D01*
X005144Y003033D01*
X005135Y003059D01*
X005129Y003086D01*
X005127Y003113D01*
X008355Y003113D02*
X008357Y003140D01*
X008363Y003167D01*
X008372Y003193D01*
X008385Y003217D01*
X008401Y003240D01*
X008420Y003259D01*
X008442Y003276D01*
X008466Y003290D01*
X008491Y003300D01*
X008518Y003307D01*
X008545Y003310D01*
X008573Y003309D01*
X008600Y003304D01*
X008626Y003296D01*
X008650Y003284D01*
X008673Y003268D01*
X008694Y003250D01*
X008711Y003229D01*
X008726Y003205D01*
X008737Y003180D01*
X008745Y003154D01*
X008749Y003127D01*
X008749Y003099D01*
X008745Y003072D01*
X008737Y003046D01*
X008726Y003021D01*
X008711Y002997D01*
X008694Y002976D01*
X008673Y002958D01*
X008651Y002942D01*
X008626Y002930D01*
X008600Y002922D01*
X008573Y002917D01*
X008545Y002916D01*
X008518Y002919D01*
X008491Y002926D01*
X008466Y002936D01*
X008442Y002950D01*
X008420Y002967D01*
X008401Y002986D01*
X008385Y003009D01*
X008372Y003033D01*
X008363Y003059D01*
X008357Y003086D01*
X008355Y003113D01*
X012182Y005983D02*
X012184Y006014D01*
X012190Y006045D01*
X012199Y006075D01*
X012212Y006104D01*
X012229Y006131D01*
X012249Y006155D01*
X012271Y006177D01*
X012297Y006196D01*
X012324Y006212D01*
X012353Y006224D01*
X012383Y006233D01*
X012414Y006238D01*
X012446Y006239D01*
X012477Y006236D01*
X012508Y006229D01*
X012538Y006219D01*
X012566Y006205D01*
X012592Y006187D01*
X012616Y006167D01*
X012637Y006143D01*
X012656Y006118D01*
X012671Y006090D01*
X012682Y006061D01*
X012690Y006030D01*
X012694Y005999D01*
X012694Y005967D01*
X012690Y005936D01*
X012682Y005905D01*
X012671Y005876D01*
X012656Y005848D01*
X012637Y005823D01*
X012616Y005799D01*
X012592Y005779D01*
X012566Y005761D01*
X012538Y005747D01*
X012508Y005737D01*
X012477Y005730D01*
X012446Y005727D01*
X012414Y005728D01*
X012383Y005733D01*
X012353Y005742D01*
X012324Y005754D01*
X012297Y005770D01*
X012271Y005789D01*
X012249Y005811D01*
X012229Y005835D01*
X012212Y005862D01*
X012199Y005891D01*
X012190Y005921D01*
X012184Y005952D01*
X012182Y005983D01*
X012182Y007893D02*
X012184Y007924D01*
X012190Y007955D01*
X012199Y007985D01*
X012212Y008014D01*
X012229Y008041D01*
X012249Y008065D01*
X012271Y008087D01*
X012297Y008106D01*
X012324Y008122D01*
X012353Y008134D01*
X012383Y008143D01*
X012414Y008148D01*
X012446Y008149D01*
X012477Y008146D01*
X012508Y008139D01*
X012538Y008129D01*
X012566Y008115D01*
X012592Y008097D01*
X012616Y008077D01*
X012637Y008053D01*
X012656Y008028D01*
X012671Y008000D01*
X012682Y007971D01*
X012690Y007940D01*
X012694Y007909D01*
X012694Y007877D01*
X012690Y007846D01*
X012682Y007815D01*
X012671Y007786D01*
X012656Y007758D01*
X012637Y007733D01*
X012616Y007709D01*
X012592Y007689D01*
X012566Y007671D01*
X012538Y007657D01*
X012508Y007647D01*
X012477Y007640D01*
X012446Y007637D01*
X012414Y007638D01*
X012383Y007643D01*
X012353Y007652D01*
X012324Y007664D01*
X012297Y007680D01*
X012271Y007699D01*
X012249Y007721D01*
X012229Y007745D01*
X012212Y007772D01*
X012199Y007801D01*
X012190Y007831D01*
X012184Y007862D01*
X012182Y007893D01*
X012784Y011696D02*
X012786Y011727D01*
X012792Y011758D01*
X012801Y011788D01*
X012814Y011817D01*
X012831Y011844D01*
X012851Y011868D01*
X012873Y011890D01*
X012899Y011909D01*
X012926Y011925D01*
X012955Y011937D01*
X012985Y011946D01*
X013016Y011951D01*
X013048Y011952D01*
X013079Y011949D01*
X013110Y011942D01*
X013140Y011932D01*
X013168Y011918D01*
X013194Y011900D01*
X013218Y011880D01*
X013239Y011856D01*
X013258Y011831D01*
X013273Y011803D01*
X013284Y011774D01*
X013292Y011743D01*
X013296Y011712D01*
X013296Y011680D01*
X013292Y011649D01*
X013284Y011618D01*
X013273Y011589D01*
X013258Y011561D01*
X013239Y011536D01*
X013218Y011512D01*
X013194Y011492D01*
X013168Y011474D01*
X013140Y011460D01*
X013110Y011450D01*
X013079Y011443D01*
X013048Y011440D01*
X013016Y011441D01*
X012985Y011446D01*
X012955Y011455D01*
X012926Y011467D01*
X012899Y011483D01*
X012873Y011502D01*
X012851Y011524D01*
X012831Y011548D01*
X012814Y011575D01*
X012801Y011604D01*
X012792Y011634D01*
X012786Y011665D01*
X012784Y011696D01*
X012989Y012940D02*
X012991Y012971D01*
X012997Y013002D01*
X013006Y013032D01*
X013019Y013061D01*
X013036Y013088D01*
X013056Y013112D01*
X013078Y013134D01*
X013104Y013153D01*
X013131Y013169D01*
X013160Y013181D01*
X013190Y013190D01*
X013221Y013195D01*
X013253Y013196D01*
X013284Y013193D01*
X013315Y013186D01*
X013345Y013176D01*
X013373Y013162D01*
X013399Y013144D01*
X013423Y013124D01*
X013444Y013100D01*
X013463Y013075D01*
X013478Y013047D01*
X013489Y013018D01*
X013497Y012987D01*
X013501Y012956D01*
X013501Y012924D01*
X013497Y012893D01*
X013489Y012862D01*
X013478Y012833D01*
X013463Y012805D01*
X013444Y012780D01*
X013423Y012756D01*
X013399Y012736D01*
X013373Y012718D01*
X013345Y012704D01*
X013315Y012694D01*
X013284Y012687D01*
X013253Y012684D01*
X013221Y012685D01*
X013190Y012690D01*
X013160Y012699D01*
X013131Y012711D01*
X013104Y012727D01*
X013078Y012746D01*
X013056Y012768D01*
X013036Y012792D01*
X013019Y012819D01*
X013006Y012848D01*
X012997Y012878D01*
X012991Y012909D01*
X012989Y012940D01*
X001411Y009448D02*
X001413Y009473D01*
X001419Y009497D01*
X001428Y009519D01*
X001441Y009540D01*
X001457Y009559D01*
X001476Y009575D01*
X001497Y009588D01*
X001519Y009597D01*
X001543Y009603D01*
X001568Y009605D01*
X001593Y009603D01*
X001617Y009597D01*
X001639Y009588D01*
X001660Y009575D01*
X001679Y009559D01*
X001695Y009540D01*
X001708Y009519D01*
X001717Y009497D01*
X001723Y009473D01*
X001725Y009448D01*
X001723Y009423D01*
X001717Y009399D01*
X001708Y009377D01*
X001695Y009356D01*
X001679Y009337D01*
X001660Y009321D01*
X001639Y009308D01*
X001617Y009299D01*
X001593Y009293D01*
X001568Y009291D01*
X001543Y009293D01*
X001519Y009299D01*
X001497Y009308D01*
X001476Y009321D01*
X001457Y009337D01*
X001441Y009356D01*
X001428Y009377D01*
X001419Y009399D01*
X001413Y009423D01*
X001411Y009448D01*
X000348Y009448D02*
X000350Y009473D01*
X000356Y009497D01*
X000365Y009519D01*
X000378Y009540D01*
X000394Y009559D01*
X000413Y009575D01*
X000434Y009588D01*
X000456Y009597D01*
X000480Y009603D01*
X000505Y009605D01*
X000530Y009603D01*
X000554Y009597D01*
X000576Y009588D01*
X000597Y009575D01*
X000616Y009559D01*
X000632Y009540D01*
X000645Y009519D01*
X000654Y009497D01*
X000660Y009473D01*
X000662Y009448D01*
X000660Y009423D01*
X000654Y009399D01*
X000645Y009377D01*
X000632Y009356D01*
X000616Y009337D01*
X000597Y009321D01*
X000576Y009308D01*
X000554Y009299D01*
X000530Y009293D01*
X000505Y009291D01*
X000480Y009293D01*
X000456Y009299D01*
X000434Y009308D01*
X000413Y009321D01*
X000394Y009337D01*
X000378Y009356D01*
X000365Y009377D01*
X000356Y009399D01*
X000350Y009423D01*
X000348Y009448D01*
X000580Y011735D02*
X000582Y011766D01*
X000588Y011797D01*
X000597Y011827D01*
X000610Y011856D01*
X000627Y011883D01*
X000647Y011907D01*
X000669Y011929D01*
X000695Y011948D01*
X000722Y011964D01*
X000751Y011976D01*
X000781Y011985D01*
X000812Y011990D01*
X000844Y011991D01*
X000875Y011988D01*
X000906Y011981D01*
X000936Y011971D01*
X000964Y011957D01*
X000990Y011939D01*
X001014Y011919D01*
X001035Y011895D01*
X001054Y011870D01*
X001069Y011842D01*
X001080Y011813D01*
X001088Y011782D01*
X001092Y011751D01*
X001092Y011719D01*
X001088Y011688D01*
X001080Y011657D01*
X001069Y011628D01*
X001054Y011600D01*
X001035Y011575D01*
X001014Y011551D01*
X000990Y011531D01*
X000964Y011513D01*
X000936Y011499D01*
X000906Y011489D01*
X000875Y011482D01*
X000844Y011479D01*
X000812Y011480D01*
X000781Y011485D01*
X000751Y011494D01*
X000722Y011506D01*
X000695Y011522D01*
X000669Y011541D01*
X000647Y011563D01*
X000627Y011587D01*
X000610Y011614D01*
X000597Y011643D01*
X000588Y011673D01*
X000582Y011704D01*
X000580Y011735D01*
X000351Y012940D02*
X000353Y012971D01*
X000359Y013002D01*
X000368Y013032D01*
X000381Y013061D01*
X000398Y013088D01*
X000418Y013112D01*
X000440Y013134D01*
X000466Y013153D01*
X000493Y013169D01*
X000522Y013181D01*
X000552Y013190D01*
X000583Y013195D01*
X000615Y013196D01*
X000646Y013193D01*
X000677Y013186D01*
X000707Y013176D01*
X000735Y013162D01*
X000761Y013144D01*
X000785Y013124D01*
X000806Y013100D01*
X000825Y013075D01*
X000840Y013047D01*
X000851Y013018D01*
X000859Y012987D01*
X000863Y012956D01*
X000863Y012924D01*
X000859Y012893D01*
X000851Y012862D01*
X000840Y012833D01*
X000825Y012805D01*
X000806Y012780D01*
X000785Y012756D01*
X000761Y012736D01*
X000735Y012718D01*
X000707Y012704D01*
X000677Y012694D01*
X000646Y012687D01*
X000615Y012684D01*
X000583Y012685D01*
X000552Y012690D01*
X000522Y012699D01*
X000493Y012711D01*
X000466Y012727D01*
X000440Y012746D01*
X000418Y012768D01*
X000398Y012792D01*
X000381Y012819D01*
X000368Y012848D01*
X000359Y012878D01*
X000353Y012909D01*
X000351Y012940D01*
X012784Y000909D02*
X012786Y000940D01*
X012792Y000971D01*
X012801Y001001D01*
X012814Y001030D01*
X012831Y001057D01*
X012851Y001081D01*
X012873Y001103D01*
X012899Y001122D01*
X012926Y001138D01*
X012955Y001150D01*
X012985Y001159D01*
X013016Y001164D01*
X013048Y001165D01*
X013079Y001162D01*
X013110Y001155D01*
X013140Y001145D01*
X013168Y001131D01*
X013194Y001113D01*
X013218Y001093D01*
X013239Y001069D01*
X013258Y001044D01*
X013273Y001016D01*
X013284Y000987D01*
X013292Y000956D01*
X013296Y000925D01*
X013296Y000893D01*
X013292Y000862D01*
X013284Y000831D01*
X013273Y000802D01*
X013258Y000774D01*
X013239Y000749D01*
X013218Y000725D01*
X013194Y000705D01*
X013168Y000687D01*
X013140Y000673D01*
X013110Y000663D01*
X013079Y000656D01*
X013048Y000653D01*
X013016Y000654D01*
X012985Y000659D01*
X012955Y000668D01*
X012926Y000680D01*
X012899Y000696D01*
X012873Y000715D01*
X012851Y000737D01*
X012831Y000761D01*
X012814Y000788D01*
X012801Y000817D01*
X012792Y000847D01*
X012786Y000878D01*
X012784Y000909D01*
D11*
X012438Y012948D03*
X011438Y012948D03*
X010438Y012948D03*
X009438Y012948D03*
X008438Y012948D03*
X007438Y012948D03*
X006438Y012948D03*
X005438Y012948D03*
X004438Y012948D03*
X003438Y012948D03*
X002438Y012948D03*
X001438Y012948D03*
D12*
X011351Y002106D03*
X012060Y002106D03*
X011700Y001027D03*
X010991Y001027D03*
D13*
X009080Y009296D03*
X009080Y009552D03*
X009080Y009808D03*
X009080Y010064D03*
X009080Y010320D03*
X009080Y010576D03*
X009080Y010832D03*
X009080Y011088D03*
X009080Y011344D03*
X009080Y011600D03*
X006796Y011600D03*
X006796Y011344D03*
X006796Y011088D03*
X006796Y010832D03*
X006796Y010576D03*
X006796Y010320D03*
X006796Y010064D03*
X006796Y009808D03*
X006796Y009552D03*
X006796Y009296D03*
D14*
X005186Y010956D03*
X005182Y011889D03*
X003741Y011420D03*
X011477Y004054D03*
X011470Y003334D03*
D15*
X012812Y004763D03*
X010962Y005983D03*
X010962Y006948D03*
X010962Y007913D03*
X012812Y009133D03*
D16*
X009556Y008448D03*
X008769Y008432D03*
X007938Y008448D03*
X006438Y008448D03*
X005438Y008448D03*
X004438Y008448D03*
X003438Y008448D03*
D17*
X002938Y004448D03*
D18*
X001371Y003346D03*
X000702Y003346D03*
X000702Y005550D03*
X001371Y005550D03*
X001371Y008346D03*
X000702Y008346D03*
X000702Y010550D03*
X001371Y010550D03*
X009938Y003268D03*
D19*
X001214Y003700D02*
X001214Y005235D01*
X000859Y005235D02*
X000859Y003700D01*
X000859Y008661D02*
X000859Y010196D01*
X001214Y010196D02*
X001214Y008661D01*
D20*
X009348Y003168D03*
X010528Y003168D03*
D21*
X009938Y004023D02*
X009938Y004613D01*
D22*
X012938Y010094D03*
X012938Y010802D03*
D23*
X002430Y001125D03*
X001643Y001125D03*
D24*
X002162Y002487D03*
X005529Y005381D03*
X006977Y007070D03*
X008938Y005448D03*
X007438Y003448D03*
X006662Y000987D03*
X009887Y001050D03*
X010017Y001680D03*
X010725Y002271D03*
X013044Y001869D03*
X012938Y006948D03*
X011938Y009948D03*
X009702Y010381D03*
X009662Y009791D03*
X008438Y010448D03*
X007438Y010448D03*
X005096Y009987D03*
X003938Y010948D03*
X002662Y008487D03*
X000922Y006672D03*
D25*
X001698Y006948D01*
X001711Y006787D02*
X001599Y006675D01*
X001188Y006264D01*
X001111Y006264D01*
X000993Y006215D01*
X000903Y006125D01*
X000902Y006124D01*
X000720Y006124D01*
X000720Y005578D01*
X000697Y005569D01*
X000683Y005569D01*
X000683Y006124D01*
X000494Y006124D01*
X000494Y007330D01*
X000603Y007221D01*
X000715Y007109D01*
X000862Y007048D01*
X004018Y007048D01*
X004165Y007109D01*
X004277Y007221D01*
X004684Y007628D01*
X004752Y007628D01*
X004869Y007677D01*
X004938Y007745D01*
X005007Y007677D01*
X005124Y007628D01*
X005752Y007628D01*
X005869Y007677D01*
X005938Y007745D01*
X006007Y007677D01*
X006124Y007628D01*
X006597Y007628D01*
X006597Y007459D01*
X006548Y007410D01*
X006499Y007292D01*
X006499Y006848D01*
X006548Y006730D01*
X006638Y006640D01*
X006755Y006592D01*
X007200Y006592D01*
X007317Y006640D01*
X007407Y006730D01*
X007456Y006848D01*
X007456Y007292D01*
X007407Y007410D01*
X007357Y007459D01*
X007357Y008566D01*
X007368Y008577D01*
X007368Y007884D01*
X007417Y007767D01*
X007507Y007677D01*
X007624Y007628D01*
X008252Y007628D01*
X008336Y007663D01*
X008338Y007661D01*
X008455Y007612D01*
X009082Y007612D01*
X009181Y007653D01*
X009243Y007628D01*
X009676Y007628D01*
X009676Y005935D01*
X009734Y005796D01*
X009841Y005689D01*
X009981Y005631D01*
X010268Y005631D01*
X010268Y005546D01*
X010316Y005428D01*
X010406Y005338D01*
X010524Y005289D01*
X011399Y005289D01*
X011517Y005338D01*
X011607Y005428D01*
X011656Y005546D01*
X011656Y006421D01*
X011637Y006466D01*
X011656Y006510D01*
X011656Y007386D01*
X011637Y007430D01*
X011656Y007475D01*
X011656Y008350D01*
X011607Y008468D01*
X011517Y008558D01*
X011399Y008607D01*
X011342Y008607D01*
X011342Y011419D01*
X011284Y011559D01*
X011177Y011666D01*
X011037Y011724D01*
X010936Y011724D01*
X010936Y011954D01*
X010887Y012071D01*
X010797Y012161D01*
X010680Y012210D01*
X010196Y012210D01*
X010079Y012161D01*
X009989Y012071D01*
X009951Y011980D01*
X009004Y011980D01*
X009002Y011979D01*
X008780Y011979D01*
X008662Y011930D01*
X008572Y011840D01*
X008524Y011722D01*
X008524Y011477D01*
X008526Y011472D01*
X008524Y011466D01*
X008524Y011221D01*
X008526Y011216D01*
X008524Y011211D01*
X008524Y010965D01*
X008526Y010960D01*
X008524Y010955D01*
X008524Y010926D01*
X008216Y010926D01*
X008098Y010878D01*
X008008Y010788D01*
X007960Y010670D01*
X007960Y010243D01*
X007898Y010182D01*
X007916Y010226D01*
X007916Y010670D01*
X007868Y010788D01*
X007778Y010878D01*
X007660Y010926D01*
X007353Y010926D01*
X007353Y010955D01*
X007350Y010960D01*
X007353Y010965D01*
X007353Y011211D01*
X007350Y011216D01*
X007353Y011221D01*
X007353Y011466D01*
X007304Y011584D01*
X007214Y011674D01*
X007213Y011675D01*
X007213Y011682D01*
X007200Y011728D01*
X007177Y011769D01*
X007143Y011803D01*
X007102Y011826D01*
X007056Y011839D01*
X006796Y011839D01*
X006536Y011839D01*
X006491Y011826D01*
X006475Y011818D01*
X006357Y012014D01*
X006339Y012057D01*
X006318Y012078D01*
X006303Y012103D01*
X006265Y012131D01*
X006232Y012164D01*
X006205Y012175D01*
X006181Y012193D01*
X006136Y012204D01*
X006092Y012222D01*
X006063Y012222D01*
X006034Y012229D01*
X005994Y012223D01*
X005953Y012320D01*
X005863Y012410D01*
X005817Y012429D01*
X005938Y012550D01*
X006175Y012313D01*
X006701Y012313D01*
X006938Y012550D01*
X007175Y012313D01*
X007701Y012313D01*
X007938Y012550D01*
X008175Y012313D01*
X008701Y012313D01*
X008938Y012550D01*
X009175Y012313D01*
X009701Y012313D01*
X009938Y012550D01*
X010175Y012313D01*
X010701Y012313D01*
X011037Y012649D01*
X011233Y012453D01*
X011428Y012453D01*
X011428Y012938D01*
X011448Y012938D01*
X011448Y012453D01*
X011558Y012453D01*
X011558Y010337D01*
X011508Y010288D01*
X011460Y010170D01*
X011460Y009726D01*
X011508Y009608D01*
X011598Y009518D01*
X011716Y009470D01*
X012160Y009470D01*
X012258Y009510D01*
X012258Y009213D01*
X012732Y009213D01*
X012732Y009053D01*
X012258Y009053D01*
X012258Y008735D01*
X012270Y008690D01*
X012294Y008649D01*
X012328Y008615D01*
X012369Y008591D01*
X012414Y008579D01*
X012732Y008579D01*
X012732Y009053D01*
X012892Y009053D01*
X012892Y008579D01*
X013210Y008579D01*
X013256Y008591D01*
X013297Y008615D01*
X013330Y008649D01*
X013354Y008690D01*
X013366Y008735D01*
X013366Y009053D01*
X012892Y009053D01*
X012892Y009213D01*
X012732Y009213D01*
X012732Y009687D01*
X012414Y009687D01*
X012399Y009683D01*
X012416Y009726D01*
X012416Y010170D01*
X012368Y010288D01*
X012318Y010337D01*
X012318Y010450D01*
X012389Y010450D01*
X012483Y010411D01*
X012521Y010374D01*
X012556Y010359D01*
X012534Y010321D01*
X012522Y010275D01*
X012522Y010094D01*
X012938Y010094D01*
X012938Y010094D01*
X013354Y010094D01*
X013354Y010275D01*
X013342Y010321D01*
X013320Y010359D01*
X013356Y010374D01*
X013370Y010388D01*
X013370Y001394D01*
X013367Y001397D01*
X013155Y001485D01*
X012926Y001485D01*
X012714Y001397D01*
X012552Y001235D01*
X012465Y001023D01*
X012465Y000794D01*
X012552Y000583D01*
X012102Y000583D01*
X012129Y000609D01*
X012177Y000727D01*
X012177Y001327D01*
X012129Y001444D01*
X012039Y001534D01*
X012002Y001549D01*
X012003Y001562D01*
X011986Y001621D01*
X011973Y001682D01*
X011968Y001689D01*
X012060Y001689D01*
X012060Y002105D01*
X012060Y002105D01*
X012060Y001689D01*
X012241Y001689D01*
X012287Y001702D01*
X012328Y001725D01*
X012362Y001759D01*
X012385Y001800D01*
X012398Y001846D01*
X012398Y002106D01*
X012398Y002365D01*
X012385Y002411D01*
X012362Y002452D01*
X012328Y002486D01*
X012287Y002509D01*
X012241Y002522D01*
X012060Y002522D01*
X011879Y002522D01*
X011833Y002509D01*
X011795Y002487D01*
X011780Y002523D01*
X011690Y002613D01*
X011573Y002662D01*
X011130Y002662D01*
X011112Y002654D01*
X011065Y002701D01*
X010948Y002749D01*
X010856Y002749D01*
X010869Y002762D01*
X010893Y002803D01*
X010905Y002849D01*
X010905Y002915D01*
X010946Y002904D01*
X011425Y002904D01*
X011425Y003289D01*
X011515Y003289D01*
X011515Y003379D01*
X012150Y003379D01*
X012150Y003529D01*
X012159Y003533D01*
X012249Y003623D01*
X012297Y003741D01*
X012297Y004275D01*
X012328Y004245D01*
X012369Y004221D01*
X012414Y004209D01*
X012732Y004209D01*
X012732Y004683D01*
X012258Y004683D01*
X012258Y004463D01*
X012249Y004486D01*
X012159Y004576D01*
X012041Y004624D01*
X010914Y004624D01*
X010871Y004607D01*
X010691Y004649D01*
X010691Y004763D01*
X010576Y005040D01*
X010365Y005252D01*
X010088Y005366D01*
X009788Y005366D01*
X009511Y005252D01*
X009338Y005078D01*
X009338Y005079D01*
X009368Y005108D01*
X009416Y005226D01*
X009416Y005670D01*
X009368Y005788D01*
X009278Y005878D01*
X009160Y005926D01*
X008716Y005926D01*
X008598Y005878D01*
X008569Y005848D01*
X005778Y005848D01*
X005751Y005860D01*
X005307Y005860D01*
X005189Y005811D01*
X005099Y005721D01*
X005050Y005603D01*
X005050Y005159D01*
X005099Y005041D01*
X005189Y004951D01*
X005307Y004903D01*
X005751Y004903D01*
X005868Y004951D01*
X005958Y005041D01*
X005961Y005048D01*
X008538Y005048D01*
X008538Y003868D01*
X008599Y003721D01*
X008711Y003609D01*
X008715Y003605D01*
X008655Y003630D01*
X008449Y003630D01*
X008259Y003552D01*
X008114Y003406D01*
X008035Y003216D01*
X008035Y003011D01*
X008114Y002821D01*
X008259Y002675D01*
X008449Y002597D01*
X008655Y002597D01*
X008845Y002675D01*
X008874Y002705D01*
X008880Y002692D01*
X008970Y002602D01*
X009087Y002553D01*
X009477Y002553D01*
X009272Y002348D01*
X001859Y002348D01*
X001711Y002287D01*
X001599Y002175D01*
X001304Y001879D01*
X001243Y001732D01*
X001243Y001574D01*
X001134Y001465D01*
X001094Y001369D01*
X000911Y001445D01*
X000682Y001445D01*
X000494Y001368D01*
X000494Y002772D01*
X000683Y002772D01*
X000683Y003327D01*
X000720Y003327D01*
X000720Y002772D01*
X000902Y002772D01*
X000903Y002771D01*
X000993Y002681D01*
X001111Y002632D01*
X001632Y002632D01*
X001749Y002681D01*
X001839Y002771D01*
X001888Y002888D01*
X001888Y003803D01*
X001839Y003921D01*
X001752Y004008D01*
X001838Y004043D01*
X001973Y004178D01*
X002045Y004353D01*
X002045Y004543D01*
X001973Y004719D01*
X001838Y004853D01*
X001752Y004888D01*
X001839Y004975D01*
X001888Y005093D01*
X001888Y005832D01*
X002104Y006048D01*
X003772Y006048D01*
X003940Y005880D01*
X003940Y005706D01*
X003989Y005589D01*
X004079Y005499D01*
X004196Y005450D01*
X004680Y005450D01*
X004797Y005499D01*
X004887Y005589D01*
X004936Y005706D01*
X004936Y006190D01*
X004887Y006307D01*
X004797Y006397D01*
X004680Y006446D01*
X004506Y006446D01*
X004165Y006787D01*
X004018Y006848D01*
X001859Y006848D01*
X001711Y006787D01*
X001688Y006764D02*
X000494Y006764D01*
X000494Y006922D02*
X006499Y006922D01*
X006499Y007081D02*
X004096Y007081D01*
X004295Y007239D02*
X006499Y007239D01*
X006543Y007398D02*
X004453Y007398D01*
X004612Y007556D02*
X006597Y007556D01*
X005969Y007715D02*
X005907Y007715D01*
X004969Y007715D02*
X004907Y007715D01*
X004438Y007948D02*
X003938Y007448D01*
X000942Y007448D01*
X000647Y007743D01*
X000647Y008255D01*
X000607Y008294D01*
X000607Y008448D01*
X000584Y008424D01*
X000702Y008346D01*
X000607Y008448D02*
X000607Y008688D01*
X000804Y008767D01*
X000804Y010133D01*
X000702Y010550D01*
X001253Y010357D02*
X001237Y010184D01*
X001237Y008806D01*
X001277Y008413D01*
X001395Y008373D01*
X001277Y008334D01*
X001324Y008334D01*
X001438Y008448D01*
X001440Y008364D02*
X001748Y008364D01*
X001748Y008763D01*
X001736Y008809D01*
X001712Y008850D01*
X001679Y008883D01*
X001637Y008907D01*
X001592Y008919D01*
X001584Y008919D01*
X001584Y008971D01*
X001663Y008971D01*
X001838Y009043D01*
X001973Y009178D01*
X002023Y009298D01*
X002211Y009109D01*
X002359Y009048D01*
X002883Y009048D01*
X002868Y009012D01*
X002868Y007884D01*
X002883Y007848D01*
X001716Y007848D01*
X001736Y007882D01*
X001748Y007928D01*
X001748Y008327D01*
X001390Y008327D01*
X001390Y008333D01*
X001423Y008347D01*
X001440Y008364D01*
X001425Y008349D02*
X002868Y008349D01*
X002868Y008507D02*
X001748Y008507D01*
X001748Y008666D02*
X002868Y008666D01*
X002868Y008824D02*
X001727Y008824D01*
X001692Y008983D02*
X002868Y008983D01*
X002438Y009448D02*
X001938Y009948D01*
X001938Y011448D01*
X001438Y011948D01*
X001438Y012948D01*
X001349Y011471D02*
X001538Y011282D01*
X001538Y011124D01*
X001390Y011124D01*
X001390Y010569D01*
X001353Y010569D01*
X001353Y011124D01*
X001171Y011124D01*
X001170Y011125D01*
X001081Y011214D01*
X001162Y011247D01*
X001324Y011409D01*
X001349Y011471D01*
X001275Y011360D02*
X001460Y011360D01*
X001538Y011202D02*
X001094Y011202D01*
X001353Y011043D02*
X001390Y011043D01*
X001390Y010885D02*
X001353Y010885D01*
X001353Y010726D02*
X001390Y010726D01*
X001371Y010550D02*
X001253Y010357D01*
X001936Y009141D02*
X002179Y009141D01*
X002438Y009448D02*
X003938Y009448D01*
X004438Y008448D02*
X004438Y007948D01*
X004188Y006764D02*
X006534Y006764D01*
X006723Y006605D02*
X004347Y006605D01*
X004505Y006447D02*
X009676Y006447D01*
X009676Y006605D02*
X007232Y006605D01*
X007421Y006764D02*
X009676Y006764D01*
X009676Y006922D02*
X007456Y006922D01*
X007456Y007081D02*
X009676Y007081D01*
X009676Y007239D02*
X007456Y007239D01*
X007412Y007398D02*
X009676Y007398D01*
X009676Y007556D02*
X007357Y007556D01*
X007357Y007715D02*
X007469Y007715D01*
X007373Y007873D02*
X007357Y007873D01*
X007357Y008032D02*
X007368Y008032D01*
X007357Y008190D02*
X007368Y008190D01*
X007357Y008349D02*
X007368Y008349D01*
X007357Y008507D02*
X007368Y008507D01*
X007916Y010251D02*
X007960Y010251D01*
X007960Y010409D02*
X007916Y010409D01*
X007916Y010568D02*
X007960Y010568D01*
X007983Y010726D02*
X007893Y010726D01*
X007761Y010885D02*
X008115Y010885D01*
X008524Y011043D02*
X007353Y011043D01*
X007353Y011202D02*
X008524Y011202D01*
X008524Y011360D02*
X007353Y011360D01*
X007331Y011519D02*
X008524Y011519D01*
X008524Y011677D02*
X007213Y011677D01*
X007068Y011836D02*
X008571Y011836D01*
X008858Y012470D02*
X009019Y012470D01*
X009858Y012470D02*
X010019Y012470D01*
X010070Y012153D02*
X006243Y012153D01*
X006369Y011994D02*
X009957Y011994D01*
X010438Y011712D02*
X010438Y011600D01*
X010936Y011836D02*
X011558Y011836D01*
X011558Y011994D02*
X010919Y011994D01*
X010806Y012153D02*
X011558Y012153D01*
X011558Y012311D02*
X005957Y012311D01*
X006019Y012470D02*
X005858Y012470D01*
X006438Y012448D02*
X003938Y012448D01*
X003938Y010948D01*
X003786Y010990D02*
X004265Y010990D01*
X004311Y011003D01*
X004352Y011026D01*
X004366Y011041D01*
X004366Y010785D01*
X003529Y010800D01*
X003318Y010810D01*
X003318Y010990D01*
X003696Y010990D01*
X003696Y011375D01*
X003786Y011375D01*
X003786Y010990D01*
X003786Y011043D02*
X003696Y011043D01*
X003696Y011202D02*
X003786Y011202D01*
X003786Y011360D02*
X003696Y011360D01*
X003696Y011465D02*
X003696Y011850D01*
X003318Y011850D01*
X003318Y012291D01*
X003340Y012313D01*
X003701Y012313D01*
X003938Y012550D01*
X004175Y012313D01*
X004408Y012313D01*
X004362Y012203D01*
X004362Y011804D01*
X004352Y011815D01*
X004311Y011838D01*
X004265Y011850D01*
X003786Y011850D01*
X003786Y011465D01*
X003696Y011465D01*
X003696Y011519D02*
X003786Y011519D01*
X003786Y011677D02*
X003696Y011677D01*
X003696Y011836D02*
X003786Y011836D01*
X003318Y011994D02*
X004362Y011994D01*
X004362Y011836D02*
X004315Y011836D01*
X004362Y012153D02*
X003318Y012153D01*
X003338Y012311D02*
X004407Y012311D01*
X004019Y012470D02*
X003858Y012470D01*
X004366Y010885D02*
X003318Y010885D01*
X002438Y008448D02*
X002336Y008346D01*
X001371Y008346D01*
X001748Y008190D02*
X002868Y008190D01*
X002868Y008032D02*
X001748Y008032D01*
X001730Y007873D02*
X002873Y007873D01*
X001529Y006605D02*
X000494Y006605D01*
X000494Y006447D02*
X001371Y006447D01*
X001212Y006288D02*
X000494Y006288D01*
X000494Y006130D02*
X000907Y006130D01*
X000720Y005971D02*
X000683Y005971D01*
X000683Y005813D02*
X000720Y005813D01*
X000720Y005654D02*
X000683Y005654D01*
X000702Y005550D02*
X000623Y005365D01*
X000804Y005184D01*
X000804Y003527D01*
X000702Y003346D01*
X000568Y003291D01*
X000568Y002468D01*
X000588Y002448D01*
X000938Y002448D01*
X001438Y001948D01*
X002438Y002948D01*
X002938Y002448D01*
X002938Y004448D01*
X002858Y004386D02*
X002045Y004386D01*
X002045Y004545D02*
X002258Y004545D01*
X002258Y004528D02*
X002858Y004528D01*
X002858Y004368D01*
X002258Y004368D01*
X002258Y003424D01*
X002270Y003379D01*
X002294Y003338D01*
X002328Y003304D01*
X002369Y003280D01*
X002414Y003268D01*
X002858Y003268D01*
X002858Y004368D01*
X003018Y004368D01*
X003018Y003268D01*
X003462Y003268D01*
X003508Y003280D01*
X003549Y003304D01*
X003582Y003338D01*
X003606Y003379D01*
X003618Y003424D01*
X003618Y004368D01*
X003018Y004368D01*
X003018Y004528D01*
X002858Y004528D01*
X002858Y005628D01*
X002414Y005628D01*
X002369Y005616D01*
X002328Y005592D01*
X002294Y005559D01*
X002270Y005518D01*
X002258Y005472D01*
X002258Y004528D01*
X002258Y004703D02*
X001979Y004703D01*
X001817Y004862D02*
X002258Y004862D01*
X002258Y005020D02*
X001858Y005020D01*
X001888Y005179D02*
X002258Y005179D01*
X002258Y005337D02*
X001888Y005337D01*
X001888Y005496D02*
X002264Y005496D01*
X001888Y005654D02*
X003962Y005654D01*
X003940Y005813D02*
X001888Y005813D01*
X002027Y005971D02*
X003849Y005971D01*
X003549Y005592D02*
X003508Y005616D01*
X003462Y005628D01*
X003018Y005628D01*
X003018Y004528D01*
X003618Y004528D01*
X003618Y005472D01*
X003606Y005518D01*
X003582Y005559D01*
X003549Y005592D01*
X003612Y005496D02*
X004086Y005496D01*
X003618Y005337D02*
X005050Y005337D01*
X005050Y005496D02*
X004790Y005496D01*
X004915Y005654D02*
X005071Y005654D01*
X005193Y005813D02*
X004936Y005813D01*
X004936Y005971D02*
X009676Y005971D01*
X009676Y006130D02*
X004936Y006130D01*
X004895Y006288D02*
X009676Y006288D01*
X009727Y005813D02*
X009343Y005813D01*
X009416Y005654D02*
X009925Y005654D01*
X009717Y005337D02*
X009416Y005337D01*
X009416Y005496D02*
X010288Y005496D01*
X010409Y005337D02*
X010159Y005337D01*
X010438Y005179D02*
X012263Y005179D01*
X012258Y005161D02*
X012258Y004843D01*
X012732Y004843D01*
X012732Y004683D01*
X012892Y004683D01*
X012892Y004209D01*
X013210Y004209D01*
X013256Y004221D01*
X013297Y004245D01*
X013330Y004278D01*
X013354Y004319D01*
X013366Y004365D01*
X013366Y004683D01*
X012892Y004683D01*
X012892Y004843D01*
X012732Y004843D01*
X012732Y005317D01*
X012414Y005317D01*
X012369Y005305D01*
X012328Y005281D01*
X012294Y005248D01*
X012270Y005206D01*
X012258Y005161D01*
X012258Y005020D02*
X010585Y005020D01*
X010650Y004862D02*
X012258Y004862D01*
X012258Y004545D02*
X012190Y004545D01*
X012297Y004228D02*
X012358Y004228D01*
X012297Y004069D02*
X013370Y004069D01*
X013370Y003911D02*
X012297Y003911D01*
X012297Y003752D02*
X013370Y003752D01*
X013370Y003594D02*
X012219Y003594D01*
X012150Y003435D02*
X013370Y003435D01*
X013370Y003277D02*
X012150Y003277D01*
X012150Y003289D02*
X011515Y003289D01*
X011515Y002904D01*
X011993Y002904D01*
X012039Y002916D01*
X012080Y002940D01*
X012114Y002973D01*
X012137Y003014D01*
X012150Y003060D01*
X012150Y003289D01*
X012150Y003118D02*
X013370Y003118D01*
X013370Y002960D02*
X012100Y002960D01*
X012060Y002522D02*
X012060Y002106D01*
X012060Y002522D01*
X012060Y002484D02*
X012060Y002484D01*
X011938Y002448D02*
X011938Y001948D01*
X012060Y002009D02*
X012060Y002009D01*
X012060Y002106D02*
X012060Y002106D01*
X012060Y002106D01*
X012398Y002106D01*
X012060Y002106D01*
X012060Y002167D02*
X012060Y002167D01*
X012060Y002326D02*
X012060Y002326D01*
X011938Y002448D02*
X011477Y002751D01*
X010977Y002751D01*
X010718Y003168D01*
X010528Y003168D01*
X010547Y003150D02*
X010790Y003150D01*
X010790Y003187D01*
X010547Y003187D01*
X010547Y003150D01*
X010891Y002801D02*
X013370Y002801D01*
X013370Y002643D02*
X011619Y002643D01*
X011515Y002960D02*
X011425Y002960D01*
X011425Y003118D02*
X011515Y003118D01*
X011515Y003277D02*
X011425Y003277D01*
X011477Y004054D02*
X010348Y004318D01*
X009938Y004318D01*
X009938Y002448D01*
X009438Y001948D01*
X001938Y001948D01*
X001643Y001653D01*
X001643Y001125D01*
X001202Y001533D02*
X000494Y001533D01*
X000494Y001375D02*
X000511Y001375D01*
X000494Y001692D02*
X001243Y001692D01*
X001292Y001850D02*
X000494Y001850D01*
X000494Y002009D02*
X001433Y002009D01*
X001591Y002167D02*
X000494Y002167D01*
X000494Y002326D02*
X001804Y002326D01*
X001657Y002643D02*
X005110Y002643D01*
X005031Y002675D02*
X005221Y002597D01*
X005427Y002597D01*
X005617Y002675D01*
X005762Y002821D01*
X005841Y003011D01*
X005841Y003216D01*
X005762Y003406D01*
X005617Y003552D01*
X005427Y003630D01*
X005221Y003630D01*
X005031Y003552D01*
X004886Y003406D01*
X004807Y003216D01*
X004807Y003011D01*
X004886Y002821D01*
X005031Y002675D01*
X004905Y002801D02*
X001852Y002801D01*
X001888Y002960D02*
X004828Y002960D01*
X004807Y003118D02*
X001888Y003118D01*
X001888Y003277D02*
X002383Y003277D01*
X002258Y003435D02*
X001888Y003435D01*
X001888Y003594D02*
X002258Y003594D01*
X002258Y003752D02*
X001888Y003752D01*
X001843Y003911D02*
X002258Y003911D01*
X002258Y004069D02*
X001864Y004069D01*
X001993Y004228D02*
X002258Y004228D01*
X002858Y004228D02*
X003018Y004228D01*
X003018Y004386D02*
X008538Y004386D01*
X008538Y004228D02*
X003618Y004228D01*
X003618Y004069D02*
X008538Y004069D01*
X008538Y003911D02*
X003618Y003911D01*
X003618Y003752D02*
X008586Y003752D01*
X008361Y003594D02*
X005515Y003594D01*
X005733Y003435D02*
X008143Y003435D01*
X008060Y003277D02*
X005816Y003277D01*
X005841Y003118D02*
X008035Y003118D01*
X008057Y002960D02*
X005820Y002960D01*
X005742Y002801D02*
X008134Y002801D01*
X008338Y002643D02*
X005538Y002643D01*
X004832Y003277D02*
X003494Y003277D01*
X003618Y003435D02*
X004915Y003435D01*
X005132Y003594D02*
X003618Y003594D01*
X003018Y003594D02*
X002858Y003594D01*
X002858Y003752D02*
X003018Y003752D01*
X003018Y003911D02*
X002858Y003911D01*
X002858Y004069D02*
X003018Y004069D01*
X003018Y004545D02*
X002858Y004545D01*
X002858Y004703D02*
X003018Y004703D01*
X003018Y004862D02*
X002858Y004862D01*
X002858Y005020D02*
X003018Y005020D01*
X003018Y005179D02*
X002858Y005179D01*
X002858Y005337D02*
X003018Y005337D01*
X003018Y005496D02*
X002858Y005496D01*
X003618Y005179D02*
X005050Y005179D01*
X005120Y005020D02*
X003618Y005020D01*
X003618Y004862D02*
X008538Y004862D01*
X008538Y005020D02*
X005937Y005020D01*
X005529Y005381D02*
X005596Y005448D01*
X008938Y005448D01*
X008938Y003948D01*
X009348Y003538D01*
X009348Y003168D01*
X009438Y003168D01*
X008929Y002643D02*
X008766Y002643D01*
X009408Y002484D02*
X000494Y002484D01*
X000494Y002643D02*
X001085Y002643D01*
X000720Y002801D02*
X000683Y002801D01*
X000683Y002960D02*
X000720Y002960D01*
X000720Y003118D02*
X000683Y003118D01*
X000683Y003277D02*
X000720Y003277D01*
X001237Y003480D02*
X001371Y003346D01*
X001237Y003480D02*
X001237Y005224D01*
X001292Y005239D01*
X001371Y005550D01*
X001292Y005802D01*
X001938Y006448D01*
X003938Y006448D01*
X004438Y005948D01*
X003618Y004703D02*
X008538Y004703D01*
X008538Y004545D02*
X003618Y004545D01*
X003018Y003435D02*
X002858Y003435D01*
X002858Y003277D02*
X003018Y003277D01*
X002614Y001548D02*
X009518Y001548D01*
X009538Y001557D01*
X009538Y001471D01*
X009457Y001390D01*
X009408Y001272D01*
X009408Y000828D01*
X009457Y000711D01*
X009547Y000621D01*
X009638Y000583D01*
X001902Y000583D01*
X001983Y000617D01*
X002136Y000770D01*
X002189Y000732D01*
X002254Y000699D01*
X002322Y000677D01*
X002394Y000665D01*
X002430Y000665D01*
X002430Y001125D01*
X002430Y001125D01*
X002430Y000665D01*
X002466Y000665D01*
X002538Y000677D01*
X002607Y000699D01*
X002671Y000732D01*
X002730Y000774D01*
X002781Y000826D01*
X002824Y000884D01*
X002856Y000949D01*
X002879Y001017D01*
X002890Y001089D01*
X002890Y001125D01*
X002430Y001125D01*
X002430Y001125D01*
X002890Y001125D01*
X002890Y001161D01*
X002879Y001233D01*
X002856Y001302D01*
X002824Y001366D01*
X002781Y001425D01*
X002730Y001476D01*
X002671Y001519D01*
X002614Y001548D01*
X002643Y001533D02*
X009538Y001533D01*
X009451Y001375D02*
X002818Y001375D01*
X002882Y001216D02*
X009408Y001216D01*
X009408Y001058D02*
X002885Y001058D01*
X002831Y000899D02*
X009408Y000899D01*
X009445Y000741D02*
X002683Y000741D01*
X002430Y000741D02*
X002430Y000741D01*
X002430Y000899D02*
X002430Y000899D01*
X002430Y001058D02*
X002430Y001058D01*
X002177Y000741D02*
X002107Y000741D01*
X001097Y001375D02*
X001081Y001375D01*
X000784Y007081D02*
X000494Y007081D01*
X000603Y007221D02*
X000603Y007221D01*
X000585Y007239D02*
X000494Y007239D01*
X006465Y011836D02*
X006525Y011836D01*
X006796Y011836D02*
X006796Y011836D01*
X006796Y011839D02*
X006796Y011724D01*
X006796Y011724D01*
X006796Y011839D01*
X006796Y012003D02*
X006796Y011600D01*
X006796Y012090D01*
X006438Y012448D01*
X006858Y012470D02*
X007019Y012470D01*
X007064Y012271D02*
X011277Y012271D01*
X011355Y012350D01*
X011355Y012865D01*
X011438Y012948D01*
X011428Y012787D02*
X011448Y012787D01*
X011448Y012628D02*
X011428Y012628D01*
X011428Y012470D02*
X011448Y012470D01*
X011217Y012470D02*
X010858Y012470D01*
X011016Y012628D02*
X011058Y012628D01*
X011150Y011677D02*
X011558Y011677D01*
X011558Y011519D02*
X011301Y011519D01*
X011342Y011360D02*
X011558Y011360D01*
X011558Y011202D02*
X011342Y011202D01*
X011342Y011043D02*
X011558Y011043D01*
X011558Y010885D02*
X011342Y010885D01*
X011342Y010726D02*
X011558Y010726D01*
X011558Y010568D02*
X011342Y010568D01*
X011342Y010409D02*
X011558Y010409D01*
X011493Y010251D02*
X011342Y010251D01*
X011342Y010092D02*
X011460Y010092D01*
X011460Y009934D02*
X011342Y009934D01*
X011342Y009775D02*
X011460Y009775D01*
X011505Y009617D02*
X011342Y009617D01*
X011342Y009458D02*
X012258Y009458D01*
X012258Y009300D02*
X011342Y009300D01*
X011342Y009141D02*
X012732Y009141D01*
X012732Y009300D02*
X012892Y009300D01*
X012892Y009213D02*
X012892Y009687D01*
X013210Y009687D01*
X013256Y009675D01*
X013297Y009651D01*
X013330Y009618D01*
X013354Y009577D01*
X013366Y009531D01*
X013366Y009213D01*
X012892Y009213D01*
X012892Y009141D02*
X013370Y009141D01*
X013366Y009300D02*
X013370Y009300D01*
X013366Y009458D02*
X013370Y009458D01*
X013370Y009617D02*
X013331Y009617D01*
X013370Y009775D02*
X013255Y009775D01*
X013244Y009768D02*
X013285Y009792D01*
X013318Y009826D01*
X013342Y009867D01*
X013354Y009913D01*
X013354Y010094D01*
X012938Y010094D01*
X012938Y010094D01*
X012522Y010094D01*
X012522Y009913D01*
X012534Y009867D01*
X012558Y009826D01*
X012591Y009792D01*
X012632Y009768D01*
X012678Y009756D01*
X012938Y009756D01*
X012938Y010094D01*
X012938Y010094D01*
X012938Y009756D01*
X013198Y009756D01*
X013244Y009768D01*
X013354Y009934D02*
X013370Y009934D01*
X013354Y010092D02*
X013370Y010092D01*
X013354Y010251D02*
X013370Y010251D01*
X012938Y010092D02*
X012938Y010092D01*
X012938Y009934D02*
X012938Y009934D01*
X012938Y009775D02*
X012938Y009775D01*
X012892Y009617D02*
X012732Y009617D01*
X012732Y009458D02*
X012892Y009458D01*
X012621Y009775D02*
X012416Y009775D01*
X012416Y009934D02*
X012522Y009934D01*
X012522Y010092D02*
X012416Y010092D01*
X012383Y010251D02*
X012522Y010251D01*
X012485Y010409D02*
X012318Y010409D01*
X012584Y010802D02*
X012438Y010948D01*
X012584Y010802D02*
X012938Y010802D01*
X012892Y008983D02*
X012732Y008983D01*
X012732Y008824D02*
X012892Y008824D01*
X012892Y008666D02*
X012732Y008666D01*
X012553Y008469D02*
X012324Y008469D01*
X012112Y008381D01*
X011950Y008219D01*
X011862Y008007D01*
X011862Y007778D01*
X011950Y007567D01*
X012112Y007405D01*
X012324Y007317D01*
X012553Y007317D01*
X012764Y007405D01*
X012926Y007567D01*
X013014Y007778D01*
X013014Y008007D01*
X012926Y008219D01*
X012764Y008381D01*
X012553Y008469D01*
X012797Y008349D02*
X013370Y008349D01*
X013370Y008507D02*
X011568Y008507D01*
X011656Y008349D02*
X012079Y008349D01*
X011938Y008190D02*
X011656Y008190D01*
X011656Y008032D02*
X011872Y008032D01*
X011862Y007873D02*
X011656Y007873D01*
X011656Y007715D02*
X011889Y007715D01*
X011960Y007556D02*
X011656Y007556D01*
X011651Y007398D02*
X012129Y007398D01*
X011656Y007239D02*
X013370Y007239D01*
X013370Y007398D02*
X012747Y007398D01*
X012916Y007556D02*
X013370Y007556D01*
X013370Y007715D02*
X012988Y007715D01*
X013014Y007873D02*
X013370Y007873D01*
X013370Y008032D02*
X013004Y008032D01*
X012938Y008190D02*
X013370Y008190D01*
X013340Y008666D02*
X013370Y008666D01*
X013366Y008824D02*
X013370Y008824D01*
X013366Y008983D02*
X013370Y008983D01*
X012284Y008666D02*
X011342Y008666D01*
X011342Y008824D02*
X012258Y008824D01*
X012258Y008983D02*
X011342Y008983D01*
X011656Y007081D02*
X013370Y007081D01*
X013370Y006922D02*
X011656Y006922D01*
X011656Y006764D02*
X013370Y006764D01*
X013370Y006605D02*
X011656Y006605D01*
X011645Y006447D02*
X012087Y006447D01*
X012112Y006472D02*
X011950Y006310D01*
X011862Y006098D01*
X011862Y005869D01*
X011950Y005657D01*
X012112Y005495D01*
X012324Y005408D01*
X012553Y005408D01*
X012764Y005495D01*
X012926Y005657D01*
X013014Y005869D01*
X013014Y006098D01*
X012926Y006310D01*
X012764Y006472D01*
X012553Y006559D01*
X012324Y006559D01*
X012112Y006472D01*
X011941Y006288D02*
X011656Y006288D01*
X011656Y006130D02*
X011875Y006130D01*
X011862Y005971D02*
X011656Y005971D01*
X011656Y005813D02*
X011886Y005813D01*
X011953Y005654D02*
X011656Y005654D01*
X011635Y005496D02*
X012112Y005496D01*
X011514Y005337D02*
X013370Y005337D01*
X013297Y005281D02*
X013256Y005305D01*
X013210Y005317D01*
X012892Y005317D01*
X012892Y004843D01*
X013366Y004843D01*
X013366Y005161D01*
X013354Y005206D01*
X013330Y005248D01*
X013297Y005281D01*
X013361Y005179D02*
X013370Y005179D01*
X013366Y005020D02*
X013370Y005020D01*
X013366Y004862D02*
X013370Y004862D01*
X013370Y004703D02*
X012892Y004703D01*
X012892Y004545D02*
X012732Y004545D01*
X012732Y004703D02*
X010691Y004703D01*
X009438Y005179D02*
X009397Y005179D01*
X010725Y002271D02*
X011312Y002074D01*
X011438Y001948D01*
X011598Y001523D02*
X011700Y001027D01*
X012177Y001058D02*
X012479Y001058D01*
X012465Y000899D02*
X012177Y000899D01*
X012177Y000741D02*
X012487Y000741D01*
X012544Y001216D02*
X012177Y001216D01*
X012158Y001375D02*
X012692Y001375D01*
X012398Y001850D02*
X013370Y001850D01*
X013370Y001692D02*
X012250Y001692D01*
X012060Y001692D02*
X012060Y001692D01*
X012060Y001850D02*
X012060Y001850D01*
X012040Y001533D02*
X013370Y001533D01*
X013370Y002009D02*
X012398Y002009D01*
X012398Y002167D02*
X013370Y002167D01*
X013370Y002326D02*
X012398Y002326D01*
X012330Y002484D02*
X013370Y002484D01*
X011598Y001523D02*
X010017Y001680D01*
X009887Y001050D02*
X011007Y001050D01*
X010991Y001027D01*
X012732Y004228D02*
X012892Y004228D01*
X012892Y004386D02*
X012732Y004386D01*
X012732Y004862D02*
X012892Y004862D01*
X012892Y005020D02*
X012732Y005020D01*
X012732Y005179D02*
X012892Y005179D01*
X012765Y005496D02*
X013370Y005496D01*
X013370Y005654D02*
X012923Y005654D01*
X012991Y005813D02*
X013370Y005813D01*
X013370Y005971D02*
X013014Y005971D01*
X013001Y006130D02*
X013370Y006130D01*
X013370Y006288D02*
X012935Y006288D01*
X012789Y006447D02*
X013370Y006447D01*
X013366Y004545D02*
X013370Y004545D01*
X013366Y004386D02*
X013370Y004386D01*
X013370Y004228D02*
X013266Y004228D01*
X006796Y012003D02*
X007064Y012271D01*
X007858Y012470D02*
X008019Y012470D01*
D26*
X009080Y011600D02*
X010438Y011600D01*
X010292Y011090D02*
X009080Y011090D01*
X009080Y011088D01*
X009080Y011344D02*
X010962Y011344D01*
X010962Y007913D01*
X010962Y006948D02*
X010292Y006948D01*
X010292Y011090D01*
X010056Y010832D02*
X010056Y006011D01*
X010938Y006011D01*
X010938Y005948D01*
X010962Y005972D01*
X010962Y005983D01*
X009556Y008448D02*
X009584Y008476D01*
X009584Y009200D01*
X009487Y009296D01*
X009080Y009296D01*
X009080Y009552D02*
X008716Y009552D01*
X008599Y009436D01*
X008599Y008602D01*
X008769Y008432D01*
X007938Y008448D02*
X007930Y008456D01*
X007930Y009121D01*
X008499Y009808D01*
X009080Y009808D01*
X009645Y009808D01*
X009662Y009791D01*
X009098Y009791D01*
X009080Y009808D01*
X009080Y010064D02*
X008318Y010064D01*
X006977Y008724D01*
X006977Y007070D01*
X006438Y008448D02*
X006796Y008806D01*
X006796Y009296D01*
X006796Y009552D02*
X006472Y009552D01*
X005725Y008924D01*
X005725Y008735D01*
X005438Y008448D01*
X005568Y009200D02*
X004977Y009200D01*
X004662Y008885D01*
X004662Y008672D01*
X004438Y008448D01*
X003438Y008448D02*
X003438Y008948D01*
X003938Y009448D01*
X005438Y009448D01*
X006212Y010064D01*
X006796Y010064D01*
X006796Y009808D02*
X006294Y009808D01*
X005568Y009200D01*
X005387Y009842D02*
X006196Y010415D01*
X006393Y010576D01*
X005411Y009869D01*
X005096Y009987D01*
X005387Y009842D02*
X003096Y009842D01*
X002438Y010448D01*
X002438Y012948D01*
X002938Y012448D02*
X003438Y012948D01*
X002938Y012448D02*
X002938Y010448D01*
X003517Y010420D01*
X005674Y010381D01*
X006322Y010832D01*
X006796Y010832D01*
X006796Y011088D02*
X006117Y011088D01*
X005844Y011011D01*
X005320Y011011D01*
X005186Y010956D01*
X005466Y011842D02*
X005182Y011889D01*
X005466Y011842D02*
X006017Y011842D01*
X006318Y011344D01*
X006796Y011344D01*
X006796Y010576D02*
X006393Y010576D01*
X006796Y010320D02*
X007310Y010320D01*
X007438Y010448D01*
X008438Y010448D02*
X008566Y010320D01*
X009080Y010320D01*
X009080Y010576D02*
X009074Y010576D01*
X009072Y010578D01*
X009505Y010578D01*
X009702Y010381D01*
X010056Y010832D02*
X009080Y010832D01*
X011938Y009948D02*
X011938Y012448D01*
X012438Y012948D01*
X002662Y008487D02*
X002446Y008704D01*
D27*
X004438Y005948D03*
X010438Y011712D03*
X012438Y010948D03*
M02*
