%
M48
M72
T01C0.0197
T02C0.0236
T03C0.0315
T04C0.0360
T05C0.0394
T06C0.0512
%
T01
X2162Y2487
X5529Y5381
X6977Y7070
X8938Y5448
X7438Y3448
X6662Y987
X9887Y1050
X10017Y1680
X10725Y2271
X13044Y1869
X12938Y6948
X11938Y9948
X9702Y10381
X9662Y9791
X8438Y10448
X7438Y10448
X5096Y9987
X3938Y10948
X2662Y8487
X922Y6672
T02
X4438Y5948
X10438Y11712
X12438Y10948
T03
X2430Y1125
X1643Y1125
X1568Y4448
X505Y4448
X505Y9448
X1568Y9448
T04
X1438Y12948
X2438Y12948
X3438Y12948
X4438Y12948
X5438Y12948
X6438Y12948
X7438Y12948
X8438Y12948
X9438Y12948
X10438Y12948
X11438Y12948
X12438Y12948
T05
X8552Y3113
X5324Y3113
T06
X796Y869
X836Y11735
X607Y12940
X12438Y7893
X12438Y5983
X13040Y909
X13040Y11696
X13245Y12940
M30
