G75*
G70*
%OFA0B0*%
%FSLAX24Y24*%
%IPPOS*%
%LPD*%
%AMOC8*
5,1,8,0,0,1.08239X$1,22.5*
%
%ADD10C,0.0000*%
%ADD11C,0.0040*%
%ADD12C,0.0030*%
%ADD13C,0.0060*%
%ADD14C,0.0010*%
%ADD15C,0.0050*%
%ADD16C,0.0070*%
D10*
X000174Y000263D02*
X000174Y013537D01*
X013690Y013537D01*
X013690Y000263D01*
X000174Y000263D01*
X000540Y000869D02*
X000542Y000900D01*
X000548Y000931D01*
X000557Y000961D01*
X000570Y000990D01*
X000587Y001017D01*
X000607Y001041D01*
X000629Y001063D01*
X000655Y001082D01*
X000682Y001098D01*
X000711Y001110D01*
X000741Y001119D01*
X000772Y001124D01*
X000804Y001125D01*
X000835Y001122D01*
X000866Y001115D01*
X000896Y001105D01*
X000924Y001091D01*
X000950Y001073D01*
X000974Y001053D01*
X000995Y001029D01*
X001014Y001004D01*
X001029Y000976D01*
X001040Y000947D01*
X001048Y000916D01*
X001052Y000885D01*
X001052Y000853D01*
X001048Y000822D01*
X001040Y000791D01*
X001029Y000762D01*
X001014Y000734D01*
X000995Y000709D01*
X000974Y000685D01*
X000950Y000665D01*
X000924Y000647D01*
X000896Y000633D01*
X000866Y000623D01*
X000835Y000616D01*
X000804Y000613D01*
X000772Y000614D01*
X000741Y000619D01*
X000711Y000628D01*
X000682Y000640D01*
X000655Y000656D01*
X000629Y000675D01*
X000607Y000697D01*
X000587Y000721D01*
X000570Y000748D01*
X000557Y000777D01*
X000548Y000807D01*
X000542Y000838D01*
X000540Y000869D01*
X000348Y004448D02*
X000350Y004473D01*
X000356Y004497D01*
X000365Y004519D01*
X000378Y004540D01*
X000394Y004559D01*
X000413Y004575D01*
X000434Y004588D01*
X000456Y004597D01*
X000480Y004603D01*
X000505Y004605D01*
X000530Y004603D01*
X000554Y004597D01*
X000576Y004588D01*
X000597Y004575D01*
X000616Y004559D01*
X000632Y004540D01*
X000645Y004519D01*
X000654Y004497D01*
X000660Y004473D01*
X000662Y004448D01*
X000660Y004423D01*
X000654Y004399D01*
X000645Y004377D01*
X000632Y004356D01*
X000616Y004337D01*
X000597Y004321D01*
X000576Y004308D01*
X000554Y004299D01*
X000530Y004293D01*
X000505Y004291D01*
X000480Y004293D01*
X000456Y004299D01*
X000434Y004308D01*
X000413Y004321D01*
X000394Y004337D01*
X000378Y004356D01*
X000365Y004377D01*
X000356Y004399D01*
X000350Y004423D01*
X000348Y004448D01*
X001411Y004448D02*
X001413Y004473D01*
X001419Y004497D01*
X001428Y004519D01*
X001441Y004540D01*
X001457Y004559D01*
X001476Y004575D01*
X001497Y004588D01*
X001519Y004597D01*
X001543Y004603D01*
X001568Y004605D01*
X001593Y004603D01*
X001617Y004597D01*
X001639Y004588D01*
X001660Y004575D01*
X001679Y004559D01*
X001695Y004540D01*
X001708Y004519D01*
X001717Y004497D01*
X001723Y004473D01*
X001725Y004448D01*
X001723Y004423D01*
X001717Y004399D01*
X001708Y004377D01*
X001695Y004356D01*
X001679Y004337D01*
X001660Y004321D01*
X001639Y004308D01*
X001617Y004299D01*
X001593Y004293D01*
X001568Y004291D01*
X001543Y004293D01*
X001519Y004299D01*
X001497Y004308D01*
X001476Y004321D01*
X001457Y004337D01*
X001441Y004356D01*
X001428Y004377D01*
X001419Y004399D01*
X001413Y004423D01*
X001411Y004448D01*
X005127Y003113D02*
X005129Y003140D01*
X005135Y003167D01*
X005144Y003193D01*
X005157Y003217D01*
X005173Y003240D01*
X005192Y003259D01*
X005214Y003276D01*
X005238Y003290D01*
X005263Y003300D01*
X005290Y003307D01*
X005317Y003310D01*
X005345Y003309D01*
X005372Y003304D01*
X005398Y003296D01*
X005422Y003284D01*
X005445Y003268D01*
X005466Y003250D01*
X005483Y003229D01*
X005498Y003205D01*
X005509Y003180D01*
X005517Y003154D01*
X005521Y003127D01*
X005521Y003099D01*
X005517Y003072D01*
X005509Y003046D01*
X005498Y003021D01*
X005483Y002997D01*
X005466Y002976D01*
X005445Y002958D01*
X005423Y002942D01*
X005398Y002930D01*
X005372Y002922D01*
X005345Y002917D01*
X005317Y002916D01*
X005290Y002919D01*
X005263Y002926D01*
X005238Y002936D01*
X005214Y002950D01*
X005192Y002967D01*
X005173Y002986D01*
X005157Y003009D01*
X005144Y003033D01*
X005135Y003059D01*
X005129Y003086D01*
X005127Y003113D01*
X008355Y003113D02*
X008357Y003140D01*
X008363Y003167D01*
X008372Y003193D01*
X008385Y003217D01*
X008401Y003240D01*
X008420Y003259D01*
X008442Y003276D01*
X008466Y003290D01*
X008491Y003300D01*
X008518Y003307D01*
X008545Y003310D01*
X008573Y003309D01*
X008600Y003304D01*
X008626Y003296D01*
X008650Y003284D01*
X008673Y003268D01*
X008694Y003250D01*
X008711Y003229D01*
X008726Y003205D01*
X008737Y003180D01*
X008745Y003154D01*
X008749Y003127D01*
X008749Y003099D01*
X008745Y003072D01*
X008737Y003046D01*
X008726Y003021D01*
X008711Y002997D01*
X008694Y002976D01*
X008673Y002958D01*
X008651Y002942D01*
X008626Y002930D01*
X008600Y002922D01*
X008573Y002917D01*
X008545Y002916D01*
X008518Y002919D01*
X008491Y002926D01*
X008466Y002936D01*
X008442Y002950D01*
X008420Y002967D01*
X008401Y002986D01*
X008385Y003009D01*
X008372Y003033D01*
X008363Y003059D01*
X008357Y003086D01*
X008355Y003113D01*
X012182Y005983D02*
X012184Y006014D01*
X012190Y006045D01*
X012199Y006075D01*
X012212Y006104D01*
X012229Y006131D01*
X012249Y006155D01*
X012271Y006177D01*
X012297Y006196D01*
X012324Y006212D01*
X012353Y006224D01*
X012383Y006233D01*
X012414Y006238D01*
X012446Y006239D01*
X012477Y006236D01*
X012508Y006229D01*
X012538Y006219D01*
X012566Y006205D01*
X012592Y006187D01*
X012616Y006167D01*
X012637Y006143D01*
X012656Y006118D01*
X012671Y006090D01*
X012682Y006061D01*
X012690Y006030D01*
X012694Y005999D01*
X012694Y005967D01*
X012690Y005936D01*
X012682Y005905D01*
X012671Y005876D01*
X012656Y005848D01*
X012637Y005823D01*
X012616Y005799D01*
X012592Y005779D01*
X012566Y005761D01*
X012538Y005747D01*
X012508Y005737D01*
X012477Y005730D01*
X012446Y005727D01*
X012414Y005728D01*
X012383Y005733D01*
X012353Y005742D01*
X012324Y005754D01*
X012297Y005770D01*
X012271Y005789D01*
X012249Y005811D01*
X012229Y005835D01*
X012212Y005862D01*
X012199Y005891D01*
X012190Y005921D01*
X012184Y005952D01*
X012182Y005983D01*
X012182Y007893D02*
X012184Y007924D01*
X012190Y007955D01*
X012199Y007985D01*
X012212Y008014D01*
X012229Y008041D01*
X012249Y008065D01*
X012271Y008087D01*
X012297Y008106D01*
X012324Y008122D01*
X012353Y008134D01*
X012383Y008143D01*
X012414Y008148D01*
X012446Y008149D01*
X012477Y008146D01*
X012508Y008139D01*
X012538Y008129D01*
X012566Y008115D01*
X012592Y008097D01*
X012616Y008077D01*
X012637Y008053D01*
X012656Y008028D01*
X012671Y008000D01*
X012682Y007971D01*
X012690Y007940D01*
X012694Y007909D01*
X012694Y007877D01*
X012690Y007846D01*
X012682Y007815D01*
X012671Y007786D01*
X012656Y007758D01*
X012637Y007733D01*
X012616Y007709D01*
X012592Y007689D01*
X012566Y007671D01*
X012538Y007657D01*
X012508Y007647D01*
X012477Y007640D01*
X012446Y007637D01*
X012414Y007638D01*
X012383Y007643D01*
X012353Y007652D01*
X012324Y007664D01*
X012297Y007680D01*
X012271Y007699D01*
X012249Y007721D01*
X012229Y007745D01*
X012212Y007772D01*
X012199Y007801D01*
X012190Y007831D01*
X012184Y007862D01*
X012182Y007893D01*
X012784Y011696D02*
X012786Y011727D01*
X012792Y011758D01*
X012801Y011788D01*
X012814Y011817D01*
X012831Y011844D01*
X012851Y011868D01*
X012873Y011890D01*
X012899Y011909D01*
X012926Y011925D01*
X012955Y011937D01*
X012985Y011946D01*
X013016Y011951D01*
X013048Y011952D01*
X013079Y011949D01*
X013110Y011942D01*
X013140Y011932D01*
X013168Y011918D01*
X013194Y011900D01*
X013218Y011880D01*
X013239Y011856D01*
X013258Y011831D01*
X013273Y011803D01*
X013284Y011774D01*
X013292Y011743D01*
X013296Y011712D01*
X013296Y011680D01*
X013292Y011649D01*
X013284Y011618D01*
X013273Y011589D01*
X013258Y011561D01*
X013239Y011536D01*
X013218Y011512D01*
X013194Y011492D01*
X013168Y011474D01*
X013140Y011460D01*
X013110Y011450D01*
X013079Y011443D01*
X013048Y011440D01*
X013016Y011441D01*
X012985Y011446D01*
X012955Y011455D01*
X012926Y011467D01*
X012899Y011483D01*
X012873Y011502D01*
X012851Y011524D01*
X012831Y011548D01*
X012814Y011575D01*
X012801Y011604D01*
X012792Y011634D01*
X012786Y011665D01*
X012784Y011696D01*
X012989Y012940D02*
X012991Y012971D01*
X012997Y013002D01*
X013006Y013032D01*
X013019Y013061D01*
X013036Y013088D01*
X013056Y013112D01*
X013078Y013134D01*
X013104Y013153D01*
X013131Y013169D01*
X013160Y013181D01*
X013190Y013190D01*
X013221Y013195D01*
X013253Y013196D01*
X013284Y013193D01*
X013315Y013186D01*
X013345Y013176D01*
X013373Y013162D01*
X013399Y013144D01*
X013423Y013124D01*
X013444Y013100D01*
X013463Y013075D01*
X013478Y013047D01*
X013489Y013018D01*
X013497Y012987D01*
X013501Y012956D01*
X013501Y012924D01*
X013497Y012893D01*
X013489Y012862D01*
X013478Y012833D01*
X013463Y012805D01*
X013444Y012780D01*
X013423Y012756D01*
X013399Y012736D01*
X013373Y012718D01*
X013345Y012704D01*
X013315Y012694D01*
X013284Y012687D01*
X013253Y012684D01*
X013221Y012685D01*
X013190Y012690D01*
X013160Y012699D01*
X013131Y012711D01*
X013104Y012727D01*
X013078Y012746D01*
X013056Y012768D01*
X013036Y012792D01*
X013019Y012819D01*
X013006Y012848D01*
X012997Y012878D01*
X012991Y012909D01*
X012989Y012940D01*
X001411Y009448D02*
X001413Y009473D01*
X001419Y009497D01*
X001428Y009519D01*
X001441Y009540D01*
X001457Y009559D01*
X001476Y009575D01*
X001497Y009588D01*
X001519Y009597D01*
X001543Y009603D01*
X001568Y009605D01*
X001593Y009603D01*
X001617Y009597D01*
X001639Y009588D01*
X001660Y009575D01*
X001679Y009559D01*
X001695Y009540D01*
X001708Y009519D01*
X001717Y009497D01*
X001723Y009473D01*
X001725Y009448D01*
X001723Y009423D01*
X001717Y009399D01*
X001708Y009377D01*
X001695Y009356D01*
X001679Y009337D01*
X001660Y009321D01*
X001639Y009308D01*
X001617Y009299D01*
X001593Y009293D01*
X001568Y009291D01*
X001543Y009293D01*
X001519Y009299D01*
X001497Y009308D01*
X001476Y009321D01*
X001457Y009337D01*
X001441Y009356D01*
X001428Y009377D01*
X001419Y009399D01*
X001413Y009423D01*
X001411Y009448D01*
X000348Y009448D02*
X000350Y009473D01*
X000356Y009497D01*
X000365Y009519D01*
X000378Y009540D01*
X000394Y009559D01*
X000413Y009575D01*
X000434Y009588D01*
X000456Y009597D01*
X000480Y009603D01*
X000505Y009605D01*
X000530Y009603D01*
X000554Y009597D01*
X000576Y009588D01*
X000597Y009575D01*
X000616Y009559D01*
X000632Y009540D01*
X000645Y009519D01*
X000654Y009497D01*
X000660Y009473D01*
X000662Y009448D01*
X000660Y009423D01*
X000654Y009399D01*
X000645Y009377D01*
X000632Y009356D01*
X000616Y009337D01*
X000597Y009321D01*
X000576Y009308D01*
X000554Y009299D01*
X000530Y009293D01*
X000505Y009291D01*
X000480Y009293D01*
X000456Y009299D01*
X000434Y009308D01*
X000413Y009321D01*
X000394Y009337D01*
X000378Y009356D01*
X000365Y009377D01*
X000356Y009399D01*
X000350Y009423D01*
X000348Y009448D01*
X000580Y011735D02*
X000582Y011766D01*
X000588Y011797D01*
X000597Y011827D01*
X000610Y011856D01*
X000627Y011883D01*
X000647Y011907D01*
X000669Y011929D01*
X000695Y011948D01*
X000722Y011964D01*
X000751Y011976D01*
X000781Y011985D01*
X000812Y011990D01*
X000844Y011991D01*
X000875Y011988D01*
X000906Y011981D01*
X000936Y011971D01*
X000964Y011957D01*
X000990Y011939D01*
X001014Y011919D01*
X001035Y011895D01*
X001054Y011870D01*
X001069Y011842D01*
X001080Y011813D01*
X001088Y011782D01*
X001092Y011751D01*
X001092Y011719D01*
X001088Y011688D01*
X001080Y011657D01*
X001069Y011628D01*
X001054Y011600D01*
X001035Y011575D01*
X001014Y011551D01*
X000990Y011531D01*
X000964Y011513D01*
X000936Y011499D01*
X000906Y011489D01*
X000875Y011482D01*
X000844Y011479D01*
X000812Y011480D01*
X000781Y011485D01*
X000751Y011494D01*
X000722Y011506D01*
X000695Y011522D01*
X000669Y011541D01*
X000647Y011563D01*
X000627Y011587D01*
X000610Y011614D01*
X000597Y011643D01*
X000588Y011673D01*
X000582Y011704D01*
X000580Y011735D01*
X000351Y012940D02*
X000353Y012971D01*
X000359Y013002D01*
X000368Y013032D01*
X000381Y013061D01*
X000398Y013088D01*
X000418Y013112D01*
X000440Y013134D01*
X000466Y013153D01*
X000493Y013169D01*
X000522Y013181D01*
X000552Y013190D01*
X000583Y013195D01*
X000615Y013196D01*
X000646Y013193D01*
X000677Y013186D01*
X000707Y013176D01*
X000735Y013162D01*
X000761Y013144D01*
X000785Y013124D01*
X000806Y013100D01*
X000825Y013075D01*
X000840Y013047D01*
X000851Y013018D01*
X000859Y012987D01*
X000863Y012956D01*
X000863Y012924D01*
X000859Y012893D01*
X000851Y012862D01*
X000840Y012833D01*
X000825Y012805D01*
X000806Y012780D01*
X000785Y012756D01*
X000761Y012736D01*
X000735Y012718D01*
X000707Y012704D01*
X000677Y012694D01*
X000646Y012687D01*
X000615Y012684D01*
X000583Y012685D01*
X000552Y012690D01*
X000522Y012699D01*
X000493Y012711D01*
X000466Y012727D01*
X000440Y012746D01*
X000418Y012768D01*
X000398Y012792D01*
X000381Y012819D01*
X000368Y012848D01*
X000359Y012878D01*
X000353Y012909D01*
X000351Y012940D01*
X012784Y000909D02*
X012786Y000940D01*
X012792Y000971D01*
X012801Y001001D01*
X012814Y001030D01*
X012831Y001057D01*
X012851Y001081D01*
X012873Y001103D01*
X012899Y001122D01*
X012926Y001138D01*
X012955Y001150D01*
X012985Y001159D01*
X013016Y001164D01*
X013048Y001165D01*
X013079Y001162D01*
X013110Y001155D01*
X013140Y001145D01*
X013168Y001131D01*
X013194Y001113D01*
X013218Y001093D01*
X013239Y001069D01*
X013258Y001044D01*
X013273Y001016D01*
X013284Y000987D01*
X013292Y000956D01*
X013296Y000925D01*
X013296Y000893D01*
X013292Y000862D01*
X013284Y000831D01*
X013273Y000802D01*
X013258Y000774D01*
X013239Y000749D01*
X013218Y000725D01*
X013194Y000705D01*
X013168Y000687D01*
X013140Y000673D01*
X013110Y000663D01*
X013079Y000656D01*
X013048Y000653D01*
X013016Y000654D01*
X012985Y000659D01*
X012955Y000668D01*
X012926Y000680D01*
X012899Y000696D01*
X012873Y000715D01*
X012851Y000737D01*
X012831Y000761D01*
X012814Y000788D01*
X012801Y000817D01*
X012792Y000847D01*
X012786Y000878D01*
X012784Y000909D01*
D11*
X012633Y002448D02*
X012479Y002448D01*
X012402Y002525D01*
X012402Y002679D01*
X012556Y002679D01*
X012709Y002832D02*
X012709Y002525D01*
X012633Y002448D01*
X012249Y002448D02*
X012249Y002909D01*
X011942Y002448D01*
X011942Y002909D01*
X011789Y002909D02*
X011558Y002909D01*
X011482Y002832D01*
X011482Y002525D01*
X011558Y002448D01*
X011789Y002448D01*
X011789Y002909D01*
X011328Y002832D02*
X011252Y002909D01*
X011098Y002909D01*
X011021Y002832D01*
X011021Y002755D01*
X011098Y002679D01*
X011021Y002602D01*
X011021Y002525D01*
X011098Y002448D01*
X011252Y002448D01*
X011328Y002525D01*
X011175Y002679D02*
X011098Y002679D01*
X012402Y002832D02*
X012479Y002909D01*
X012633Y002909D01*
X012709Y002832D01*
X011816Y004468D02*
X011662Y004621D01*
X011662Y004928D01*
X011509Y004928D02*
X011355Y004928D01*
X011432Y004928D02*
X011432Y004468D01*
X011509Y004468D02*
X011355Y004468D01*
X011202Y004468D02*
X011202Y004928D01*
X010895Y004468D01*
X010895Y004928D01*
X010918Y005218D02*
X010765Y005218D01*
X010841Y005218D02*
X010841Y005678D01*
X010765Y005678D02*
X010918Y005678D01*
X010611Y005602D02*
X010611Y005295D01*
X010534Y005218D01*
X010381Y005218D01*
X010304Y005295D01*
X010151Y005218D02*
X009844Y005218D01*
X009997Y005218D02*
X009997Y005678D01*
X010151Y005525D01*
X010304Y005602D02*
X010381Y005678D01*
X010534Y005678D01*
X010611Y005602D01*
X009761Y006224D02*
X009761Y006454D01*
X009684Y006531D01*
X009531Y006531D01*
X009454Y006454D01*
X009454Y006224D01*
X009301Y006224D02*
X009761Y006224D01*
X009684Y006684D02*
X009761Y006761D01*
X009761Y006915D01*
X009684Y006991D01*
X009608Y006991D01*
X009301Y006684D01*
X009301Y006991D01*
X009301Y007145D02*
X009301Y007221D01*
X009377Y007221D01*
X009377Y007145D01*
X009301Y007145D01*
X009301Y007375D02*
X009608Y007682D01*
X009684Y007682D01*
X009761Y007605D01*
X009761Y007452D01*
X009684Y007375D01*
X009301Y007375D02*
X009301Y007682D01*
X009013Y007513D02*
X008553Y007513D01*
X008553Y007666D02*
X008553Y007359D01*
X008553Y007206D02*
X008553Y007129D01*
X008629Y007129D01*
X008629Y007206D01*
X008553Y007206D01*
X008553Y006976D02*
X008553Y006669D01*
X008859Y006976D01*
X008936Y006976D01*
X009013Y006899D01*
X009013Y006745D01*
X008936Y006669D01*
X008936Y006515D02*
X008783Y006515D01*
X008706Y006438D01*
X008706Y006208D01*
X008553Y006208D02*
X009013Y006208D01*
X009013Y006438D01*
X008936Y006515D01*
X008222Y006454D02*
X008222Y006224D01*
X007761Y006224D01*
X007915Y006224D02*
X007915Y006454D01*
X007991Y006531D01*
X008145Y006531D01*
X008222Y006454D01*
X008145Y006684D02*
X008222Y006761D01*
X008222Y006915D01*
X008145Y006991D01*
X008068Y006991D01*
X007761Y006684D01*
X007761Y006991D01*
X007761Y007145D02*
X007761Y007221D01*
X007838Y007221D01*
X007838Y007145D01*
X007761Y007145D01*
X007838Y007375D02*
X008145Y007682D01*
X007838Y007682D01*
X007761Y007605D01*
X007761Y007452D01*
X007838Y007375D01*
X008145Y007375D01*
X008222Y007452D01*
X008222Y007605D01*
X008145Y007682D01*
X008859Y007359D02*
X009013Y007513D01*
X007663Y008857D02*
X007509Y009011D01*
X007663Y009164D01*
X007202Y009164D01*
X007279Y009318D02*
X007202Y009394D01*
X007202Y009548D01*
X007279Y009625D01*
X007356Y009625D01*
X007432Y009548D01*
X007432Y009394D01*
X007509Y009318D01*
X007586Y009318D01*
X007663Y009394D01*
X007663Y009548D01*
X007586Y009625D01*
X007663Y009778D02*
X007663Y010008D01*
X007586Y010085D01*
X007432Y010085D01*
X007356Y010008D01*
X007356Y009778D01*
X007202Y009778D02*
X007663Y009778D01*
X007432Y010238D02*
X007432Y010545D01*
X007279Y010699D02*
X007202Y010776D01*
X007202Y010929D01*
X007279Y011006D01*
X007356Y011006D01*
X007432Y010929D01*
X007432Y010852D01*
X007432Y010929D02*
X007509Y011006D01*
X007586Y011006D01*
X007663Y010929D01*
X007663Y010776D01*
X007586Y010699D01*
X007663Y010469D02*
X007432Y010238D01*
X007202Y010469D02*
X007663Y010469D01*
X007586Y011159D02*
X007279Y011159D01*
X007586Y011466D01*
X007279Y011466D01*
X007202Y011389D01*
X007202Y011236D01*
X007279Y011159D01*
X007586Y011159D02*
X007663Y011236D01*
X007663Y011389D01*
X007586Y011466D01*
X007663Y008857D02*
X007202Y008857D01*
X006645Y007721D02*
X006568Y007721D01*
X006491Y007644D01*
X006415Y007721D01*
X006338Y007721D01*
X006261Y007644D01*
X006261Y007491D01*
X006338Y007414D01*
X006338Y007261D02*
X006261Y007261D01*
X006261Y007184D01*
X006338Y007184D01*
X006338Y007261D01*
X006261Y007031D02*
X006261Y006724D01*
X006568Y007031D01*
X006645Y007031D01*
X006722Y006954D01*
X006722Y006800D01*
X006645Y006724D01*
X006645Y006570D02*
X006491Y006570D01*
X006415Y006494D01*
X006415Y006263D01*
X006261Y006263D02*
X006722Y006263D01*
X006722Y006494D01*
X006645Y006570D01*
X006645Y007414D02*
X006722Y007491D01*
X006722Y007644D01*
X006645Y007721D01*
X006491Y007644D02*
X006491Y007568D01*
X005761Y007644D02*
X005531Y007414D01*
X005531Y007721D01*
X005301Y007644D02*
X005761Y007644D01*
X005377Y007261D02*
X005301Y007261D01*
X005301Y007184D01*
X005377Y007184D01*
X005377Y007261D01*
X005301Y007031D02*
X005301Y006724D01*
X005608Y007031D01*
X005684Y007031D01*
X005761Y006954D01*
X005761Y006800D01*
X005684Y006724D01*
X005684Y006570D02*
X005531Y006570D01*
X005454Y006494D01*
X005454Y006263D01*
X005301Y006263D02*
X005761Y006263D01*
X005761Y006494D01*
X005684Y006570D01*
X004733Y006490D02*
X004733Y006259D01*
X004273Y006259D01*
X004426Y006259D02*
X004426Y006490D01*
X004503Y006566D01*
X004657Y006566D01*
X004733Y006490D01*
X004657Y006720D02*
X004733Y006796D01*
X004733Y006950D01*
X004657Y007027D01*
X004580Y007027D01*
X004273Y006720D01*
X004273Y007027D01*
X004273Y007180D02*
X004273Y007257D01*
X004350Y007257D01*
X004350Y007180D01*
X004273Y007180D01*
X004350Y007410D02*
X004273Y007487D01*
X004273Y007641D01*
X004350Y007717D01*
X004503Y007717D01*
X004580Y007641D01*
X004580Y007564D01*
X004503Y007410D01*
X004733Y007410D01*
X004733Y007717D01*
X003678Y007717D02*
X003602Y007564D01*
X003448Y007410D01*
X003448Y007641D01*
X003371Y007717D01*
X003295Y007717D01*
X003218Y007641D01*
X003218Y007487D01*
X003295Y007410D01*
X003448Y007410D01*
X003295Y007257D02*
X003295Y007180D01*
X003218Y007180D01*
X003218Y007257D01*
X003295Y007257D01*
X003218Y007027D02*
X003218Y006720D01*
X003218Y006873D02*
X003678Y006873D01*
X003525Y006720D01*
X003602Y006566D02*
X003448Y006566D01*
X003371Y006490D01*
X003371Y006259D01*
X003218Y006259D02*
X003678Y006259D01*
X003678Y006490D01*
X003602Y006566D01*
X002324Y007260D02*
X001864Y007260D01*
X001864Y007030D01*
X001940Y006953D01*
X002094Y006953D01*
X002171Y007030D01*
X002171Y007260D01*
X002094Y007414D02*
X002094Y007721D01*
X002171Y007874D02*
X001864Y008027D01*
X002171Y008181D01*
X002171Y008334D02*
X002324Y008488D01*
X001864Y008488D01*
X001864Y008641D02*
X001864Y008334D01*
X002171Y006800D02*
X002171Y006723D01*
X002017Y006570D01*
X001864Y006570D02*
X002171Y006570D01*
X002094Y006416D02*
X001864Y006416D01*
X001864Y006186D01*
X001940Y006109D01*
X002017Y006186D01*
X002017Y006416D01*
X002094Y006416D02*
X002171Y006339D01*
X002171Y006186D01*
X002094Y005956D02*
X001940Y005956D01*
X001864Y005879D01*
X001864Y005726D01*
X001940Y005649D01*
X002094Y005649D01*
X002171Y005726D01*
X002171Y005879D01*
X002094Y005956D01*
X002094Y005495D02*
X001940Y005495D01*
X001864Y005419D01*
X001864Y005188D01*
X002324Y005188D01*
X002171Y005188D02*
X002171Y005419D01*
X002094Y005495D01*
X002094Y005035D02*
X002094Y004728D01*
X002094Y004575D02*
X001864Y004575D01*
X002094Y004575D02*
X002171Y004498D01*
X002171Y004344D01*
X002094Y004268D01*
X002171Y004114D02*
X002171Y003884D01*
X002094Y003807D01*
X001940Y003807D01*
X001864Y003884D01*
X001864Y004114D01*
X001864Y004268D02*
X002324Y004268D01*
X002171Y003654D02*
X002171Y003500D01*
X002247Y003577D02*
X001940Y003577D01*
X001864Y003654D01*
X001864Y003347D02*
X001864Y003117D01*
X001940Y003040D01*
X002017Y003117D01*
X002017Y003347D01*
X002094Y003347D02*
X002171Y003270D01*
X002171Y003117D01*
X002261Y003153D02*
X002568Y003153D01*
X002415Y003153D02*
X002415Y002692D01*
X002171Y002579D02*
X001940Y002579D01*
X001864Y002656D01*
X001940Y002733D01*
X001864Y002810D01*
X001940Y002886D01*
X002171Y002886D01*
X002108Y002923D02*
X001801Y002923D01*
X001864Y003347D02*
X002094Y003347D01*
X002722Y002999D02*
X002722Y002692D01*
X002722Y002923D02*
X003029Y002923D01*
X003029Y002999D02*
X002875Y003153D01*
X002722Y002999D01*
X003029Y002999D02*
X003029Y002692D01*
X003182Y002769D02*
X003259Y002692D01*
X003489Y002692D01*
X003489Y003153D01*
X003259Y003153D01*
X003182Y003076D01*
X003182Y002999D01*
X003259Y002923D01*
X003489Y002923D01*
X003259Y002923D02*
X003182Y002846D01*
X003182Y002769D01*
X003156Y002275D02*
X003232Y002275D01*
X003386Y002121D01*
X003386Y001968D02*
X003386Y002275D01*
X003539Y002198D02*
X003539Y002045D01*
X003616Y001968D01*
X003846Y001968D01*
X003846Y001815D02*
X003846Y002275D01*
X003616Y002275D01*
X003539Y002198D01*
X004000Y002045D02*
X004000Y001968D01*
X004077Y001968D01*
X004077Y002045D01*
X004000Y002045D01*
X004230Y002045D02*
X004307Y002121D01*
X004460Y002121D01*
X004537Y002198D01*
X004460Y002275D01*
X004230Y002275D01*
X004230Y002045D02*
X004307Y001968D01*
X004537Y001968D01*
X004690Y001968D02*
X004690Y002275D01*
X004690Y001968D02*
X004921Y001968D01*
X004997Y002045D01*
X004997Y002275D01*
X005151Y002198D02*
X005151Y002045D01*
X005227Y001968D01*
X005458Y001968D01*
X005611Y001968D02*
X005841Y001968D01*
X005918Y002045D01*
X005841Y002121D01*
X005611Y002121D01*
X005611Y002198D02*
X005611Y001968D01*
X005458Y001815D02*
X005458Y002275D01*
X005227Y002275D01*
X005151Y002198D01*
X005611Y002198D02*
X005688Y002275D01*
X005841Y002275D01*
X005765Y001428D02*
X005765Y000968D01*
X005918Y000968D02*
X005611Y000968D01*
X005458Y000968D02*
X005151Y001428D01*
X004997Y001198D02*
X004690Y001198D01*
X004767Y000968D02*
X004767Y001428D01*
X004997Y001198D01*
X004537Y000968D02*
X004230Y001428D01*
X004077Y001352D02*
X004000Y001428D01*
X003846Y001428D01*
X003770Y001352D01*
X003770Y001275D01*
X004077Y000968D01*
X003770Y000968D01*
X003616Y001045D02*
X003309Y001352D01*
X003309Y001045D01*
X003386Y000968D01*
X003539Y000968D01*
X003616Y001045D01*
X003616Y001352D01*
X003539Y001428D01*
X003386Y001428D01*
X003309Y001352D01*
X003156Y001275D02*
X003002Y001428D01*
X003002Y000968D01*
X002849Y000968D02*
X003156Y000968D01*
X002695Y000968D02*
X002388Y001275D01*
X002388Y001352D01*
X002465Y001428D01*
X002619Y001428D01*
X002695Y001352D01*
X002695Y000968D02*
X002388Y000968D01*
X002772Y001968D02*
X002695Y002045D01*
X002695Y002198D01*
X002772Y002275D01*
X002926Y002275D01*
X003002Y002198D01*
X003002Y002045D01*
X002926Y001968D01*
X002772Y001968D01*
X005765Y001428D02*
X005918Y001275D01*
X011816Y004468D02*
X011969Y004621D01*
X011969Y004928D01*
D12*
X012301Y009882D02*
X012253Y009931D01*
X012253Y010028D01*
X012301Y010076D01*
X012301Y010177D02*
X012253Y010225D01*
X012253Y010322D01*
X012301Y010371D01*
X012350Y010371D01*
X012398Y010322D01*
X012398Y010274D01*
X012398Y010322D02*
X012446Y010371D01*
X012495Y010371D01*
X012543Y010322D01*
X012543Y010225D01*
X012495Y010177D01*
X012495Y010076D02*
X012543Y010028D01*
X012543Y009931D01*
X012495Y009882D01*
X012301Y009882D01*
X012300Y012149D02*
X012203Y012149D01*
X012155Y012197D01*
X012155Y012390D01*
X012348Y012197D01*
X012300Y012149D01*
X012348Y012197D02*
X012348Y012390D01*
X012300Y012439D01*
X012203Y012439D01*
X012155Y012390D01*
X012447Y012197D02*
X012447Y012149D01*
X012496Y012149D01*
X012496Y012197D01*
X012447Y012197D01*
X012597Y012149D02*
X012790Y012149D01*
X012597Y012342D01*
X012597Y012390D01*
X012645Y012439D01*
X012742Y012439D01*
X012790Y012390D01*
X011814Y012435D02*
X011814Y012241D01*
X011765Y012193D01*
X011668Y012193D01*
X011620Y012241D01*
X011620Y012338D01*
X011717Y012338D01*
X011814Y012435D02*
X011765Y012483D01*
X011668Y012483D01*
X011620Y012435D01*
X011519Y012483D02*
X011325Y012193D01*
X011325Y012483D01*
X011224Y012483D02*
X011079Y012483D01*
X011031Y012435D01*
X011031Y012241D01*
X011079Y012193D01*
X011224Y012193D01*
X011224Y012483D01*
X011519Y012483D02*
X011519Y012193D01*
X010829Y012274D02*
X010733Y012177D01*
X010636Y012274D01*
X010636Y012467D01*
X010535Y012467D02*
X010390Y012467D01*
X010341Y012419D01*
X010341Y012226D01*
X010390Y012177D01*
X010535Y012177D01*
X010535Y012467D01*
X010829Y012467D02*
X010829Y012274D01*
X010240Y012177D02*
X010095Y012177D01*
X010047Y012226D01*
X010047Y012419D01*
X010095Y012467D01*
X010240Y012467D01*
X010240Y012177D01*
X009765Y012133D02*
X009765Y012036D01*
X009716Y011988D01*
X009668Y011988D01*
X009619Y012036D01*
X009619Y012133D01*
X009571Y012181D01*
X009523Y012181D01*
X009474Y012133D01*
X009474Y012036D01*
X009523Y011988D01*
X009474Y011887D02*
X009474Y011693D01*
X009765Y011693D01*
X009765Y011887D01*
X009619Y011790D02*
X009619Y011693D01*
X009619Y011592D02*
X009571Y011544D01*
X009571Y011399D01*
X009571Y011495D02*
X009474Y011592D01*
X009619Y011592D02*
X009716Y011592D01*
X009765Y011544D01*
X009765Y011399D01*
X009474Y011399D01*
X009474Y011104D02*
X009765Y011297D01*
X009765Y012133D02*
X009716Y012181D01*
X009765Y012283D02*
X009765Y012428D01*
X009716Y012476D01*
X009668Y012476D01*
X009619Y012428D01*
X009619Y012283D01*
X009474Y012283D02*
X009474Y012428D01*
X009523Y012476D01*
X009571Y012476D01*
X009619Y012428D01*
X009474Y012283D02*
X009765Y012283D01*
X009018Y012185D02*
X008825Y012475D01*
X008724Y012427D02*
X008724Y012233D01*
X008675Y012185D01*
X008579Y012185D01*
X008530Y012233D01*
X008429Y012233D02*
X008381Y012185D01*
X008284Y012185D01*
X008236Y012233D01*
X008236Y012282D01*
X008284Y012330D01*
X008381Y012330D01*
X008429Y012379D01*
X008429Y012427D01*
X008381Y012475D01*
X008284Y012475D01*
X008236Y012427D01*
X008134Y012475D02*
X007989Y012475D01*
X007941Y012427D01*
X007941Y012379D01*
X007989Y012330D01*
X008134Y012330D01*
X007989Y012330D02*
X007941Y012282D01*
X007941Y012233D01*
X007989Y012185D01*
X008134Y012185D01*
X008134Y012475D01*
X008530Y012427D02*
X008579Y012475D01*
X008675Y012475D01*
X008724Y012427D01*
X007680Y012451D02*
X007680Y012402D01*
X007631Y012354D01*
X007535Y012354D01*
X007486Y012305D01*
X007486Y012257D01*
X007535Y012209D01*
X007631Y012209D01*
X007680Y012257D01*
X007680Y012451D02*
X007631Y012499D01*
X007535Y012499D01*
X007486Y012451D01*
X007385Y012499D02*
X007240Y012499D01*
X007192Y012451D01*
X007192Y012257D01*
X007240Y012209D01*
X007385Y012209D01*
X007385Y012499D01*
X007090Y012402D02*
X007090Y012209D01*
X007090Y012354D02*
X006897Y012354D01*
X006897Y012402D02*
X006897Y012209D01*
X006897Y012402D02*
X006994Y012499D01*
X007090Y012402D01*
X006489Y012496D02*
X006295Y012303D01*
X006344Y012351D02*
X006199Y012496D01*
X006199Y012303D02*
X006489Y012303D01*
X006489Y012008D02*
X006199Y012008D01*
X006199Y012202D01*
X005987Y012217D02*
X005793Y012217D01*
X005692Y012217D02*
X005499Y012217D01*
X005398Y012217D02*
X005252Y012217D01*
X005204Y012265D01*
X005204Y012458D01*
X005252Y012507D01*
X005398Y012507D01*
X005398Y012217D01*
X005595Y012362D02*
X005692Y012362D01*
X005692Y012507D02*
X005692Y012217D01*
X005692Y012507D02*
X005499Y012507D01*
X005103Y012362D02*
X004909Y012362D01*
X005006Y012458D02*
X005006Y012265D01*
X004857Y012208D02*
X004663Y012208D01*
X004562Y012208D02*
X004369Y012208D01*
X004267Y012208D02*
X004122Y012208D01*
X004074Y012257D01*
X004074Y012450D01*
X004122Y012499D01*
X004267Y012499D01*
X004267Y012208D01*
X004465Y012354D02*
X004562Y012354D01*
X004562Y012499D02*
X004562Y012208D01*
X004562Y012499D02*
X004369Y012499D01*
X003973Y012354D02*
X003779Y012354D01*
X003747Y012480D02*
X003747Y012190D01*
X003549Y012190D02*
X003549Y012480D01*
X003355Y012480D01*
X003254Y012432D02*
X003254Y012383D01*
X003206Y012335D01*
X003109Y012335D01*
X003061Y012287D01*
X003061Y012238D01*
X003109Y012190D01*
X003206Y012190D01*
X003254Y012238D01*
X003355Y012190D02*
X003549Y012190D01*
X003549Y012335D02*
X003452Y012335D01*
X003650Y012480D02*
X003844Y012480D01*
X003254Y012432D02*
X003206Y012480D01*
X003109Y012480D01*
X003061Y012432D01*
X002960Y012480D02*
X002766Y012480D01*
X002863Y012480D02*
X002863Y012190D01*
X002563Y012140D02*
X002563Y012043D01*
X002514Y011995D01*
X002466Y011995D01*
X002418Y012043D01*
X002418Y012140D01*
X002369Y012188D01*
X002321Y012188D01*
X002272Y012140D01*
X002272Y012043D01*
X002321Y011995D01*
X002272Y011894D02*
X002369Y011797D01*
X002369Y011845D02*
X002369Y011700D01*
X002272Y011700D02*
X002563Y011700D01*
X002563Y011845D01*
X002514Y011894D01*
X002418Y011894D01*
X002369Y011845D01*
X002563Y012140D02*
X002514Y012188D01*
X002563Y012290D02*
X002563Y012483D01*
X002563Y012386D02*
X002272Y012386D01*
X001781Y012331D02*
X001684Y012428D01*
X001684Y012138D01*
X001781Y012138D02*
X001587Y012138D01*
X001486Y012138D02*
X001438Y012138D01*
X001438Y012186D01*
X001486Y012186D01*
X001486Y012138D01*
X001339Y012186D02*
X001339Y012283D01*
X001194Y012283D01*
X001145Y012234D01*
X001145Y012186D01*
X001194Y012138D01*
X001291Y012138D01*
X001339Y012186D01*
X001339Y012283D02*
X001242Y012379D01*
X001145Y012428D01*
X002851Y011497D02*
X002851Y011304D01*
X003044Y011497D01*
X003093Y011497D01*
X003141Y011449D01*
X003141Y011352D01*
X003093Y011304D01*
X003093Y011203D02*
X003141Y011154D01*
X003141Y011009D01*
X002851Y011009D01*
X002851Y011154D01*
X002899Y011203D01*
X003093Y011203D01*
X003141Y010908D02*
X002851Y010908D01*
X003141Y010714D01*
X002851Y010714D01*
X002899Y010613D02*
X002851Y010565D01*
X002851Y010468D01*
X002899Y010420D01*
X003093Y010420D01*
X003141Y010468D01*
X003141Y010565D01*
X003093Y010613D01*
X002996Y010613D02*
X002996Y010516D01*
X002996Y010613D02*
X002899Y010613D01*
X004661Y010612D02*
X004854Y010612D01*
X004757Y010612D02*
X004757Y010321D01*
X004955Y010370D02*
X004955Y010612D01*
X004955Y010370D02*
X005004Y010321D01*
X005100Y010321D01*
X005149Y010370D01*
X005149Y010612D01*
X005250Y010563D02*
X005250Y010370D01*
X005298Y010321D01*
X005395Y010321D01*
X005443Y010370D01*
X005443Y010563D01*
X005395Y010612D01*
X005298Y010612D01*
X005250Y010563D01*
X005545Y010612D02*
X005738Y010321D01*
X005545Y010321D02*
X005738Y010612D01*
X005677Y011269D02*
X005484Y011559D01*
X005383Y011559D02*
X005286Y011559D01*
X005334Y011559D02*
X005334Y011269D01*
X005286Y011269D02*
X005383Y011269D01*
X005484Y011269D02*
X005677Y011559D01*
X006199Y011564D02*
X006199Y011467D01*
X006247Y011419D01*
X006344Y011467D02*
X006344Y011564D01*
X006295Y011612D01*
X006247Y011612D01*
X006199Y011564D01*
X006247Y011714D02*
X006199Y011762D01*
X006199Y011859D01*
X006247Y011907D01*
X006441Y011907D02*
X006489Y011859D01*
X006489Y011762D01*
X006441Y011714D01*
X006247Y011714D01*
X006441Y011612D02*
X006489Y011564D01*
X006489Y011467D01*
X006441Y011419D01*
X006392Y011419D01*
X006344Y011467D01*
X005987Y012217D02*
X005987Y012507D01*
X005186Y011559D02*
X004993Y011269D01*
X004993Y011559D01*
X005186Y011559D02*
X005186Y011269D01*
X004857Y012208D02*
X004857Y012499D01*
D13*
X012702Y010566D02*
X012702Y010330D01*
X013174Y010330D02*
X013174Y010566D01*
X011824Y002342D02*
X011588Y002342D01*
X011588Y001869D02*
X011824Y001869D01*
X011464Y001263D02*
X011227Y001263D01*
X011227Y000791D02*
X011464Y000791D01*
D14*
X011335Y000672D02*
X011335Y000572D01*
X011310Y000547D01*
X011260Y000547D01*
X011235Y000572D01*
X011188Y000547D02*
X011088Y000547D01*
X011138Y000547D02*
X011138Y000697D01*
X011188Y000647D01*
X011235Y000672D02*
X011260Y000697D01*
X011310Y000697D01*
X011335Y000672D01*
X011448Y001626D02*
X011548Y001626D01*
X011448Y001726D01*
X011448Y001751D01*
X011473Y001776D01*
X011523Y001776D01*
X011548Y001751D01*
X011595Y001751D02*
X011620Y001776D01*
X011670Y001776D01*
X011695Y001751D01*
X011695Y001651D01*
X011670Y001626D01*
X011620Y001626D01*
X011595Y001651D01*
D15*
X010818Y003458D02*
X010818Y004428D01*
X009058Y004428D02*
X009058Y003458D01*
X008804Y009041D02*
X007072Y009041D01*
X007072Y011855D01*
X008804Y011855D01*
X008804Y009041D01*
X008646Y011698D02*
X008648Y011706D01*
X008653Y011713D01*
X008660Y011717D01*
X008668Y011718D01*
X008676Y011715D01*
X008682Y011710D01*
X008686Y011702D01*
X008686Y011694D01*
X008682Y011686D01*
X008676Y011681D01*
X008668Y011678D01*
X008660Y011679D01*
X008653Y011683D01*
X008648Y011690D01*
X008646Y011698D01*
X002155Y003606D02*
X002155Y002464D01*
X001918Y002464D01*
X001918Y003606D01*
X001210Y001007D02*
X001210Y000574D01*
X001170Y000574D01*
X001210Y001007D02*
X002903Y001007D01*
X002903Y000574D01*
D16*
X002564Y000659D02*
X002237Y000659D01*
X001810Y000580D02*
X001483Y000580D01*
X001647Y000744D02*
X001647Y000417D01*
M02*
