G75*
G70*
%OFA0B0*%
%FSLAX24Y24*%
%IPPOS*%
%LPD*%
%AMOC8*
5,1,8,0,0,1.08239X$1,22.5*
%
%ADD10C,0.0000*%
D10*
X000174Y000263D02*
X000174Y013537D01*
X013690Y013537D01*
X013690Y000263D01*
X000174Y000263D01*
X000540Y000869D02*
X000542Y000900D01*
X000548Y000931D01*
X000557Y000961D01*
X000570Y000990D01*
X000587Y001017D01*
X000607Y001041D01*
X000629Y001063D01*
X000655Y001082D01*
X000682Y001098D01*
X000711Y001110D01*
X000741Y001119D01*
X000772Y001124D01*
X000804Y001125D01*
X000835Y001122D01*
X000866Y001115D01*
X000896Y001105D01*
X000924Y001091D01*
X000950Y001073D01*
X000974Y001053D01*
X000995Y001029D01*
X001014Y001004D01*
X001029Y000976D01*
X001040Y000947D01*
X001048Y000916D01*
X001052Y000885D01*
X001052Y000853D01*
X001048Y000822D01*
X001040Y000791D01*
X001029Y000762D01*
X001014Y000734D01*
X000995Y000709D01*
X000974Y000685D01*
X000950Y000665D01*
X000924Y000647D01*
X000896Y000633D01*
X000866Y000623D01*
X000835Y000616D01*
X000804Y000613D01*
X000772Y000614D01*
X000741Y000619D01*
X000711Y000628D01*
X000682Y000640D01*
X000655Y000656D01*
X000629Y000675D01*
X000607Y000697D01*
X000587Y000721D01*
X000570Y000748D01*
X000557Y000777D01*
X000548Y000807D01*
X000542Y000838D01*
X000540Y000869D01*
X000348Y004448D02*
X000350Y004473D01*
X000356Y004497D01*
X000365Y004519D01*
X000378Y004540D01*
X000394Y004559D01*
X000413Y004575D01*
X000434Y004588D01*
X000456Y004597D01*
X000480Y004603D01*
X000505Y004605D01*
X000530Y004603D01*
X000554Y004597D01*
X000576Y004588D01*
X000597Y004575D01*
X000616Y004559D01*
X000632Y004540D01*
X000645Y004519D01*
X000654Y004497D01*
X000660Y004473D01*
X000662Y004448D01*
X000660Y004423D01*
X000654Y004399D01*
X000645Y004377D01*
X000632Y004356D01*
X000616Y004337D01*
X000597Y004321D01*
X000576Y004308D01*
X000554Y004299D01*
X000530Y004293D01*
X000505Y004291D01*
X000480Y004293D01*
X000456Y004299D01*
X000434Y004308D01*
X000413Y004321D01*
X000394Y004337D01*
X000378Y004356D01*
X000365Y004377D01*
X000356Y004399D01*
X000350Y004423D01*
X000348Y004448D01*
X001411Y004448D02*
X001413Y004473D01*
X001419Y004497D01*
X001428Y004519D01*
X001441Y004540D01*
X001457Y004559D01*
X001476Y004575D01*
X001497Y004588D01*
X001519Y004597D01*
X001543Y004603D01*
X001568Y004605D01*
X001593Y004603D01*
X001617Y004597D01*
X001639Y004588D01*
X001660Y004575D01*
X001679Y004559D01*
X001695Y004540D01*
X001708Y004519D01*
X001717Y004497D01*
X001723Y004473D01*
X001725Y004448D01*
X001723Y004423D01*
X001717Y004399D01*
X001708Y004377D01*
X001695Y004356D01*
X001679Y004337D01*
X001660Y004321D01*
X001639Y004308D01*
X001617Y004299D01*
X001593Y004293D01*
X001568Y004291D01*
X001543Y004293D01*
X001519Y004299D01*
X001497Y004308D01*
X001476Y004321D01*
X001457Y004337D01*
X001441Y004356D01*
X001428Y004377D01*
X001419Y004399D01*
X001413Y004423D01*
X001411Y004448D01*
X005127Y003113D02*
X005129Y003140D01*
X005135Y003167D01*
X005144Y003193D01*
X005157Y003217D01*
X005173Y003240D01*
X005192Y003259D01*
X005214Y003276D01*
X005238Y003290D01*
X005263Y003300D01*
X005290Y003307D01*
X005317Y003310D01*
X005345Y003309D01*
X005372Y003304D01*
X005398Y003296D01*
X005422Y003284D01*
X005445Y003268D01*
X005466Y003250D01*
X005483Y003229D01*
X005498Y003205D01*
X005509Y003180D01*
X005517Y003154D01*
X005521Y003127D01*
X005521Y003099D01*
X005517Y003072D01*
X005509Y003046D01*
X005498Y003021D01*
X005483Y002997D01*
X005466Y002976D01*
X005445Y002958D01*
X005423Y002942D01*
X005398Y002930D01*
X005372Y002922D01*
X005345Y002917D01*
X005317Y002916D01*
X005290Y002919D01*
X005263Y002926D01*
X005238Y002936D01*
X005214Y002950D01*
X005192Y002967D01*
X005173Y002986D01*
X005157Y003009D01*
X005144Y003033D01*
X005135Y003059D01*
X005129Y003086D01*
X005127Y003113D01*
X008355Y003113D02*
X008357Y003140D01*
X008363Y003167D01*
X008372Y003193D01*
X008385Y003217D01*
X008401Y003240D01*
X008420Y003259D01*
X008442Y003276D01*
X008466Y003290D01*
X008491Y003300D01*
X008518Y003307D01*
X008545Y003310D01*
X008573Y003309D01*
X008600Y003304D01*
X008626Y003296D01*
X008650Y003284D01*
X008673Y003268D01*
X008694Y003250D01*
X008711Y003229D01*
X008726Y003205D01*
X008737Y003180D01*
X008745Y003154D01*
X008749Y003127D01*
X008749Y003099D01*
X008745Y003072D01*
X008737Y003046D01*
X008726Y003021D01*
X008711Y002997D01*
X008694Y002976D01*
X008673Y002958D01*
X008651Y002942D01*
X008626Y002930D01*
X008600Y002922D01*
X008573Y002917D01*
X008545Y002916D01*
X008518Y002919D01*
X008491Y002926D01*
X008466Y002936D01*
X008442Y002950D01*
X008420Y002967D01*
X008401Y002986D01*
X008385Y003009D01*
X008372Y003033D01*
X008363Y003059D01*
X008357Y003086D01*
X008355Y003113D01*
X012182Y005983D02*
X012184Y006014D01*
X012190Y006045D01*
X012199Y006075D01*
X012212Y006104D01*
X012229Y006131D01*
X012249Y006155D01*
X012271Y006177D01*
X012297Y006196D01*
X012324Y006212D01*
X012353Y006224D01*
X012383Y006233D01*
X012414Y006238D01*
X012446Y006239D01*
X012477Y006236D01*
X012508Y006229D01*
X012538Y006219D01*
X012566Y006205D01*
X012592Y006187D01*
X012616Y006167D01*
X012637Y006143D01*
X012656Y006118D01*
X012671Y006090D01*
X012682Y006061D01*
X012690Y006030D01*
X012694Y005999D01*
X012694Y005967D01*
X012690Y005936D01*
X012682Y005905D01*
X012671Y005876D01*
X012656Y005848D01*
X012637Y005823D01*
X012616Y005799D01*
X012592Y005779D01*
X012566Y005761D01*
X012538Y005747D01*
X012508Y005737D01*
X012477Y005730D01*
X012446Y005727D01*
X012414Y005728D01*
X012383Y005733D01*
X012353Y005742D01*
X012324Y005754D01*
X012297Y005770D01*
X012271Y005789D01*
X012249Y005811D01*
X012229Y005835D01*
X012212Y005862D01*
X012199Y005891D01*
X012190Y005921D01*
X012184Y005952D01*
X012182Y005983D01*
X012182Y007893D02*
X012184Y007924D01*
X012190Y007955D01*
X012199Y007985D01*
X012212Y008014D01*
X012229Y008041D01*
X012249Y008065D01*
X012271Y008087D01*
X012297Y008106D01*
X012324Y008122D01*
X012353Y008134D01*
X012383Y008143D01*
X012414Y008148D01*
X012446Y008149D01*
X012477Y008146D01*
X012508Y008139D01*
X012538Y008129D01*
X012566Y008115D01*
X012592Y008097D01*
X012616Y008077D01*
X012637Y008053D01*
X012656Y008028D01*
X012671Y008000D01*
X012682Y007971D01*
X012690Y007940D01*
X012694Y007909D01*
X012694Y007877D01*
X012690Y007846D01*
X012682Y007815D01*
X012671Y007786D01*
X012656Y007758D01*
X012637Y007733D01*
X012616Y007709D01*
X012592Y007689D01*
X012566Y007671D01*
X012538Y007657D01*
X012508Y007647D01*
X012477Y007640D01*
X012446Y007637D01*
X012414Y007638D01*
X012383Y007643D01*
X012353Y007652D01*
X012324Y007664D01*
X012297Y007680D01*
X012271Y007699D01*
X012249Y007721D01*
X012229Y007745D01*
X012212Y007772D01*
X012199Y007801D01*
X012190Y007831D01*
X012184Y007862D01*
X012182Y007893D01*
X012784Y011696D02*
X012786Y011727D01*
X012792Y011758D01*
X012801Y011788D01*
X012814Y011817D01*
X012831Y011844D01*
X012851Y011868D01*
X012873Y011890D01*
X012899Y011909D01*
X012926Y011925D01*
X012955Y011937D01*
X012985Y011946D01*
X013016Y011951D01*
X013048Y011952D01*
X013079Y011949D01*
X013110Y011942D01*
X013140Y011932D01*
X013168Y011918D01*
X013194Y011900D01*
X013218Y011880D01*
X013239Y011856D01*
X013258Y011831D01*
X013273Y011803D01*
X013284Y011774D01*
X013292Y011743D01*
X013296Y011712D01*
X013296Y011680D01*
X013292Y011649D01*
X013284Y011618D01*
X013273Y011589D01*
X013258Y011561D01*
X013239Y011536D01*
X013218Y011512D01*
X013194Y011492D01*
X013168Y011474D01*
X013140Y011460D01*
X013110Y011450D01*
X013079Y011443D01*
X013048Y011440D01*
X013016Y011441D01*
X012985Y011446D01*
X012955Y011455D01*
X012926Y011467D01*
X012899Y011483D01*
X012873Y011502D01*
X012851Y011524D01*
X012831Y011548D01*
X012814Y011575D01*
X012801Y011604D01*
X012792Y011634D01*
X012786Y011665D01*
X012784Y011696D01*
X012989Y012940D02*
X012991Y012971D01*
X012997Y013002D01*
X013006Y013032D01*
X013019Y013061D01*
X013036Y013088D01*
X013056Y013112D01*
X013078Y013134D01*
X013104Y013153D01*
X013131Y013169D01*
X013160Y013181D01*
X013190Y013190D01*
X013221Y013195D01*
X013253Y013196D01*
X013284Y013193D01*
X013315Y013186D01*
X013345Y013176D01*
X013373Y013162D01*
X013399Y013144D01*
X013423Y013124D01*
X013444Y013100D01*
X013463Y013075D01*
X013478Y013047D01*
X013489Y013018D01*
X013497Y012987D01*
X013501Y012956D01*
X013501Y012924D01*
X013497Y012893D01*
X013489Y012862D01*
X013478Y012833D01*
X013463Y012805D01*
X013444Y012780D01*
X013423Y012756D01*
X013399Y012736D01*
X013373Y012718D01*
X013345Y012704D01*
X013315Y012694D01*
X013284Y012687D01*
X013253Y012684D01*
X013221Y012685D01*
X013190Y012690D01*
X013160Y012699D01*
X013131Y012711D01*
X013104Y012727D01*
X013078Y012746D01*
X013056Y012768D01*
X013036Y012792D01*
X013019Y012819D01*
X013006Y012848D01*
X012997Y012878D01*
X012991Y012909D01*
X012989Y012940D01*
X001411Y009448D02*
X001413Y009473D01*
X001419Y009497D01*
X001428Y009519D01*
X001441Y009540D01*
X001457Y009559D01*
X001476Y009575D01*
X001497Y009588D01*
X001519Y009597D01*
X001543Y009603D01*
X001568Y009605D01*
X001593Y009603D01*
X001617Y009597D01*
X001639Y009588D01*
X001660Y009575D01*
X001679Y009559D01*
X001695Y009540D01*
X001708Y009519D01*
X001717Y009497D01*
X001723Y009473D01*
X001725Y009448D01*
X001723Y009423D01*
X001717Y009399D01*
X001708Y009377D01*
X001695Y009356D01*
X001679Y009337D01*
X001660Y009321D01*
X001639Y009308D01*
X001617Y009299D01*
X001593Y009293D01*
X001568Y009291D01*
X001543Y009293D01*
X001519Y009299D01*
X001497Y009308D01*
X001476Y009321D01*
X001457Y009337D01*
X001441Y009356D01*
X001428Y009377D01*
X001419Y009399D01*
X001413Y009423D01*
X001411Y009448D01*
X000348Y009448D02*
X000350Y009473D01*
X000356Y009497D01*
X000365Y009519D01*
X000378Y009540D01*
X000394Y009559D01*
X000413Y009575D01*
X000434Y009588D01*
X000456Y009597D01*
X000480Y009603D01*
X000505Y009605D01*
X000530Y009603D01*
X000554Y009597D01*
X000576Y009588D01*
X000597Y009575D01*
X000616Y009559D01*
X000632Y009540D01*
X000645Y009519D01*
X000654Y009497D01*
X000660Y009473D01*
X000662Y009448D01*
X000660Y009423D01*
X000654Y009399D01*
X000645Y009377D01*
X000632Y009356D01*
X000616Y009337D01*
X000597Y009321D01*
X000576Y009308D01*
X000554Y009299D01*
X000530Y009293D01*
X000505Y009291D01*
X000480Y009293D01*
X000456Y009299D01*
X000434Y009308D01*
X000413Y009321D01*
X000394Y009337D01*
X000378Y009356D01*
X000365Y009377D01*
X000356Y009399D01*
X000350Y009423D01*
X000348Y009448D01*
X000580Y011735D02*
X000582Y011766D01*
X000588Y011797D01*
X000597Y011827D01*
X000610Y011856D01*
X000627Y011883D01*
X000647Y011907D01*
X000669Y011929D01*
X000695Y011948D01*
X000722Y011964D01*
X000751Y011976D01*
X000781Y011985D01*
X000812Y011990D01*
X000844Y011991D01*
X000875Y011988D01*
X000906Y011981D01*
X000936Y011971D01*
X000964Y011957D01*
X000990Y011939D01*
X001014Y011919D01*
X001035Y011895D01*
X001054Y011870D01*
X001069Y011842D01*
X001080Y011813D01*
X001088Y011782D01*
X001092Y011751D01*
X001092Y011719D01*
X001088Y011688D01*
X001080Y011657D01*
X001069Y011628D01*
X001054Y011600D01*
X001035Y011575D01*
X001014Y011551D01*
X000990Y011531D01*
X000964Y011513D01*
X000936Y011499D01*
X000906Y011489D01*
X000875Y011482D01*
X000844Y011479D01*
X000812Y011480D01*
X000781Y011485D01*
X000751Y011494D01*
X000722Y011506D01*
X000695Y011522D01*
X000669Y011541D01*
X000647Y011563D01*
X000627Y011587D01*
X000610Y011614D01*
X000597Y011643D01*
X000588Y011673D01*
X000582Y011704D01*
X000580Y011735D01*
X000351Y012940D02*
X000353Y012971D01*
X000359Y013002D01*
X000368Y013032D01*
X000381Y013061D01*
X000398Y013088D01*
X000418Y013112D01*
X000440Y013134D01*
X000466Y013153D01*
X000493Y013169D01*
X000522Y013181D01*
X000552Y013190D01*
X000583Y013195D01*
X000615Y013196D01*
X000646Y013193D01*
X000677Y013186D01*
X000707Y013176D01*
X000735Y013162D01*
X000761Y013144D01*
X000785Y013124D01*
X000806Y013100D01*
X000825Y013075D01*
X000840Y013047D01*
X000851Y013018D01*
X000859Y012987D01*
X000863Y012956D01*
X000863Y012924D01*
X000859Y012893D01*
X000851Y012862D01*
X000840Y012833D01*
X000825Y012805D01*
X000806Y012780D01*
X000785Y012756D01*
X000761Y012736D01*
X000735Y012718D01*
X000707Y012704D01*
X000677Y012694D01*
X000646Y012687D01*
X000615Y012684D01*
X000583Y012685D01*
X000552Y012690D01*
X000522Y012699D01*
X000493Y012711D01*
X000466Y012727D01*
X000440Y012746D01*
X000418Y012768D01*
X000398Y012792D01*
X000381Y012819D01*
X000368Y012848D01*
X000359Y012878D01*
X000353Y012909D01*
X000351Y012940D01*
X012784Y000909D02*
X012786Y000940D01*
X012792Y000971D01*
X012801Y001001D01*
X012814Y001030D01*
X012831Y001057D01*
X012851Y001081D01*
X012873Y001103D01*
X012899Y001122D01*
X012926Y001138D01*
X012955Y001150D01*
X012985Y001159D01*
X013016Y001164D01*
X013048Y001165D01*
X013079Y001162D01*
X013110Y001155D01*
X013140Y001145D01*
X013168Y001131D01*
X013194Y001113D01*
X013218Y001093D01*
X013239Y001069D01*
X013258Y001044D01*
X013273Y001016D01*
X013284Y000987D01*
X013292Y000956D01*
X013296Y000925D01*
X013296Y000893D01*
X013292Y000862D01*
X013284Y000831D01*
X013273Y000802D01*
X013258Y000774D01*
X013239Y000749D01*
X013218Y000725D01*
X013194Y000705D01*
X013168Y000687D01*
X013140Y000673D01*
X013110Y000663D01*
X013079Y000656D01*
X013048Y000653D01*
X013016Y000654D01*
X012985Y000659D01*
X012955Y000668D01*
X012926Y000680D01*
X012899Y000696D01*
X012873Y000715D01*
X012851Y000737D01*
X012831Y000761D01*
X012814Y000788D01*
X012801Y000817D01*
X012792Y000847D01*
X012786Y000878D01*
X012784Y000909D01*
M02*
